<?xml version="1.0" encoding="UTF-8"?>
<svg id="Layer_2" data-name="Layer 2" xmlns="http://www.w3.org/2000/svg" xmlns:xlink="http://www.w3.org/1999/xlink" viewBox="0 0 70 22">
  <defs>
    <style>
      .cls-1, .cls-2 {
        fill: none;
      }

      .cls-3 {
        fill: #231f20;
      }

      .cls-2 {
        stroke: #231f20;
        stroke-miterlimit: 10;
      }

      .cls-4 {
        clip-path: url(#clippath);
      }
    </style>
    <clipPath id="clippath">
      <rect class="cls-1" width="70" height="22"/>
    </clipPath>
  </defs>
  <g id="Layer_1-2" data-name="Layer 1">
    <g>
      <path class="cls-3" d="M19.2,13.65c0-1.67,1.13-2.97,2.78-2.97,1.82,0,2.78,1.39,2.78,3.4h-4.09c.11.87.59,1.41,1.44,1.41.58,0,.92-.26,1.09-.69h1.47c-.21,1-1.1,1.85-2.55,1.85-1.87,0-2.93-1.31-2.93-2.99ZM20.7,13.05h2.51c-.04-.71-.52-1.21-1.2-1.21-.79,0-1.18.47-1.31,1.21Z"/>
      <path class="cls-3" d="M26.93,11.61h.03c.38-.6.9-.92,1.67-.92,1.17,0,1.95.88,1.95,2.11v3.69h-1.5v-3.47c0-.6-.35-1.03-.98-1.03-.66,0-1.14.53-1.14,1.3v3.2h-1.5v-5.64h1.46v.77Z"/>
      <path class="cls-3" d="M31.35,16.65h1.49c.12.35.44.63,1.13.63.85,0,1.25-.41,1.25-1.18v-.62h-.03c-.33.37-.76.66-1.47.66-1.25,0-2.49-.99-2.49-2.7s1.01-2.76,2.44-2.76c.7,0,1.22.28,1.56.75h.02v-.59h1.44v5.21c0,.79-.25,1.33-.67,1.72-.47.44-1.2.64-2.04.64-1.54,0-2.49-.66-2.64-1.76ZM35.3,13.41c0-.83-.44-1.53-1.34-1.53-.76,0-1.27.59-1.27,1.54s.51,1.52,1.28,1.52c.95,0,1.33-.69,1.33-1.53Z"/>
      <path class="cls-3" d="M37.39,13.65c0-1.67,1.13-2.97,2.78-2.97,1.82,0,2.78,1.39,2.78,3.4h-4.09c.11.87.59,1.41,1.44,1.41.58,0,.92-.26,1.09-.69h1.47c-.21,1-1.1,1.85-2.55,1.85-1.87,0-2.93-1.31-2.93-2.99ZM38.88,13.05h2.51c-.04-.71-.52-1.21-1.2-1.21-.79,0-1.18.47-1.31,1.21Z"/>
      <path class="cls-3" d="M43.67,8.62h1.5v7.87h-1.5v-7.87Z"/>
      <path class="cls-3" d="M45.8,14.66h1.39c.1.65.56.93,1.23.93s1.03-.25,1.03-.65c0-.54-.72-.59-1.49-.75-1.01-.2-2-.47-2-1.71s1.01-1.8,2.3-1.8c1.49,0,2.31.74,2.42,1.87h-1.35c-.07-.6-.45-.83-1.09-.83-.58,0-.97.22-.97.63,0,.48.75.53,1.55.69.95.2,1.99.46,1.99,1.78,0,1.13-.97,1.82-2.38,1.82-1.64,0-2.55-.79-2.64-1.99Z"/>
    </g>
    <g class="cls-4">
      <rect class="cls-2" x="9.5" y="5.5" width="51" height="15"/>
    </g>
  </g>
</svg>