<?xml version="1.0" encoding="UTF-8"?>
<svg id="Layer_2" data-name="Layer 2" xmlns="http://www.w3.org/2000/svg" viewBox="0 0 70.4 100.1">
  <defs>
    <style>
      .cls-1 {
        fill: #231f20;
      }
    </style>
  </defs>
  <g id="Layer_1-2" data-name="Layer 1">
    <g>
      <g>
        <path class="cls-1" d="M1.1,0h5.98v5.37H1.1V0ZM1.1,8.89h5.98v22.58H1.1V8.89Z"/>
        <path class="cls-1" d="M19.49,21.17l-2.6,2.68v7.61h-5.94V0h5.94v17.43l8.01-8.54h7.17l-8.32,8.58,9.33,13.99h-7.26l-6.34-10.3Z"/>
      </g>
      <g>
        <path class="cls-1" d="M6.95,64.64h-.09v2.82H1.1v-31.46h5.98v11.62h.13c1.23-1.89,3.17-3.34,6.29-3.34,5.68,0,9.73,4.88,9.73,11.93s-3.87,11.93-9.55,11.93c-3.17,0-5.41-1.36-6.73-3.48ZM17.16,56.19c0-4.18-1.67-7.08-5.02-7.08-3.78,0-5.19,3.04-5.19,7.22s2.07,6.78,5.41,6.78c3.08,0,4.8-2.55,4.8-6.91Z"/>
        <path class="cls-1" d="M24.9,56.15c0-6.69,4.53-11.88,11.13-11.88,7.26,0,11.13,5.54,11.13,13.6h-16.37c.44,3.48,2.38,5.63,5.76,5.63,2.33,0,3.7-1.06,4.36-2.77h5.9c-.84,4-4.4,7.39-10.21,7.39-7.48,0-11.71-5.24-11.71-11.97ZM30.89,53.73h10.03c-.18-2.86-2.07-4.84-4.8-4.84-3.17,0-4.71,1.89-5.24,4.84Z"/>
        <path class="cls-1" d="M55.79,47.96h.13c1.54-2.42,3.61-3.7,6.69-3.7,4.67,0,7.79,3.52,7.79,8.45v14.74h-5.98v-13.86c0-2.42-1.41-4.14-3.92-4.14-2.64,0-4.58,2.11-4.58,5.19v12.81h-5.99v-22.58h5.85v3.08Z"/>
      </g>
      <g>
        <path class="cls-1" d="M0,88.13c0-6.69,4.53-11.88,11.13-11.88,7.26,0,11.13,5.54,11.13,13.6H5.9c.44,3.48,2.38,5.63,5.77,5.63,2.33,0,3.7-1.06,4.36-2.77h5.9c-.84,4-4.4,7.39-10.21,7.39-7.48,0-11.71-5.24-11.71-11.97ZM5.98,85.71h10.03c-.18-2.86-2.07-4.84-4.8-4.84-3.17,0-4.71,1.89-5.24,4.84Z"/>
        <path class="cls-1" d="M30.8,80.48h.13c1.36-2.55,2.9-3.87,5.54-3.87.66,0,1.06.04,1.41.18v5.24h-.13c-3.92-.4-6.73,1.67-6.73,6.42v11h-5.98v-22.58h5.76v3.61Z"/>
        <path class="cls-1" d="M37.53,93.06h6.42v6.38h-6.42v-6.38Z"/>
      </g>
    </g>
  </g>
</svg>