<?xml version="1.0" encoding="UTF-8"?>
<svg id="Layer_2" data-name="Layer 2" xmlns="http://www.w3.org/2000/svg" viewBox="0 0 137.5 106.13">
  <defs>
    <style>
      .cls-1 {
        fill: #fff;
      }
    </style>
  </defs>
  <g id="Layer_1-2" data-name="Layer 1">
    <g>
      <g>
        <path class="cls-1" d="M1.1,0h5.99v5.37H1.1V0ZM1.1,8.89h5.99v22.58H1.1V8.89Z"/>
        <path class="cls-1" d="M19.49,21.17l-2.6,2.68v7.61h-5.94V0h5.94v17.43l8.01-8.54h7.17l-8.32,8.58,9.33,13.99h-7.26l-6.34-10.3Z"/>
        <path class="cls-1" d="M41.27,20.2c0-7.04,4-11.93,9.64-11.93,3.17,0,5.15,1.45,6.38,3.34h.13V0h5.99v31.46h-5.76v-2.95h-.09c-1.32,2.16-3.56,3.61-6.73,3.61-5.68,0-9.55-4.62-9.55-11.93ZM57.55,20.33c0-4.31-1.41-7.22-5.24-7.22-3.3,0-4.97,2.9-4.97,7.08s1.72,6.91,4.8,6.91c3.56,0,5.41-2.64,5.41-6.78Z"/>
        <path class="cls-1" d="M66.18,20.16c0-6.69,4.53-11.88,11.13-11.88,7.26,0,11.13,5.54,11.13,13.6h-16.37c.44,3.48,2.38,5.63,5.77,5.63,2.33,0,3.7-1.06,4.36-2.77h5.9c-.84,4-4.4,7.39-10.21,7.39-7.48,0-11.71-5.24-11.71-11.97ZM72.16,17.74h10.03c-.18-2.86-2.07-4.84-4.8-4.84-3.17,0-4.71,1.89-5.24,4.84Z"/>
        <path class="cls-1" d="M97.06,11.97h.13c1.54-2.42,3.61-3.7,6.69-3.7,4.66,0,7.79,3.52,7.79,8.45v14.74h-5.99v-13.86c0-2.42-1.41-4.14-3.92-4.14-2.64,0-4.58,2.11-4.58,5.19v12.81h-5.98V8.89h5.85v3.08Z"/>
        <path class="cls-1" d="M123.9,21.17l-2.6,2.68v7.61h-5.94V0h5.94v17.43l8.01-8.54h7.17l-8.32,8.58,9.33,13.99h-7.26l-6.34-10.3Z"/>
      </g>
      <g>
        <path class="cls-1" d="M0,58.21c0-7.04,4-11.93,9.64-11.93,3.17,0,5.15,1.45,6.38,3.34h.13v-11.62h5.99v31.46h-5.76v-2.95h-.09c-1.32,2.16-3.56,3.61-6.73,3.61-5.68,0-9.55-4.62-9.55-11.93ZM16.28,58.35c0-4.31-1.41-7.22-5.24-7.22-3.3,0-4.97,2.9-4.97,7.08s1.72,6.91,4.8,6.91c3.56,0,5.41-2.64,5.41-6.78Z"/>
        <path class="cls-1" d="M39.51,66.97h-.09c-1.14,1.72-2.77,3.04-6.65,3.04-4.62,0-7.88-2.42-7.88-6.91,0-4.97,4.05-6.56,9.07-7.26,3.74-.53,5.46-.84,5.46-2.55s-1.28-2.68-3.79-2.68c-2.82,0-4.18,1.01-4.36,3.17h-5.33c.18-3.96,3.12-7.44,9.73-7.44s9.51,3.04,9.51,8.32v11.49c0,1.72.26,2.73.79,3.12v.22h-5.76c-.35-.44-.57-1.5-.7-2.51ZM39.56,61.52v-3.39c-1.06.62-2.68.97-4.18,1.32-3.12.7-4.67,1.41-4.67,3.52s1.41,2.86,3.52,2.86c3.43,0,5.33-2.11,5.33-4.31Z"/>
        <path class="cls-1" d="M47.26,46.91h3.12v-7.04h5.85v7.04h3.87v3.96h-3.87v11.97c0,1.67.92,2.24,2.25,2.24.75,0,1.76-.04,1.76-.04v4.4s-1.36.09-3.74.09c-2.9,0-6.12-1.14-6.12-5.41v-13.25h-3.12v-3.96Z"/>
        <path class="cls-1" d="M70.58,38.02h5.99v5.37h-5.99v-5.37ZM70.58,46.91h5.99v22.58h-5.99v-22.58Z"/>
        <path class="cls-1" d="M88.97,59.18l-2.6,2.68v7.61h-5.94v-31.46h5.94v17.43l8.01-8.54h7.17l-8.32,8.58,9.33,13.99h-7.26l-6.34-10.3Z"/>
      </g>
      <g>
        <path class="cls-1" d="M0,94.16c0-6.69,4.53-11.88,11.13-11.88,7.26,0,11.13,5.54,11.13,13.6H5.9c.44,3.48,2.38,5.63,5.76,5.63,2.33,0,3.7-1.06,4.36-2.77h5.9c-.84,4-4.4,7.39-10.21,7.39-7.48,0-11.71-5.24-11.71-11.97ZM5.99,91.74h10.03c-.18-2.86-2.07-4.84-4.8-4.84-3.17,0-4.71,1.89-5.24,4.84Z"/>
        <path class="cls-1" d="M30.8,86.51h.13c1.36-2.55,2.91-3.87,5.54-3.87.66,0,1.06.04,1.41.18v5.24h-.13c-3.92-.4-6.73,1.67-6.73,6.42v11h-5.99v-22.58h5.76v3.61Z"/>
        <path class="cls-1" d="M53.72,102.66h-.09v2.82h-5.76v-31.46h5.99v11.62h.13c1.23-1.89,3.17-3.34,6.29-3.34,5.68,0,9.72,4.88,9.72,11.93s-3.87,11.93-9.55,11.93c-3.17,0-5.41-1.36-6.73-3.48ZM63.93,94.21c0-4.18-1.67-7.08-5.02-7.08-3.79,0-5.19,3.04-5.19,7.22s2.07,6.78,5.41,6.78c3.08,0,4.8-2.55,4.8-6.91Z"/>
        <path class="cls-1" d="M71.68,94.16c0-6.69,4.53-11.88,11.13-11.88,7.26,0,11.13,5.54,11.13,13.6h-16.37c.44,3.48,2.38,5.63,5.77,5.63,2.33,0,3.7-1.06,4.36-2.77h5.9c-.84,4-4.4,7.39-10.21,7.39-7.48,0-11.71-5.24-11.71-11.97ZM77.66,91.74h10.03c-.18-2.86-2.07-4.84-4.8-4.84-3.17,0-4.71,1.89-5.24,4.84Z"/>
        <path class="cls-1" d="M102.56,85.98h.13c1.54-2.42,3.61-3.7,6.69-3.7,4.66,0,7.79,3.52,7.79,8.45v14.74h-5.99v-13.86c0-2.42-1.41-4.14-3.92-4.14-2.64,0-4.58,2.11-4.58,5.19v12.81h-5.98v-22.58h5.85v3.08Z"/>
        <path class="cls-1" d="M120.52,99.09h6.42v6.38h-6.42v-6.38Z"/>
      </g>
    </g>
  </g>
</svg>