<?xml version="1.0" encoding="UTF-8"?>
<svg id="Layer_2" data-name="Layer 2" xmlns="http://www.w3.org/2000/svg" viewBox="0 0 80.79 104.11">
  <defs>
    <style>
      .cls-1 {
        fill: #231f20;
      }
    </style>
  </defs>
  <g id="Layer_1-2" data-name="Layer 1">
    <g>
      <g>
        <path class="cls-1" d="M0,0h5.99v5.37H0V0ZM0,8.89h5.99v22.58H0V8.89Z"/>
        <path class="cls-1" d="M18.39,21.17l-2.6,2.68v7.61h-5.94V0h5.94v17.43l8.01-8.54h7.17l-8.32,8.58,9.33,13.99h-7.26l-6.34-10.3Z"/>
      </g>
      <g>
        <path class="cls-1" d="M8.54,57.16l-2.6,2.68v7.61H0v-31.46h5.94v17.43l8.01-8.54h7.17l-8.32,8.58,9.33,13.99h-7.26l-6.34-10.3Z"/>
        <path class="cls-1" d="M21.43,56.19c0-6.73,4.8-11.93,11.79-11.93s11.79,5.19,11.79,11.93-4.8,11.93-11.79,11.93-11.79-5.19-11.79-11.93ZM38.94,56.19c0-4.4-2.07-7.39-5.72-7.39s-5.72,2.99-5.72,7.39,2.02,7.35,5.72,7.35,5.72-2.95,5.72-7.35Z"/>
        <path class="cls-1" d="M47.78,44.88h5.77v3.04h.13c1.23-2.07,3.43-3.65,6.56-3.65,2.86,0,5.15,1.58,6.25,3.96h.09c1.54-2.46,3.92-3.96,6.78-3.96,4.75,0,7.44,3.08,7.44,8.01v15.18h-5.98v-14.17c0-2.55-1.28-3.87-3.48-3.87-2.51,0-4.05,1.94-4.05,4.93v13.11h-5.98v-14.17c0-2.55-1.28-3.87-3.48-3.87-2.42,0-4.05,1.94-4.05,4.93v13.11h-5.99v-22.58Z"/>
      </g>
      <g>
        <path class="cls-1" d="M5.85,83.95h.13c1.54-2.42,3.61-3.7,6.69-3.7,4.67,0,7.79,3.52,7.79,8.45v14.74h-5.98v-13.86c0-2.42-1.41-4.14-3.92-4.14-2.64,0-4.58,2.11-4.58,5.19v12.81H0v-22.58h5.85v3.08Z"/>
        <path class="cls-1" d="M24.16,71.98h5.98v5.37h-5.98v-5.37ZM24.16,80.87h5.98v22.58h-5.98v-22.58Z"/>
        <path class="cls-1" d="M32.91,92.14c0-6.69,4.53-11.88,11.13-11.88,7.26,0,11.13,5.54,11.13,13.6h-16.37c.44,3.48,2.38,5.63,5.76,5.63,2.33,0,3.7-1.06,4.36-2.77h5.9c-.84,4-4.4,7.39-10.21,7.39-7.48,0-11.71-5.24-11.71-11.97ZM38.9,89.72h10.03c-.18-2.86-2.07-4.84-4.8-4.84-3.17,0-4.71,1.89-5.24,4.84Z"/>
        <path class="cls-1" d="M56.23,80.87h3.12v-7.04h5.85v7.04h3.87v3.96h-3.87v11.97c0,1.67.92,2.24,2.24,2.24.75,0,1.76-.04,1.76-.04v4.4s-1.36.09-3.74.09c-2.9,0-6.12-1.14-6.12-5.41v-13.25h-3.12v-3.96Z"/>
        <path class="cls-1" d="M72.25,97.07h6.42v6.38h-6.42v-6.38Z"/>
      </g>
    </g>
  </g>
</svg>