<?xml version="1.0" encoding="UTF-8"?>
<svg id="Layer_2" data-name="Layer 2" xmlns="http://www.w3.org/2000/svg" viewBox="0 0 84.53 75.91">
  <defs>
    <style>
      .cls-1 {
        fill: #231f20;
      }
    </style>
  </defs>
  <g id="Layer_1-2" data-name="Layer 1">
    <g>
      <g>
        <path class="cls-1" d="M12.28,21.17l-2.6,2.68v7.61H3.74V0h5.94v17.43l8.01-8.54h7.17l-8.32,8.58,9.33,13.99h-7.26l-6.34-10.3Z"/>
        <path class="cls-1" d="M25.17,20.2c0-6.73,4.8-11.93,11.79-11.93s11.79,5.19,11.79,11.93-4.8,11.93-11.79,11.93-11.79-5.19-11.79-11.93ZM42.68,20.2c0-4.4-2.07-7.39-5.72-7.39s-5.72,2.99-5.72,7.39,2.02,7.35,5.72,7.35,5.72-2.95,5.72-7.35Z"/>
        <path class="cls-1" d="M51.52,8.89h5.76v3.04h.13c1.23-2.07,3.43-3.65,6.56-3.65,2.86,0,5.15,1.58,6.25,3.96h.09c1.54-2.46,3.92-3.96,6.78-3.96,4.75,0,7.44,3.08,7.44,8.01v15.18h-5.98v-14.17c0-2.55-1.28-3.87-3.48-3.87-2.51,0-4.05,1.94-4.05,4.93v13.11h-5.98v-14.17c0-2.55-1.28-3.87-3.48-3.87-2.42,0-4.05,1.94-4.05,4.93v13.11h-5.98V8.89Z"/>
      </g>
      <g>
        <path class="cls-1" d="M0,75.64v-4.27c2.42-.04,3.74-.26,3.74-2.33v-23.15h5.98v23.46c0,2.64-.53,3.96-1.5,4.93-1.14,1.19-2.9,1.63-4.84,1.63-1.1,0-2.46-.09-3.39-.26ZM3.74,37h5.98v5.37H3.74v-5.37Z"/>
        <path class="cls-1" d="M12.5,57.16c0-6.69,4.53-11.88,11.13-11.88,7.26,0,11.13,5.54,11.13,13.6h-16.37c.44,3.48,2.38,5.63,5.76,5.63,2.33,0,3.7-1.06,4.36-2.77h5.9c-.84,4-4.4,7.39-10.21,7.39-7.48,0-11.71-5.24-11.71-11.97ZM18.48,54.74h10.03c-.18-2.86-2.07-4.84-4.8-4.84-3.17,0-4.71,1.89-5.24,4.84Z"/>
        <path class="cls-1" d="M37,62.09h6.42v6.38h-6.42v-6.38Z"/>
        <path class="cls-1" d="M46.6,62.09h6.43v6.38h-6.43v-6.38Z"/>
        <path class="cls-1" d="M61.56,50.91c1.89-1.36,3.56-2.42,3.56-5.1s-1.98-4.31-4.66-4.31c-3.26,0-5.46,2.07-5.5,5.5h-5.68c.13-5.85,3.96-10.56,11.13-10.56,6.73,0,10.69,4,10.69,9.2,0,4.36-2.29,6.12-4.18,7.57-3.3,2.51-4.58,2.95-4.58,6.07h-5.37c0-5.15,1.89-6.42,4.58-8.36ZM56.45,62.09h6.42v6.38h-6.42v-6.38Z"/>
      </g>
    </g>
  </g>
</svg>