<?xml version="1.0" encoding="UTF-8"?>
<svg id="Layer_2" data-name="Layer 2" xmlns="http://www.w3.org/2000/svg" viewBox="0 0 136.79 100.41">
  <defs>
    <style>
      .cls-1 {
        fill: #231f20;
      }
    </style>
  </defs>
  <g id="Layer_1-2" data-name="Layer 1">
    <g>
      <g>
        <path class="cls-1" d="M1.45,19.67v-5.1l18.04-7.61v5.02l-9.55,3.74c-1.45.57-4.18,1.45-4.18,1.45v.09s2.73.79,4.18,1.32l9.55,3.61v5.1L1.45,19.67Z"/>
        <path class="cls-1" d="M29.88,18.79c3.78-2.99,7.92-5.1,7.92-8.98,0-2.82-1.5-4.71-4.18-4.71-3.04,0-4.84,2.2-4.93,6.12h-5.63c0-6.86,3.52-11.22,10.69-11.22,6.56,0,10.25,4.45,10.25,9.64,0,5.68-3.87,8.36-7.57,10.83-2.33,1.5-5.06,3.43-6.07,5.37h13.91v4.93h-21.65c.22-5.76,3.83-9.29,7.26-11.97Z"/>
        <path class="cls-1" d="M46.11,22.05h5.9c.53,2.95,2.99,4.36,6.12,4.36,3.43,0,5.59-2.46,5.59-5.68,0-3.56-2.42-5.54-5.59-5.54-2.29,0-4.05.88-4.93,1.89h-5.77L50.34.62h17.78v4.97h-13.6l-1.14,6.51h.09c1.32-1.14,3.48-1.89,6.25-1.89,5.32,0,10.21,4,10.21,10.52s-5.06,10.69-11.66,10.69-11.57-3.52-12.15-9.37Z"/>
      </g>
      <g>
        <path class="cls-1" d="M1.45,59.27l9.55-3.74c1.45-.57,4.18-1.45,4.18-1.45v-.09s-2.73-.79-4.18-1.32l-9.55-3.61v-5.1l18.04,7.61v5.1l-18.04,7.61v-5.02Z"/>
        <path class="cls-1" d="M22.04,59.05h5.9c.53,2.95,2.99,4.36,6.12,4.36,3.43,0,5.59-2.46,5.59-5.68,0-3.56-2.42-5.54-5.59-5.54-2.29,0-4.05.88-4.93,1.89h-5.77l2.9-16.46h17.78v4.97h-13.6l-1.14,6.51h.09c1.32-1.14,3.48-1.89,6.25-1.89,5.32,0,10.21,4,10.21,10.52s-5.06,10.69-11.66,10.69-11.57-3.52-12.15-9.37Z"/>
        <path class="cls-1" d="M48.22,52.71c0-9.64,4.97-15.75,12.63-15.75s12.54,6.07,12.54,15.75-4.75,15.75-12.59,15.75-12.59-6.16-12.59-15.75ZM67.15,52.71c0-6.38-1.85-10.65-6.29-10.65s-6.38,4.22-6.38,10.65,1.89,10.65,6.38,10.65,6.29-4.18,6.29-10.65Z"/>
      </g>
      <g>
        <path class="cls-1" d="M0,92.45h5.54c.4,2.6,2.24,3.74,4.93,3.74s4.14-1.01,4.14-2.6c0-2.16-2.86-2.38-5.94-2.99-4.05-.79-8.01-1.89-8.01-6.82s4.05-7.22,9.2-7.22c5.94,0,9.24,2.95,9.68,7.48h-5.41c-.26-2.42-1.8-3.3-4.36-3.3-2.33,0-3.87.88-3.87,2.51,0,1.94,2.99,2.11,6.21,2.77,3.78.79,7.96,1.85,7.96,7.13,0,4.53-3.87,7.26-9.5,7.26-6.56,0-10.21-3.17-10.56-7.96Z"/>
        <path class="cls-1" d="M36.48,97.24h-.09c-1.14,1.72-2.77,3.04-6.65,3.04-4.62,0-7.88-2.42-7.88-6.91,0-4.97,4.05-6.56,9.07-7.26,3.74-.53,5.46-.84,5.46-2.55s-1.28-2.68-3.78-2.68c-2.82,0-4.18,1.01-4.36,3.17h-5.32c.18-3.96,3.12-7.44,9.73-7.44s9.51,3.04,9.51,8.32v11.49c0,1.72.26,2.73.79,3.12v.22h-5.76c-.35-.44-.57-1.5-.7-2.51ZM36.52,91.79v-3.39c-1.06.62-2.68.97-4.18,1.32-3.12.7-4.66,1.41-4.66,3.52s1.41,2.86,3.52,2.86c3.43,0,5.32-2.11,5.32-4.31Z"/>
        <path class="cls-1" d="M45.93,77.18h5.77v3.04h.13c1.23-2.07,3.43-3.65,6.56-3.65,2.86,0,5.15,1.58,6.25,3.96h.09c1.54-2.46,3.92-3.96,6.78-3.96,4.75,0,7.44,3.08,7.44,8.01v15.18h-5.98v-14.17c0-2.55-1.28-3.87-3.48-3.87-2.51,0-4.05,1.94-4.05,4.93v13.11h-5.98v-14.17c0-2.55-1.28-3.87-3.48-3.87-2.42,0-4.05,1.94-4.05,4.93v13.11h-5.99v-22.58Z"/>
        <path class="cls-1" d="M81.53,88.44c0-6.69,4.53-11.88,11.13-11.88,7.26,0,11.13,5.54,11.13,13.6h-16.37c.44,3.48,2.38,5.63,5.77,5.63,2.33,0,3.7-1.06,4.36-2.77h5.9c-.84,4-4.4,7.39-10.21,7.39-7.48,0-11.71-5.24-11.71-11.97ZM87.52,86.02h10.03c-.18-2.86-2.07-4.84-4.8-4.84-3.17,0-4.71,1.89-5.24,4.84Z"/>
        <path class="cls-1" d="M112.42,80.26h.13c1.54-2.42,3.61-3.7,6.69-3.7,4.66,0,7.79,3.52,7.79,8.45v14.74h-5.99v-13.86c0-2.42-1.41-4.14-3.92-4.14-2.64,0-4.58,2.11-4.58,5.19v12.81h-5.98v-22.58h5.85v3.08Z"/>
        <path class="cls-1" d="M130.37,93.37h6.42v6.38h-6.42v-6.38Z"/>
      </g>
    </g>
  </g>
</svg>