<?xml version="1.0" encoding="UTF-8"?>
<svg id="Layer_2" data-name="Layer 2" xmlns="http://www.w3.org/2000/svg" viewBox="0 0 94.12 97.86">
  <defs>
    <style>
      .cls-1 {
        fill: #fff;
      }
    </style>
  </defs>
  <g id="Layer_1-2" data-name="Layer 1">
    <g>
      <g>
        <path class="cls-1" d="M0,15.89h5.54c.4,2.6,2.24,3.74,4.93,3.74s4.14-1.01,4.14-2.6c0-2.16-2.86-2.38-5.94-2.99C4.62,13.25.66,12.15.66,7.22S4.71,0,9.86,0c5.94,0,9.24,2.95,9.68,7.48h-5.41c-.26-2.42-1.8-3.3-4.36-3.3-2.33,0-3.87.88-3.87,2.51,0,1.94,2.99,2.11,6.21,2.77,3.79.79,7.97,1.85,7.97,7.13,0,4.53-3.87,7.26-9.51,7.26-6.56,0-10.21-3.17-10.56-7.96Z"/>
        <path class="cls-1" d="M36.48,20.68h-.09c-1.14,1.72-2.77,3.04-6.64,3.04-4.62,0-7.88-2.42-7.88-6.91,0-4.97,4.05-6.56,9.07-7.26,3.74-.53,5.46-.84,5.46-2.55s-1.28-2.68-3.78-2.68c-2.82,0-4.18,1.01-4.36,3.17h-5.33C23.1,3.52,26.05.04,32.65.04s9.5,3.04,9.5,8.32v11.49c0,1.72.26,2.73.79,3.12v.22h-5.76c-.35-.44-.57-1.5-.7-2.51ZM36.52,15.23v-3.39c-1.06.62-2.68.97-4.18,1.32-3.12.7-4.66,1.41-4.66,3.52s1.41,2.86,3.52,2.86c3.43,0,5.32-2.11,5.32-4.31Z"/>
        <path class="cls-1" d="M43.91.62h6.07l3.61,11.71c.66,2.16,1.01,3.61,1.01,3.61h.09s.31-1.45.97-3.61l3.7-11.71h5.99l-7.88,22.58h-5.72L43.91.62Z"/>
        <path class="cls-1" d="M65.6,11.88c0-6.69,4.53-11.88,11.13-11.88,7.26,0,11.13,5.54,11.13,13.6h-16.37c.44,3.48,2.38,5.63,5.76,5.63,2.33,0,3.7-1.06,4.36-2.77h5.9c-.84,4-4.4,7.39-10.21,7.39-7.48,0-11.71-5.24-11.71-11.97ZM71.59,9.46h10.03c-.18-2.86-2.07-4.84-4.8-4.84-3.17,0-4.71,1.89-5.24,4.84Z"/>
      </g>
      <g>
        <path class="cls-1" d="M.09,37.62h3.12v-7.04h5.85v7.04h3.87v3.96h-3.87v11.97c0,1.67.92,2.24,2.24,2.24.75,0,1.76-.04,1.76-.04v4.4s-1.36.09-3.74.09c-2.9,0-6.12-1.14-6.12-5.41v-13.25H.09v-3.96Z"/>
        <path class="cls-1" d="M22,40.57h.13c1.63-2.38,3.48-3.56,6.56-3.56,4.67,0,7.79,3.52,7.79,8.45v14.74h-5.98v-13.86c0-2.42-1.41-4.14-3.92-4.14-2.64,0-4.58,2.11-4.58,5.19v12.81h-5.99v-31.46h5.99v11.84Z"/>
        <path class="cls-1" d="M39.07,48.89c0-6.69,4.53-11.88,11.13-11.88,7.26,0,11.13,5.54,11.13,13.6h-16.37c.44,3.48,2.38,5.63,5.77,5.63,2.33,0,3.7-1.06,4.36-2.77h5.9c-.84,4-4.4,7.39-10.21,7.39-7.48,0-11.71-5.24-11.71-11.97ZM45.06,46.47h10.03c-.18-2.86-2.07-4.84-4.8-4.84-3.17,0-4.71,1.89-5.24,4.84Z"/>
      </g>
      <g>
        <path class="cls-1" d="M.31,85.93c0-7.04,4-11.93,9.64-11.93,3.17,0,5.15,1.45,6.38,3.34h.13v-11.62h5.99v31.46h-5.76v-2.95h-.09c-1.32,2.16-3.56,3.61-6.73,3.61-5.68,0-9.55-4.62-9.55-11.93ZM16.59,86.07c0-4.31-1.41-7.22-5.24-7.22-3.3,0-4.97,2.9-4.97,7.08s1.72,6.91,4.8,6.91c3.56,0,5.41-2.64,5.41-6.78Z"/>
        <path class="cls-1" d="M39.82,94.69h-.09c-1.14,1.72-2.77,3.04-6.65,3.04-4.62,0-7.88-2.42-7.88-6.91,0-4.97,4.05-6.56,9.07-7.26,3.74-.53,5.46-.84,5.46-2.55s-1.28-2.68-3.79-2.68c-2.82,0-4.18,1.01-4.36,3.17h-5.33c.18-3.96,3.12-7.44,9.73-7.44s9.51,3.04,9.51,8.32v11.49c0,1.72.26,2.73.79,3.12v.22h-5.76c-.35-.44-.57-1.5-.7-2.51ZM39.87,89.23v-3.39c-1.06.62-2.68.97-4.18,1.32-3.12.7-4.67,1.41-4.67,3.52s1.41,2.86,3.52,2.86c3.43,0,5.33-2.11,5.33-4.31Z"/>
        <path class="cls-1" d="M47.56,74.62h3.12v-7.04h5.85v7.04h3.87v3.96h-3.87v11.97c0,1.67.92,2.24,2.25,2.24.75,0,1.76-.04,1.76-.04v4.4s-1.36.09-3.74.09c-2.9,0-6.12-1.14-6.12-5.41v-13.25h-3.12v-3.96Z"/>
        <path class="cls-1" d="M62.21,85.89c0-6.69,4.53-11.88,11.13-11.88,7.26,0,11.13,5.54,11.13,13.6h-16.37c.44,3.48,2.38,5.63,5.77,5.63,2.33,0,3.7-1.06,4.36-2.77h5.9c-.84,4-4.4,7.39-10.21,7.39-7.48,0-11.71-5.24-11.71-11.97ZM68.2,83.47h10.03c-.18-2.86-2.07-4.84-4.8-4.84-3.17,0-4.71,1.89-5.24,4.84Z"/>
        <path class="cls-1" d="M87.69,90.82h6.42v6.38h-6.42v-6.38ZM87.78,72.69v-6.95h6.25v6.95l-1.67,15.31h-2.9l-1.67-15.31Z"/>
      </g>
    </g>
  </g>
</svg>