<?xml version="1.0" encoding="UTF-8"?>
<svg id="Layer_2" data-name="Layer 2" xmlns="http://www.w3.org/2000/svg" xmlns:xlink="http://www.w3.org/1999/xlink" viewBox="0 0 345.86 343.5">
  <defs>
    <style>
      .cls-1, .cls-2, .cls-3 {
        fill: none;
      }

      .cls-4 {
        fill: #231f20;
      }

      .cls-2 {
        stroke-miterlimit: 10;
      }

      .cls-2, .cls-3 {
        stroke: #231f20;
      }

      .cls-5 {
        fill: #fff;
      }

      .cls-6 {
        clip-path: url(#clippath);
      }

      .cls-7 {
        fill: #f37322;
      }
    </style>
    <clipPath id="clippath">
      <rect class="cls-1" width="345.86" height="343.5"/>
    </clipPath>
  </defs>
  <g id="Layer_1-2" data-name="Layer 1">
    <g>
      <rect class="cls-5" x="9.5" y="4" width="335.86" height="339"/>
      <g class="cls-6">
        <rect class="cls-2" x="9.5" y="4" width="335.86" height="339"/>
      </g>
      <rect class="cls-7" x="9.36" y="4" width="77.68" height="34.5"/>
      <rect class="cls-3" x="9.36" y="4" width="77.68" height="34.5"/>
      <g>
        <path class="cls-4" d="M24.78,15.74h4.05l1.86,7.14c.33,1.26.69,2.88.69,2.88h.06s.33-1.65.66-2.91l1.92-7.11h3.48l2.01,7.11c.33,1.29.72,2.91.72,2.91h.06s.36-1.62.69-2.88l1.95-7.14h3.96l-4.59,15.39h-3.72l-2.04-7.56c-.33-1.23-.69-2.67-.69-2.67h-.06s-.39,1.44-.72,2.67l-2.1,7.56h-3.69l-4.5-15.39Z"/>
        <path class="cls-4" d="M57.12,29.42h-.06c-.78,1.17-1.89,2.07-4.53,2.07-3.15,0-5.37-1.65-5.37-4.71,0-3.39,2.76-4.47,6.18-4.95,2.55-.36,3.72-.57,3.72-1.74s-.87-1.83-2.58-1.83c-1.92,0-2.85.69-2.97,2.16h-3.63c.12-2.7,2.13-5.07,6.63-5.07s6.48,2.07,6.48,5.67v7.83c0,1.17.18,1.86.54,2.13v.15h-3.93c-.24-.3-.39-1.02-.48-1.71ZM57.15,25.7v-2.31c-.72.42-1.83.66-2.85.9-2.13.48-3.18.96-3.18,2.4s.96,1.95,2.4,1.95c2.34,0,3.63-1.44,3.63-2.94Z"/>
        <path class="cls-4" d="M62.4,15.74h2.13v-4.8h3.99v4.8h2.64v2.7h-2.64v8.16c0,1.14.63,1.53,1.53,1.53.51,0,1.2-.03,1.2-.03v3s-.93.06-2.55.06c-1.98,0-4.17-.78-4.17-3.69v-9.03h-2.13v-2.7Z"/>
      </g>
      <g>
        <path class="cls-4" d="M37.87,66.91c0-3.04,1.73-5.15,4.16-5.15,1.37,0,2.22.63,2.75,1.44h.06v-5.02h2.58v13.58h-2.49v-1.27h-.04c-.57.93-1.54,1.56-2.91,1.56-2.45,0-4.12-2-4.12-5.15ZM44.9,66.97c0-1.86-.61-3.12-2.26-3.12-1.42,0-2.15,1.25-2.15,3.06s.74,2.98,2.07,2.98c1.54,0,2.34-1.14,2.34-2.93Z"/>
        <path class="cls-4" d="M48.63,66.89c0-2.89,1.96-5.13,4.81-5.13,3.13,0,4.81,2.39,4.81,5.87h-7.07c.19,1.5,1.03,2.43,2.49,2.43,1.01,0,1.6-.46,1.88-1.2h2.55c-.36,1.73-1.9,3.19-4.41,3.19-3.23,0-5.05-2.26-5.05-5.17ZM51.21,65.85h4.33c-.08-1.24-.89-2.09-2.07-2.09-1.37,0-2.03.82-2.26,2.09Z"/>
        <path class="cls-4" d="M65.16,63.36h.06c.67-1.04,1.56-1.6,2.89-1.6,2.01,0,3.36,1.52,3.36,3.65v6.36h-2.58v-5.98c0-1.04-.61-1.79-1.69-1.79-1.14,0-1.98.91-1.98,2.24v5.53h-2.58v-9.75h2.53v1.33Z"/>
        <path class="cls-4" d="M73.06,58.19h2.58v2.32h-2.58v-2.32ZM73.06,62.03h2.58v9.75h-2.58v-9.75Z"/>
        <path class="cls-4" d="M76.84,66.89c0-2.89,1.96-5.13,4.81-5.13,3.13,0,4.81,2.39,4.81,5.87h-7.07c.19,1.5,1.03,2.43,2.49,2.43,1.01,0,1.6-.46,1.88-1.2h2.55c-.36,1.73-1.9,3.19-4.41,3.19-3.23,0-5.05-2.26-5.05-5.17ZM79.43,65.85h4.33c-.08-1.24-.89-2.09-2.07-2.09-1.37,0-2.03.82-2.26,2.09Z"/>
        <path class="cls-4" d="M93.81,71.77v-1.14h-.06c-.67.89-1.42,1.41-2.79,1.41-2.17,0-3.38-1.39-3.38-3.51v-6.5h2.56v6.06c0,1.14.51,1.77,1.61,1.77,1.22,0,1.96-.91,1.96-2.2v-5.62h2.58v9.75h-2.49Z"/>
        <path class="cls-4" d="M97.21,62.03h2.56l1.18,4.52c.21.8.44,1.82.44,1.82h.04s.21-1.04.42-1.84l1.22-4.5h2.2l1.27,4.5c.21.82.46,1.84.46,1.84h.04s.23-1.03.44-1.82l1.23-4.52h2.51l-2.91,9.75h-2.36l-1.29-4.79c-.21-.78-.44-1.69-.44-1.69h-.04s-.25.91-.46,1.69l-1.33,4.79h-2.34l-2.85-9.75Z"/>
        <path class="cls-4" d="M111.37,66.89c0-2.89,1.96-5.13,4.81-5.13,3.13,0,4.81,2.39,4.81,5.87h-7.07c.19,1.5,1.03,2.43,2.49,2.43,1.01,0,1.6-.46,1.88-1.2h2.55c-.36,1.73-1.9,3.19-4.41,3.19-3.23,0-5.05-2.26-5.05-5.17ZM113.95,65.85h4.33c-.08-1.24-.89-2.09-2.07-2.09-1.37,0-2.03.82-2.26,2.09Z"/>
        <path class="cls-4" d="M124.57,62.03h2.62l1.56,5.05c.29.93.44,1.56.44,1.56h.04s.13-.63.42-1.56l1.6-5.05h2.58l-3.4,9.75h-2.47l-3.38-9.75Z"/>
        <path class="cls-4" d="M133.96,66.89c0-2.89,1.96-5.13,4.81-5.13,3.13,0,4.81,2.39,4.81,5.87h-7.07c.19,1.5,1.03,2.43,2.49,2.43,1.01,0,1.6-.46,1.88-1.2h2.55c-.36,1.73-1.9,3.19-4.41,3.19-3.23,0-5.05-2.26-5.05-5.17ZM136.54,65.85h4.33c-.08-1.24-.89-2.09-2.07-2.09-1.37,0-2.03.82-2.26,2.09Z"/>
        <path class="cls-4" d="M147.26,63.59h.06c.59-1.1,1.25-1.67,2.39-1.67.28,0,.46.02.61.08v2.26h-.06c-1.69-.17-2.91.72-2.91,2.77v4.75h-2.58v-9.75h2.49v1.56Z"/>
        <path class="cls-4" d="M153.96,63.36h.06c.67-1.04,1.56-1.6,2.89-1.6,2.01,0,3.36,1.52,3.36,3.65v6.36h-2.58v-5.98c0-1.04-.61-1.79-1.69-1.79-1.14,0-1.98.91-1.98,2.24v5.53h-2.58v-9.75h2.53v1.33Z"/>
        <path class="cls-4" d="M161.87,58.19h2.58v2.32h-2.58v-2.32ZM161.87,62.03h2.58v9.75h-2.58v-9.75Z"/>
        <path class="cls-4" d="M165.52,68.62h2.39c.17,1.12.97,1.61,2.13,1.61s1.79-.44,1.79-1.12c0-.93-1.23-1.03-2.56-1.29-1.75-.34-3.46-.82-3.46-2.94s1.75-3.12,3.97-3.12c2.56,0,3.99,1.27,4.18,3.23h-2.34c-.11-1.04-.78-1.42-1.88-1.42-1.01,0-1.67.38-1.67,1.08,0,.84,1.29.91,2.68,1.2,1.63.34,3.44.8,3.44,3.08,0,1.96-1.67,3.13-4.1,3.13-2.83,0-4.41-1.37-4.56-3.44Z"/>
        <path class="cls-4" d="M174.73,68.62h2.39c.17,1.12.97,1.61,2.13,1.61s1.79-.44,1.79-1.12c0-.93-1.24-1.03-2.57-1.29-1.75-.34-3.46-.82-3.46-2.94s1.75-3.12,3.97-3.12c2.56,0,3.99,1.27,4.18,3.23h-2.34c-.12-1.04-.78-1.42-1.88-1.42-1.01,0-1.67.38-1.67,1.08,0,.84,1.29.91,2.68,1.2,1.63.34,3.44.8,3.44,3.08,0,1.96-1.67,3.13-4.1,3.13-2.83,0-4.41-1.37-4.56-3.44Z"/>
        <path class="cls-4" d="M190.46,70.69h-.04c-.49.74-1.2,1.31-2.87,1.31-2,0-3.4-1.04-3.4-2.98,0-2.15,1.75-2.83,3.91-3.13,1.62-.23,2.36-.36,2.36-1.1,0-.7-.55-1.16-1.63-1.16-1.22,0-1.8.44-1.88,1.37h-2.3c.08-1.71,1.35-3.21,4.2-3.21s4.1,1.31,4.1,3.59v4.96c0,.74.11,1.18.34,1.35v.09h-2.49c-.15-.19-.25-.65-.3-1.08ZM190.48,68.34v-1.46c-.46.27-1.16.42-1.8.57-1.35.3-2.01.61-2.01,1.52s.61,1.23,1.52,1.23c1.48,0,2.3-.91,2.3-1.86Z"/>
        <path class="cls-4" d="M194.28,72.06h2.57c.21.61.76,1.08,1.96,1.08,1.46,0,2.17-.7,2.17-2.03v-1.06h-.06c-.57.65-1.31,1.14-2.55,1.14-2.17,0-4.29-1.71-4.29-4.65s1.75-4.77,4.22-4.77c1.22,0,2.11.48,2.7,1.29h.04v-1.03h2.49v9c0,1.37-.44,2.3-1.16,2.96-.82.76-2.07,1.1-3.51,1.1-2.66,0-4.29-1.14-4.56-3.04ZM201.1,66.47c0-1.42-.76-2.64-2.32-2.64-1.31,0-2.18,1.03-2.18,2.66s.87,2.62,2.2,2.62c1.63,0,2.3-1.2,2.3-2.64Z"/>
        <path class="cls-4" d="M204.71,66.89c0-2.89,1.96-5.13,4.81-5.13,3.13,0,4.81,2.39,4.81,5.87h-7.07c.19,1.5,1.03,2.43,2.49,2.43,1.01,0,1.6-.46,1.88-1.2h2.55c-.36,1.73-1.9,3.19-4.41,3.19-3.23,0-5.05-2.26-5.05-5.17ZM207.3,65.85h4.33c-.08-1.24-.89-2.09-2.07-2.09-1.37,0-2.03.82-2.26,2.09Z"/>
        <path class="cls-4" d="M218.71,58.19h2.58v2.32h-2.58v-2.32ZM218.71,62.03h2.58v9.75h-2.58v-9.75Z"/>
        <path class="cls-4" d="M222.36,68.62h2.39c.17,1.12.97,1.61,2.13,1.61s1.79-.44,1.79-1.12c0-.93-1.24-1.03-2.57-1.29-1.75-.34-3.46-.82-3.46-2.94s1.75-3.12,3.97-3.12c2.56,0,3.99,1.27,4.18,3.23h-2.34c-.11-1.04-.78-1.42-1.88-1.42-1.01,0-1.67.38-1.67,1.08,0,.84,1.29.91,2.68,1.2,1.63.34,3.44.8,3.44,3.08,0,1.96-1.67,3.13-4.1,3.13-2.83,0-4.41-1.37-4.56-3.44Z"/>
        <path class="cls-4" d="M234.9,66.89c0-2.89,1.96-5.13,4.81-5.13,3.13,0,4.81,2.39,4.81,5.87h-7.07c.19,1.5,1.03,2.43,2.49,2.43,1.01,0,1.6-.46,1.88-1.2h2.55c-.36,1.73-1.9,3.19-4.41,3.19-3.23,0-5.05-2.26-5.05-5.17ZM237.48,65.85h4.33c-.08-1.24-.89-2.09-2.07-2.09-1.37,0-2.03.82-2.26,2.09Z"/>
        <path class="cls-4" d="M245.24,66.89c0-2.89,1.96-5.13,4.81-5.13,3.13,0,4.81,2.39,4.81,5.87h-7.07c.19,1.5,1.03,2.43,2.49,2.43,1.01,0,1.6-.46,1.88-1.2h2.55c-.36,1.73-1.9,3.19-4.41,3.19-3.23,0-5.05-2.26-5.05-5.17ZM247.82,65.85h4.33c-.08-1.24-.89-2.09-2.07-2.09-1.37,0-2.03.82-2.26,2.09Z"/>
        <path class="cls-4" d="M258.57,63.36h.06c.67-1.04,1.56-1.6,2.89-1.6,2.01,0,3.36,1.52,3.36,3.65v6.36h-2.58v-5.98c0-1.04-.61-1.79-1.69-1.79-1.14,0-1.98.91-1.98,2.24v5.53h-2.58v-9.75h2.53v1.33Z"/>
        <path class="cls-4" d="M269.67,62.03h2.49v1.22h.06c.63-.86,1.54-1.48,2.87-1.48,2.58,0,4.24,2.11,4.24,5.15s-1.71,5.15-4.22,5.15c-1.37,0-2.26-.55-2.81-1.39h-.04v4.29h-2.58v-12.94ZM276.7,66.99c0-1.84-.65-3.13-2.24-3.13s-2.26,1.39-2.26,3.13.82,2.93,2.36,2.93c1.31,0,2.15-1.08,2.15-2.93Z"/>
        <path class="cls-4" d="M280.05,66.91c0-2.91,2.07-5.15,5.09-5.15s5.09,2.24,5.09,5.15-2.07,5.15-5.09,5.15-5.09-2.24-5.09-5.15ZM287.61,66.91c0-1.9-.89-3.19-2.47-3.19s-2.47,1.29-2.47,3.19.88,3.17,2.47,3.17,2.47-1.27,2.47-3.17Z"/>
        <path class="cls-4" d="M291.43,62.03h2.49v1.22h.06c.63-.86,1.54-1.48,2.87-1.48,2.58,0,4.24,2.11,4.24,5.15s-1.71,5.15-4.22,5.15c-1.37,0-2.26-.55-2.81-1.39h-.04v4.29h-2.58v-12.94ZM298.46,66.99c0-1.84-.65-3.13-2.24-3.13s-2.26,1.39-2.26,3.13.82,2.93,2.36,2.93c1.31,0,2.15-1.08,2.15-2.93Z"/>
      </g>
      <g>
        <path class="cls-4" d="M44.5,96.78v-1.14h-.06c-.67.89-1.42,1.41-2.79,1.41-2.17,0-3.38-1.39-3.38-3.51v-6.5h2.56v6.06c0,1.14.51,1.77,1.61,1.77,1.22,0,1.96-.91,1.96-2.2v-5.62h2.58v9.75h-2.49Z"/>
        <path class="cls-4" d="M48.67,87.03h2.49v1.22h.06c.63-.86,1.54-1.48,2.87-1.48,2.58,0,4.24,2.11,4.24,5.15s-1.71,5.15-4.22,5.15c-1.37,0-2.26-.55-2.81-1.39h-.04v4.29h-2.58v-12.94ZM55.7,91.99c0-1.84-.65-3.13-2.24-3.13s-2.26,1.39-2.26,3.13.82,2.93,2.36,2.93c1.31,0,2.15-1.08,2.15-2.93Z"/>
        <path class="cls-4" d="M62.44,97.06h2.56c.21.61.76,1.08,1.96,1.08,1.46,0,2.17-.7,2.17-2.03v-1.06h-.06c-.57.65-1.31,1.14-2.55,1.14-2.17,0-4.29-1.71-4.29-4.65s1.75-4.77,4.22-4.77c1.22,0,2.11.48,2.7,1.29h.04v-1.03h2.49v9c0,1.37-.44,2.3-1.16,2.96-.82.76-2.07,1.1-3.51,1.1-2.66,0-4.29-1.14-4.56-3.04ZM69.26,91.48c0-1.42-.76-2.64-2.32-2.64-1.31,0-2.18,1.03-2.18,2.66s.87,2.62,2.2,2.62c1.63,0,2.3-1.2,2.3-2.64Z"/>
        <path class="cls-4" d="M79.18,95.7h-.04c-.49.74-1.2,1.31-2.87,1.31-1.99,0-3.4-1.04-3.4-2.98,0-2.15,1.75-2.83,3.91-3.13,1.61-.23,2.36-.36,2.36-1.1,0-.7-.55-1.16-1.63-1.16-1.22,0-1.8.44-1.88,1.37h-2.3c.08-1.71,1.35-3.21,4.2-3.21s4.1,1.31,4.1,3.59v4.96c0,.74.11,1.18.34,1.35v.09h-2.49c-.15-.19-.25-.65-.3-1.08ZM79.2,93.34v-1.46c-.46.27-1.16.42-1.8.57-1.35.3-2.01.61-2.01,1.52s.61,1.23,1.52,1.23c1.48,0,2.3-.91,2.3-1.86Z"/>
        <path class="cls-4" d="M83.3,83.2h2.58v13.58h-2.58v-13.58Z"/>
        <path class="cls-4" d="M87.12,91.9c0-2.89,1.96-5.13,4.81-5.13,3.13,0,4.81,2.39,4.81,5.87h-7.07c.19,1.5,1.03,2.43,2.49,2.43,1.01,0,1.6-.46,1.88-1.2h2.55c-.36,1.73-1.9,3.19-4.41,3.19-3.23,0-5.05-2.26-5.05-5.17ZM89.71,90.85h4.33c-.08-1.24-.89-2.09-2.07-2.09-1.37,0-2.03.82-2.26,2.09Z"/>
        <path class="cls-4" d="M100.42,88.59h.06c.59-1.1,1.25-1.67,2.39-1.67.29,0,.46.02.61.08v2.26h-.06c-1.69-.17-2.91.72-2.91,2.77v4.75h-2.58v-9.75h2.49v1.56Z"/>
        <path class="cls-4" d="M104.6,83.2h2.58v2.32h-2.58v-2.32ZM104.6,87.03h2.58v9.75h-2.58v-9.75Z"/>
        <path class="cls-4" d="M108.38,91.9c0-2.89,1.96-5.13,4.81-5.13,3.13,0,4.81,2.39,4.81,5.87h-7.07c.19,1.5,1.03,2.43,2.49,2.43,1.01,0,1.6-.46,1.88-1.2h2.55c-.36,1.73-1.9,3.19-4.41,3.19-3.23,0-5.05-2.26-5.05-5.17ZM110.97,90.85h4.33c-.08-1.24-.89-2.09-2.07-2.09-1.37,0-2.03.82-2.26,2.09Z"/>
        <path class="cls-4" d="M121.91,91.92c0-3.04,1.73-5.15,4.16-5.15,1.37,0,2.22.63,2.75,1.44h.06v-5.02h2.58v13.58h-2.49v-1.27h-.04c-.57.93-1.54,1.56-2.91,1.56-2.45,0-4.12-2-4.12-5.15ZM128.94,91.97c0-1.86-.61-3.12-2.26-3.12-1.42,0-2.15,1.25-2.15,3.06s.74,2.98,2.07,2.98c1.54,0,2.34-1.14,2.34-2.93Z"/>
        <path class="cls-4" d="M133.14,83.2h2.58v2.32h-2.58v-2.32ZM133.14,87.03h2.58v9.75h-2.58v-9.75Z"/>
        <path class="cls-4" d="M136.92,91.9c0-2.89,1.96-5.13,4.81-5.13,3.13,0,4.81,2.39,4.81,5.87h-7.07c.19,1.5,1.03,2.43,2.49,2.43,1.01,0,1.6-.46,1.88-1.2h2.55c-.36,1.73-1.9,3.19-4.41,3.19-3.23,0-5.05-2.26-5.05-5.17ZM139.5,90.85h4.33c-.08-1.24-.89-2.09-2.07-2.09-1.37,0-2.03.82-2.26,2.09Z"/>
        <path class="cls-4" d="M149.31,99.88v-1.84c1.04-.02,1.61-.11,1.61-1.01v-9.99h2.58v10.12c0,1.14-.23,1.71-.65,2.13-.49.51-1.25.7-2.09.7-.48,0-1.06-.04-1.46-.11ZM150.92,83.2h2.58v2.32h-2.58v-2.32Z"/>
        <path class="cls-4" d="M154.7,91.92c0-2.91,2.07-5.15,5.09-5.15s5.09,2.24,5.09,5.15-2.07,5.15-5.09,5.15-5.09-2.24-5.09-5.15ZM162.27,91.92c0-1.9-.89-3.19-2.47-3.19s-2.47,1.29-2.47,3.19.87,3.17,2.47,3.17,2.47-1.27,2.47-3.17Z"/>
        <path class="cls-4" d="M168.61,88.36h.06c.67-1.04,1.56-1.6,2.89-1.6,2.01,0,3.36,1.52,3.36,3.65v6.36h-2.58v-5.98c0-1.04-.61-1.79-1.69-1.79-1.14,0-1.98.91-1.98,2.24v5.53h-2.58v-9.75h2.53v1.33Z"/>
        <path class="cls-4" d="M176.25,97.06h2.56c.21.61.76,1.08,1.96,1.08,1.46,0,2.17-.7,2.17-2.03v-1.06h-.06c-.57.65-1.31,1.14-2.54,1.14-2.17,0-4.29-1.71-4.29-4.65s1.75-4.77,4.22-4.77c1.22,0,2.11.48,2.7,1.29h.04v-1.03h2.49v9c0,1.37-.44,2.3-1.16,2.96-.82.76-2.07,1.1-3.51,1.1-2.66,0-4.29-1.14-4.56-3.04ZM183.07,91.48c0-1.42-.76-2.64-2.32-2.64-1.31,0-2.18,1.03-2.18,2.66s.87,2.62,2.2,2.62c1.63,0,2.3-1.2,2.3-2.64Z"/>
        <path class="cls-4" d="M186.68,91.9c0-2.89,1.96-5.13,4.81-5.13,3.13,0,4.81,2.39,4.81,5.87h-7.07c.19,1.5,1.03,2.43,2.49,2.43,1.01,0,1.6-.46,1.88-1.2h2.55c-.36,1.73-1.9,3.19-4.41,3.19-3.23,0-5.05-2.26-5.05-5.17ZM189.26,90.85h4.33c-.08-1.24-.89-2.09-2.07-2.09-1.37,0-2.03.82-2.26,2.09Z"/>
        <path class="cls-4" d="M204.37,92.33l-1.12,1.16v3.29h-2.56v-13.58h2.56v7.52l3.46-3.68h3.1l-3.59,3.7,4.03,6.04h-3.13l-2.74-4.45Z"/>
        <path class="cls-4" d="M216.93,96.78v-1.14h-.06c-.67.89-1.43,1.41-2.79,1.41-2.17,0-3.38-1.39-3.38-3.51v-6.5h2.57v6.06c0,1.14.51,1.77,1.61,1.77,1.22,0,1.96-.91,1.96-2.2v-5.62h2.58v9.75h-2.49Z"/>
        <path class="cls-4" d="M223.62,88.36h.06c.67-1.04,1.56-1.6,2.89-1.6,2.01,0,3.36,1.52,3.36,3.65v6.36h-2.58v-5.98c0-1.04-.61-1.79-1.69-1.79-1.14,0-1.98.91-1.98,2.24v5.53h-2.58v-9.75h2.53v1.33Z"/>
        <path class="cls-4" d="M230.91,93.63h2.39c.17,1.12.97,1.61,2.13,1.61s1.79-.44,1.79-1.12c0-.93-1.23-1.03-2.56-1.29-1.75-.34-3.46-.82-3.46-2.94s1.75-3.12,3.97-3.12c2.56,0,3.99,1.27,4.18,3.23h-2.34c-.11-1.04-.78-1.42-1.88-1.42-1.01,0-1.67.38-1.67,1.08,0,.84,1.29.91,2.68,1.2,1.63.34,3.44.8,3.44,3.08,0,1.96-1.67,3.13-4.1,3.13-2.83,0-4.41-1.37-4.56-3.44Z"/>
        <path class="cls-4" d="M239.99,87.03h1.35v-3.04h2.53v3.04h1.67v1.71h-1.67v5.17c0,.72.4.97.97.97.32,0,.76-.02.76-.02v1.9s-.59.04-1.61.04c-1.25,0-2.64-.49-2.64-2.34v-5.72h-1.35v-1.71Z"/>
        <path class="cls-4" d="M246.32,91.9c0-2.89,1.96-5.13,4.81-5.13,3.13,0,4.81,2.39,4.81,5.87h-7.07c.19,1.5,1.03,2.43,2.49,2.43,1.01,0,1.6-.46,1.88-1.2h2.54c-.36,1.73-1.9,3.19-4.41,3.19-3.23,0-5.05-2.26-5.05-5.17ZM248.9,90.85h4.33c-.08-1.24-.89-2.09-2.07-2.09-1.37,0-2.03.82-2.26,2.09Z"/>
        <path class="cls-4" d="M259.66,88.36h.06c.67-1.04,1.56-1.6,2.89-1.6,2.01,0,3.36,1.52,3.36,3.65v6.36h-2.58v-5.98c0-1.04-.61-1.79-1.69-1.79-1.14,0-1.98.91-1.98,2.24v5.53h-2.58v-9.75h2.53v1.33Z"/>
        <path class="cls-4" d="M273.39,95.7h-.04c-.49.74-1.2,1.31-2.87,1.31-2,0-3.4-1.04-3.4-2.98,0-2.15,1.75-2.83,3.91-3.13,1.61-.23,2.36-.36,2.36-1.1,0-.7-.55-1.16-1.63-1.16-1.22,0-1.8.44-1.88,1.37h-2.3c.08-1.71,1.35-3.21,4.2-3.21s4.1,1.31,4.1,3.59v4.96c0,.74.11,1.18.34,1.35v.09h-2.49c-.15-.19-.25-.65-.3-1.08ZM273.41,93.34v-1.46c-.46.27-1.16.42-1.8.57-1.35.3-2.01.61-2.01,1.52s.61,1.23,1.52,1.23c1.48,0,2.3-.91,2.3-1.86Z"/>
        <path class="cls-4" d="M283.31,95.7h-.04c-.49.74-1.2,1.31-2.87,1.31-2,0-3.4-1.04-3.4-2.98,0-2.15,1.75-2.83,3.91-3.13,1.62-.23,2.36-.36,2.36-1.1,0-.7-.55-1.16-1.63-1.16-1.22,0-1.8.44-1.88,1.37h-2.3c.08-1.71,1.35-3.21,4.2-3.21s4.1,1.31,4.1,3.59v4.96c0,.74.11,1.18.34,1.35v.09h-2.49c-.15-.19-.25-.65-.3-1.08ZM283.33,93.34v-1.46c-.46.27-1.16.42-1.8.57-1.35.3-2.01.61-2.01,1.52s.61,1.23,1.52,1.23c1.48,0,2.3-.91,2.3-1.86Z"/>
        <path class="cls-4" d="M289.89,88.59h.06c.59-1.1,1.25-1.67,2.39-1.67.28,0,.46.02.61.08v2.26h-.06c-1.69-.17-2.91.72-2.91,2.77v4.75h-2.58v-9.75h2.49v1.56Z"/>
        <path class="cls-4" d="M293.46,93.63h2.39c.17,1.12.97,1.61,2.13,1.61s1.79-.44,1.79-1.12c0-.93-1.23-1.03-2.56-1.29-1.75-.34-3.46-.82-3.46-2.94s1.75-3.12,3.97-3.12c2.56,0,3.99,1.27,4.18,3.23h-2.34c-.11-1.04-.78-1.42-1.88-1.42-1.01,0-1.67.38-1.67,1.08,0,.84,1.29.91,2.68,1.2,1.63.34,3.44.8,3.44,3.08,0,1.96-1.67,3.13-4.1,3.13-2.83,0-4.41-1.37-4.56-3.44Z"/>
      </g>
      <g>
        <path class="cls-4" d="M37.87,116.9c0-2.89,1.96-5.13,4.81-5.13,3.13,0,4.81,2.39,4.81,5.87h-7.07c.19,1.5,1.03,2.43,2.49,2.43,1.01,0,1.6-.46,1.88-1.2h2.55c-.36,1.73-1.9,3.19-4.41,3.19-3.23,0-5.05-2.26-5.05-5.17ZM40.46,115.86h4.33c-.08-1.24-.89-2.09-2.07-2.09-1.37,0-2.03.82-2.26,2.09Z"/>
        <path class="cls-4" d="M48.21,116.9c0-2.89,1.96-5.13,4.81-5.13,3.13,0,4.81,2.39,4.81,5.87h-7.07c.19,1.5,1.03,2.43,2.49,2.43,1.01,0,1.6-.46,1.88-1.2h2.55c-.36,1.73-1.9,3.19-4.41,3.19-3.23,0-5.05-2.26-5.05-5.17ZM50.79,115.86h4.33c-.08-1.24-.89-2.09-2.07-2.09-1.37,0-2.03.82-2.26,2.09Z"/>
        <path class="cls-4" d="M61.55,113.37h.06c.67-1.04,1.56-1.6,2.89-1.6,2.01,0,3.36,1.52,3.36,3.65v6.36h-2.58v-5.98c0-1.04-.61-1.79-1.69-1.79-1.14,0-1.98.91-1.98,2.24v5.53h-2.58v-9.75h2.53v1.33Z"/>
        <path class="cls-4" d="M72.64,112.04h2.49v1.22h.06c.63-.86,1.54-1.48,2.87-1.48,2.58,0,4.24,2.11,4.24,5.15s-1.71,5.15-4.22,5.15c-1.37,0-2.26-.55-2.81-1.39h-.04v4.29h-2.58v-12.94ZM79.67,117c0-1.84-.65-3.13-2.24-3.13s-2.26,1.39-2.26,3.13.82,2.93,2.36,2.93c1.31,0,2.15-1.08,2.15-2.93Z"/>
        <path class="cls-4" d="M83.02,116.92c0-2.91,2.07-5.15,5.09-5.15s5.09,2.24,5.09,5.15-2.07,5.15-5.09,5.15-5.09-2.24-5.09-5.15ZM90.58,116.92c0-1.9-.89-3.19-2.47-3.19s-2.47,1.29-2.47,3.19.87,3.17,2.47,3.17,2.47-1.27,2.47-3.17Z"/>
        <path class="cls-4" d="M93.92,116.92c0-3.04,1.73-5.15,4.16-5.15,1.37,0,2.22.63,2.75,1.44h.06v-5.02h2.58v13.58h-2.49v-1.27h-.04c-.57.93-1.54,1.56-2.91,1.56-2.45,0-4.12-2-4.12-5.15ZM100.95,116.98c0-1.86-.61-3.12-2.26-3.12-1.42,0-2.15,1.25-2.15,3.06s.74,2.98,2.07,2.98c1.54,0,2.34-1.14,2.34-2.93Z"/>
        <path class="cls-4" d="M105.15,108.2h2.58v2.32h-2.58v-2.32ZM105.15,112.04h2.58v9.75h-2.58v-9.75Z"/>
        <path class="cls-4" d="M115.56,121.78v-1.14h-.06c-.67.89-1.42,1.41-2.79,1.41-2.17,0-3.38-1.39-3.38-3.51v-6.5h2.56v6.06c0,1.14.51,1.77,1.61,1.77,1.22,0,1.96-.91,1.96-2.2v-5.62h2.58v9.75h-2.49Z"/>
        <path class="cls-4" d="M119.73,112.04h2.49v1.31h.06c.53-.89,1.48-1.58,2.83-1.58,1.23,0,2.22.68,2.7,1.71h.04c.67-1.06,1.69-1.71,2.93-1.71,2.05,0,3.21,1.33,3.21,3.46v6.55h-2.58v-6.12c0-1.1-.55-1.67-1.5-1.67-1.08,0-1.75.84-1.75,2.13v5.66h-2.58v-6.12c0-1.1-.55-1.67-1.5-1.67-1.04,0-1.75.84-1.75,2.13v5.66h-2.58v-9.75Z"/>
        <path class="cls-4" d="M141.29,120.57h-.04v1.22h-2.49v-13.58h2.58v5.02h.06c.53-.82,1.37-1.44,2.72-1.44,2.45,0,4.2,2.11,4.2,5.15s-1.67,5.15-4.12,5.15c-1.37,0-2.34-.59-2.91-1.5ZM145.7,116.92c0-1.8-.72-3.06-2.17-3.06-1.63,0-2.24,1.31-2.24,3.12s.89,2.93,2.34,2.93c1.33,0,2.07-1.1,2.07-2.98Z"/>
        <path class="cls-4" d="M149.52,108.2h2.58v2.32h-2.58v-2.32ZM149.52,112.04h2.58v9.75h-2.58v-9.75Z"/>
        <path class="cls-4" d="M153.3,116.9c0-2.89,1.96-5.13,4.81-5.13,3.13,0,4.81,2.39,4.81,5.87h-7.07c.19,1.5,1.03,2.43,2.49,2.43,1.01,0,1.6-.46,1.88-1.2h2.55c-.36,1.73-1.9,3.19-4.41,3.19-3.23,0-5.05-2.26-5.05-5.17ZM155.88,115.86h4.33c-.08-1.24-.89-2.09-2.07-2.09-1.37,0-2.03.82-2.26,2.09Z"/>
        <path class="cls-4" d="M163.63,116.92c0-3.04,1.73-5.15,4.16-5.15,1.37,0,2.22.63,2.75,1.44h.06v-5.02h2.58v13.58h-2.49v-1.27h-.04c-.57.93-1.54,1.56-2.91,1.56-2.45,0-4.12-2-4.12-5.15ZM170.66,116.98c0-1.86-.61-3.12-2.26-3.12-1.42,0-2.15,1.25-2.15,3.06s.74,2.98,2.07,2.98c1.54,0,2.34-1.14,2.34-2.93Z"/>
        <path class="cls-4" d="M174.29,112.04h1.35v-3.04h2.53v3.04h1.67v1.71h-1.67v5.17c0,.72.4.97.97.97.32,0,.76-.02.76-.02v1.9s-.59.04-1.61.04c-1.25,0-2.64-.49-2.64-2.34v-5.72h-1.35v-1.71Z"/>
        <path class="cls-4" d="M183.89,116.9c0-2.89,1.96-5.13,4.81-5.13,3.13,0,4.81,2.39,4.81,5.87h-7.07c.19,1.5,1.03,2.43,2.49,2.43,1.01,0,1.6-.46,1.88-1.2h2.55c-.36,1.73-1.9,3.19-4.41,3.19-3.23,0-5.05-2.26-5.05-5.17ZM186.47,115.86h4.33c-.08-1.24-.89-2.09-2.07-2.09-1.37,0-2.03.82-2.26,2.09Z"/>
        <path class="cls-4" d="M197.23,113.37h.06c.67-1.04,1.56-1.6,2.89-1.6,2.01,0,3.36,1.52,3.36,3.65v6.36h-2.58v-5.98c0-1.04-.61-1.79-1.69-1.79-1.14,0-1.98.91-1.98,2.24v5.53h-2.58v-9.75h2.53v1.33Z"/>
        <path class="cls-4" d="M207.85,116.92c0-3.04,1.73-5.15,4.16-5.15,1.37,0,2.22.63,2.75,1.44h.06v-5.02h2.58v13.58h-2.49v-1.27h-.04c-.57.93-1.54,1.56-2.91,1.56-2.45,0-4.12-2-4.12-5.15ZM214.88,116.98c0-1.86-.61-3.12-2.26-3.12-1.43,0-2.15,1.25-2.15,3.06s.74,2.98,2.07,2.98c1.54,0,2.34-1.14,2.34-2.93Z"/>
        <path class="cls-4" d="M218.6,116.9c0-2.89,1.96-5.13,4.81-5.13,3.13,0,4.81,2.39,4.81,5.87h-7.07c.19,1.5,1.03,2.43,2.49,2.43,1.01,0,1.6-.46,1.88-1.2h2.54c-.36,1.73-1.9,3.19-4.41,3.19-3.23,0-5.05-2.26-5.05-5.17ZM221.18,115.86h4.33c-.08-1.24-.89-2.09-2.07-2.09-1.37,0-2.03.82-2.26,2.09Z"/>
        <path class="cls-4" d="M232.13,116.92c0-2.91,2.07-5.15,5.09-5.15s5.09,2.24,5.09,5.15-2.07,5.15-5.09,5.15-5.09-2.24-5.09-5.15ZM239.69,116.92c0-1.9-.89-3.19-2.47-3.19s-2.47,1.29-2.47,3.19.87,3.17,2.47,3.17,2.47-1.27,2.47-3.17Z"/>
        <path class="cls-4" d="M249.66,121.78v-1.14h-.06c-.67.89-1.43,1.41-2.79,1.41-2.17,0-3.38-1.39-3.38-3.51v-6.5h2.57v6.06c0,1.14.51,1.77,1.61,1.77,1.22,0,1.96-.91,1.96-2.2v-5.62h2.58v9.75h-2.49Z"/>
        <path class="cls-4" d="M253.35,116.92c0-3.04,1.73-5.15,4.16-5.15,1.37,0,2.22.63,2.75,1.44h.06v-5.02h2.58v13.58h-2.49v-1.27h-.04c-.57.93-1.54,1.56-2.91,1.56-2.45,0-4.12-2-4.12-5.15ZM260.38,116.98c0-1.86-.61-3.12-2.26-3.12-1.42,0-2.15,1.25-2.15,3.06s.74,2.98,2.07,2.98c1.54,0,2.34-1.14,2.34-2.93Z"/>
        <path class="cls-4" d="M264.1,116.9c0-2.89,1.96-5.13,4.81-5.13,3.13,0,4.81,2.39,4.81,5.87h-7.07c.19,1.5,1.03,2.43,2.49,2.43,1.01,0,1.6-.46,1.88-1.2h2.55c-.36,1.73-1.9,3.19-4.41,3.19-3.23,0-5.05-2.26-5.05-5.17ZM266.69,115.86h4.33c-.08-1.24-.89-2.09-2.07-2.09-1.37,0-2.03.82-2.26,2.09Z"/>
        <path class="cls-4" d="M277.4,113.59h.06c.59-1.1,1.25-1.67,2.39-1.67.28,0,.46.02.61.08v2.26h-.06c-1.69-.17-2.91.72-2.91,2.77v4.75h-2.58v-9.75h2.49v1.56Z"/>
        <path class="cls-4" d="M280.82,116.9c0-2.89,1.96-5.13,4.81-5.13,3.13,0,4.81,2.39,4.81,5.87h-7.07c.19,1.5,1.03,2.43,2.49,2.43,1.01,0,1.6-.46,1.88-1.2h2.55c-.36,1.73-1.9,3.19-4.41,3.19-3.23,0-5.05-2.26-5.05-5.17ZM283.41,115.86h4.33c-.08-1.24-.89-2.09-2.07-2.09-1.37,0-2.03.82-2.26,2.09Z"/>
      </g>
      <g>
        <path class="cls-4" d="M38.08,147.07h2.56c.21.61.76,1.08,1.96,1.08,1.46,0,2.17-.7,2.17-2.03v-1.06h-.06c-.57.65-1.31,1.14-2.55,1.14-2.17,0-4.29-1.71-4.29-4.65s1.75-4.77,4.22-4.77c1.22,0,2.11.48,2.7,1.29h.04v-1.03h2.49v9c0,1.37-.44,2.3-1.16,2.96-.82.76-2.07,1.1-3.51,1.1-2.66,0-4.29-1.14-4.56-3.04ZM44.9,141.49c0-1.42-.76-2.64-2.32-2.64-1.31,0-2.18,1.03-2.18,2.66s.87,2.62,2.2,2.62c1.63,0,2.3-1.2,2.3-2.64Z"/>
        <path class="cls-4" d="M48.51,141.9c0-2.89,1.96-5.13,4.81-5.13,3.13,0,4.81,2.39,4.81,5.87h-7.07c.19,1.5,1.03,2.43,2.49,2.43,1.01,0,1.6-.46,1.88-1.2h2.55c-.36,1.73-1.9,3.19-4.41,3.19-3.23,0-5.05-2.26-5.05-5.17ZM51.1,140.86h4.33c-.08-1.24-.89-2.09-2.07-2.09-1.37,0-2.03.82-2.26,2.09Z"/>
        <path class="cls-4" d="M61.85,138.37h.06c.67-1.04,1.56-1.6,2.89-1.6,2.01,0,3.36,1.52,3.36,3.65v6.36h-2.58v-5.98c0-1.04-.61-1.79-1.69-1.79-1.14,0-1.98.91-1.98,2.24v5.53h-2.58v-9.75h2.53v1.33Z"/>
        <path class="cls-4" d="M69.28,141.9c0-2.89,1.96-5.13,4.81-5.13,3.13,0,4.81,2.39,4.81,5.87h-7.07c.19,1.5,1.03,2.43,2.49,2.43,1.01,0,1.6-.46,1.88-1.2h2.55c-.36,1.73-1.9,3.19-4.41,3.19-3.23,0-5.05-2.26-5.05-5.17ZM71.86,140.86h4.33c-.08-1.24-.89-2.09-2.07-2.09-1.37,0-2.03.82-2.26,2.09Z"/>
        <path class="cls-4" d="M82.58,138.6h.06c.59-1.1,1.25-1.67,2.39-1.67.29,0,.46.02.61.08v2.26h-.06c-1.69-.17-2.91.72-2.91,2.77v4.75h-2.58v-9.75h2.49v1.56Z"/>
        <path class="cls-4" d="M92.31,145.7h-.04c-.49.74-1.2,1.31-2.87,1.31-1.99,0-3.4-1.04-3.4-2.98,0-2.15,1.75-2.83,3.91-3.13,1.61-.23,2.36-.36,2.36-1.1,0-.7-.55-1.16-1.63-1.16-1.22,0-1.8.44-1.88,1.37h-2.3c.08-1.71,1.35-3.21,4.2-3.21s4.1,1.31,4.1,3.59v4.96c0,.74.11,1.18.34,1.35v.09h-2.49c-.15-.19-.25-.65-.3-1.08ZM92.33,143.35v-1.46c-.46.27-1.16.42-1.8.57-1.35.3-2.01.61-2.01,1.52s.61,1.23,1.52,1.23c1.48,0,2.3-.91,2.3-1.86Z"/>
        <path class="cls-4" d="M95.65,137.04h1.35v-3.04h2.53v3.04h1.67v1.71h-1.67v5.17c0,.72.4.97.97.97.32,0,.76-.02.76-.02v1.9s-.59.04-1.61.04c-1.25,0-2.64-.49-2.64-2.34v-5.72h-1.35v-1.71Z"/>
        <path class="cls-4" d="M102.53,133.2h2.58v2.32h-2.58v-2.32ZM102.53,137.04h2.58v9.75h-2.58v-9.75Z"/>
        <path class="cls-4" d="M106.31,141.9c0-2.89,1.96-5.13,4.81-5.13,3.13,0,4.81,2.39,4.81,5.87h-7.07c.19,1.5,1.03,2.43,2.49,2.43,1.01,0,1.6-.46,1.88-1.2h2.55c-.36,1.73-1.9,3.19-4.41,3.19-3.23,0-5.05-2.26-5.05-5.17ZM108.89,140.86h4.33c-.08-1.24-.89-2.09-2.07-2.09-1.37,0-2.03.82-2.26,2.09Z"/>
        <path class="cls-4" d="M126.47,146.79v-1.14h-.06c-.67.89-1.42,1.41-2.79,1.41-2.17,0-3.38-1.39-3.38-3.51v-6.5h2.56v6.06c0,1.14.51,1.77,1.61,1.77,1.22,0,1.96-.91,1.96-2.2v-5.62h2.58v9.75h-2.49Z"/>
        <path class="cls-4" d="M130.63,133.2h2.58v2.32h-2.58v-2.32ZM130.63,137.04h2.58v9.75h-2.58v-9.75Z"/>
        <path class="cls-4" d="M134.32,137.04h1.35v-3.04h2.53v3.04h1.67v1.71h-1.67v5.17c0,.72.4.97.97.97.32,0,.76-.02.76-.02v1.9s-.59.04-1.61.04c-1.25,0-2.64-.49-2.64-2.34v-5.72h-1.35v-1.71Z"/>
        <path class="cls-4" d="M143.72,138.37h.06c.67-1.04,1.56-1.6,2.89-1.6,2.01,0,3.36,1.52,3.36,3.65v6.36h-2.58v-5.98c0-1.04-.61-1.79-1.69-1.79-1.14,0-1.98.91-1.98,2.24v5.53h-2.58v-9.75h2.53v1.33Z"/>
        <path class="cls-4" d="M151.15,141.92c0-2.91,2.07-5.15,5.09-5.15s5.09,2.24,5.09,5.15-2.07,5.15-5.09,5.15-5.09-2.24-5.09-5.15ZM158.71,141.92c0-1.9-.89-3.19-2.47-3.19s-2.47,1.29-2.47,3.19.87,3.17,2.47,3.17,2.47-1.27,2.47-3.17Z"/>
        <path class="cls-4" d="M162.06,141.92c0-3.04,1.73-5.15,4.16-5.15,1.37,0,2.22.63,2.75,1.44h.06v-5.02h2.58v13.58h-2.49v-1.27h-.04c-.57.93-1.54,1.56-2.91,1.56-2.45,0-4.12-2-4.12-5.15ZM169.09,141.98c0-1.86-.61-3.12-2.26-3.12-1.42,0-2.15,1.25-2.15,3.06s.74,2.98,2.07,2.98c1.54,0,2.34-1.14,2.34-2.93Z"/>
        <path class="cls-4" d="M173.29,133.2h2.58v2.32h-2.58v-2.32ZM173.29,137.04h2.58v9.75h-2.58v-9.75Z"/>
        <path class="cls-4" d="M177.28,147.07h2.56c.21.61.76,1.08,1.96,1.08,1.46,0,2.17-.7,2.17-2.03v-1.06h-.06c-.57.65-1.31,1.14-2.54,1.14-2.17,0-4.29-1.71-4.29-4.65s1.75-4.77,4.22-4.77c1.22,0,2.11.48,2.7,1.29h.04v-1.03h2.49v9c0,1.37-.44,2.3-1.16,2.96-.82.76-2.07,1.1-3.51,1.1-2.66,0-4.29-1.14-4.56-3.04ZM184.1,141.49c0-1.42-.76-2.64-2.32-2.64-1.31,0-2.18,1.03-2.18,2.66s.87,2.62,2.2,2.62c1.63,0,2.3-1.2,2.3-2.64Z"/>
        <path class="cls-4" d="M187.61,137.04h1.35v-3.04h2.53v3.04h1.67v1.71h-1.67v5.17c0,.72.4.97.97.97.32,0,.76-.02.76-.02v1.9s-.59.04-1.61.04c-1.25,0-2.64-.49-2.64-2.34v-5.72h-1.35v-1.71Z"/>
        <path class="cls-4" d="M197.21,141.92c0-2.91,2.07-5.15,5.09-5.15s5.09,2.24,5.09,5.15-2.07,5.15-5.09,5.15-5.09-2.24-5.09-5.15ZM204.77,141.92c0-1.9-.89-3.19-2.47-3.19s-2.47,1.29-2.47,3.19.87,3.17,2.47,3.17,2.47-1.27,2.47-3.17Z"/>
        <path class="cls-4" d="M208.59,137.04h2.49v1.31h.06c.53-.89,1.48-1.58,2.83-1.58,1.23,0,2.22.68,2.7,1.71h.04c.66-1.06,1.69-1.71,2.92-1.71,2.05,0,3.21,1.33,3.21,3.46v6.55h-2.58v-6.12c0-1.1-.55-1.67-1.5-1.67-1.08,0-1.75.84-1.75,2.13v5.66h-2.58v-6.12c0-1.1-.55-1.67-1.5-1.67-1.04,0-1.75.84-1.75,2.13v5.66h-2.58v-9.75Z"/>
        <path class="cls-4" d="M227.15,141.9c0-2.89,1.96-5.13,4.81-5.13,3.13,0,4.81,2.39,4.81,5.87h-7.07c.19,1.5,1.03,2.43,2.49,2.43,1.01,0,1.6-.46,1.88-1.2h2.55c-.36,1.73-1.9,3.19-4.41,3.19-3.23,0-5.05-2.26-5.05-5.17ZM229.73,140.86h4.33c-.08-1.24-.89-2.09-2.07-2.09-1.37,0-2.03.82-2.26,2.09Z"/>
        <path class="cls-4" d="M238,133.2h2.58v13.58h-2.58v-13.58Z"/>
        <path class="cls-4" d="M245.98,142.34l-1.12,1.16v3.29h-2.56v-13.58h2.56v7.52l3.46-3.68h3.1l-3.59,3.7,4.03,6.04h-3.13l-2.73-4.45Z"/>
        <path class="cls-4" d="M258.21,145.7h-.04c-.49.74-1.2,1.31-2.87,1.31-1.99,0-3.4-1.04-3.4-2.98,0-2.15,1.75-2.83,3.91-3.13,1.61-.23,2.36-.36,2.36-1.1,0-.7-.55-1.16-1.63-1.16-1.21,0-1.8.44-1.88,1.37h-2.3c.08-1.71,1.35-3.21,4.2-3.21s4.1,1.31,4.1,3.59v4.96c0,.74.11,1.18.34,1.35v.09h-2.49c-.15-.19-.25-.65-.3-1.08ZM258.23,143.35v-1.46c-.46.27-1.16.42-1.8.57-1.35.3-2.01.61-2.01,1.52s.61,1.23,1.52,1.23c1.48,0,2.3-.91,2.3-1.86Z"/>
        <path class="cls-4" d="M268.13,145.7h-.04c-.49.74-1.2,1.31-2.87,1.31-2,0-3.4-1.04-3.4-2.98,0-2.15,1.75-2.83,3.91-3.13,1.61-.23,2.36-.36,2.36-1.1,0-.7-.55-1.16-1.63-1.16-1.22,0-1.8.44-1.88,1.37h-2.3c.08-1.71,1.35-3.21,4.2-3.21s4.1,1.31,4.1,3.59v4.96c0,.74.11,1.18.34,1.35v.09h-2.49c-.15-.19-.25-.65-.3-1.08ZM268.15,143.35v-1.46c-.46.27-1.16.42-1.8.57-1.35.3-2.01.61-2.01,1.52s.61,1.23,1.52,1.23c1.48,0,2.3-.91,2.3-1.86Z"/>
        <path class="cls-4" d="M274.71,138.6h.06c.59-1.1,1.25-1.67,2.39-1.67.29,0,.46.02.61.08v2.26h-.06c-1.69-.17-2.91.72-2.91,2.77v4.75h-2.58v-9.75h2.49v1.56Z"/>
      </g>
      <g>
        <path class="cls-4" d="M37.78,162.04h1.35v-3.04h2.53v3.04h1.67v1.71h-1.67v5.17c0,.72.4.97.97.97.32,0,.76-.02.76-.02v1.9s-.59.04-1.61.04c-1.25,0-2.64-.49-2.64-2.34v-5.72h-1.35v-1.71Z"/>
        <path class="cls-4" d="M44.11,166.91c0-2.89,1.96-5.13,4.81-5.13,3.13,0,4.81,2.39,4.81,5.87h-7.07c.19,1.5,1.03,2.43,2.49,2.43,1.01,0,1.6-.46,1.88-1.2h2.55c-.36,1.73-1.9,3.19-4.41,3.19-3.23,0-5.05-2.26-5.05-5.17ZM46.69,165.86h4.33c-.08-1.24-.89-2.09-2.07-2.09-1.37,0-2.03.82-2.26,2.09Z"/>
        <path class="cls-4" d="M57.63,166.93c0-2.91,2.07-5.15,5.09-5.15s5.09,2.24,5.09,5.15-2.07,5.15-5.09,5.15-5.09-2.24-5.09-5.15ZM65.2,166.93c0-1.9-.89-3.19-2.47-3.19s-2.47,1.29-2.47,3.19.87,3.17,2.47,3.17,2.47-1.27,2.47-3.17Z"/>
        <path class="cls-4" d="M71.54,163.37h.06c.67-1.04,1.56-1.6,2.89-1.6,2.01,0,3.36,1.52,3.36,3.65v6.36h-2.58v-5.98c0-1.04-.61-1.79-1.69-1.79-1.14,0-1.98.91-1.98,2.24v5.53h-2.58v-9.75h2.53v1.33Z"/>
        <path class="cls-4" d="M78.69,162.04h1.35v-3.04h2.53v3.04h1.67v1.71h-1.67v5.17c0,.72.4.97.97.97.32,0,.76-.02.76-.02v1.9s-.59.04-1.61.04c-1.25,0-2.64-.49-2.64-2.34v-5.72h-1.35v-1.71Z"/>
        <path class="cls-4" d="M85.56,162.04h2.49v1.31h.06c.53-.89,1.48-1.58,2.83-1.58,1.23,0,2.22.68,2.7,1.71h.04c.67-1.06,1.69-1.71,2.93-1.71,2.05,0,3.21,1.33,3.21,3.46v6.55h-2.58v-6.12c0-1.1-.55-1.67-1.5-1.67-1.08,0-1.75.84-1.75,2.13v5.66h-2.58v-6.12c0-1.1-.55-1.67-1.5-1.67-1.04,0-1.75.84-1.75,2.13v5.66h-2.58v-9.75Z"/>
        <path class="cls-4" d="M100.93,166.93c0-2.91,2.07-5.15,5.09-5.15s5.09,2.24,5.09,5.15-2.07,5.15-5.09,5.15-5.09-2.24-5.09-5.15ZM108.5,166.93c0-1.9-.89-3.19-2.47-3.19s-2.47,1.29-2.47,3.19.87,3.17,2.47,3.17,2.47-1.27,2.47-3.17Z"/>
        <path class="cls-4" d="M111.84,166.91c0-2.89,1.96-5.13,4.81-5.13,3.13,0,4.81,2.39,4.81,5.87h-7.07c.19,1.5,1.03,2.43,2.49,2.43,1.01,0,1.6-.46,1.88-1.2h2.55c-.36,1.73-1.9,3.19-4.41,3.19-3.23,0-5.05-2.26-5.05-5.17ZM114.42,165.86h4.33c-.08-1.24-.89-2.09-2.07-2.09-1.37,0-2.03.82-2.26,2.09Z"/>
        <path class="cls-4" d="M121.91,162.04h1.35v-3.04h2.53v3.04h1.67v1.71h-1.67v5.17c0,.72.4.97.97.97.32,0,.76-.02.76-.02v1.9s-.59.04-1.61.04c-1.25,0-2.64-.49-2.64-2.34v-5.72h-1.35v-1.71Z"/>
        <path class="cls-4" d="M128.22,166.91c0-2.89,1.96-5.13,4.81-5.13,3.13,0,4.81,2.39,4.81,5.87h-7.07c.19,1.5,1.03,2.43,2.49,2.43,1.01,0,1.6-.46,1.88-1.2h2.55c-.36,1.73-1.9,3.19-4.41,3.19-3.23,0-5.05-2.26-5.05-5.17ZM130.8,165.86h4.33c-.08-1.24-.89-2.09-2.07-2.09-1.37,0-2.03.82-2.26,2.09Z"/>
        <path class="cls-4" d="M141.56,163.37h.06c.67-1.04,1.56-1.6,2.89-1.6,2.01,0,3.36,1.52,3.36,3.65v6.36h-2.58v-5.98c0-1.04-.61-1.79-1.69-1.79-1.14,0-1.98.91-1.98,2.24v5.53h-2.58v-9.75h2.53v1.33Z"/>
        <path class="cls-4" d="M149.31,169.04h2.77v2.75h-2.77v-2.75Z"/>
        <path class="cls-4" d="M157,158.21h9.99v2.32h-7.24v3.04h6.35v2.26h-6.35v3.67h7.29v2.3h-10.05v-13.58Z"/>
        <path class="cls-4" d="M167.81,166.91c0-2.89,1.96-5.13,4.81-5.13,3.14,0,4.81,2.39,4.81,5.87h-7.07c.19,1.5,1.03,2.43,2.49,2.43,1.01,0,1.6-.46,1.88-1.2h2.55c-.36,1.73-1.9,3.19-4.41,3.19-3.23,0-5.05-2.26-5.05-5.17ZM170.4,165.86h4.33c-.08-1.24-.89-2.09-2.07-2.09-1.37,0-2.03.82-2.26,2.09ZM173.61,160.83h-2.01l1.04-2.68h3.02l-2.05,2.68Z"/>
        <path class="cls-4" d="M181.15,163.37h.06c.67-1.04,1.56-1.6,2.89-1.6,2.01,0,3.36,1.52,3.36,3.65v6.36h-2.58v-5.98c0-1.04-.61-1.79-1.69-1.79-1.14,0-1.98.91-1.98,2.24v5.53h-2.58v-9.75h2.53v1.33Z"/>
        <path class="cls-4" d="M192.25,162.04h2.49v1.22h.06c.63-.86,1.54-1.48,2.87-1.48,2.58,0,4.24,2.11,4.24,5.15s-1.71,5.15-4.22,5.15c-1.37,0-2.26-.55-2.81-1.39h-.04v4.29h-2.58v-12.94ZM199.28,167c0-1.84-.65-3.13-2.24-3.13s-2.26,1.39-2.26,3.13.82,2.93,2.36,2.93c1.31,0,2.15-1.08,2.15-2.93Z"/>
        <path class="cls-4" d="M203.13,158.21h2.58v13.58h-2.58v-13.58Z"/>
        <path class="cls-4" d="M206.95,166.91c0-2.89,1.96-5.13,4.81-5.13,3.13,0,4.81,2.39,4.81,5.87h-7.07c.19,1.5,1.03,2.43,2.49,2.43,1.01,0,1.6-.46,1.88-1.2h2.55c-.36,1.73-1.9,3.19-4.41,3.19-3.23,0-5.05-2.26-5.05-5.17ZM209.54,165.86h4.33c-.08-1.24-.89-2.09-2.07-2.09-1.37,0-2.03.82-2.26,2.09Z"/>
        <path class="cls-4" d="M221.45,167.34l-1.12,1.16v3.29h-2.56v-13.58h2.56v7.52l3.46-3.68h3.1l-3.59,3.7,4.03,6.04h-3.13l-2.73-4.45Z"/>
        <path class="cls-4" d="M230.57,162.04h2.56l1.18,4.52c.21.8.44,1.82.44,1.82h.04s.21-1.04.42-1.84l1.21-4.5h2.2l1.27,4.5c.21.82.46,1.84.46,1.84h.04s.23-1.03.44-1.82l1.23-4.52h2.51l-2.91,9.75h-2.36l-1.29-4.79c-.21-.78-.44-1.69-.44-1.69h-.04s-.25.91-.46,1.69l-1.33,4.79h-2.34l-2.85-9.75Z"/>
        <path class="cls-4" d="M251.03,170.71h-.04c-.49.74-1.2,1.31-2.87,1.31-2,0-3.4-1.04-3.4-2.98,0-2.15,1.75-2.83,3.91-3.13,1.62-.23,2.36-.36,2.36-1.1,0-.7-.55-1.16-1.63-1.16-1.22,0-1.8.44-1.88,1.37h-2.3c.08-1.71,1.35-3.21,4.2-3.21s4.1,1.31,4.1,3.59v4.96c0,.74.11,1.18.34,1.35v.09h-2.49c-.15-.19-.25-.65-.3-1.08ZM251.05,168.35v-1.46c-.46.27-1.16.42-1.8.57-1.35.3-2.01.61-2.01,1.52s.61,1.23,1.52,1.23c1.48,0,2.3-.91,2.3-1.86Z"/>
        <path class="cls-4" d="M260.95,170.71h-.04c-.49.74-1.2,1.31-2.87,1.31-2,0-3.4-1.04-3.4-2.98,0-2.15,1.75-2.83,3.91-3.13,1.62-.23,2.36-.36,2.36-1.1,0-.7-.55-1.16-1.63-1.16-1.22,0-1.8.44-1.88,1.37h-2.3c.08-1.71,1.35-3.21,4.2-3.21s4.1,1.31,4.1,3.59v4.96c0,.74.11,1.18.34,1.35v.09h-2.49c-.15-.19-.25-.65-.3-1.08ZM260.97,168.35v-1.46c-.46.27-1.16.42-1.8.57-1.35.3-2.01.61-2.01,1.52s.61,1.23,1.52,1.23c1.48,0,2.3-.91,2.3-1.86Z"/>
        <path class="cls-4" d="M267.52,163.6h.06c.59-1.1,1.25-1.67,2.39-1.67.28,0,.46.02.61.08v2.26h-.06c-1.69-.17-2.91.72-2.91,2.77v4.75h-2.58v-9.75h2.49v1.56Z"/>
      </g>
      <g>
        <path class="cls-4" d="M37.87,191.93c0-2.91,1.9-5.15,4.86-5.15,2.53,0,4.08,1.46,4.43,3.57h-2.53c-.17-.85-.84-1.5-1.79-1.5-1.56,0-2.36,1.2-2.36,3.08s.74,3.08,2.32,3.08c1.04,0,1.79-.55,1.96-1.65h2.49c-.17,2.07-1.79,3.72-4.39,3.72-3.08,0-5-2.24-5-5.15Z"/>
        <path class="cls-4" d="M50.87,188.61h.06c.59-1.1,1.25-1.67,2.39-1.67.28,0,.46.02.61.08v2.26h-.06c-1.69-.17-2.91.72-2.91,2.77v4.75h-2.58v-9.75h2.49v1.56Z"/>
        <path class="cls-4" d="M54.31,191.91c0-2.89,1.96-5.13,4.81-5.13,3.13,0,4.81,2.39,4.81,5.87h-7.07c.19,1.5,1.03,2.43,2.49,2.43,1.01,0,1.6-.46,1.88-1.2h2.55c-.36,1.73-1.9,3.19-4.41,3.19-3.23,0-5.05-2.26-5.05-5.17ZM56.89,190.87h4.33c-.08-1.24-.89-2.09-2.07-2.09-1.37,0-2.03.82-2.26,2.09Z"/>
        <path class="cls-4" d="M70.95,195.71h-.04c-.49.74-1.2,1.31-2.87,1.31-1.99,0-3.4-1.04-3.4-2.98,0-2.15,1.75-2.83,3.91-3.13,1.61-.23,2.36-.36,2.36-1.1,0-.7-.55-1.16-1.63-1.16-1.22,0-1.8.44-1.88,1.37h-2.3c.08-1.71,1.35-3.21,4.2-3.21s4.1,1.31,4.1,3.59v4.96c0,.74.11,1.18.34,1.35v.09h-2.49c-.15-.19-.25-.65-.3-1.08ZM70.97,193.36v-1.46c-.46.27-1.16.42-1.8.57-1.35.3-2.01.61-2.01,1.52s.61,1.23,1.52,1.23c1.48,0,2.3-.91,2.3-1.86Z"/>
        <path class="cls-4" d="M74.3,187.05h1.35v-3.04h2.53v3.04h1.67v1.71h-1.67v5.17c0,.72.4.97.97.97.32,0,.76-.02.76-.02v1.9s-.59.04-1.61.04c-1.25,0-2.64-.49-2.64-2.34v-5.72h-1.35v-1.71Z"/>
        <path class="cls-4" d="M81.17,183.21h2.58v2.32h-2.58v-2.32ZM81.17,187.05h2.58v9.75h-2.58v-9.75Z"/>
        <path class="cls-4" d="M84.96,191.91c0-2.89,1.96-5.13,4.81-5.13,3.13,0,4.81,2.39,4.81,5.87h-7.07c.19,1.5,1.03,2.43,2.49,2.43,1.01,0,1.6-.46,1.88-1.2h2.55c-.36,1.73-1.9,3.19-4.41,3.19-3.23,0-5.05-2.26-5.05-5.17ZM87.54,190.87h4.33c-.08-1.24-.89-2.09-2.07-2.09-1.37,0-2.03.82-2.26,2.09Z"/>
        <path class="cls-4" d="M94.8,187.05h2.62l1.56,5.05c.29.93.44,1.56.44,1.56h.04s.13-.63.42-1.56l1.6-5.05h2.58l-3.4,9.75h-2.47l-3.38-9.75Z"/>
        <path class="cls-4" d="M104.16,191.91c0-2.89,1.96-5.13,4.81-5.13,3.13,0,4.81,2.39,4.81,5.87h-7.07c.19,1.5,1.03,2.43,2.49,2.43,1.01,0,1.6-.46,1.88-1.2h2.55c-.36,1.73-1.9,3.19-4.41,3.19-3.23,0-5.05-2.26-5.05-5.17ZM106.75,190.87h4.33c-.08-1.24-.89-2.09-2.07-2.09-1.37,0-2.03.82-2.26,2.09Z"/>
        <path class="cls-4" d="M115.01,183.21h2.58v13.58h-2.58v-13.58Z"/>
        <path class="cls-4" d="M119.31,183.21h2.58v2.32h-2.58v-2.32ZM119.31,187.05h2.58v9.75h-2.58v-9.75Z"/>
        <path class="cls-4" d="M126.09,188.38h.06c.67-1.04,1.56-1.6,2.89-1.6,2.01,0,3.36,1.52,3.36,3.65v6.36h-2.58v-5.98c0-1.04-.61-1.79-1.69-1.79-1.14,0-1.98.91-1.98,2.24v5.53h-2.58v-9.75h2.53v1.33Z"/>
        <path class="cls-4" d="M133.73,197.08h2.56c.21.61.76,1.08,1.96,1.08,1.46,0,2.17-.7,2.17-2.03v-1.06h-.06c-.57.65-1.31,1.14-2.55,1.14-2.17,0-4.29-1.71-4.29-4.65s1.75-4.77,4.22-4.77c1.22,0,2.11.48,2.7,1.29h.04v-1.03h2.49v9c0,1.37-.44,2.3-1.16,2.96-.82.76-2.07,1.1-3.51,1.1-2.66,0-4.29-1.14-4.56-3.04ZM140.55,191.49c0-1.42-.76-2.64-2.32-2.64-1.31,0-2.18,1.03-2.18,2.66s.87,2.62,2.2,2.62c1.63,0,2.3-1.2,2.3-2.64Z"/>
        <path class="cls-4" d="M144.16,191.91c0-2.89,1.96-5.13,4.81-5.13,3.13,0,4.81,2.39,4.81,5.87h-7.07c.19,1.5,1.03,2.43,2.49,2.43,1.01,0,1.6-.46,1.88-1.2h2.55c-.36,1.73-1.9,3.19-4.41,3.19-3.23,0-5.05-2.26-5.05-5.17ZM146.74,190.87h4.33c-.08-1.24-.89-2.09-2.07-2.09-1.37,0-2.03.82-2.26,2.09Z"/>
        <path class="cls-4" d="M157.5,188.38h.06c.67-1.04,1.56-1.6,2.89-1.6,2.01,0,3.36,1.52,3.36,3.65v6.36h-2.58v-5.98c0-1.04-.61-1.79-1.69-1.79-1.14,0-1.98.91-1.98,2.24v5.53h-2.58v-9.75h2.53v1.33Z"/>
        <path class="cls-4" d="M167.98,193.64h2.39c.17,1.12.97,1.61,2.13,1.61s1.79-.44,1.79-1.12c0-.93-1.23-1.03-2.56-1.29-1.75-.34-3.46-.82-3.46-2.94s1.75-3.12,3.97-3.12c2.56,0,3.99,1.27,4.18,3.23h-2.34c-.11-1.04-.78-1.42-1.88-1.42-1.01,0-1.67.38-1.67,1.08,0,.84,1.29.91,2.68,1.2,1.63.34,3.44.8,3.44,3.08,0,1.96-1.67,3.13-4.1,3.13-2.83,0-4.41-1.37-4.56-3.44Z"/>
        <path class="cls-4" d="M183.72,195.71h-.04c-.49.74-1.2,1.31-2.87,1.31-1.99,0-3.4-1.04-3.4-2.98,0-2.15,1.75-2.83,3.91-3.13,1.61-.23,2.36-.36,2.36-1.1,0-.7-.55-1.16-1.63-1.16-1.21,0-1.8.44-1.88,1.37h-2.3c.08-1.71,1.35-3.21,4.2-3.21s4.1,1.31,4.1,3.59v4.96c0,.74.11,1.18.34,1.35v.09h-2.49c-.15-.19-.25-.65-.3-1.08ZM183.73,193.36v-1.46c-.46.27-1.16.42-1.8.57-1.35.3-2.01.61-2.01,1.52s.61,1.23,1.52,1.23c1.48,0,2.3-.91,2.3-1.86Z"/>
        <path class="cls-4" d="M187.8,187.05h2.49v1.31h.06c.53-.89,1.48-1.58,2.83-1.58,1.23,0,2.22.68,2.7,1.71h.04c.67-1.06,1.69-1.71,2.92-1.71,2.05,0,3.21,1.33,3.21,3.46v6.55h-2.58v-6.12c0-1.1-.55-1.67-1.5-1.67-1.08,0-1.75.84-1.75,2.13v5.66h-2.58v-6.12c0-1.1-.55-1.67-1.5-1.67-1.04,0-1.75.84-1.75,2.13v5.66h-2.58v-9.75Z"/>
        <path class="cls-4" d="M203.17,191.91c0-2.89,1.96-5.13,4.81-5.13,3.13,0,4.81,2.39,4.81,5.87h-7.07c.19,1.5,1.03,2.43,2.49,2.43,1.01,0,1.6-.46,1.88-1.2h2.55c-.36,1.73-1.9,3.19-4.41,3.19-3.23,0-5.05-2.26-5.05-5.17ZM205.76,190.87h4.33c-.08-1.24-.89-2.09-2.07-2.09-1.37,0-2.03.82-2.26,2.09Z"/>
        <path class="cls-4" d="M216.51,188.38h.06c.67-1.04,1.56-1.6,2.89-1.6,2.01,0,3.36,1.52,3.36,3.65v6.36h-2.58v-5.98c0-1.04-.61-1.79-1.69-1.79-1.14,0-1.98.91-1.98,2.24v5.53h-2.58v-9.75h2.53v1.33Z"/>
        <path class="cls-4" d="M228.1,192.35l-1.12,1.16v3.29h-2.56v-13.58h2.56v7.52l3.46-3.68h3.1l-3.59,3.7,4.03,6.04h-3.13l-2.73-4.45Z"/>
        <path class="cls-4" d="M233.67,191.93c0-2.91,2.07-5.15,5.09-5.15s5.09,2.24,5.09,5.15-2.07,5.15-5.09,5.15-5.09-2.24-5.09-5.15ZM241.23,191.93c0-1.9-.89-3.19-2.47-3.19s-2.47,1.29-2.47,3.19.87,3.17,2.47,3.17,2.47-1.27,2.47-3.17Z"/>
        <path class="cls-4" d="M245.05,187.05h2.49v1.31h.06c.53-.89,1.48-1.58,2.83-1.58,1.23,0,2.22.68,2.7,1.71h.04c.67-1.06,1.69-1.71,2.92-1.71,2.05,0,3.21,1.33,3.21,3.46v6.55h-2.58v-6.12c0-1.1-.55-1.67-1.5-1.67-1.08,0-1.75.84-1.75,2.13v5.66h-2.58v-6.12c0-1.1-.55-1.67-1.5-1.67-1.04,0-1.75.84-1.75,2.13v5.66h-2.58v-9.75Z"/>
        <path class="cls-4" d="M260.42,191.91c0-2.89,1.96-5.13,4.81-5.13,3.13,0,4.81,2.39,4.81,5.87h-7.07c.19,1.5,1.03,2.43,2.49,2.43,1.01,0,1.6-.46,1.88-1.2h2.54c-.36,1.73-1.9,3.19-4.41,3.19-3.23,0-5.05-2.26-5.05-5.17ZM263,190.87h4.33c-.08-1.24-.89-2.09-2.07-2.09-1.37,0-2.03.82-2.26,2.09Z"/>
        <path class="cls-4" d="M273.76,188.38h.06c.67-1.04,1.56-1.6,2.89-1.6,2.01,0,3.36,1.52,3.36,3.65v6.36h-2.58v-5.98c0-1.04-.61-1.79-1.69-1.79-1.14,0-1.98.91-1.98,2.24v5.53h-2.58v-9.75h2.53v1.33Z"/>
      </g>
      <g>
        <path class="cls-4" d="M37.87,216.94c0-2.91,2.07-5.15,5.09-5.15s5.09,2.24,5.09,5.15-2.07,5.15-5.09,5.15-5.09-2.24-5.09-5.15ZM45.44,216.94c0-1.9-.89-3.19-2.47-3.19s-2.47,1.29-2.47,3.19.87,3.17,2.47,3.17,2.47-1.27,2.47-3.17Z"/>
        <path class="cls-4" d="M49.26,212.05h2.49v1.31h.06c.53-.89,1.48-1.58,2.83-1.58,1.23,0,2.22.68,2.7,1.71h.04c.67-1.06,1.69-1.71,2.93-1.71,2.05,0,3.21,1.33,3.21,3.46v6.55h-2.58v-6.12c0-1.1-.55-1.67-1.5-1.67-1.08,0-1.75.84-1.75,2.13v5.66h-2.58v-6.12c0-1.1-.55-1.67-1.5-1.67-1.04,0-1.75.84-1.75,2.13v5.66h-2.58v-9.75Z"/>
        <path class="cls-4" d="M71.98,217.35l-1.12,1.16v3.29h-2.56v-13.58h2.56v7.52l3.46-3.68h3.1l-3.59,3.7,4.03,6.04h-3.13l-2.74-4.45Z"/>
        <path class="cls-4" d="M84.56,221.8v-1.14h-.06c-.67.89-1.42,1.41-2.79,1.41-2.17,0-3.38-1.39-3.38-3.51v-6.5h2.56v6.06c0,1.14.51,1.77,1.61,1.77,1.22,0,1.96-.91,1.96-2.2v-5.62h2.58v9.75h-2.49Z"/>
        <path class="cls-4" d="M91.24,213.38h.06c.67-1.04,1.56-1.6,2.89-1.6,2.01,0,3.36,1.52,3.36,3.65v6.36h-2.58v-5.98c0-1.04-.61-1.79-1.69-1.79-1.14,0-1.98.91-1.98,2.24v5.53h-2.58v-9.75h2.53v1.33Z"/>
        <path class="cls-4" d="M98.54,218.65h2.39c.17,1.12.97,1.61,2.13,1.61s1.79-.44,1.79-1.12c0-.93-1.23-1.03-2.56-1.29-1.75-.34-3.46-.82-3.46-2.94s1.75-3.12,3.97-3.12c2.56,0,3.99,1.27,4.18,3.23h-2.34c-.11-1.04-.78-1.42-1.88-1.42-1.01,0-1.67.38-1.67,1.08,0,.84,1.29.91,2.68,1.2,1.63.34,3.44.8,3.44,3.08,0,1.96-1.67,3.13-4.1,3.13-2.83,0-4.41-1.37-4.56-3.44Z"/>
        <path class="cls-4" d="M107.62,212.05h1.35v-3.04h2.53v3.04h1.67v1.71h-1.67v5.17c0,.72.4.97.97.97.32,0,.76-.02.76-.02v1.9s-.59.04-1.61.04c-1.25,0-2.64-.49-2.64-2.34v-5.72h-1.35v-1.71Z"/>
        <path class="cls-4" d="M117.12,212.05h1.35v-3.04h2.53v3.04h1.67v1.71h-1.67v5.17c0,.72.4.97.97.97.32,0,.76-.02.76-.02v1.9s-.59.04-1.61.04c-1.25,0-2.64-.49-2.64-2.34v-5.72h-1.35v-1.71Z"/>
        <path class="cls-4" d="M123.43,216.92c0-2.89,1.96-5.13,4.81-5.13,3.13,0,4.81,2.39,4.81,5.87h-7.07c.19,1.5,1.03,2.43,2.49,2.43,1.01,0,1.6-.46,1.88-1.2h2.55c-.36,1.73-1.9,3.19-4.41,3.19-3.23,0-5.05-2.26-5.05-5.17ZM126.01,215.87h4.33c-.08-1.24-.89-2.09-2.07-2.09-1.37,0-2.03.82-2.26,2.09Z"/>
        <path class="cls-4" d="M136.96,216.94c0-2.91,2.07-5.15,5.09-5.15s5.09,2.24,5.09,5.15-2.07,5.15-5.09,5.15-5.09-2.24-5.09-5.15ZM144.52,216.94c0-1.9-.89-3.19-2.47-3.19s-2.47,1.29-2.47,3.19.87,3.17,2.47,3.17,2.47-1.27,2.47-3.17Z"/>
        <path class="cls-4" d="M150.87,213.38h.06c.67-1.04,1.56-1.6,2.89-1.6,2.01,0,3.36,1.52,3.36,3.65v6.36h-2.58v-5.98c0-1.04-.61-1.79-1.69-1.79-1.14,0-1.98.91-1.98,2.24v5.53h-2.58v-9.75h2.53v1.33Z"/>
        <path class="cls-4" d="M158.01,212.05h1.35v-3.04h2.53v3.04h1.67v1.71h-1.67v5.17c0,.72.4.97.97.97.32,0,.76-.02.76-.02v1.9s-.59.04-1.61.04c-1.25,0-2.64-.49-2.64-2.34v-5.72h-1.35v-1.71Z"/>
        <path class="cls-4" d="M164.34,216.94c0-3.04,1.73-5.15,4.16-5.15,1.37,0,2.22.63,2.75,1.44h.06v-5.02h2.58v13.58h-2.49v-1.27h-.04c-.57.93-1.54,1.56-2.91,1.56-2.45,0-4.12-2-4.12-5.15ZM171.37,216.99c0-1.86-.61-3.12-2.26-3.12-1.42,0-2.15,1.25-2.15,3.06s.74,2.98,2.07,2.98c1.54,0,2.34-1.14,2.34-2.93Z"/>
        <path class="cls-4" d="M175.09,216.92c0-2.89,1.96-5.13,4.81-5.13,3.13,0,4.81,2.39,4.81,5.87h-7.07c.19,1.5,1.03,2.43,2.49,2.43,1.01,0,1.6-.46,1.88-1.2h2.55c-.36,1.73-1.9,3.19-4.41,3.19-3.23,0-5.05-2.26-5.05-5.17ZM177.67,215.87h4.33c-.08-1.24-.89-2.09-2.07-2.09-1.37,0-2.03.82-2.26,2.09Z"/>
        <path class="cls-4" d="M189.59,217.35l-1.12,1.16v3.29h-2.56v-13.58h2.56v7.52l3.46-3.68h3.1l-3.59,3.7,4.03,6.04h-3.13l-2.74-4.45Z"/>
        <path class="cls-4" d="M199.96,217.35l-1.12,1.16v3.29h-2.56v-13.58h2.56v7.52l3.46-3.68h3.1l-3.59,3.7,4.03,6.04h-3.13l-2.74-4.45Z"/>
        <path class="cls-4" d="M205.53,216.92c0-2.89,1.96-5.13,4.81-5.13,3.13,0,4.81,2.39,4.81,5.87h-7.07c.19,1.5,1.03,2.43,2.49,2.43,1.01,0,1.6-.46,1.88-1.2h2.55c-.36,1.73-1.9,3.19-4.41,3.19-3.23,0-5.05-2.26-5.05-5.17ZM208.11,215.87h4.33c-.08-1.24-.89-2.09-2.07-2.09-1.37,0-2.03.82-2.26,2.09Z"/>
        <path class="cls-4" d="M218.87,213.38h.06c.67-1.04,1.56-1.6,2.89-1.6,2.01,0,3.36,1.52,3.36,3.65v6.36h-2.58v-5.98c0-1.04-.61-1.79-1.69-1.79-1.14,0-1.98.91-1.98,2.24v5.53h-2.58v-9.75h2.53v1.33Z"/>
        <path class="cls-4" d="M226.64,224.02c.74-.38,1.37-1.04,1.37-2.22h-1.39v-2.75h2.77v2.6c0,1.94-1.29,3.04-2.75,3.31v-.93Z"/>
        <path class="cls-4" d="M233.63,216.92c0-2.89,1.96-5.13,4.81-5.13,3.13,0,4.81,2.39,4.81,5.87h-7.07c.19,1.5,1.03,2.43,2.49,2.43,1.01,0,1.6-.46,1.88-1.2h2.55c-.36,1.73-1.9,3.19-4.41,3.19-3.23,0-5.05-2.26-5.05-5.17ZM236.21,215.87h4.33c-.08-1.24-.89-2.09-2.07-2.09-1.37,0-2.03.82-2.26,2.09Z"/>
        <path class="cls-4" d="M244.48,208.22h2.58v13.58h-2.58v-13.58Z"/>
        <path class="cls-4" d="M252.46,217.35l-1.12,1.16v3.29h-2.56v-13.58h2.56v7.52l3.46-3.68h3.1l-3.59,3.7,4.03,6.04h-3.13l-2.74-4.45Z"/>
        <path class="cls-4" d="M264.71,220.72h-.04c-.49.74-1.2,1.31-2.87,1.31-2,0-3.4-1.04-3.4-2.98,0-2.15,1.75-2.83,3.91-3.13,1.62-.23,2.36-.36,2.36-1.1,0-.7-.55-1.16-1.63-1.16-1.22,0-1.8.44-1.88,1.37h-2.3c.08-1.71,1.35-3.21,4.2-3.21s4.1,1.31,4.1,3.59v4.96c0,.74.11,1.18.34,1.35v.09h-2.49c-.15-.19-.25-.65-.3-1.08ZM264.73,218.36v-1.46c-.46.27-1.16.42-1.8.57-1.35.3-2.01.61-2.01,1.52s.61,1.23,1.52,1.23c1.48,0,2.3-.91,2.3-1.86Z"/>
        <path class="cls-4" d="M274.63,220.72h-.04c-.49.74-1.2,1.31-2.87,1.31-2,0-3.4-1.04-3.4-2.98,0-2.15,1.75-2.83,3.91-3.13,1.62-.23,2.36-.36,2.36-1.1,0-.7-.55-1.16-1.63-1.16-1.22,0-1.8.44-1.88,1.37h-2.3c.08-1.71,1.35-3.21,4.2-3.21s4.1,1.31,4.1,3.59v4.96c0,.74.11,1.18.34,1.35v.09h-2.49c-.15-.19-.25-.65-.3-1.08ZM274.65,218.36v-1.46c-.46.27-1.16.42-1.8.57-1.35.3-2.01.61-2.01,1.52s.61,1.23,1.52,1.23c1.48,0,2.3-.91,2.3-1.86Z"/>
        <path class="cls-4" d="M281.2,213.61h.06c.59-1.1,1.25-1.67,2.39-1.67.29,0,.46.02.61.08v2.26h-.06c-1.69-.17-2.91.72-2.91,2.77v4.75h-2.58v-9.75h2.49v1.56Z"/>
        <path class="cls-4" d="M288.01,212.05h1.35v-3.04h2.53v3.04h1.67v1.71h-1.67v5.17c0,.72.4.97.97.97.32,0,.76-.02.76-.02v1.9s-.59.04-1.62.04c-1.25,0-2.64-.49-2.64-2.34v-5.72h-1.35v-1.71Z"/>
        <path class="cls-4" d="M294.31,216.92c0-2.89,1.96-5.13,4.81-5.13,3.13,0,4.81,2.39,4.81,5.87h-7.07c.19,1.5,1.03,2.43,2.49,2.43,1.01,0,1.6-.46,1.88-1.2h2.55c-.36,1.73-1.9,3.19-4.41,3.19-3.23,0-5.05-2.26-5.05-5.17ZM296.9,215.87h4.33c-.08-1.24-.89-2.09-2.07-2.09-1.37,0-2.03.82-2.26,2.09Z"/>
      </g>
      <g>
        <path class="cls-4" d="M38.35,233.22h2.58v2.32h-2.58v-2.32ZM38.35,237.06h2.58v9.75h-2.58v-9.75Z"/>
        <path class="cls-4" d="M45.13,238.39h.06c.67-1.04,1.56-1.6,2.89-1.6,2.01,0,3.36,1.52,3.36,3.65v6.36h-2.58v-5.98c0-1.04-.61-1.79-1.69-1.79-1.14,0-1.98.91-1.98,2.24v5.53h-2.58v-9.75h2.53v1.33Z"/>
        <path class="cls-4" d="M52.43,243.65h2.39c.17,1.12.97,1.61,2.13,1.61s1.79-.44,1.79-1.12c0-.93-1.23-1.03-2.56-1.29-1.75-.34-3.46-.82-3.46-2.94s1.75-3.12,3.97-3.12c2.56,0,3.99,1.27,4.18,3.23h-2.34c-.11-1.04-.78-1.42-1.88-1.42-1.01,0-1.67.38-1.67,1.08,0,.84,1.29.91,2.68,1.2,1.63.34,3.44.8,3.44,3.08,0,1.96-1.67,3.13-4.1,3.13-2.83,0-4.41-1.37-4.56-3.44Z"/>
        <path class="cls-4" d="M62.25,237.06h2.49v1.22h.06c.63-.86,1.54-1.48,2.87-1.48,2.58,0,4.24,2.11,4.24,5.15s-1.71,5.15-4.22,5.15c-1.37,0-2.26-.55-2.81-1.39h-.04v4.29h-2.58v-12.94ZM69.28,242.02c0-1.84-.65-3.13-2.24-3.13s-2.26,1.39-2.26,3.13.82,2.93,2.36,2.93c1.31,0,2.15-1.08,2.15-2.93Z"/>
        <path class="cls-4" d="M73.1,233.22h2.58v2.32h-2.58v-2.32ZM73.1,237.06h2.58v9.75h-2.58v-9.75Z"/>
        <path class="cls-4" d="M79.85,238.61h.06c.59-1.1,1.25-1.67,2.39-1.67.28,0,.46.02.61.08v2.26h-.06c-1.69-.17-2.91.72-2.91,2.77v4.75h-2.58v-9.75h2.49v1.56Z"/>
        <path class="cls-4" d="M83.27,241.92c0-2.89,1.96-5.13,4.81-5.13,3.13,0,4.81,2.39,4.81,5.87h-7.07c.19,1.5,1.03,2.43,2.49,2.43,1.01,0,1.6-.46,1.88-1.2h2.55c-.36,1.73-1.9,3.19-4.41,3.19-3.23,0-5.05-2.26-5.05-5.17ZM85.85,240.88h4.33c-.08-1.24-.89-2.09-2.07-2.09-1.37,0-2.03.82-2.26,2.09Z"/>
        <path class="cls-4" d="M96.56,238.61h.06c.59-1.1,1.25-1.67,2.39-1.67.28,0,.46.02.61.08v2.26h-.06c-1.69-.17-2.91.72-2.91,2.77v4.75h-2.58v-9.75h2.49v1.56Z"/>
        <path class="cls-4" d="M100,241.92c0-2.89,1.96-5.13,4.81-5.13,3.13,0,4.81,2.39,4.81,5.87h-7.07c.19,1.5,1.03,2.43,2.49,2.43,1.01,0,1.6-.46,1.88-1.2h2.55c-.36,1.73-1.9,3.19-4.41,3.19-3.23,0-5.05-2.26-5.05-5.17ZM102.59,240.88h4.33c-.08-1.24-.89-2.09-2.07-2.09-1.37,0-2.03.82-2.26,2.09Z"/>
        <path class="cls-4" d="M113.34,238.39h.06c.67-1.04,1.56-1.6,2.89-1.6,2.01,0,3.36,1.52,3.36,3.65v6.36h-2.58v-5.98c0-1.04-.61-1.79-1.69-1.79-1.14,0-1.98.91-1.98,2.24v5.53h-2.58v-9.75h2.53v1.33Z"/>
        <path class="cls-4" d="M123.96,241.92c0-2.89,1.96-5.13,4.81-5.13,3.13,0,4.81,2.39,4.81,5.87h-7.07c.19,1.5,1.03,2.43,2.49,2.43,1.01,0,1.6-.46,1.88-1.2h2.55c-.36,1.73-1.9,3.19-4.41,3.19-3.23,0-5.05-2.26-5.05-5.17ZM126.55,240.88h4.33c-.08-1.24-.89-2.09-2.07-2.09-1.37,0-2.03.82-2.26,2.09Z"/>
        <path class="cls-4" d="M137.3,238.39h.06c.67-1.04,1.56-1.6,2.89-1.6,2.01,0,3.36,1.52,3.36,3.65v6.36h-2.58v-5.98c0-1.04-.61-1.79-1.69-1.79-1.14,0-1.98.91-1.98,2.24v5.53h-2.58v-9.75h2.53v1.33Z"/>
        <path class="cls-4" d="M147.83,237.06h1.35v-3.04h2.53v3.04h1.67v1.71h-1.67v5.17c0,.72.4.97.97.97.32,0,.76-.02.76-.02v1.9s-.59.04-1.61.04c-1.25,0-2.64-.49-2.64-2.34v-5.72h-1.35v-1.71Z"/>
        <path class="cls-4" d="M154.13,241.92c0-2.89,1.96-5.13,4.81-5.13,3.13,0,4.81,2.39,4.81,5.87h-7.07c.19,1.5,1.03,2.43,2.49,2.43,1.01,0,1.6-.46,1.88-1.2h2.55c-.36,1.73-1.9,3.19-4.41,3.19-3.23,0-5.05-2.26-5.05-5.17ZM156.72,240.88h4.33c-.08-1.24-.89-2.09-2.07-2.09-1.37,0-2.03.82-2.26,2.09Z"/>
        <path class="cls-4" d="M170.66,238.39h.06c.67-1.04,1.56-1.6,2.89-1.6,2.01,0,3.36,1.52,3.36,3.65v6.36h-2.58v-5.98c0-1.04-.61-1.79-1.69-1.79-1.14,0-1.98.91-1.98,2.24v5.53h-2.58v-9.75h2.53v1.33Z"/>
        <path class="cls-4" d="M178.09,241.92c0-2.89,1.96-5.13,4.81-5.13,3.13,0,4.81,2.39,4.81,5.87h-7.07c.19,1.5,1.03,2.43,2.49,2.43,1.01,0,1.6-.46,1.88-1.2h2.54c-.36,1.73-1.9,3.19-4.41,3.19-3.23,0-5.05-2.26-5.05-5.17ZM180.68,240.88h4.33c-.08-1.24-.89-2.09-2.07-2.09-1.37,0-2.03.82-2.26,2.09Z"/>
        <path class="cls-4" d="M188.16,237.06h1.35v-3.04h2.53v3.04h1.67v1.71h-1.67v5.17c0,.72.4.97.97.97.32,0,.76-.02.76-.02v1.9s-.59.04-1.61.04c-1.25,0-2.64-.49-2.64-2.34v-5.72h-1.35v-1.71Z"/>
        <path class="cls-4" d="M194.57,237.06h2.56l1.18,4.52c.21.8.44,1.82.44,1.82h.04s.21-1.04.42-1.84l1.21-4.5h2.2l1.27,4.5c.21.82.46,1.84.46,1.84h.04s.23-1.03.44-1.82l1.23-4.52h2.51l-2.91,9.75h-2.36l-1.29-4.79c-.21-.78-.44-1.69-.44-1.69h-.04s-.25.91-.46,1.69l-1.33,4.79h-2.34l-2.85-9.75Z"/>
        <path class="cls-4" d="M208.72,241.92c0-2.89,1.96-5.13,4.81-5.13,3.13,0,4.81,2.39,4.81,5.87h-7.07c.19,1.5,1.03,2.43,2.49,2.43,1.01,0,1.6-.46,1.88-1.2h2.55c-.36,1.73-1.9,3.19-4.41,3.19-3.23,0-5.05-2.26-5.05-5.17ZM211.3,240.88h4.33c-.08-1.24-.89-2.09-2.07-2.09-1.37,0-2.03.82-2.26,2.09Z"/>
        <path class="cls-4" d="M222.02,238.61h.06c.59-1.1,1.25-1.67,2.39-1.67.28,0,.46.02.61.08v2.26h-.06c-1.69-.17-2.91.72-2.91,2.77v4.75h-2.58v-9.75h2.49v1.56Z"/>
        <path class="cls-4" d="M229.89,242.36l-1.12,1.16v3.29h-2.56v-13.58h2.56v7.52l3.46-3.68h3.1l-3.59,3.7,4.03,6.04h-3.13l-2.74-4.45Z"/>
        <path class="cls-4" d="M235.45,241.92c0-2.89,1.96-5.13,4.81-5.13,3.13,0,4.81,2.39,4.81,5.87h-7.07c.19,1.5,1.03,2.43,2.49,2.43,1.01,0,1.6-.46,1.88-1.2h2.55c-.36,1.73-1.9,3.19-4.41,3.19-3.23,0-5.05-2.26-5.05-5.17ZM238.04,240.88h4.33c-.08-1.24-.89-2.09-2.07-2.09-1.37,0-2.03.82-2.26,2.09Z"/>
        <path class="cls-4" d="M248.79,238.39h.06c.67-1.04,1.56-1.6,2.89-1.6,2.01,0,3.36,1.52,3.36,3.65v6.36h-2.58v-5.98c0-1.04-.61-1.79-1.69-1.79-1.14,0-1.98.91-1.98,2.24v5.53h-2.58v-9.75h2.53v1.33Z"/>
        <path class="cls-4" d="M256.54,244.05h2.77v2.75h-2.77v-2.75Z"/>
        <path class="cls-4" d="M263.71,244.73l7.41-9.16v-.06h-6.93v-2.3h10.2v2.3l-7.16,8.89v.06h7.29v2.34h-10.81v-2.07Z"/>
        <path class="cls-4" d="M275.09,241.94c0-2.91,2.07-5.15,5.09-5.15s5.09,2.24,5.09,5.15-2.07,5.15-5.09,5.15-5.09-2.24-5.09-5.15ZM282.65,241.94c0-1.9-.89-3.19-2.47-3.19s-2.47,1.29-2.47,3.19.88,3.17,2.47,3.17,2.47-1.27,2.47-3.17Z"/>
      </g>
      <g>
        <path class="cls-4" d="M37.87,266.94c0-2.91,1.9-5.15,4.86-5.15,2.53,0,4.08,1.46,4.43,3.57h-2.53c-.17-.85-.84-1.5-1.79-1.5-1.56,0-2.36,1.2-2.36,3.08s.74,3.08,2.32,3.08c1.04,0,1.79-.55,1.96-1.65h2.49c-.17,2.07-1.79,3.72-4.39,3.72-3.08,0-5-2.24-5-5.15Z"/>
        <path class="cls-4" d="M50.87,263.62h.06c.59-1.1,1.25-1.67,2.39-1.67.28,0,.46.02.61.08v2.26h-.06c-1.69-.17-2.91.72-2.91,2.77v4.75h-2.58v-9.75h2.49v1.56Z"/>
        <path class="cls-4" d="M54.31,266.92c0-2.89,1.96-5.13,4.81-5.13,3.13,0,4.81,2.39,4.81,5.87h-7.07c.19,1.5,1.03,2.43,2.49,2.43,1.01,0,1.6-.46,1.88-1.2h2.55c-.36,1.73-1.9,3.19-4.41,3.19-3.23,0-5.05-2.26-5.05-5.17ZM56.89,265.88h4.33c-.08-1.24-.89-2.09-2.07-2.09-1.37,0-2.03.82-2.26,2.09Z"/>
        <path class="cls-4" d="M64.65,266.92c0-2.89,1.96-5.13,4.81-5.13,3.13,0,4.81,2.39,4.81,5.87h-7.07c.19,1.5,1.03,2.43,2.49,2.43,1.01,0,1.6-.46,1.88-1.2h2.55c-.36,1.73-1.9,3.19-4.41,3.19-3.23,0-5.05-2.26-5.05-5.17ZM66.13,258.6h2.43v2.17h-2.43v-2.17ZM67.23,265.88h4.33c-.08-1.24-.89-2.09-2.07-2.09-1.37,0-2.03.82-2.26,2.09ZM70.36,258.6h2.43v2.17h-2.43v-2.17Z"/>
        <path class="cls-4" d="M77.94,263.62h.06c.59-1.1,1.25-1.67,2.39-1.67.28,0,.46.02.61.08v2.26h-.06c-1.69-.17-2.91.72-2.91,2.77v4.75h-2.58v-9.75h2.49v1.56Z"/>
        <path class="cls-4" d="M81.37,266.92c0-2.89,1.96-5.13,4.81-5.13,3.13,0,4.81,2.39,4.81,5.87h-7.07c.19,1.5,1.03,2.43,2.49,2.43,1.01,0,1.6-.46,1.88-1.2h2.55c-.36,1.73-1.9,3.19-4.41,3.19-3.23,0-5.05-2.26-5.05-5.17ZM83.95,265.88h4.33c-.08-1.24-.89-2.09-2.07-2.09-1.37,0-2.03.82-2.26,2.09Z"/>
        <path class="cls-4" d="M94.7,263.39h.06c.67-1.04,1.56-1.6,2.89-1.6,2.01,0,3.36,1.52,3.36,3.65v6.36h-2.58v-5.98c0-1.04-.61-1.79-1.69-1.79-1.14,0-1.98.91-1.98,2.24v5.53h-2.58v-9.75h2.53v1.33Z"/>
        <path class="cls-4" d="M105.04,262.06h2.56l1.18,4.52c.21.8.44,1.82.44,1.82h.04s.21-1.04.42-1.84l1.22-4.5h2.2l1.27,4.5c.21.82.46,1.84.46,1.84h.04s.23-1.03.44-1.82l1.23-4.52h2.51l-2.91,9.75h-2.36l-1.29-4.79c-.21-.78-.44-1.69-.44-1.69h-.04s-.25.91-.46,1.69l-1.33,4.79h-2.34l-2.85-9.75Z"/>
        <path class="cls-4" d="M119.19,266.92c0-2.89,1.96-5.13,4.81-5.13,3.13,0,4.81,2.39,4.81,5.87h-7.07c.19,1.5,1.03,2.43,2.49,2.43,1.01,0,1.6-.46,1.88-1.2h2.55c-.36,1.73-1.9,3.19-4.41,3.19-3.23,0-5.05-2.26-5.05-5.17ZM121.78,265.88h4.33c-.08-1.24-.89-2.09-2.07-2.09-1.37,0-2.03.82-2.26,2.09Z"/>
        <path class="cls-4" d="M132.72,266.92c0-2.89,1.96-5.13,4.81-5.13,3.13,0,4.81,2.39,4.81,5.87h-7.07c.19,1.5,1.03,2.43,2.49,2.43,1.01,0,1.6-.46,1.88-1.2h2.55c-.36,1.73-1.9,3.19-4.41,3.19-3.23,0-5.05-2.26-5.05-5.17ZM135.31,265.88h4.33c-.08-1.24-.89-2.09-2.07-2.09-1.37,0-2.03.82-2.26,2.09Z"/>
        <path class="cls-4" d="M143.06,266.92c0-2.89,1.96-5.13,4.81-5.13,3.13,0,4.81,2.39,4.81,5.87h-7.07c.19,1.5,1.03,2.43,2.49,2.43,1.01,0,1.6-.46,1.88-1.2h2.55c-.36,1.73-1.9,3.19-4.41,3.19-3.23,0-5.05-2.26-5.05-5.17ZM145.64,265.88h4.33c-.08-1.24-.89-2.09-2.07-2.09-1.37,0-2.03.82-2.26,2.09Z"/>
        <path class="cls-4" d="M156.39,263.39h.06c.67-1.04,1.56-1.6,2.89-1.6,2.01,0,3.36,1.52,3.36,3.65v6.36h-2.58v-5.98c0-1.04-.61-1.79-1.69-1.79-1.14,0-1.98.91-1.98,2.24v5.53h-2.58v-9.75h2.53v1.33Z"/>
        <path class="cls-4" d="M166.92,262.06h1.33v-.87c0-2.38,1.84-3.21,4.33-2.95v2c-1.22-.06-1.75.09-1.75,1.1v.72h1.75v1.79h-1.75v7.96h-2.58v-7.96h-1.33v-1.79Z"/>
        <path class="cls-4" d="M174.24,272.97h.91c1.03,0,1.44-.53,1.44-1.33,0-.53-.19-1.16-.74-2.64l-2.62-6.93h2.72l1.44,4.39c.3.89.63,2.13.63,2.13h.04s.27-1.23.57-2.13l1.37-4.39h2.6l-3.4,9.99c-.74,2.17-1.46,2.94-3.44,2.94h-1.52v-2.03Z"/>
        <path class="cls-4" d="M182.77,268.65h2.39c.17,1.12.97,1.61,2.13,1.61s1.79-.44,1.79-1.12c0-.93-1.24-1.03-2.57-1.29-1.75-.34-3.46-.82-3.46-2.94s1.75-3.12,3.97-3.12c2.56,0,3.99,1.27,4.18,3.23h-2.34c-.12-1.04-.78-1.42-1.88-1.42-1.01,0-1.67.38-1.67,1.08,0,.84,1.29.91,2.68,1.2,1.63.34,3.44.8,3.44,3.08,0,1.96-1.67,3.13-4.1,3.13-2.83,0-4.41-1.37-4.56-3.44Z"/>
        <path class="cls-4" d="M192.59,258.22h2.58v2.32h-2.58v-2.32ZM192.59,262.06h2.58v9.75h-2.58v-9.75Z"/>
        <path class="cls-4" d="M196.37,266.92c0-2.89,1.96-5.13,4.81-5.13,3.13,0,4.81,2.39,4.81,5.87h-7.07c.19,1.5,1.03,2.43,2.49,2.43,1.01,0,1.6-.46,1.88-1.2h2.55c-.36,1.73-1.9,3.19-4.41,3.19-3.23,0-5.05-2.26-5.05-5.17ZM198.95,265.88h4.33c-.08-1.24-.89-2.09-2.07-2.09-1.37,0-2.03.82-2.26,2.09Z"/>
        <path class="cls-4" d="M210.87,267.36l-1.12,1.16v3.29h-2.56v-13.58h2.56v7.52l3.46-3.68h3.1l-3.59,3.7,4.03,6.04h-3.13l-2.73-4.45Z"/>
        <path class="cls-4" d="M216.43,266.92c0-2.89,1.96-5.13,4.81-5.13,3.13,0,4.81,2.39,4.81,5.87h-7.07c.19,1.5,1.03,2.43,2.49,2.43,1.01,0,1.6-.46,1.88-1.2h2.55c-.36,1.73-1.9,3.19-4.41,3.19-3.23,0-5.05-2.26-5.05-5.17ZM219.02,265.88h4.33c-.08-1.24-.89-2.09-2.07-2.09-1.37,0-2.03.82-2.26,2.09Z"/>
        <path class="cls-4" d="M233.02,263.33h.06c.7-1.03,1.5-1.54,2.83-1.54,2.01,0,3.36,1.52,3.36,3.65v6.36h-2.58v-5.98c0-1.04-.61-1.79-1.69-1.79-1.14,0-1.98.91-1.98,2.24v5.53h-2.58v-13.58h2.58v5.11Z"/>
        <path class="cls-4" d="M247.02,271.81v-1.14h-.06c-.67.89-1.42,1.41-2.79,1.41-2.17,0-3.38-1.39-3.38-3.51v-6.5h2.57v6.06c0,1.14.51,1.77,1.61,1.77,1.22,0,1.96-.91,1.96-2.2v-5.62h2.58v9.75h-2.49Z"/>
        <path class="cls-4" d="M253.71,270.59h-.04v1.22h-2.49v-13.58h2.58v5.02h.06c.53-.82,1.37-1.44,2.72-1.44,2.45,0,4.2,2.11,4.2,5.15s-1.67,5.15-4.12,5.15c-1.37,0-2.34-.59-2.91-1.5ZM258.12,266.94c0-1.8-.72-3.06-2.17-3.06-1.63,0-2.24,1.31-2.24,3.12s.89,2.93,2.34,2.93c1.33,0,2.07-1.1,2.07-2.98Z"/>
        <path class="cls-4" d="M264.33,262.06h2.62l1.56,5.05c.29.93.44,1.56.44,1.56h.04s.13-.63.42-1.56l1.6-5.05h2.58l-3.4,9.75h-2.47l-3.38-9.75Z"/>
        <path class="cls-4" d="M273.7,266.94c0-2.91,2.07-5.15,5.09-5.15s5.09,2.24,5.09,5.15-2.07,5.15-5.09,5.15-5.09-2.24-5.09-5.15ZM281.26,266.94c0-1.9-.89-3.19-2.47-3.19s-2.47,1.29-2.47,3.19.88,3.17,2.47,3.17,2.47-1.27,2.47-3.17Z"/>
        <path class="cls-4" d="M284.61,266.94c0-2.91,2.07-5.15,5.09-5.15s5.09,2.24,5.09,5.15-2.07,5.15-5.09,5.15-5.09-2.24-5.09-5.15ZM292.17,266.94c0-1.9-.89-3.19-2.47-3.19s-2.47,1.29-2.47,3.19.87,3.17,2.47,3.17,2.47-1.27,2.47-3.17Z"/>
        <path class="cls-4" d="M298.48,263.62h.06c.59-1.1,1.25-1.67,2.39-1.67.28,0,.46.02.61.08v2.26h-.06c-1.69-.17-2.91.72-2.91,2.77v4.75h-2.58v-9.75h2.49v1.56Z"/>
      </g>
      <g>
        <path class="cls-4" d="M37.55,287.06h2.62l1.56,5.05c.29.93.44,1.56.44,1.56h.04s.13-.63.42-1.56l1.6-5.05h2.58l-3.4,9.75h-2.47l-3.38-9.75Z"/>
        <path class="cls-4" d="M46.94,291.93c0-2.89,1.96-5.13,4.81-5.13,3.13,0,4.81,2.39,4.81,5.87h-7.07c.19,1.5,1.03,2.43,2.49,2.43,1.01,0,1.6-.46,1.88-1.2h2.55c-.36,1.73-1.9,3.19-4.41,3.19-3.23,0-5.05-2.26-5.05-5.17ZM49.52,290.88h4.33c-.08-1.24-.89-2.09-2.07-2.09-1.37,0-2.03.82-2.26,2.09Z"/>
        <path class="cls-4" d="M60.24,288.62h.06c.59-1.1,1.25-1.67,2.39-1.67.29,0,.46.02.61.08v2.26h-.06c-1.69-.17-2.91.72-2.91,2.77v4.75h-2.58v-9.75h2.49v1.56Z"/>
        <path class="cls-4" d="M66.94,295.59h-.04v1.22h-2.49v-13.58h2.58v5.02h.06c.53-.82,1.37-1.44,2.72-1.44,2.45,0,4.2,2.11,4.2,5.15s-1.67,5.15-4.12,5.15c-1.37,0-2.34-.59-2.91-1.5ZM71.35,291.95c0-1.8-.72-3.06-2.17-3.06-1.63,0-2.24,1.31-2.24,3.12s.89,2.93,2.34,2.93c1.33,0,2.07-1.1,2.07-2.98Z"/>
        <path class="cls-4" d="M75.17,283.23h2.58v2.32h-2.58v-2.32ZM75.17,287.06h2.58v9.75h-2.58v-9.75Z"/>
        <path class="cls-4" d="M81.95,288.39h.06c.67-1.04,1.56-1.6,2.89-1.6,2.01,0,3.36,1.52,3.36,3.65v6.36h-2.58v-5.98c0-1.04-.61-1.79-1.69-1.79-1.14,0-1.98.91-1.98,2.24v5.53h-2.58v-9.75h2.53v1.33Z"/>
        <path class="cls-4" d="M89.38,291.95c0-3.04,1.73-5.15,4.16-5.15,1.37,0,2.22.63,2.75,1.44h.06v-5.02h2.58v13.58h-2.49v-1.27h-.04c-.57.93-1.54,1.56-2.91,1.56-2.45,0-4.12-2-4.12-5.15ZM96.41,292c0-1.86-.61-3.12-2.26-3.12-1.42,0-2.15,1.25-2.15,3.06s.74,2.98,2.07,2.98c1.54,0,2.34-1.14,2.34-2.93Z"/>
        <path class="cls-4" d="M100.61,283.23h2.58v2.32h-2.58v-2.32ZM100.61,287.06h2.58v9.75h-2.58v-9.75Z"/>
        <path class="cls-4" d="M107.39,288.39h.06c.67-1.04,1.56-1.6,2.89-1.6,2.01,0,3.36,1.52,3.36,3.65v6.36h-2.58v-5.98c0-1.04-.61-1.79-1.69-1.79-1.14,0-1.98.91-1.98,2.24v5.53h-2.58v-9.75h2.53v1.33Z"/>
        <path class="cls-4" d="M115.03,297.1h2.56c.21.61.76,1.08,1.96,1.08,1.46,0,2.17-.7,2.17-2.03v-1.06h-.06c-.57.65-1.31,1.14-2.55,1.14-2.17,0-4.29-1.71-4.29-4.65s1.75-4.77,4.22-4.77c1.22,0,2.11.48,2.7,1.29h.04v-1.03h2.49v9c0,1.37-.44,2.3-1.16,2.96-.82.76-2.07,1.1-3.51,1.1-2.66,0-4.29-1.14-4.56-3.04ZM121.85,291.51c0-1.42-.76-2.64-2.32-2.64-1.31,0-2.18,1.03-2.18,2.66s.87,2.62,2.2,2.62c1.63,0,2.3-1.2,2.3-2.64Z"/>
        <path class="cls-4" d="M128.66,291.93c0-2.89,1.96-5.13,4.81-5.13,3.13,0,4.81,2.39,4.81,5.87h-7.07c.19,1.5,1.03,2.43,2.49,2.43,1.01,0,1.6-.46,1.88-1.2h2.55c-.36,1.73-1.9,3.19-4.41,3.19-3.23,0-5.05-2.26-5.05-5.17ZM131.24,290.88h4.33c-.08-1.24-.89-2.09-2.07-2.09-1.37,0-2.03.82-2.26,2.09Z"/>
        <path class="cls-4" d="M141.99,288.39h.06c.67-1.04,1.56-1.6,2.89-1.6,2.01,0,3.36,1.52,3.36,3.65v6.36h-2.58v-5.98c0-1.04-.61-1.79-1.69-1.79-1.14,0-1.98.91-1.98,2.24v5.53h-2.58v-9.75h2.53v1.33Z"/>
        <path class="cls-4" d="M152.61,291.95c0-2.91,1.9-5.15,4.86-5.15,2.53,0,4.08,1.46,4.43,3.57h-2.53c-.17-.85-.84-1.5-1.79-1.5-1.56,0-2.36,1.2-2.36,3.08s.74,3.08,2.32,3.08c1.04,0,1.79-.55,1.96-1.65h2.49c-.17,2.07-1.79,3.72-4.39,3.72-3.08,0-5-2.24-5-5.15Z"/>
        <path class="cls-4" d="M165.61,288.62h.06c.59-1.1,1.25-1.67,2.39-1.67.29,0,.46.02.61.08v2.26h-.06c-1.69-.17-2.91.72-2.91,2.77v4.75h-2.58v-9.75h2.49v1.56Z"/>
        <path class="cls-4" d="M169.05,291.93c0-2.89,1.96-5.13,4.81-5.13,3.14,0,4.81,2.39,4.81,5.87h-7.07c.19,1.5,1.03,2.43,2.49,2.43,1.01,0,1.6-.46,1.88-1.2h2.55c-.36,1.73-1.9,3.19-4.41,3.19-3.23,0-5.05-2.26-5.05-5.17ZM171.63,290.88h4.33c-.08-1.24-.89-2.09-2.07-2.09-1.37,0-2.03.82-2.26,2.09Z"/>
        <path class="cls-4" d="M185.69,295.73h-.04c-.49.74-1.2,1.31-2.87,1.31-1.99,0-3.4-1.04-3.4-2.98,0-2.15,1.75-2.83,3.91-3.13,1.61-.23,2.36-.36,2.36-1.1,0-.7-.55-1.16-1.63-1.16-1.21,0-1.8.44-1.88,1.37h-2.3c.08-1.71,1.35-3.21,4.2-3.21s4.1,1.31,4.1,3.59v4.96c0,.74.11,1.18.34,1.35v.09h-2.49c-.15-.19-.25-.65-.3-1.08ZM185.71,293.37v-1.46c-.46.27-1.16.42-1.8.57-1.35.3-2.01.61-2.01,1.52s.61,1.23,1.52,1.23c1.48,0,2.3-.91,2.3-1.86Z"/>
        <path class="cls-4" d="M189.02,287.06h1.35v-3.04h2.53v3.04h1.67v1.71h-1.67v5.17c0,.72.4.97.97.97.32,0,.76-.02.76-.02v1.9s-.59.04-1.61.04c-1.25,0-2.64-.49-2.64-2.34v-5.72h-1.35v-1.71Z"/>
        <path class="cls-4" d="M195.9,283.23h2.58v2.32h-2.58v-2.32ZM195.9,287.06h2.58v9.75h-2.58v-9.75Z"/>
        <path class="cls-4" d="M199.35,287.06h2.62l1.56,5.05c.29.93.44,1.56.44,1.56h.04s.13-.63.42-1.56l1.6-5.05h2.58l-3.4,9.75h-2.47l-3.38-9.75Z"/>
        <path class="cls-4" d="M209.48,283.23h2.58v2.32h-2.58v-2.32ZM209.48,287.06h2.58v9.75h-2.58v-9.75Z"/>
        <path class="cls-4" d="M213.17,287.06h1.35v-3.04h2.53v3.04h1.67v1.71h-1.67v5.17c0,.72.4.97.97.97.32,0,.76-.02.76-.02v1.9s-.59.04-1.61.04c-1.25,0-2.64-.49-2.64-2.34v-5.72h-1.35v-1.71Z"/>
        <path class="cls-4" d="M219.49,291.93c0-2.89,1.96-5.13,4.81-5.13,3.13,0,4.81,2.39,4.81,5.87h-7.07c.19,1.5,1.03,2.43,2.49,2.43,1.01,0,1.6-.46,1.88-1.2h2.55c-.36,1.73-1.9,3.19-4.41,3.19-3.23,0-5.05-2.26-5.05-5.17ZM222.08,290.88h4.33c-.08-1.24-.89-2.09-2.07-2.09-1.37,0-2.03.82-2.26,2.09Z"/>
        <path class="cls-4" d="M230.3,283.23h2.58v2.32h-2.58v-2.32ZM230.3,287.06h2.58v9.75h-2.58v-9.75Z"/>
        <path class="cls-4" d="M233.99,287.06h1.35v-3.04h2.53v3.04h1.67v1.71h-1.67v5.17c0,.72.4.97.97.97.32,0,.76-.02.76-.02v1.9s-.59.04-1.61.04c-1.25,0-2.64-.49-2.64-2.34v-5.72h-1.35v-1.71Z"/>
        <path class="cls-4" d="M240.91,294.06h2.77v2.75h-2.77v-2.75Z"/>
      </g>
    </g>
  </g>
</svg>