<?xml version="1.0" encoding="UTF-8"?>
<svg id="Layer_2" data-name="Layer 2" xmlns="http://www.w3.org/2000/svg" xmlns:xlink="http://www.w3.org/1999/xlink" viewBox="0 0 555.52 231">
  <defs>
    <style>
      .cls-1, .cls-2, .cls-3 {
        fill: none;
      }

      .cls-4 {
        fill: #231f20;
      }

      .cls-2 {
        stroke-miterlimit: 10;
      }

      .cls-2, .cls-3 {
        stroke: #231f20;
      }

      .cls-5 {
        fill: #fff;
      }

      .cls-6 {
        clip-path: url(#clippath);
      }

      .cls-7 {
        fill: #f37322;
      }
    </style>
    <clipPath id="clippath">
      <rect class="cls-1" width="555.52" height="231"/>
    </clipPath>
  </defs>
  <g id="Layer_1-2" data-name="Layer 1">
    <g>
      <rect class="cls-5" x="9.5" y="4" width="545.52" height="226.5"/>
      <g class="cls-6">
        <rect class="cls-2" x="9.5" y="4" width="545.52" height="226.5"/>
      </g>
      <rect class="cls-7" x="9.36" y="4" width="77.68" height="34.5"/>
      <rect class="cls-3" x="9.36" y="4" width="77.68" height="34.5"/>
      <g>
        <path class="cls-4" d="M24.78,15.74h4.05l1.86,7.14c.33,1.26.69,2.88.69,2.88h.06s.33-1.65.66-2.91l1.92-7.11h3.48l2.01,7.11c.33,1.29.72,2.91.72,2.91h.06s.36-1.62.69-2.88l1.95-7.14h3.96l-4.59,15.39h-3.72l-2.04-7.56c-.33-1.23-.69-2.67-.69-2.67h-.06s-.39,1.44-.72,2.67l-2.1,7.56h-3.69l-4.5-15.39Z"/>
        <path class="cls-4" d="M57.12,29.42h-.06c-.78,1.17-1.89,2.07-4.53,2.07-3.15,0-5.37-1.65-5.37-4.71,0-3.39,2.76-4.47,6.18-4.95,2.55-.36,3.72-.57,3.72-1.74,0-1.11-.87-1.83-2.58-1.83-1.92,0-2.85.69-2.97,2.16h-3.63c.12-2.7,2.13-5.07,6.63-5.07s6.48,2.07,6.48,5.67v7.83c0,1.17.18,1.86.54,2.13v.15h-3.93c-.24-.3-.39-1.02-.48-1.71ZM57.15,25.7v-2.31c-.72.42-1.83.66-2.85.9-2.13.48-3.18.96-3.18,2.4s.96,1.95,2.4,1.95c2.34,0,3.63-1.44,3.63-2.94Z"/>
        <path class="cls-4" d="M62.4,15.74h2.13v-4.8h3.99v4.8h2.64v2.7h-2.64v8.16c0,1.14.63,1.53,1.53,1.53.51,0,1.2-.03,1.2-.03v3s-.93.06-2.55.06c-1.98,0-4.17-.78-4.17-3.69v-9.03h-2.13v-2.7Z"/>
      </g>
      <g>
        <path class="cls-4" d="M55.62,66.91c0-3.04,1.73-5.15,4.16-5.15,1.37,0,2.22.63,2.75,1.44h.06v-5.02h2.58v13.58h-2.49v-1.27h-.04c-.57.93-1.54,1.56-2.91,1.56-2.45,0-4.12-2-4.12-5.15ZM62.65,66.97c0-1.86-.61-3.12-2.26-3.12-1.42,0-2.15,1.25-2.15,3.06s.74,2.98,2.07,2.98c1.54,0,2.34-1.14,2.34-2.93Z"/>
        <path class="cls-4" d="M66.37,66.89c0-2.89,1.96-5.13,4.81-5.13,3.13,0,4.81,2.39,4.81,5.87h-7.07c.19,1.5,1.03,2.43,2.49,2.43,1.01,0,1.6-.46,1.88-1.2h2.55c-.36,1.73-1.9,3.19-4.41,3.19-3.23,0-5.05-2.26-5.05-5.17ZM68.96,65.85h4.33c-.08-1.24-.89-2.09-2.07-2.09-1.37,0-2.03.82-2.26,2.09Z"/>
        <path class="cls-4" d="M82.9,63.36h.06c.67-1.04,1.56-1.6,2.89-1.6,2.01,0,3.36,1.52,3.36,3.65v6.36h-2.58v-5.98c0-1.04-.61-1.79-1.69-1.79-1.14,0-1.98.91-1.98,2.24v5.53h-2.58v-9.75h2.53v1.33Z"/>
        <path class="cls-4" d="M90.81,58.19h2.58v2.32h-2.58v-2.32ZM90.81,62.03h2.58v9.75h-2.58v-9.75Z"/>
        <path class="cls-4" d="M94.59,66.89c0-2.89,1.96-5.13,4.81-5.13,3.13,0,4.81,2.39,4.81,5.87h-7.07c.19,1.5,1.03,2.43,2.49,2.43,1.01,0,1.6-.46,1.88-1.2h2.55c-.36,1.73-1.9,3.19-4.41,3.19-3.23,0-5.05-2.26-5.05-5.17ZM97.17,65.85h4.33c-.08-1.24-.89-2.09-2.07-2.09-1.37,0-2.03.82-2.26,2.09Z"/>
        <path class="cls-4" d="M111.56,71.78v-1.14h-.06c-.67.89-1.42,1.41-2.79,1.41-2.17,0-3.38-1.39-3.38-3.51v-6.5h2.56v6.06c0,1.14.51,1.77,1.61,1.77,1.22,0,1.96-.91,1.96-2.2v-5.62h2.58v9.75h-2.49Z"/>
        <path class="cls-4" d="M114.96,62.03h2.56l1.18,4.52c.21.8.44,1.82.44,1.82h.04s.21-1.04.42-1.84l1.22-4.5h2.2l1.27,4.5c.21.82.46,1.84.46,1.84h.04s.23-1.03.44-1.82l1.23-4.52h2.51l-2.91,9.75h-2.36l-1.29-4.79c-.21-.78-.44-1.69-.44-1.69h-.04s-.25.91-.46,1.69l-1.33,4.79h-2.34l-2.85-9.75Z"/>
        <path class="cls-4" d="M129.13,66.89c0-2.89,1.96-5.13,4.81-5.13,3.13,0,4.81,2.39,4.81,5.87h-7.07c.19,1.5,1.03,2.43,2.49,2.43,1.01,0,1.6-.46,1.88-1.2h2.55c-.36,1.73-1.9,3.19-4.41,3.19-3.23,0-5.05-2.26-5.05-5.17ZM131.71,65.85h4.33c-.08-1.24-.89-2.09-2.07-2.09-1.37,0-2.03.82-2.26,2.09Z"/>
        <path class="cls-4" d="M142.34,62.03h2.62l1.56,5.05c.29.93.44,1.56.44,1.56h.04s.13-.63.42-1.56l1.6-5.05h2.58l-3.4,9.75h-2.47l-3.38-9.75Z"/>
        <path class="cls-4" d="M151.7,66.89c0-2.89,1.96-5.13,4.81-5.13,3.13,0,4.81,2.39,4.81,5.87h-7.07c.19,1.5,1.03,2.43,2.49,2.43,1.01,0,1.6-.46,1.88-1.2h2.55c-.36,1.73-1.9,3.19-4.41,3.19-3.23,0-5.05-2.26-5.05-5.17ZM154.29,65.85h4.33c-.08-1.24-.89-2.09-2.07-2.09-1.37,0-2.03.82-2.26,2.09Z"/>
        <path class="cls-4" d="M165,63.59h.06c.59-1.1,1.25-1.67,2.39-1.67.28,0,.46.02.61.08v2.26h-.06c-1.69-.17-2.91.72-2.91,2.77v4.75h-2.58v-9.75h2.49v1.56Z"/>
        <path class="cls-4" d="M171.71,63.36h.06c.67-1.04,1.56-1.6,2.89-1.6,2.01,0,3.36,1.52,3.36,3.65v6.36h-2.58v-5.98c0-1.04-.61-1.79-1.69-1.79-1.14,0-1.98.91-1.98,2.24v5.53h-2.58v-9.75h2.53v1.33Z"/>
        <path class="cls-4" d="M179.61,58.19h2.58v2.32h-2.58v-2.32ZM179.61,62.03h2.58v9.75h-2.58v-9.75Z"/>
        <path class="cls-4" d="M183.26,68.62h2.39c.17,1.12.97,1.61,2.13,1.61s1.79-.44,1.79-1.12c0-.93-1.23-1.03-2.56-1.29-1.75-.34-3.46-.82-3.46-2.94s1.75-3.12,3.97-3.12c2.56,0,3.99,1.27,4.18,3.23h-2.34c-.11-1.04-.78-1.42-1.88-1.42-1.01,0-1.67.38-1.67,1.08,0,.84,1.29.91,2.68,1.2,1.63.34,3.44.8,3.44,3.08,0,1.96-1.67,3.13-4.1,3.13-2.83,0-4.41-1.37-4.56-3.44Z"/>
        <path class="cls-4" d="M192.48,68.62h2.39c.17,1.12.97,1.61,2.13,1.61s1.79-.44,1.79-1.12c0-.93-1.23-1.03-2.56-1.29-1.75-.34-3.46-.82-3.46-2.94s1.75-3.12,3.97-3.12c2.56,0,3.99,1.27,4.18,3.23h-2.34c-.11-1.04-.78-1.42-1.88-1.42-1.01,0-1.67.38-1.67,1.08,0,.84,1.29.91,2.68,1.2,1.63.34,3.44.8,3.44,3.08,0,1.96-1.67,3.13-4.1,3.13-2.83,0-4.41-1.37-4.56-3.44Z"/>
        <path class="cls-4" d="M208.21,70.69h-.04c-.49.74-1.2,1.31-2.87,1.31-1.99,0-3.4-1.04-3.4-2.98,0-2.15,1.75-2.83,3.91-3.13,1.61-.23,2.36-.36,2.36-1.1,0-.7-.55-1.16-1.63-1.16-1.22,0-1.8.44-1.88,1.37h-2.3c.08-1.71,1.35-3.21,4.2-3.21s4.1,1.31,4.1,3.59v4.96c0,.74.11,1.18.34,1.35v.09h-2.49c-.15-.19-.25-.65-.3-1.08ZM208.23,68.34v-1.46c-.46.27-1.16.42-1.8.57-1.35.3-2.01.61-2.01,1.52s.61,1.23,1.52,1.23c1.48,0,2.3-.91,2.3-1.86Z"/>
        <path class="cls-4" d="M212.03,72.06h2.56c.21.61.76,1.08,1.96,1.08,1.46,0,2.17-.7,2.17-2.03v-1.06h-.06c-.57.65-1.31,1.14-2.55,1.14-2.17,0-4.29-1.71-4.29-4.65s1.75-4.77,4.22-4.77c1.22,0,2.11.48,2.7,1.29h.04v-1.03h2.49v9c0,1.37-.44,2.3-1.16,2.96-.82.76-2.07,1.1-3.51,1.1-2.66,0-4.29-1.14-4.56-3.04ZM218.85,66.48c0-1.42-.76-2.64-2.32-2.64-1.31,0-2.18,1.03-2.18,2.66s.87,2.62,2.2,2.62c1.63,0,2.3-1.2,2.3-2.64Z"/>
        <path class="cls-4" d="M222.46,66.89c0-2.89,1.96-5.13,4.81-5.13,3.13,0,4.81,2.39,4.81,5.87h-7.07c.19,1.5,1.03,2.43,2.49,2.43,1.01,0,1.6-.46,1.88-1.2h2.55c-.36,1.73-1.9,3.19-4.41,3.19-3.23,0-5.05-2.26-5.05-5.17ZM225.04,65.85h4.33c-.08-1.24-.89-2.09-2.07-2.09-1.37,0-2.03.82-2.26,2.09Z"/>
        <path class="cls-4" d="M236.46,58.19h2.58v2.32h-2.58v-2.32ZM236.46,62.03h2.58v9.75h-2.58v-9.75Z"/>
        <path class="cls-4" d="M240.11,68.62h2.39c.17,1.12.97,1.61,2.13,1.61s1.79-.44,1.79-1.12c0-.93-1.23-1.03-2.56-1.29-1.75-.34-3.46-.82-3.46-2.94s1.75-3.12,3.97-3.12c2.56,0,3.99,1.27,4.18,3.23h-2.34c-.11-1.04-.78-1.42-1.88-1.42-1.01,0-1.67.38-1.67,1.08,0,.84,1.29.91,2.68,1.2,1.63.34,3.44.8,3.44,3.08,0,1.96-1.67,3.13-4.1,3.13-2.83,0-4.41-1.37-4.56-3.44Z"/>
        <path class="cls-4" d="M252.65,66.89c0-2.89,1.96-5.13,4.81-5.13,3.13,0,4.81,2.39,4.81,5.87h-7.07c.19,1.5,1.03,2.43,2.49,2.43,1.01,0,1.6-.46,1.88-1.2h2.55c-.36,1.73-1.9,3.19-4.41,3.19-3.23,0-5.05-2.26-5.05-5.17ZM255.23,65.85h4.33c-.08-1.24-.89-2.09-2.07-2.09-1.37,0-2.03.82-2.26,2.09Z"/>
        <path class="cls-4" d="M262.98,66.89c0-2.89,1.96-5.13,4.81-5.13,3.13,0,4.81,2.39,4.81,5.87h-7.07c.19,1.5,1.03,2.43,2.49,2.43,1.01,0,1.6-.46,1.88-1.2h2.55c-.36,1.73-1.9,3.19-4.41,3.19-3.23,0-5.05-2.26-5.05-5.17ZM265.57,65.85h4.33c-.08-1.24-.89-2.09-2.07-2.09-1.37,0-2.03.82-2.26,2.09Z"/>
        <path class="cls-4" d="M276.32,63.36h.06c.67-1.04,1.56-1.6,2.89-1.6,2.01,0,3.36,1.52,3.36,3.65v6.36h-2.58v-5.98c0-1.04-.61-1.79-1.69-1.79-1.14,0-1.98.91-1.98,2.24v5.53h-2.58v-9.75h2.53v1.33Z"/>
        <path class="cls-4" d="M287.42,62.03h2.49v1.22h.06c.63-.86,1.54-1.48,2.87-1.48,2.58,0,4.24,2.11,4.24,5.15s-1.71,5.15-4.22,5.15c-1.37,0-2.26-.55-2.81-1.39h-.04v4.29h-2.58v-12.94ZM294.45,66.99c0-1.84-.65-3.13-2.24-3.13s-2.26,1.39-2.26,3.13.82,2.93,2.36,2.93c1.31,0,2.15-1.08,2.15-2.93Z"/>
        <path class="cls-4" d="M297.79,66.91c0-2.91,2.07-5.15,5.09-5.15s5.09,2.24,5.09,5.15-2.07,5.15-5.09,5.15-5.09-2.24-5.09-5.15ZM305.35,66.91c0-1.9-.89-3.19-2.47-3.19s-2.47,1.29-2.47,3.19.87,3.17,2.47,3.17,2.47-1.27,2.47-3.17Z"/>
        <path class="cls-4" d="M309.17,62.03h2.49v1.22h.06c.63-.86,1.54-1.48,2.87-1.48,2.58,0,4.24,2.11,4.24,5.15s-1.71,5.15-4.22,5.15c-1.37,0-2.26-.55-2.81-1.39h-.04v4.29h-2.58v-12.94ZM316.2,66.99c0-1.84-.65-3.13-2.24-3.13s-2.26,1.39-2.26,3.13.82,2.93,2.36,2.93c1.31,0,2.15-1.08,2.15-2.93Z"/>
        <path class="cls-4" d="M329.37,71.78v-1.14h-.06c-.67.89-1.42,1.41-2.79,1.41-2.17,0-3.38-1.39-3.38-3.51v-6.5h2.56v6.06c0,1.14.51,1.77,1.61,1.77,1.22,0,1.96-.91,1.96-2.2v-5.62h2.58v9.75h-2.49Z"/>
        <path class="cls-4" d="M333.53,62.03h2.49v1.22h.06c.63-.86,1.54-1.48,2.87-1.48,2.58,0,4.24,2.11,4.24,5.15s-1.71,5.15-4.22,5.15c-1.37,0-2.26-.55-2.81-1.39h-.04v4.29h-2.58v-12.94ZM340.56,66.99c0-1.84-.65-3.13-2.24-3.13s-2.26,1.39-2.26,3.13.82,2.93,2.36,2.93c1.31,0,2.15-1.08,2.15-2.93Z"/>
        <path class="cls-4" d="M347.31,72.06h2.56c.21.61.76,1.08,1.96,1.08,1.46,0,2.17-.7,2.17-2.03v-1.06h-.06c-.57.65-1.31,1.14-2.55,1.14-2.17,0-4.29-1.71-4.29-4.65s1.75-4.77,4.22-4.77c1.22,0,2.11.48,2.7,1.29h.04v-1.03h2.49v9c0,1.37-.44,2.3-1.16,2.96-.82.76-2.07,1.1-3.51,1.1-2.66,0-4.29-1.14-4.56-3.04ZM354.13,66.48c0-1.42-.76-2.64-2.32-2.64-1.31,0-2.18,1.03-2.18,2.66s.87,2.62,2.2,2.62c1.63,0,2.3-1.2,2.3-2.64Z"/>
        <path class="cls-4" d="M364.04,70.69h-.04c-.49.74-1.2,1.31-2.87,1.31-1.99,0-3.4-1.04-3.4-2.98,0-2.15,1.75-2.83,3.91-3.13,1.61-.23,2.36-.36,2.36-1.1,0-.7-.55-1.16-1.63-1.16-1.22,0-1.8.44-1.88,1.37h-2.3c.08-1.71,1.35-3.21,4.2-3.21s4.1,1.31,4.1,3.59v4.96c0,.74.11,1.18.34,1.35v.09h-2.49c-.15-.19-.25-.65-.3-1.08ZM364.06,68.34v-1.46c-.46.27-1.16.42-1.8.57-1.35.3-2.01.61-2.01,1.52s.61,1.23,1.52,1.23c1.48,0,2.3-.91,2.3-1.86Z"/>
        <path class="cls-4" d="M368.17,58.19h2.58v13.58h-2.58v-13.58Z"/>
        <path class="cls-4" d="M371.99,66.89c0-2.89,1.96-5.13,4.81-5.13,3.13,0,4.81,2.39,4.81,5.87h-7.07c.19,1.5,1.03,2.43,2.49,2.43,1.01,0,1.6-.46,1.88-1.2h2.55c-.36,1.73-1.9,3.19-4.41,3.19-3.23,0-5.05-2.26-5.05-5.17ZM374.57,65.85h4.33c-.08-1.24-.89-2.09-2.07-2.09-1.37,0-2.03.82-2.26,2.09Z"/>
        <path class="cls-4" d="M385.29,63.59h.06c.59-1.1,1.25-1.67,2.39-1.67.28,0,.46.02.61.08v2.26h-.06c-1.69-.17-2.91.72-2.91,2.77v4.75h-2.58v-9.75h2.49v1.56Z"/>
        <path class="cls-4" d="M389.47,58.19h2.58v2.32h-2.58v-2.32ZM389.47,62.03h2.58v9.75h-2.58v-9.75Z"/>
        <path class="cls-4" d="M393.25,66.89c0-2.89,1.96-5.13,4.81-5.13,3.13,0,4.81,2.39,4.81,5.87h-7.07c.19,1.5,1.03,2.43,2.49,2.43,1.01,0,1.6-.46,1.88-1.2h2.55c-.36,1.73-1.9,3.19-4.41,3.19-3.23,0-5.05-2.26-5.05-5.17ZM395.83,65.85h4.33c-.08-1.24-.89-2.09-2.07-2.09-1.37,0-2.03.82-2.26,2.09Z"/>
        <path class="cls-4" d="M406.77,66.91c0-3.04,1.73-5.15,4.16-5.15,1.37,0,2.22.63,2.75,1.44h.06v-5.02h2.58v13.58h-2.49v-1.27h-.04c-.57.93-1.54,1.56-2.91,1.56-2.45,0-4.12-2-4.12-5.15ZM413.8,66.97c0-1.86-.61-3.12-2.26-3.12-1.42,0-2.15,1.25-2.15,3.06s.74,2.98,2.07,2.98c1.54,0,2.34-1.14,2.34-2.93Z"/>
        <path class="cls-4" d="M418,58.19h2.58v2.32h-2.58v-2.32ZM418,62.03h2.58v9.75h-2.58v-9.75Z"/>
        <path class="cls-4" d="M421.78,66.89c0-2.89,1.96-5.13,4.81-5.13,3.13,0,4.81,2.39,4.81,5.87h-7.07c.19,1.5,1.03,2.43,2.49,2.43,1.01,0,1.6-.46,1.88-1.2h2.55c-.36,1.73-1.9,3.19-4.41,3.19-3.23,0-5.05-2.26-5.05-5.17ZM424.37,65.85h4.33c-.08-1.24-.89-2.09-2.07-2.09-1.37,0-2.03.82-2.26,2.09Z"/>
        <path class="cls-4" d="M434.17,74.87v-1.84c1.04-.02,1.61-.11,1.61-1.01v-9.99h2.58v10.12c0,1.14-.23,1.71-.65,2.13-.49.51-1.25.7-2.09.7-.48,0-1.06-.04-1.46-.11ZM435.79,58.19h2.58v2.32h-2.58v-2.32Z"/>
        <path class="cls-4" d="M439.57,66.91c0-2.91,2.07-5.15,5.09-5.15s5.09,2.24,5.09,5.15-2.07,5.15-5.09,5.15-5.09-2.24-5.09-5.15ZM447.13,66.91c0-1.9-.89-3.19-2.47-3.19s-2.47,1.29-2.47,3.19.87,3.17,2.47,3.17,2.47-1.27,2.47-3.17Z"/>
        <path class="cls-4" d="M453.48,63.36h.06c.67-1.04,1.56-1.6,2.89-1.6,2.01,0,3.36,1.52,3.36,3.65v6.36h-2.58v-5.98c0-1.04-.61-1.79-1.69-1.79-1.14,0-1.98.91-1.98,2.24v5.53h-2.58v-9.75h2.53v1.33Z"/>
        <path class="cls-4" d="M461.11,72.06h2.56c.21.61.76,1.08,1.96,1.08,1.46,0,2.17-.7,2.17-2.03v-1.06h-.06c-.57.65-1.31,1.14-2.55,1.14-2.17,0-4.29-1.71-4.29-4.65s1.75-4.77,4.22-4.77c1.22,0,2.11.48,2.7,1.29h.04v-1.03h2.49v9c0,1.37-.44,2.3-1.16,2.96-.82.76-2.07,1.1-3.51,1.1-2.66,0-4.29-1.14-4.56-3.04ZM467.93,66.48c0-1.42-.76-2.64-2.32-2.64-1.31,0-2.18,1.03-2.18,2.66s.87,2.62,2.2,2.62c1.63,0,2.3-1.2,2.3-2.64Z"/>
        <path class="cls-4" d="M471.54,66.89c0-2.89,1.96-5.13,4.81-5.13,3.13,0,4.81,2.39,4.81,5.87h-7.07c.19,1.5,1.03,2.43,2.49,2.43,1.01,0,1.6-.46,1.88-1.2h2.55c-.36,1.73-1.9,3.19-4.41,3.19-3.23,0-5.05-2.26-5.05-5.17ZM474.13,65.85h4.33c-.08-1.24-.89-2.09-2.07-2.09-1.37,0-2.03.82-2.26,2.09Z"/>
      </g>
      <g>
        <path class="cls-4" d="M59.78,92.33l-1.12,1.16v3.29h-2.56v-13.58h2.56v7.52l3.46-3.68h3.1l-3.59,3.7,4.03,6.04h-3.13l-2.74-4.45Z"/>
        <path class="cls-4" d="M72.36,96.78v-1.14h-.06c-.67.89-1.42,1.41-2.79,1.41-2.17,0-3.38-1.39-3.38-3.51v-6.5h2.56v6.06c0,1.14.51,1.77,1.61,1.77,1.22,0,1.96-.91,1.96-2.2v-5.62h2.58v9.75h-2.49Z"/>
        <path class="cls-4" d="M79.05,88.36h.06c.67-1.04,1.56-1.6,2.89-1.6,2.01,0,3.36,1.52,3.36,3.65v6.36h-2.58v-5.98c0-1.04-.61-1.79-1.69-1.79-1.14,0-1.98.91-1.98,2.24v5.53h-2.58v-9.75h2.53v1.33Z"/>
        <path class="cls-4" d="M86.34,93.63h2.39c.17,1.12.97,1.61,2.13,1.61s1.79-.44,1.79-1.12c0-.93-1.23-1.03-2.56-1.29-1.75-.34-3.46-.82-3.46-2.94s1.75-3.12,3.97-3.12c2.56,0,3.99,1.27,4.18,3.23h-2.34c-.11-1.04-.78-1.42-1.88-1.42-1.01,0-1.67.38-1.67,1.08,0,.84,1.29.91,2.68,1.2,1.63.34,3.44.8,3.44,3.08,0,1.96-1.67,3.13-4.1,3.13-2.83,0-4.41-1.37-4.56-3.44Z"/>
        <path class="cls-4" d="M95.43,87.03h1.35v-3.04h2.53v3.04h1.67v1.71h-1.67v5.17c0,.72.4.97.97.97.32,0,.76-.02.76-.02v1.9s-.59.04-1.61.04c-1.25,0-2.64-.49-2.64-2.34v-5.72h-1.35v-1.71Z"/>
        <path class="cls-4" d="M101.75,91.9c0-2.89,1.96-5.13,4.81-5.13,3.13,0,4.81,2.39,4.81,5.87h-7.07c.19,1.5,1.03,2.43,2.49,2.43,1.01,0,1.6-.46,1.88-1.2h2.55c-.36,1.73-1.9,3.19-4.41,3.19-3.23,0-5.05-2.26-5.05-5.17ZM104.34,90.85h4.33c-.08-1.24-.89-2.09-2.07-2.09-1.37,0-2.03.82-2.26,2.09Z"/>
        <path class="cls-4" d="M115.09,88.36h.06c.67-1.04,1.56-1.6,2.89-1.6,2.01,0,3.36,1.52,3.36,3.65v6.36h-2.58v-5.98c0-1.04-.61-1.79-1.69-1.79-1.14,0-1.98.91-1.98,2.24v5.53h-2.58v-9.75h2.53v1.33Z"/>
        <path class="cls-4" d="M128.83,95.7h-.04c-.49.74-1.2,1.31-2.87,1.31-1.99,0-3.4-1.04-3.4-2.98,0-2.15,1.75-2.83,3.91-3.13,1.61-.23,2.36-.36,2.36-1.1,0-.7-.55-1.16-1.63-1.16-1.22,0-1.8.44-1.88,1.37h-2.3c.08-1.71,1.35-3.21,4.2-3.21s4.1,1.31,4.1,3.59v4.96c0,.74.11,1.18.34,1.35v.09h-2.49c-.15-.19-.25-.65-.3-1.08ZM128.84,93.34v-1.46c-.46.27-1.16.42-1.8.57-1.35.3-2.01.61-2.01,1.52s.61,1.23,1.52,1.23c1.48,0,2.3-.91,2.3-1.86Z"/>
        <path class="cls-4" d="M138.74,95.7h-.04c-.49.74-1.2,1.31-2.87,1.31-1.99,0-3.4-1.04-3.4-2.98,0-2.15,1.75-2.83,3.91-3.13,1.61-.23,2.36-.36,2.36-1.1,0-.7-.55-1.16-1.63-1.16-1.22,0-1.8.44-1.88,1.37h-2.3c.08-1.71,1.35-3.21,4.2-3.21s4.1,1.31,4.1,3.59v4.96c0,.74.11,1.18.34,1.35v.09h-2.49c-.15-.19-.25-.65-.3-1.08ZM138.76,93.34v-1.46c-.46.27-1.16.42-1.8.57-1.35.3-2.01.61-2.01,1.52s.61,1.23,1.52,1.23c1.48,0,2.3-.91,2.3-1.86Z"/>
        <path class="cls-4" d="M145.32,88.59h.06c.59-1.1,1.25-1.67,2.39-1.67.28,0,.46.02.61.08v2.26h-.06c-1.69-.17-2.91.72-2.91,2.77v4.75h-2.58v-9.75h2.49v1.56Z"/>
        <path class="cls-4" d="M148.89,93.63h2.39c.17,1.12.97,1.61,2.13,1.61s1.79-.44,1.79-1.12c0-.93-1.23-1.03-2.56-1.29-1.75-.34-3.46-.82-3.46-2.94s1.75-3.12,3.97-3.12c2.56,0,3.99,1.27,4.18,3.23h-2.34c-.11-1.04-.78-1.42-1.88-1.42-1.01,0-1.67.38-1.67,1.08,0,.84,1.29.91,2.68,1.2,1.63.34,3.44.8,3.44,3.08,0,1.96-1.67,3.13-4.1,3.13-2.83,0-4.41-1.37-4.56-3.44Z"/>
        <path class="cls-4" d="M161.43,91.9c0-2.89,1.96-5.13,4.81-5.13,3.13,0,4.81,2.39,4.81,5.87h-7.07c.19,1.5,1.03,2.43,2.49,2.43,1.01,0,1.6-.46,1.88-1.2h2.55c-.36,1.73-1.9,3.19-4.41,3.19-3.23,0-5.05-2.26-5.05-5.17ZM164.01,90.85h4.33c-.08-1.24-.89-2.09-2.07-2.09-1.37,0-2.03.82-2.26,2.09Z"/>
        <path class="cls-4" d="M171.77,91.9c0-2.89,1.96-5.13,4.81-5.13,3.13,0,4.81,2.39,4.81,5.87h-7.07c.19,1.5,1.03,2.43,2.49,2.43,1.01,0,1.6-.46,1.88-1.2h2.55c-.36,1.73-1.9,3.19-4.41,3.19-3.23,0-5.05-2.26-5.05-5.17ZM174.35,90.85h4.33c-.08-1.24-.89-2.09-2.07-2.09-1.37,0-2.03.82-2.26,2.09Z"/>
        <path class="cls-4" d="M185.1,88.36h.06c.67-1.04,1.56-1.6,2.89-1.6,2.01,0,3.36,1.52,3.36,3.65v6.36h-2.58v-5.98c0-1.04-.61-1.79-1.69-1.79-1.14,0-1.98.91-1.98,2.24v5.53h-2.58v-9.75h2.53v1.33Z"/>
        <path class="cls-4" d="M196.2,87.03h2.49v1.22h.06c.63-.86,1.54-1.48,2.87-1.48,2.58,0,4.24,2.11,4.24,5.15s-1.71,5.15-4.22,5.15c-1.37,0-2.26-.55-2.81-1.39h-.04v4.29h-2.58v-12.94ZM203.23,91.99c0-1.84-.65-3.13-2.24-3.13s-2.26,1.39-2.26,3.13.82,2.93,2.36,2.93c1.31,0,2.15-1.08,2.15-2.93Z"/>
        <path class="cls-4" d="M206.57,91.92c0-2.91,2.07-5.15,5.09-5.15s5.09,2.24,5.09,5.15-2.07,5.15-5.09,5.15-5.09-2.24-5.09-5.15ZM214.13,91.92c0-1.9-.89-3.19-2.47-3.19s-2.47,1.29-2.47,3.19.87,3.17,2.47,3.17,2.47-1.27,2.47-3.17Z"/>
        <path class="cls-4" d="M217.48,91.92c0-3.04,1.73-5.15,4.16-5.15,1.37,0,2.22.63,2.75,1.44h.06v-5.02h2.58v13.58h-2.49v-1.27h-.04c-.57.93-1.54,1.56-2.91,1.56-2.45,0-4.12-2-4.12-5.15ZM224.51,91.97c0-1.86-.61-3.12-2.26-3.12-1.42,0-2.15,1.25-2.15,3.06s.74,2.98,2.07,2.98c1.54,0,2.34-1.14,2.34-2.93Z"/>
        <path class="cls-4" d="M228.71,83.2h2.58v2.32h-2.58v-2.32ZM228.71,87.03h2.58v9.75h-2.58v-9.75Z"/>
        <path class="cls-4" d="M239.12,96.78v-1.14h-.06c-.67.89-1.42,1.41-2.79,1.41-2.17,0-3.38-1.39-3.38-3.51v-6.5h2.56v6.06c0,1.14.51,1.77,1.61,1.77,1.22,0,1.96-.91,1.96-2.2v-5.62h2.58v9.75h-2.49Z"/>
        <path class="cls-4" d="M243.28,87.03h2.49v1.31h.06c.53-.89,1.48-1.58,2.83-1.58,1.23,0,2.22.68,2.7,1.71h.04c.67-1.06,1.69-1.71,2.93-1.71,2.05,0,3.21,1.33,3.21,3.46v6.55h-2.58v-6.12c0-1.1-.55-1.67-1.5-1.67-1.08,0-1.75.84-1.75,2.13v5.66h-2.58v-6.12c0-1.1-.55-1.67-1.5-1.67-1.04,0-1.75.84-1.75,2.13v5.66h-2.58v-9.75Z"/>
        <path class="cls-4" d="M264.85,95.56h-.04v1.22h-2.49v-13.58h2.58v5.02h.06c.53-.82,1.37-1.44,2.72-1.44,2.45,0,4.2,2.11,4.2,5.15s-1.67,5.15-4.12,5.15c-1.37,0-2.34-.59-2.91-1.5ZM269.25,91.92c0-1.8-.72-3.06-2.17-3.06-1.63,0-2.24,1.31-2.24,3.12s.89,2.93,2.34,2.93c1.33,0,2.07-1.1,2.07-2.98Z"/>
        <path class="cls-4" d="M273.07,83.2h2.58v2.32h-2.58v-2.32ZM273.07,87.03h2.58v9.75h-2.58v-9.75Z"/>
        <path class="cls-4" d="M276.85,91.9c0-2.89,1.96-5.13,4.81-5.13,3.13,0,4.81,2.39,4.81,5.87h-7.07c.19,1.5,1.03,2.43,2.49,2.43,1.01,0,1.6-.46,1.88-1.2h2.55c-.36,1.73-1.9,3.19-4.41,3.19-3.23,0-5.05-2.26-5.05-5.17ZM279.44,90.85h4.33c-.08-1.24-.89-2.09-2.07-2.09-1.37,0-2.03.82-2.26,2.09Z"/>
        <path class="cls-4" d="M287.19,91.92c0-3.04,1.73-5.15,4.16-5.15,1.37,0,2.22.63,2.75,1.44h.06v-5.02h2.58v13.58h-2.49v-1.27h-.04c-.57.93-1.54,1.56-2.91,1.56-2.45,0-4.12-2-4.12-5.15ZM294.22,91.97c0-1.86-.61-3.12-2.26-3.12-1.42,0-2.15,1.25-2.15,3.06s.74,2.98,2.07,2.98c1.54,0,2.34-1.14,2.34-2.93Z"/>
        <path class="cls-4" d="M297.85,87.03h1.35v-3.04h2.53v3.04h1.67v1.71h-1.67v5.17c0,.72.4.97.97.97.32,0,.76-.02.76-.02v1.9s-.59.04-1.61.04c-1.25,0-2.64-.49-2.64-2.34v-5.72h-1.35v-1.71Z"/>
        <path class="cls-4" d="M307.44,91.9c0-2.89,1.96-5.13,4.81-5.13,3.13,0,4.81,2.39,4.81,5.87h-7.07c.19,1.5,1.03,2.43,2.49,2.43,1.01,0,1.6-.46,1.88-1.2h2.55c-.36,1.73-1.9,3.19-4.41,3.19-3.23,0-5.05-2.26-5.05-5.17ZM310.03,90.85h4.33c-.08-1.24-.89-2.09-2.07-2.09-1.37,0-2.03.82-2.26,2.09Z"/>
        <path class="cls-4" d="M320.78,88.36h.06c.67-1.04,1.56-1.6,2.89-1.6,2.01,0,3.36,1.52,3.36,3.65v6.36h-2.58v-5.98c0-1.04-.61-1.79-1.69-1.79-1.14,0-1.98.91-1.98,2.24v5.53h-2.58v-9.75h2.53v1.33Z"/>
        <path class="cls-4" d="M331.4,91.92c0-3.04,1.73-5.15,4.16-5.15,1.37,0,2.22.63,2.75,1.44h.06v-5.02h2.58v13.58h-2.49v-1.27h-.04c-.57.93-1.54,1.56-2.91,1.56-2.45,0-4.12-2-4.12-5.15ZM338.43,91.97c0-1.86-.61-3.12-2.26-3.12-1.42,0-2.15,1.25-2.15,3.06s.74,2.98,2.07,2.98c1.54,0,2.34-1.14,2.34-2.93Z"/>
        <path class="cls-4" d="M342.16,91.9c0-2.89,1.96-5.13,4.81-5.13,3.13,0,4.81,2.39,4.81,5.87h-7.07c.19,1.5,1.03,2.43,2.49,2.43,1.01,0,1.6-.46,1.88-1.2h2.55c-.36,1.73-1.9,3.19-4.41,3.19-3.23,0-5.05-2.26-5.05-5.17ZM344.74,90.85h4.33c-.08-1.24-.89-2.09-2.07-2.09-1.37,0-2.03.82-2.26,2.09Z"/>
        <path class="cls-4" d="M355.68,91.92c0-2.91,2.07-5.15,5.09-5.15s5.09,2.24,5.09,5.15-2.07,5.15-5.09,5.15-5.09-2.24-5.09-5.15ZM363.24,91.92c0-1.9-.89-3.19-2.47-3.19s-2.47,1.29-2.47,3.19.87,3.17,2.47,3.17,2.47-1.27,2.47-3.17Z"/>
        <path class="cls-4" d="M373.22,96.78v-1.14h-.06c-.67.89-1.42,1.41-2.79,1.41-2.17,0-3.38-1.39-3.38-3.51v-6.5h2.56v6.06c0,1.14.51,1.77,1.61,1.77,1.22,0,1.96-.91,1.96-2.2v-5.62h2.58v9.75h-2.49Z"/>
        <path class="cls-4" d="M376.91,91.92c0-3.04,1.73-5.15,4.16-5.15,1.37,0,2.22.63,2.75,1.44h.06v-5.02h2.58v13.58h-2.49v-1.27h-.04c-.57.93-1.54,1.56-2.91,1.56-2.45,0-4.12-2-4.12-5.15ZM383.94,91.97c0-1.86-.61-3.12-2.26-3.12-1.42,0-2.15,1.25-2.15,3.06s.74,2.98,2.07,2.98c1.54,0,2.34-1.14,2.34-2.93Z"/>
        <path class="cls-4" d="M387.66,91.9c0-2.89,1.96-5.13,4.81-5.13,3.13,0,4.81,2.39,4.81,5.87h-7.07c.19,1.5,1.03,2.43,2.49,2.43,1.01,0,1.6-.46,1.88-1.2h2.55c-.36,1.73-1.9,3.19-4.41,3.19-3.23,0-5.05-2.26-5.05-5.17ZM390.24,90.85h4.33c-.08-1.24-.89-2.09-2.07-2.09-1.37,0-2.03.82-2.26,2.09Z"/>
        <path class="cls-4" d="M400.96,88.59h.06c.59-1.1,1.25-1.67,2.39-1.67.29,0,.46.02.61.08v2.26h-.06c-1.69-.17-2.91.72-2.91,2.77v4.75h-2.58v-9.75h2.49v1.56Z"/>
        <path class="cls-4" d="M404.4,91.9c0-2.89,1.96-5.13,4.81-5.13,3.13,0,4.81,2.39,4.81,5.87h-7.07c.19,1.5,1.03,2.43,2.49,2.43,1.01,0,1.6-.46,1.88-1.2h2.55c-.36,1.73-1.9,3.19-4.41,3.19-3.23,0-5.05-2.26-5.05-5.17ZM406.98,90.85h4.33c-.08-1.24-.89-2.09-2.07-2.09-1.37,0-2.03.82-2.26,2.09Z"/>
        <path class="cls-4" d="M418.14,97.06h2.56c.21.61.76,1.08,1.96,1.08,1.46,0,2.17-.7,2.17-2.03v-1.06h-.06c-.57.65-1.31,1.14-2.55,1.14-2.17,0-4.29-1.71-4.29-4.65s1.75-4.77,4.22-4.77c1.22,0,2.11.48,2.7,1.29h.04v-1.03h2.49v9c0,1.37-.44,2.3-1.16,2.96-.82.76-2.07,1.1-3.51,1.1-2.66,0-4.29-1.14-4.56-3.04ZM424.96,91.48c0-1.42-.76-2.64-2.32-2.64-1.31,0-2.18,1.03-2.18,2.66s.87,2.62,2.2,2.62c1.63,0,2.3-1.2,2.3-2.64Z"/>
        <path class="cls-4" d="M428.57,91.9c0-2.89,1.96-5.13,4.81-5.13,3.13,0,4.81,2.39,4.81,5.87h-7.07c.19,1.5,1.03,2.43,2.49,2.43,1.01,0,1.6-.46,1.88-1.2h2.55c-.36,1.73-1.9,3.19-4.41,3.19-3.23,0-5.05-2.26-5.05-5.17ZM431.15,90.85h4.33c-.08-1.24-.89-2.09-2.07-2.09-1.37,0-2.03.82-2.26,2.09Z"/>
        <path class="cls-4" d="M441.9,88.36h.06c.67-1.04,1.56-1.6,2.89-1.6,2.01,0,3.36,1.52,3.36,3.65v6.36h-2.58v-5.98c0-1.04-.61-1.79-1.69-1.79-1.14,0-1.98.91-1.98,2.24v5.53h-2.58v-9.75h2.53v1.33Z"/>
        <path class="cls-4" d="M449.33,91.9c0-2.89,1.96-5.13,4.81-5.13,3.13,0,4.81,2.39,4.81,5.87h-7.07c.19,1.5,1.03,2.43,2.49,2.43,1.01,0,1.6-.46,1.88-1.2h2.55c-.36,1.73-1.9,3.19-4.41,3.19-3.23,0-5.05-2.26-5.05-5.17ZM451.92,90.85h4.33c-.08-1.24-.89-2.09-2.07-2.09-1.37,0-2.03.82-2.26,2.09Z"/>
        <path class="cls-4" d="M462.63,88.59h.06c.59-1.1,1.25-1.67,2.39-1.67.28,0,.46.02.61.08v2.26h-.06c-1.69-.17-2.91.72-2.91,2.77v4.75h-2.58v-9.75h2.49v1.56Z"/>
        <path class="cls-4" d="M472.38,95.7h-.04c-.49.74-1.2,1.31-2.87,1.31-1.99,0-3.4-1.04-3.4-2.98,0-2.15,1.75-2.83,3.91-3.13,1.61-.23,2.36-.36,2.36-1.1,0-.7-.55-1.16-1.63-1.16-1.22,0-1.8.44-1.88,1.37h-2.3c.08-1.71,1.35-3.21,4.2-3.21s4.1,1.31,4.1,3.59v4.96c0,.74.11,1.18.34,1.35v.09h-2.49c-.15-.19-.25-.65-.3-1.08ZM472.4,93.34v-1.46c-.46.27-1.16.42-1.8.57-1.35.3-2.01.61-2.01,1.52s.61,1.23,1.52,1.23c1.48,0,2.3-.91,2.3-1.86Z"/>
        <path class="cls-4" d="M475.71,87.03h1.35v-3.04h2.53v3.04h1.67v1.71h-1.67v5.17c0,.72.4.97.97.97.32,0,.76-.02.76-.02v1.9s-.59.04-1.61.04c-1.25,0-2.64-.49-2.64-2.34v-5.72h-1.35v-1.71Z"/>
        <path class="cls-4" d="M482.58,83.2h2.58v2.32h-2.58v-2.32ZM482.58,87.03h2.58v9.75h-2.58v-9.75Z"/>
        <path class="cls-4" d="M486.36,91.9c0-2.89,1.96-5.13,4.81-5.13,3.13,0,4.81,2.39,4.81,5.87h-7.07c.19,1.5,1.03,2.43,2.49,2.43,1.01,0,1.6-.46,1.88-1.2h2.55c-.36,1.73-1.9,3.19-4.41,3.19-3.23,0-5.05-2.26-5.05-5.17ZM488.95,90.85h4.33c-.08-1.24-.89-2.09-2.07-2.09-1.37,0-2.03.82-2.26,2.09Z"/>
      </g>
      <g>
        <path class="cls-4" d="M62.25,121.78v-1.14h-.06c-.67.89-1.42,1.41-2.79,1.41-2.17,0-3.38-1.39-3.38-3.51v-6.5h2.56v6.06c0,1.14.51,1.77,1.61,1.77,1.22,0,1.96-.91,1.96-2.2v-5.62h2.58v9.75h-2.49Z"/>
        <path class="cls-4" d="M66.41,108.2h2.58v2.32h-2.58v-2.32ZM66.41,112.04h2.58v9.75h-2.58v-9.75Z"/>
        <path class="cls-4" d="M70.1,112.04h1.35v-3.04h2.53v3.04h1.67v1.71h-1.67v5.17c0,.72.4.97.97.97.32,0,.76-.02.76-.02v1.9s-.59.04-1.61.04c-1.25,0-2.64-.49-2.64-2.34v-5.72h-1.35v-1.71Z"/>
        <path class="cls-4" d="M79.5,113.37h.06c.67-1.04,1.56-1.6,2.89-1.6,2.01,0,3.36,1.52,3.36,3.65v6.36h-2.58v-5.98c0-1.04-.61-1.79-1.69-1.79-1.14,0-1.98.91-1.98,2.24v5.53h-2.58v-9.75h2.53v1.33Z"/>
        <path class="cls-4" d="M86.93,116.92c0-2.91,2.07-5.15,5.09-5.15s5.09,2.24,5.09,5.15-2.07,5.15-5.09,5.15-5.09-2.24-5.09-5.15ZM94.49,116.92c0-1.9-.89-3.19-2.47-3.19s-2.47,1.29-2.47,3.19.87,3.17,2.47,3.17,2.47-1.27,2.47-3.17Z"/>
        <path class="cls-4" d="M97.84,116.92c0-3.04,1.73-5.15,4.16-5.15,1.37,0,2.22.63,2.75,1.44h.06v-5.02h2.58v13.58h-2.49v-1.27h-.04c-.57.93-1.54,1.56-2.91,1.56-2.45,0-4.12-2-4.12-5.15ZM104.87,116.98c0-1.86-.61-3.12-2.26-3.12-1.42,0-2.15,1.25-2.15,3.06s.74,2.98,2.07,2.98c1.54,0,2.34-1.14,2.34-2.93Z"/>
        <path class="cls-4" d="M109.07,108.2h2.58v2.32h-2.58v-2.32ZM109.07,112.04h2.58v9.75h-2.58v-9.75Z"/>
        <path class="cls-4" d="M113.06,122.07h2.56c.21.61.76,1.08,1.96,1.08,1.46,0,2.17-.7,2.17-2.03v-1.06h-.06c-.57.65-1.31,1.14-2.55,1.14-2.17,0-4.29-1.71-4.29-4.65s1.75-4.77,4.22-4.77c1.22,0,2.11.48,2.7,1.29h.04v-1.03h2.49v9c0,1.37-.44,2.3-1.16,2.96-.82.76-2.07,1.1-3.51,1.1-2.66,0-4.29-1.14-4.56-3.04ZM119.88,116.48c0-1.42-.76-2.64-2.32-2.64-1.31,0-2.18,1.03-2.18,2.66s.87,2.62,2.2,2.62c1.63,0,2.3-1.2,2.3-2.64Z"/>
        <path class="cls-4" d="M123.39,112.04h1.35v-3.04h2.53v3.04h1.67v1.71h-1.67v5.17c0,.72.4.97.97.97.32,0,.76-.02.76-.02v1.9s-.59.04-1.61.04c-1.25,0-2.64-.49-2.64-2.34v-5.72h-1.35v-1.71Z"/>
        <path class="cls-4" d="M132.99,116.92c0-2.91,2.07-5.15,5.09-5.15s5.09,2.24,5.09,5.15-2.07,5.15-5.09,5.15-5.09-2.24-5.09-5.15ZM140.55,116.92c0-1.9-.89-3.19-2.47-3.19s-2.47,1.29-2.47,3.19.87,3.17,2.47,3.17,2.47-1.27,2.47-3.17Z"/>
        <path class="cls-4" d="M144.37,112.04h2.49v1.31h.06c.53-.89,1.48-1.58,2.83-1.58,1.23,0,2.22.68,2.7,1.71h.04c.67-1.06,1.69-1.71,2.93-1.71,2.05,0,3.21,1.33,3.21,3.46v6.55h-2.58v-6.12c0-1.1-.55-1.67-1.5-1.67-1.08,0-1.75.84-1.75,2.13v5.66h-2.58v-6.12c0-1.1-.55-1.67-1.5-1.67-1.04,0-1.75.84-1.75,2.13v5.66h-2.58v-9.75Z"/>
        <path class="cls-4" d="M162.93,116.9c0-2.89,1.96-5.13,4.81-5.13,3.13,0,4.81,2.39,4.81,5.87h-7.07c.19,1.5,1.03,2.43,2.49,2.43,1.01,0,1.6-.46,1.88-1.2h2.55c-.36,1.73-1.9,3.19-4.41,3.19-3.23,0-5.05-2.26-5.05-5.17ZM165.51,115.86h4.33c-.08-1.24-.89-2.09-2.07-2.09-1.37,0-2.03.82-2.26,2.09Z"/>
        <path class="cls-4" d="M173.78,108.2h2.58v13.58h-2.58v-13.58Z"/>
        <path class="cls-4" d="M181.76,117.34l-1.12,1.16v3.29h-2.56v-13.58h2.56v7.52l3.46-3.68h3.1l-3.59,3.7,4.03,6.04h-3.13l-2.74-4.45Z"/>
        <path class="cls-4" d="M194,120.7h-.04c-.49.74-1.2,1.31-2.87,1.31-1.99,0-3.4-1.04-3.4-2.98,0-2.15,1.75-2.83,3.91-3.13,1.61-.23,2.36-.36,2.36-1.1,0-.7-.55-1.16-1.63-1.16-1.22,0-1.8.44-1.88,1.37h-2.3c.08-1.71,1.35-3.21,4.2-3.21s4.1,1.31,4.1,3.59v4.96c0,.74.11,1.18.34,1.35v.09h-2.49c-.15-.19-.25-.65-.3-1.08ZM194.01,118.34v-1.46c-.46.27-1.16.42-1.8.57-1.35.3-2.01.61-2.01,1.52s.61,1.23,1.52,1.23c1.48,0,2.3-.91,2.3-1.86Z"/>
        <path class="cls-4" d="M203.91,120.7h-.04c-.49.74-1.2,1.31-2.87,1.31-1.99,0-3.4-1.04-3.4-2.98,0-2.15,1.75-2.83,3.91-3.13,1.61-.23,2.36-.36,2.36-1.1,0-.7-.55-1.16-1.63-1.16-1.22,0-1.8.44-1.88,1.37h-2.3c.08-1.71,1.35-3.21,4.2-3.21s4.1,1.31,4.1,3.59v4.96c0,.74.11,1.18.34,1.35v.09h-2.49c-.15-.19-.25-.65-.3-1.08ZM203.93,118.34v-1.46c-.46.27-1.16.42-1.8.57-1.35.3-2.01.61-2.01,1.52s.61,1.23,1.52,1.23c1.48,0,2.3-.91,2.3-1.86Z"/>
        <path class="cls-4" d="M210.49,113.6h.06c.59-1.1,1.25-1.67,2.39-1.67.29,0,.46.02.61.08v2.26h-.06c-1.69-.17-2.91.72-2.91,2.77v4.75h-2.58v-9.75h2.49v1.56Z"/>
        <path class="cls-4" d="M217.29,112.04h1.35v-3.04h2.53v3.04h1.67v1.71h-1.67v5.17c0,.72.4.97.97.97.32,0,.76-.02.76-.02v1.9s-.59.04-1.61.04c-1.25,0-2.64-.49-2.64-2.34v-5.72h-1.35v-1.71Z"/>
        <path class="cls-4" d="M223.62,116.9c0-2.89,1.96-5.13,4.81-5.13,3.13,0,4.81,2.39,4.81,5.87h-7.07c.19,1.5,1.03,2.43,2.49,2.43,1.01,0,1.6-.46,1.88-1.2h2.55c-.36,1.73-1.9,3.19-4.41,3.19-3.23,0-5.05-2.26-5.05-5.17ZM226.2,115.86h4.33c-.08-1.24-.89-2.09-2.07-2.09-1.37,0-2.03.82-2.26,2.09Z"/>
        <path class="cls-4" d="M237.14,116.92c0-2.91,2.07-5.15,5.09-5.15s5.09,2.24,5.09,5.15-2.07,5.15-5.09,5.15-5.09-2.24-5.09-5.15ZM244.7,116.92c0-1.9-.89-3.19-2.47-3.19s-2.47,1.29-2.47,3.19.87,3.17,2.47,3.17,2.47-1.27,2.47-3.17Z"/>
        <path class="cls-4" d="M251.05,113.37h.06c.67-1.04,1.56-1.6,2.89-1.6,2.01,0,3.36,1.52,3.36,3.65v6.36h-2.58v-5.98c0-1.04-.61-1.79-1.69-1.79-1.14,0-1.98.91-1.98,2.24v5.53h-2.58v-9.75h2.53v1.33Z"/>
        <path class="cls-4" d="M258.21,112.04h1.35v-3.04h2.53v3.04h1.67v1.71h-1.67v5.17c0,.72.4.97.97.97.32,0,.76-.02.76-.02v1.9s-.59.04-1.61.04c-1.25,0-2.64-.49-2.64-2.34v-5.72h-1.35v-1.71Z"/>
        <path class="cls-4" d="M265.09,112.04h2.49v1.31h.06c.53-.89,1.48-1.58,2.83-1.58,1.23,0,2.22.68,2.7,1.71h.04c.67-1.06,1.69-1.71,2.93-1.71,2.05,0,3.21,1.33,3.21,3.46v6.55h-2.58v-6.12c0-1.1-.55-1.67-1.5-1.67-1.08,0-1.75.84-1.75,2.13v5.66h-2.58v-6.12c0-1.1-.55-1.67-1.5-1.67-1.04,0-1.75.84-1.75,2.13v5.66h-2.58v-9.75Z"/>
        <path class="cls-4" d="M280.46,116.92c0-2.91,2.07-5.15,5.09-5.15s5.09,2.24,5.09,5.15-2.07,5.15-5.09,5.15-5.09-2.24-5.09-5.15ZM288.02,116.92c0-1.9-.89-3.19-2.47-3.19s-2.47,1.29-2.47,3.19.87,3.17,2.47,3.17,2.47-1.27,2.47-3.17Z"/>
        <path class="cls-4" d="M291.37,116.9c0-2.89,1.96-5.13,4.81-5.13,3.13,0,4.81,2.39,4.81,5.87h-7.07c.19,1.5,1.03,2.43,2.49,2.43,1.01,0,1.6-.46,1.88-1.2h2.55c-.36,1.73-1.9,3.19-4.41,3.19-3.23,0-5.05-2.26-5.05-5.17ZM293.95,115.86h4.33c-.08-1.24-.89-2.09-2.07-2.09-1.37,0-2.03.82-2.26,2.09Z"/>
        <path class="cls-4" d="M301.42,112.04h1.35v-3.04h2.53v3.04h1.67v1.71h-1.67v5.17c0,.72.4.97.97.97.32,0,.76-.02.76-.02v1.9s-.59.04-1.61.04c-1.25,0-2.64-.49-2.64-2.34v-5.72h-1.35v-1.71Z"/>
        <path class="cls-4" d="M307.75,116.9c0-2.89,1.96-5.13,4.81-5.13,3.13,0,4.81,2.39,4.81,5.87h-7.07c.19,1.5,1.03,2.43,2.49,2.43,1.01,0,1.6-.46,1.88-1.2h2.55c-.36,1.73-1.9,3.19-4.41,3.19-3.23,0-5.05-2.26-5.05-5.17ZM310.33,115.86h4.33c-.08-1.24-.89-2.09-2.07-2.09-1.37,0-2.03.82-2.26,2.09Z"/>
        <path class="cls-4" d="M321.08,113.37h.06c.67-1.04,1.56-1.6,2.89-1.6,2.01,0,3.36,1.52,3.36,3.65v6.36h-2.58v-5.98c0-1.04-.61-1.79-1.69-1.79-1.14,0-1.98.91-1.98,2.24v5.53h-2.58v-9.75h2.53v1.33Z"/>
        <path class="cls-4" d="M328.84,119.03h2.77v2.75h-2.77v-2.75Z"/>
        <path class="cls-4" d="M336.53,108.2h9.99v2.32h-7.24v3.04h6.35v2.26h-6.35v3.67h7.29v2.3h-10.05v-13.58Z"/>
        <path class="cls-4" d="M347.34,116.9c0-2.89,1.96-5.13,4.81-5.13,3.13,0,4.81,2.39,4.81,5.87h-7.07c.19,1.5,1.03,2.43,2.49,2.43,1.01,0,1.6-.46,1.88-1.2h2.55c-.36,1.73-1.9,3.19-4.41,3.19-3.23,0-5.05-2.26-5.05-5.17ZM349.93,115.86h4.33c-.08-1.24-.89-2.09-2.07-2.09-1.37,0-2.03.82-2.26,2.09ZM353.14,110.82h-2.01l1.04-2.68h3.02l-2.05,2.68Z"/>
        <path class="cls-4" d="M360.68,113.37h.06c.67-1.04,1.56-1.6,2.89-1.6,2.01,0,3.36,1.52,3.36,3.65v6.36h-2.58v-5.98c0-1.04-.61-1.79-1.69-1.79-1.14,0-1.98.91-1.98,2.24v5.53h-2.58v-9.75h2.53v1.33Z"/>
        <path class="cls-4" d="M371.78,112.04h2.49v1.22h.06c.63-.86,1.54-1.48,2.87-1.48,2.58,0,4.24,2.11,4.24,5.15s-1.71,5.15-4.22,5.15c-1.37,0-2.26-.55-2.81-1.39h-.04v4.29h-2.58v-12.94ZM378.8,117c0-1.84-.65-3.13-2.24-3.13s-2.26,1.39-2.26,3.13.82,2.93,2.36,2.93c1.31,0,2.15-1.08,2.15-2.93Z"/>
        <path class="cls-4" d="M382.66,108.2h2.58v13.58h-2.58v-13.58Z"/>
        <path class="cls-4" d="M386.48,116.9c0-2.89,1.96-5.13,4.81-5.13,3.13,0,4.81,2.39,4.81,5.87h-7.07c.19,1.5,1.03,2.43,2.49,2.43,1.01,0,1.6-.46,1.88-1.2h2.55c-.36,1.73-1.9,3.19-4.41,3.19-3.23,0-5.05-2.26-5.05-5.17ZM389.07,115.86h4.33c-.08-1.24-.89-2.09-2.07-2.09-1.37,0-2.03.82-2.26,2.09Z"/>
        <path class="cls-4" d="M400.98,117.34l-1.12,1.16v3.29h-2.56v-13.58h2.56v7.52l3.46-3.68h3.1l-3.59,3.7,4.03,6.04h-3.13l-2.74-4.45Z"/>
        <path class="cls-4" d="M410.1,112.04h2.56l1.18,4.52c.21.8.44,1.82.44,1.82h.04s.21-1.04.42-1.84l1.22-4.5h2.2l1.27,4.5c.21.82.46,1.84.46,1.84h.04s.23-1.03.44-1.82l1.23-4.52h2.51l-2.91,9.75h-2.36l-1.29-4.79c-.21-.78-.44-1.69-.44-1.69h-.04s-.25.91-.46,1.69l-1.33,4.79h-2.34l-2.85-9.75Z"/>
        <path class="cls-4" d="M430.56,120.7h-.04c-.49.74-1.2,1.31-2.87,1.31-1.99,0-3.4-1.04-3.4-2.98,0-2.15,1.75-2.83,3.91-3.13,1.61-.23,2.36-.36,2.36-1.1,0-.7-.55-1.16-1.63-1.16-1.22,0-1.8.44-1.88,1.37h-2.3c.08-1.71,1.35-3.21,4.2-3.21s4.1,1.31,4.1,3.59v4.96c0,.74.11,1.18.34,1.35v.09h-2.49c-.15-.19-.25-.65-.3-1.08ZM430.58,118.34v-1.46c-.46.27-1.16.42-1.8.57-1.35.3-2.01.61-2.01,1.52s.61,1.23,1.52,1.23c1.48,0,2.3-.91,2.3-1.86Z"/>
        <path class="cls-4" d="M440.48,120.7h-.04c-.49.74-1.2,1.31-2.87,1.31-1.99,0-3.4-1.04-3.4-2.98,0-2.15,1.75-2.83,3.91-3.13,1.61-.23,2.36-.36,2.36-1.1,0-.7-.55-1.16-1.63-1.16-1.22,0-1.8.44-1.88,1.37h-2.3c.08-1.71,1.35-3.21,4.2-3.21s4.1,1.31,4.1,3.59v4.96c0,.74.11,1.18.34,1.35v.09h-2.49c-.15-.19-.25-.65-.3-1.08ZM440.5,118.34v-1.46c-.46.27-1.16.42-1.8.57-1.35.3-2.01.61-2.01,1.52s.61,1.23,1.52,1.23c1.48,0,2.3-.91,2.3-1.86Z"/>
        <path class="cls-4" d="M447.05,113.6h.06c.59-1.1,1.25-1.67,2.39-1.67.29,0,.46.02.61.08v2.26h-.06c-1.69-.17-2.91.72-2.91,2.77v4.75h-2.58v-9.75h2.49v1.56Z"/>
      </g>
      <g>
        <path class="cls-4" d="M55.62,141.92c0-2.91,1.9-5.15,4.86-5.15,2.53,0,4.08,1.46,4.43,3.57h-2.53c-.17-.85-.84-1.5-1.79-1.5-1.56,0-2.36,1.2-2.36,3.08s.74,3.08,2.32,3.08c1.04,0,1.79-.55,1.96-1.65h2.49c-.17,2.07-1.79,3.72-4.39,3.72-3.08,0-5-2.24-5-5.15Z"/>
        <path class="cls-4" d="M68.62,138.6h.06c.59-1.1,1.25-1.67,2.39-1.67.28,0,.46.02.61.08v2.26h-.06c-1.69-.17-2.91.72-2.91,2.77v4.75h-2.58v-9.75h2.49v1.56Z"/>
        <path class="cls-4" d="M72.06,141.91c0-2.89,1.96-5.13,4.81-5.13,3.13,0,4.81,2.39,4.81,5.87h-7.07c.19,1.5,1.03,2.43,2.49,2.43,1.01,0,1.6-.46,1.88-1.2h2.55c-.36,1.73-1.9,3.19-4.41,3.19-3.23,0-5.05-2.26-5.05-5.17ZM74.64,140.86h4.33c-.08-1.24-.89-2.09-2.07-2.09-1.37,0-2.03.82-2.26,2.09Z"/>
        <path class="cls-4" d="M88.7,145.7h-.04c-.49.74-1.2,1.31-2.87,1.31-1.99,0-3.4-1.04-3.4-2.98,0-2.15,1.75-2.83,3.91-3.13,1.61-.23,2.36-.36,2.36-1.1,0-.7-.55-1.16-1.63-1.16-1.22,0-1.8.44-1.88,1.37h-2.3c.08-1.71,1.35-3.21,4.2-3.21s4.1,1.31,4.1,3.59v4.96c0,.74.11,1.18.34,1.35v.09h-2.49c-.15-.19-.25-.65-.3-1.08ZM88.72,143.35v-1.46c-.46.27-1.16.42-1.8.57-1.35.3-2.01.61-2.01,1.52s.61,1.23,1.52,1.23c1.48,0,2.3-.91,2.3-1.86Z"/>
        <path class="cls-4" d="M92.04,137.04h1.35v-3.04h2.53v3.04h1.67v1.71h-1.67v5.17c0,.72.4.97.97.97.32,0,.76-.02.76-.02v1.9s-.59.04-1.61.04c-1.25,0-2.64-.49-2.64-2.34v-5.72h-1.35v-1.71Z"/>
        <path class="cls-4" d="M98.92,133.2h2.58v2.32h-2.58v-2.32ZM98.92,137.04h2.58v9.75h-2.58v-9.75Z"/>
        <path class="cls-4" d="M102.7,141.91c0-2.89,1.96-5.13,4.81-5.13,3.13,0,4.81,2.39,4.81,5.87h-7.07c.19,1.5,1.03,2.43,2.49,2.43,1.01,0,1.6-.46,1.88-1.2h2.55c-.36,1.73-1.9,3.19-4.41,3.19-3.23,0-5.05-2.26-5.05-5.17ZM105.29,140.86h4.33c-.08-1.24-.89-2.09-2.07-2.09-1.37,0-2.03.82-2.26,2.09Z"/>
        <path class="cls-4" d="M112.54,137.04h2.62l1.56,5.05c.29.93.44,1.56.44,1.56h.04s.13-.63.42-1.56l1.6-5.05h2.58l-3.4,9.75h-2.47l-3.38-9.75Z"/>
        <path class="cls-4" d="M121.91,141.91c0-2.89,1.96-5.13,4.81-5.13,3.13,0,4.81,2.39,4.81,5.87h-7.07c.19,1.5,1.03,2.43,2.49,2.43,1.01,0,1.6-.46,1.88-1.2h2.55c-.36,1.73-1.9,3.19-4.41,3.19-3.23,0-5.05-2.26-5.05-5.17ZM124.49,140.86h4.33c-.08-1.24-.89-2.09-2.07-2.09-1.37,0-2.03.82-2.26,2.09Z"/>
        <path class="cls-4" d="M132.76,133.2h2.58v13.58h-2.58v-13.58Z"/>
        <path class="cls-4" d="M137.05,133.2h2.58v2.32h-2.58v-2.32ZM137.05,137.04h2.58v9.75h-2.58v-9.75Z"/>
        <path class="cls-4" d="M143.84,138.37h.06c.67-1.04,1.56-1.6,2.89-1.6,2.01,0,3.36,1.52,3.36,3.65v6.36h-2.58v-5.98c0-1.04-.61-1.79-1.69-1.79-1.14,0-1.98.91-1.98,2.24v5.53h-2.58v-9.75h2.53v1.33Z"/>
        <path class="cls-4" d="M151.47,147.07h2.56c.21.61.76,1.08,1.96,1.08,1.46,0,2.17-.7,2.17-2.03v-1.06h-.06c-.57.65-1.31,1.14-2.55,1.14-2.17,0-4.29-1.71-4.29-4.65s1.75-4.77,4.22-4.77c1.22,0,2.11.48,2.7,1.29h.04v-1.03h2.49v9c0,1.37-.44,2.3-1.16,2.96-.82.76-2.07,1.1-3.51,1.1-2.66,0-4.29-1.14-4.56-3.04ZM158.29,141.49c0-1.42-.76-2.64-2.32-2.64-1.31,0-2.18,1.03-2.18,2.66s.87,2.62,2.2,2.62c1.63,0,2.3-1.2,2.3-2.64Z"/>
        <path class="cls-4" d="M161.91,141.91c0-2.89,1.96-5.13,4.81-5.13,3.13,0,4.81,2.39,4.81,5.87h-7.07c.19,1.5,1.03,2.43,2.49,2.43,1.01,0,1.6-.46,1.88-1.2h2.55c-.36,1.73-1.9,3.19-4.41,3.19-3.23,0-5.05-2.26-5.05-5.17ZM164.49,140.86h4.33c-.08-1.24-.89-2.09-2.07-2.09-1.37,0-2.03.82-2.26,2.09Z"/>
        <path class="cls-4" d="M175.24,138.37h.06c.67-1.04,1.56-1.6,2.89-1.6,2.01,0,3.36,1.52,3.36,3.65v6.36h-2.58v-5.98c0-1.04-.61-1.79-1.69-1.79-1.14,0-1.98.91-1.98,2.24v5.53h-2.58v-9.75h2.53v1.33Z"/>
        <path class="cls-4" d="M185.73,143.63h2.39c.17,1.12.97,1.61,2.13,1.61s1.79-.44,1.79-1.12c0-.93-1.23-1.03-2.56-1.29-1.75-.34-3.46-.82-3.46-2.94s1.75-3.12,3.97-3.12c2.56,0,3.99,1.27,4.18,3.23h-2.34c-.11-1.04-.78-1.42-1.88-1.42-1.01,0-1.67.38-1.67,1.08,0,.84,1.29.91,2.68,1.2,1.63.34,3.44.8,3.44,3.08,0,1.96-1.67,3.13-4.1,3.13-2.83,0-4.41-1.37-4.56-3.44Z"/>
        <path class="cls-4" d="M201.46,145.7h-.04c-.49.74-1.2,1.31-2.87,1.31-1.99,0-3.4-1.04-3.4-2.98,0-2.15,1.75-2.83,3.91-3.13,1.61-.23,2.36-.36,2.36-1.1,0-.7-.55-1.16-1.63-1.16-1.22,0-1.8.44-1.88,1.37h-2.3c.08-1.71,1.35-3.21,4.2-3.21s4.1,1.31,4.1,3.59v4.96c0,.74.11,1.18.34,1.35v.09h-2.49c-.15-.19-.25-.65-.3-1.08ZM201.48,143.35v-1.46c-.46.27-1.16.42-1.8.57-1.35.3-2.01.61-2.01,1.52s.61,1.23,1.52,1.23c1.48,0,2.3-.91,2.3-1.86Z"/>
        <path class="cls-4" d="M205.55,137.04h2.49v1.31h.06c.53-.89,1.48-1.58,2.83-1.58,1.23,0,2.22.68,2.7,1.71h.04c.67-1.06,1.69-1.71,2.93-1.71,2.05,0,3.21,1.33,3.21,3.46v6.55h-2.58v-6.12c0-1.1-.55-1.67-1.5-1.67-1.08,0-1.75.84-1.75,2.13v5.66h-2.58v-6.12c0-1.1-.55-1.67-1.5-1.67-1.04,0-1.75.84-1.75,2.13v5.66h-2.58v-9.75Z"/>
        <path class="cls-4" d="M220.92,141.91c0-2.89,1.96-5.13,4.81-5.13,3.13,0,4.81,2.39,4.81,5.87h-7.07c.19,1.5,1.03,2.43,2.49,2.43,1.01,0,1.6-.46,1.88-1.2h2.55c-.36,1.73-1.9,3.19-4.41,3.19-3.23,0-5.05-2.26-5.05-5.17ZM223.5,140.86h4.33c-.08-1.24-.89-2.09-2.07-2.09-1.37,0-2.03.82-2.26,2.09Z"/>
        <path class="cls-4" d="M234.26,138.37h.06c.67-1.04,1.56-1.6,2.89-1.6,2.01,0,3.36,1.52,3.36,3.65v6.36h-2.58v-5.98c0-1.04-.61-1.79-1.69-1.79-1.14,0-1.98.91-1.98,2.24v5.53h-2.58v-9.75h2.53v1.33Z"/>
        <path class="cls-4" d="M245.85,142.34l-1.12,1.16v3.29h-2.56v-13.58h2.56v7.52l3.46-3.68h3.1l-3.59,3.7,4.03,6.04h-3.13l-2.74-4.45Z"/>
        <path class="cls-4" d="M251.41,141.92c0-2.91,2.07-5.15,5.09-5.15s5.09,2.24,5.09,5.15-2.07,5.15-5.09,5.15-5.09-2.24-5.09-5.15ZM258.97,141.92c0-1.9-.89-3.19-2.47-3.19s-2.47,1.29-2.47,3.19.87,3.17,2.47,3.17,2.47-1.27,2.47-3.17Z"/>
        <path class="cls-4" d="M262.79,137.04h2.49v1.31h.06c.53-.89,1.48-1.58,2.83-1.58,1.23,0,2.22.68,2.7,1.71h.04c.67-1.06,1.69-1.71,2.93-1.71,2.05,0,3.21,1.33,3.21,3.46v6.55h-2.58v-6.12c0-1.1-.55-1.67-1.5-1.67-1.08,0-1.75.84-1.75,2.13v5.66h-2.58v-6.12c0-1.1-.55-1.67-1.5-1.67-1.04,0-1.75.84-1.75,2.13v5.66h-2.58v-9.75Z"/>
        <path class="cls-4" d="M278.16,141.91c0-2.89,1.96-5.13,4.81-5.13,3.13,0,4.81,2.39,4.81,5.87h-7.07c.19,1.5,1.03,2.43,2.49,2.43,1.01,0,1.6-.46,1.88-1.2h2.55c-.36,1.73-1.9,3.19-4.41,3.19-3.23,0-5.05-2.26-5.05-5.17ZM280.75,140.86h4.33c-.08-1.24-.89-2.09-2.07-2.09-1.37,0-2.03.82-2.26,2.09Z"/>
        <path class="cls-4" d="M291.5,138.37h.06c.67-1.04,1.56-1.6,2.89-1.6,2.01,0,3.36,1.52,3.36,3.65v6.36h-2.58v-5.98c0-1.04-.61-1.79-1.69-1.79-1.14,0-1.98.91-1.98,2.24v5.53h-2.58v-9.75h2.53v1.33Z"/>
        <path class="cls-4" d="M302.12,141.92c0-2.91,2.07-5.15,5.09-5.15s5.09,2.24,5.09,5.15-2.07,5.15-5.09,5.15-5.09-2.24-5.09-5.15ZM309.68,141.92c0-1.9-.89-3.19-2.47-3.19s-2.47,1.29-2.47,3.19.87,3.17,2.47,3.17,2.47-1.27,2.47-3.17Z"/>
        <path class="cls-4" d="M313.5,137.04h2.49v1.31h.06c.53-.89,1.48-1.58,2.83-1.58,1.23,0,2.22.68,2.7,1.71h.04c.67-1.06,1.69-1.71,2.93-1.71,2.05,0,3.21,1.33,3.21,3.46v6.55h-2.58v-6.12c0-1.1-.55-1.67-1.5-1.67-1.08,0-1.75.84-1.75,2.13v5.66h-2.58v-6.12c0-1.1-.55-1.67-1.5-1.67-1.04,0-1.75.84-1.75,2.13v5.66h-2.58v-9.75Z"/>
        <path class="cls-4" d="M336.23,142.34l-1.12,1.16v3.29h-2.56v-13.58h2.56v7.52l3.46-3.68h3.1l-3.59,3.7,4.03,6.04h-3.13l-2.74-4.45Z"/>
        <path class="cls-4" d="M348.81,146.79v-1.14h-.06c-.67.89-1.42,1.41-2.79,1.41-2.17,0-3.38-1.39-3.38-3.51v-6.5h2.56v6.06c0,1.14.51,1.77,1.61,1.77,1.22,0,1.96-.91,1.96-2.2v-5.62h2.58v9.75h-2.49Z"/>
        <path class="cls-4" d="M355.49,138.37h.06c.67-1.04,1.56-1.6,2.89-1.6,2.01,0,3.36,1.52,3.36,3.65v6.36h-2.58v-5.98c0-1.04-.61-1.79-1.69-1.79-1.14,0-1.98.91-1.98,2.24v5.53h-2.58v-9.75h2.53v1.33Z"/>
        <path class="cls-4" d="M362.79,143.63h2.39c.17,1.12.97,1.61,2.13,1.61s1.79-.44,1.79-1.12c0-.93-1.23-1.03-2.56-1.29-1.75-.34-3.46-.82-3.46-2.94s1.75-3.12,3.97-3.12c2.56,0,3.99,1.27,4.18,3.23h-2.34c-.11-1.04-.78-1.42-1.88-1.42-1.01,0-1.67.38-1.67,1.08,0,.84,1.29.91,2.68,1.2,1.63.34,3.44.8,3.44,3.08,0,1.96-1.67,3.13-4.1,3.13-2.83,0-4.41-1.37-4.56-3.44Z"/>
        <path class="cls-4" d="M371.87,137.04h1.35v-3.04h2.53v3.04h1.67v1.71h-1.67v5.17c0,.72.4.97.97.97.32,0,.76-.02.76-.02v1.9s-.59.04-1.61.04c-1.25,0-2.64-.49-2.64-2.34v-5.72h-1.35v-1.71Z"/>
        <path class="cls-4" d="M381.37,137.04h1.35v-3.04h2.53v3.04h1.67v1.71h-1.67v5.17c0,.72.4.97.97.97.32,0,.76-.02.76-.02v1.9s-.59.04-1.61.04c-1.25,0-2.64-.49-2.64-2.34v-5.72h-1.35v-1.71Z"/>
        <path class="cls-4" d="M387.7,141.91c0-2.89,1.96-5.13,4.81-5.13,3.13,0,4.81,2.39,4.81,5.87h-7.07c.19,1.5,1.03,2.43,2.49,2.43,1.01,0,1.6-.46,1.88-1.2h2.55c-.36,1.73-1.9,3.19-4.41,3.19-3.23,0-5.05-2.26-5.05-5.17ZM390.28,140.86h4.33c-.08-1.24-.89-2.09-2.07-2.09-1.37,0-2.03.82-2.26,2.09Z"/>
        <path class="cls-4" d="M401.23,141.92c0-2.91,2.07-5.15,5.09-5.15s5.09,2.24,5.09,5.15-2.07,5.15-5.09,5.15-5.09-2.24-5.09-5.15ZM408.79,141.92c0-1.9-.89-3.19-2.47-3.19s-2.47,1.29-2.47,3.19.87,3.17,2.47,3.17,2.47-1.27,2.47-3.17Z"/>
        <path class="cls-4" d="M415.13,138.37h.06c.67-1.04,1.56-1.6,2.89-1.6,2.01,0,3.36,1.52,3.36,3.65v6.36h-2.58v-5.98c0-1.04-.61-1.79-1.69-1.79-1.14,0-1.98.91-1.98,2.24v5.53h-2.58v-9.75h2.53v1.33Z"/>
        <path class="cls-4" d="M422.28,137.04h1.35v-3.04h2.53v3.04h1.67v1.71h-1.67v5.17c0,.72.4.97.97.97.32,0,.76-.02.76-.02v1.9s-.59.04-1.61.04c-1.25,0-2.64-.49-2.64-2.34v-5.72h-1.35v-1.71Z"/>
        <path class="cls-4" d="M428.6,141.92c0-3.04,1.73-5.15,4.16-5.15,1.37,0,2.22.63,2.75,1.44h.06v-5.02h2.58v13.58h-2.49v-1.27h-.04c-.57.93-1.54,1.56-2.91,1.56-2.45,0-4.12-2-4.12-5.15ZM435.63,141.98c0-1.86-.61-3.12-2.26-3.12-1.42,0-2.15,1.25-2.15,3.06s.74,2.98,2.07,2.98c1.54,0,2.34-1.14,2.34-2.93Z"/>
        <path class="cls-4" d="M439.36,141.91c0-2.89,1.96-5.13,4.81-5.13,3.13,0,4.81,2.39,4.81,5.87h-7.07c.19,1.5,1.03,2.43,2.49,2.43,1.01,0,1.6-.46,1.88-1.2h2.55c-.36,1.73-1.9,3.19-4.41,3.19-3.23,0-5.05-2.26-5.05-5.17ZM441.94,140.86h4.33c-.08-1.24-.89-2.09-2.07-2.09-1.37,0-2.03.82-2.26,2.09Z"/>
        <path class="cls-4" d="M453.85,142.34l-1.12,1.16v3.29h-2.56v-13.58h2.56v7.52l3.46-3.68h3.1l-3.59,3.7,4.03,6.04h-3.13l-2.74-4.45Z"/>
        <path class="cls-4" d="M464.23,142.34l-1.12,1.16v3.29h-2.56v-13.58h2.56v7.52l3.46-3.68h3.1l-3.59,3.7,4.03,6.04h-3.13l-2.74-4.45Z"/>
        <path class="cls-4" d="M469.8,141.91c0-2.89,1.96-5.13,4.81-5.13,3.13,0,4.81,2.39,4.81,5.87h-7.07c.19,1.5,1.03,2.43,2.49,2.43,1.01,0,1.6-.46,1.88-1.2h2.55c-.36,1.73-1.9,3.19-4.41,3.19-3.23,0-5.05-2.26-5.05-5.17ZM472.38,140.86h4.33c-.08-1.24-.89-2.09-2.07-2.09-1.37,0-2.03.82-2.26,2.09Z"/>
        <path class="cls-4" d="M483.13,138.37h.06c.67-1.04,1.56-1.6,2.89-1.6,2.01,0,3.36,1.52,3.36,3.65v6.36h-2.58v-5.98c0-1.04-.61-1.79-1.69-1.79-1.14,0-1.98.91-1.98,2.24v5.53h-2.58v-9.75h2.53v1.33Z"/>
        <path class="cls-4" d="M490.9,149.01c.74-.38,1.37-1.04,1.37-2.22h-1.39v-2.75h2.77v2.6c0,1.94-1.29,3.04-2.75,3.31v-.93Z"/>
      </g>
      <g>
        <path class="cls-4" d="M55.62,166.91c0-2.89,1.96-5.13,4.81-5.13,3.13,0,4.81,2.39,4.81,5.87h-7.07c.19,1.5,1.03,2.43,2.49,2.43,1.01,0,1.6-.46,1.88-1.2h2.55c-.36,1.73-1.9,3.19-4.41,3.19-3.23,0-5.05-2.26-5.05-5.17ZM58.2,165.86h4.33c-.08-1.24-.89-2.09-2.07-2.09-1.37,0-2.03.82-2.26,2.09Z"/>
        <path class="cls-4" d="M66.47,158.21h2.58v13.58h-2.58v-13.58Z"/>
        <path class="cls-4" d="M74.45,167.35l-1.12,1.16v3.29h-2.56v-13.58h2.56v7.52l3.46-3.68h3.1l-3.59,3.7,4.03,6.04h-3.13l-2.74-4.45Z"/>
        <path class="cls-4" d="M86.7,170.71h-.04c-.49.74-1.2,1.31-2.87,1.31-1.99,0-3.4-1.04-3.4-2.98,0-2.15,1.75-2.83,3.91-3.13,1.61-.23,2.36-.36,2.36-1.1,0-.7-.55-1.16-1.63-1.16-1.22,0-1.8.44-1.88,1.37h-2.3c.08-1.71,1.35-3.21,4.2-3.21s4.1,1.31,4.1,3.59v4.96c0,.74.11,1.18.34,1.35v.09h-2.49c-.15-.19-.25-.65-.3-1.08ZM86.72,168.35v-1.46c-.46.27-1.16.42-1.8.57-1.35.3-2.01.61-2.01,1.52s.61,1.23,1.52,1.23c1.48,0,2.3-.91,2.3-1.86Z"/>
        <path class="cls-4" d="M96.62,170.71h-.04c-.49.74-1.2,1.31-2.87,1.31-1.99,0-3.4-1.04-3.4-2.98,0-2.15,1.75-2.83,3.91-3.13,1.61-.23,2.36-.36,2.36-1.1,0-.7-.55-1.16-1.63-1.16-1.22,0-1.8.44-1.88,1.37h-2.3c.08-1.71,1.35-3.21,4.2-3.21s4.1,1.31,4.1,3.59v4.96c0,.74.11,1.18.34,1.35v.09h-2.49c-.15-.19-.25-.65-.3-1.08ZM96.64,168.35v-1.46c-.46.27-1.16.42-1.8.57-1.35.3-2.01.61-2.01,1.52s.61,1.23,1.52,1.23c1.48,0,2.3-.91,2.3-1.86Z"/>
        <path class="cls-4" d="M103.2,163.6h.06c.59-1.1,1.25-1.67,2.39-1.67.28,0,.46.02.61.08v2.26h-.06c-1.69-.17-2.91.72-2.91,2.77v4.75h-2.58v-9.75h2.49v1.56Z"/>
        <path class="cls-4" d="M110,162.05h1.35v-3.04h2.53v3.04h1.67v1.71h-1.67v5.17c0,.72.4.97.97.97.32,0,.76-.02.76-.02v1.9s-.59.04-1.61.04c-1.25,0-2.64-.49-2.64-2.34v-5.72h-1.35v-1.71Z"/>
        <path class="cls-4" d="M116.32,166.91c0-2.89,1.96-5.13,4.81-5.13,3.13,0,4.81,2.39,4.81,5.87h-7.07c.19,1.5,1.03,2.43,2.49,2.43,1.01,0,1.6-.46,1.88-1.2h2.55c-.36,1.73-1.9,3.19-4.41,3.19-3.23,0-5.05-2.26-5.05-5.17ZM118.91,165.86h4.33c-.08-1.24-.89-2.09-2.07-2.09-1.37,0-2.03.82-2.26,2.09Z"/>
        <path class="cls-4" d="M130.33,158.21h2.58v2.32h-2.58v-2.32ZM130.33,162.05h2.58v9.75h-2.58v-9.75Z"/>
        <path class="cls-4" d="M137.11,163.37h.06c.67-1.04,1.56-1.6,2.89-1.6,2.01,0,3.36,1.52,3.36,3.65v6.36h-2.58v-5.98c0-1.04-.61-1.79-1.69-1.79-1.14,0-1.98.91-1.98,2.24v5.53h-2.58v-9.75h2.53v1.33Z"/>
        <path class="cls-4" d="M144.41,168.64h2.39c.17,1.12.97,1.61,2.13,1.61s1.79-.44,1.79-1.12c0-.93-1.23-1.03-2.56-1.29-1.75-.34-3.46-.82-3.46-2.94s1.75-3.12,3.97-3.12c2.56,0,3.99,1.27,4.18,3.23h-2.34c-.11-1.04-.78-1.42-1.88-1.42-1.01,0-1.67.38-1.67,1.08,0,.84,1.29.91,2.68,1.2,1.63.34,3.44.8,3.44,3.08,0,1.96-1.67,3.13-4.1,3.13-2.83,0-4.41-1.37-4.56-3.44Z"/>
        <path class="cls-4" d="M154.23,162.05h2.49v1.22h.06c.63-.86,1.54-1.48,2.87-1.48,2.58,0,4.24,2.11,4.24,5.15s-1.71,5.15-4.22,5.15c-1.37,0-2.26-.55-2.81-1.39h-.04v4.29h-2.58v-12.94ZM161.26,167c0-1.84-.65-3.13-2.24-3.13s-2.26,1.39-2.26,3.13.82,2.93,2.36,2.93c1.31,0,2.15-1.08,2.15-2.93Z"/>
        <path class="cls-4" d="M165.08,158.21h2.58v2.32h-2.58v-2.32ZM165.08,162.05h2.58v9.75h-2.58v-9.75Z"/>
        <path class="cls-4" d="M171.82,163.6h.06c.59-1.1,1.25-1.67,2.39-1.67.28,0,.46.02.61.08v2.26h-.06c-1.69-.17-2.91.72-2.91,2.77v4.75h-2.58v-9.75h2.49v1.56Z"/>
        <path class="cls-4" d="M175.24,166.91c0-2.89,1.96-5.13,4.81-5.13,3.13,0,4.81,2.39,4.81,5.87h-7.07c.19,1.5,1.03,2.43,2.49,2.43,1.01,0,1.6-.46,1.88-1.2h2.55c-.36,1.73-1.9,3.19-4.41,3.19-3.23,0-5.05-2.26-5.05-5.17ZM177.83,165.86h4.33c-.08-1.24-.89-2.09-2.07-2.09-1.37,0-2.03.82-2.26,2.09Z"/>
        <path class="cls-4" d="M188.54,163.6h.06c.59-1.1,1.25-1.67,2.39-1.67.28,0,.46.02.61.08v2.26h-.06c-1.69-.17-2.91.72-2.91,2.77v4.75h-2.58v-9.75h2.49v1.56Z"/>
        <path class="cls-4" d="M191.96,166.91c0-2.89,1.96-5.13,4.81-5.13,3.13,0,4.81,2.39,4.81,5.87h-7.07c.19,1.5,1.03,2.43,2.49,2.43,1.01,0,1.6-.46,1.88-1.2h2.55c-.36,1.73-1.9,3.19-4.41,3.19-3.23,0-5.05-2.26-5.05-5.17ZM194.55,165.86h4.33c-.08-1.24-.89-2.09-2.07-2.09-1.37,0-2.03.82-2.26,2.09Z"/>
        <path class="cls-4" d="M205.3,163.37h.06c.67-1.04,1.56-1.6,2.89-1.6,2.01,0,3.36,1.52,3.36,3.65v6.36h-2.58v-5.98c0-1.04-.61-1.79-1.69-1.79-1.14,0-1.98.91-1.98,2.24v5.53h-2.58v-9.75h2.53v1.33Z"/>
        <path class="cls-4" d="M215.92,166.91c0-2.89,1.96-5.13,4.81-5.13,3.13,0,4.81,2.39,4.81,5.87h-7.07c.19,1.5,1.03,2.43,2.49,2.43,1.01,0,1.6-.46,1.88-1.2h2.55c-.36,1.73-1.9,3.19-4.41,3.19-3.23,0-5.05-2.26-5.05-5.17ZM218.5,165.86h4.33c-.08-1.24-.89-2.09-2.07-2.09-1.37,0-2.03.82-2.26,2.09Z"/>
        <path class="cls-4" d="M229.26,163.37h.06c.67-1.04,1.56-1.6,2.89-1.6,2.01,0,3.36,1.52,3.36,3.65v6.36h-2.58v-5.98c0-1.04-.61-1.79-1.69-1.79-1.14,0-1.98.91-1.98,2.24v5.53h-2.58v-9.75h2.53v1.33Z"/>
        <path class="cls-4" d="M239.79,162.05h1.35v-3.04h2.53v3.04h1.67v1.71h-1.67v5.17c0,.72.4.97.97.97.32,0,.76-.02.76-.02v1.9s-.59.04-1.61.04c-1.25,0-2.64-.49-2.64-2.34v-5.72h-1.35v-1.71Z"/>
        <path class="cls-4" d="M246.11,166.91c0-2.89,1.96-5.13,4.81-5.13,3.13,0,4.81,2.39,4.81,5.87h-7.07c.19,1.5,1.03,2.43,2.49,2.43,1.01,0,1.6-.46,1.88-1.2h2.55c-.36,1.73-1.9,3.19-4.41,3.19-3.23,0-5.05-2.26-5.05-5.17ZM248.7,165.86h4.33c-.08-1.24-.89-2.09-2.07-2.09-1.37,0-2.03.82-2.26,2.09Z"/>
        <path class="cls-4" d="M262.64,163.37h.06c.67-1.04,1.56-1.6,2.89-1.6,2.01,0,3.36,1.52,3.36,3.65v6.36h-2.58v-5.98c0-1.04-.61-1.79-1.69-1.79-1.14,0-1.98.91-1.98,2.24v5.53h-2.58v-9.75h2.53v1.33Z"/>
        <path class="cls-4" d="M270.07,166.91c0-2.89,1.96-5.13,4.81-5.13,3.13,0,4.81,2.39,4.81,5.87h-7.07c.19,1.5,1.03,2.43,2.49,2.43,1.01,0,1.6-.46,1.88-1.2h2.55c-.36,1.73-1.9,3.19-4.41,3.19-3.23,0-5.05-2.26-5.05-5.17ZM272.65,165.86h4.33c-.08-1.24-.89-2.09-2.07-2.09-1.37,0-2.03.82-2.26,2.09Z"/>
        <path class="cls-4" d="M280.14,162.05h1.35v-3.04h2.53v3.04h1.67v1.71h-1.67v5.17c0,.72.4.97.97.97.32,0,.76-.02.76-.02v1.9s-.59.04-1.61.04c-1.25,0-2.64-.49-2.64-2.34v-5.72h-1.35v-1.71Z"/>
        <path class="cls-4" d="M286.52,162.05h2.56l1.18,4.52c.21.8.44,1.82.44,1.82h.04s.21-1.04.42-1.84l1.22-4.5h2.2l1.27,4.5c.21.82.46,1.84.46,1.84h.04s.23-1.03.44-1.82l1.23-4.52h2.51l-2.91,9.75h-2.36l-1.29-4.79c-.21-.78-.44-1.69-.44-1.69h-.04s-.25.91-.46,1.69l-1.33,4.79h-2.34l-2.85-9.75Z"/>
        <path class="cls-4" d="M300.68,166.91c0-2.89,1.96-5.13,4.81-5.13,3.13,0,4.81,2.39,4.81,5.87h-7.07c.19,1.5,1.03,2.43,2.49,2.43,1.01,0,1.6-.46,1.88-1.2h2.55c-.36,1.73-1.9,3.19-4.41,3.19-3.23,0-5.05-2.26-5.05-5.17ZM303.26,165.86h4.33c-.08-1.24-.89-2.09-2.07-2.09-1.37,0-2.03.82-2.26,2.09Z"/>
        <path class="cls-4" d="M313.98,163.6h.06c.59-1.1,1.25-1.67,2.39-1.67.29,0,.46.02.61.08v2.26h-.06c-1.69-.17-2.91.72-2.91,2.77v4.75h-2.58v-9.75h2.49v1.56Z"/>
        <path class="cls-4" d="M321.84,167.35l-1.12,1.16v3.29h-2.56v-13.58h2.56v7.52l3.46-3.68h3.1l-3.59,3.7,4.03,6.04h-3.13l-2.74-4.45Z"/>
        <path class="cls-4" d="M327.41,166.91c0-2.89,1.96-5.13,4.81-5.13,3.13,0,4.81,2.39,4.81,5.87h-7.07c.19,1.5,1.03,2.43,2.49,2.43,1.01,0,1.6-.46,1.88-1.2h2.55c-.36,1.73-1.9,3.19-4.41,3.19-3.23,0-5.05-2.26-5.05-5.17ZM330,165.86h4.33c-.08-1.24-.89-2.09-2.07-2.09-1.37,0-2.03.82-2.26,2.09Z"/>
        <path class="cls-4" d="M340.75,163.37h.06c.67-1.04,1.56-1.6,2.89-1.6,2.01,0,3.36,1.52,3.36,3.65v6.36h-2.58v-5.98c0-1.04-.61-1.79-1.69-1.79-1.14,0-1.98.91-1.98,2.24v5.53h-2.58v-9.75h2.53v1.33Z"/>
        <path class="cls-4" d="M348.5,169.04h2.77v2.75h-2.77v-2.75Z"/>
        <path class="cls-4" d="M355.66,169.72l7.41-9.16v-.06h-6.93v-2.3h10.2v2.3l-7.16,8.89v.06h7.29v2.34h-10.81v-2.07Z"/>
        <path class="cls-4" d="M367.04,166.93c0-2.91,2.07-5.15,5.09-5.15s5.09,2.24,5.09,5.15-2.07,5.15-5.09,5.15-5.09-2.24-5.09-5.15ZM374.61,166.93c0-1.9-.89-3.19-2.47-3.19s-2.47,1.29-2.47,3.19.87,3.17,2.47,3.17,2.47-1.27,2.47-3.17Z"/>
        <path class="cls-4" d="M381.14,166.93c0-2.91,1.9-5.15,4.86-5.15,2.53,0,4.08,1.46,4.43,3.57h-2.53c-.17-.85-.84-1.5-1.79-1.5-1.56,0-2.36,1.2-2.36,3.08s.74,3.08,2.32,3.08c1.04,0,1.79-.55,1.96-1.65h2.49c-.17,2.07-1.79,3.72-4.39,3.72-3.08,0-5-2.24-5-5.15Z"/>
        <path class="cls-4" d="M394.14,163.6h.06c.59-1.1,1.25-1.67,2.39-1.67.29,0,.46.02.61.08v2.26h-.06c-1.69-.17-2.91.72-2.91,2.77v4.75h-2.58v-9.75h2.49v1.56Z"/>
        <path class="cls-4" d="M397.58,166.91c0-2.89,1.96-5.13,4.81-5.13,3.13,0,4.81,2.39,4.81,5.87h-7.07c.19,1.5,1.03,2.43,2.49,2.43,1.01,0,1.6-.46,1.88-1.2h2.55c-.36,1.73-1.9,3.19-4.41,3.19-3.23,0-5.05-2.26-5.05-5.17ZM400.16,165.86h4.33c-.08-1.24-.89-2.09-2.07-2.09-1.37,0-2.03.82-2.26,2.09Z"/>
        <path class="cls-4" d="M407.91,166.91c0-2.89,1.96-5.13,4.81-5.13,3.13,0,4.81,2.39,4.81,5.87h-7.07c.19,1.5,1.03,2.43,2.49,2.43,1.01,0,1.6-.46,1.88-1.2h2.55c-.36,1.73-1.9,3.19-4.41,3.19-3.23,0-5.05-2.26-5.05-5.17ZM409.4,158.59h2.43v2.17h-2.43v-2.17ZM410.5,165.86h4.33c-.08-1.24-.89-2.09-2.07-2.09-1.37,0-2.03.82-2.26,2.09ZM413.63,158.59h2.43v2.17h-2.43v-2.17Z"/>
        <path class="cls-4" d="M421.21,163.6h.06c.59-1.1,1.25-1.67,2.39-1.67.28,0,.46.02.61.08v2.26h-.06c-1.69-.17-2.91.72-2.91,2.77v4.75h-2.58v-9.75h2.49v1.56Z"/>
        <path class="cls-4" d="M424.65,166.91c0-2.89,1.96-5.13,4.81-5.13,3.13,0,4.81,2.39,4.81,5.87h-7.07c.19,1.5,1.03,2.43,2.49,2.43,1.01,0,1.6-.46,1.88-1.2h2.55c-.36,1.73-1.9,3.19-4.41,3.19-3.23,0-5.05-2.26-5.05-5.17ZM427.24,165.86h4.33c-.08-1.24-.89-2.09-2.07-2.09-1.37,0-2.03.82-2.26,2.09Z"/>
        <path class="cls-4" d="M437.99,163.37h.06c.67-1.04,1.56-1.6,2.89-1.6,2.01,0,3.36,1.52,3.36,3.65v6.36h-2.58v-5.98c0-1.04-.61-1.79-1.69-1.79-1.14,0-1.98.91-1.98,2.24v5.53h-2.58v-9.75h2.53v1.33Z"/>
        <path class="cls-4" d="M448.33,162.05h2.56l1.18,4.52c.21.8.44,1.82.44,1.82h.04s.21-1.04.42-1.84l1.22-4.5h2.2l1.27,4.5c.21.82.46,1.84.46,1.84h.04s.23-1.03.44-1.82l1.23-4.52h2.51l-2.91,9.75h-2.36l-1.29-4.79c-.21-.78-.44-1.69-.44-1.69h-.04s-.25.91-.46,1.69l-1.33,4.79h-2.34l-2.85-9.75Z"/>
        <path class="cls-4" d="M462.48,166.91c0-2.89,1.96-5.13,4.81-5.13,3.13,0,4.81,2.39,4.81,5.87h-7.07c.19,1.5,1.03,2.43,2.49,2.43,1.01,0,1.6-.46,1.88-1.2h2.55c-.36,1.73-1.9,3.19-4.41,3.19-3.23,0-5.05-2.26-5.05-5.17ZM465.06,165.86h4.33c-.08-1.24-.89-2.09-2.07-2.09-1.37,0-2.03.82-2.26,2.09Z"/>
        <path class="cls-4" d="M476.01,166.91c0-2.89,1.96-5.13,4.81-5.13,3.13,0,4.81,2.39,4.81,5.87h-7.07c.19,1.5,1.03,2.43,2.49,2.43,1.01,0,1.6-.46,1.88-1.2h2.55c-.36,1.73-1.9,3.19-4.41,3.19-3.23,0-5.05-2.26-5.05-5.17ZM478.59,165.86h4.33c-.08-1.24-.89-2.09-2.07-2.09-1.37,0-2.03.82-2.26,2.09Z"/>
        <path class="cls-4" d="M486.34,166.91c0-2.89,1.96-5.13,4.81-5.13,3.13,0,4.81,2.39,4.81,5.87h-7.07c.19,1.5,1.03,2.43,2.49,2.43,1.01,0,1.6-.46,1.88-1.2h2.55c-.36,1.73-1.9,3.19-4.41,3.19-3.23,0-5.05-2.26-5.05-5.17ZM488.93,165.86h4.33c-.08-1.24-.89-2.09-2.07-2.09-1.37,0-2.03.82-2.26,2.09Z"/>
        <path class="cls-4" d="M499.68,163.37h.06c.67-1.04,1.56-1.6,2.89-1.6,2.01,0,3.36,1.52,3.36,3.65v6.36h-2.58v-5.98c0-1.04-.61-1.79-1.69-1.79-1.14,0-1.98.91-1.98,2.24v5.53h-2.58v-9.75h2.53v1.33Z"/>
      </g>
      <g>
        <path class="cls-4" d="M55.53,187.05h1.33v-.87c0-2.38,1.84-3.21,4.33-2.95v2c-1.22-.06-1.75.09-1.75,1.1v.72h1.75v1.79h-1.75v7.96h-2.58v-7.96h-1.33v-1.79Z"/>
        <path class="cls-4" d="M62.86,197.95h.91c1.03,0,1.44-.53,1.44-1.33,0-.53-.19-1.16-.74-2.64l-2.62-6.93h2.72l1.44,4.39c.3.89.63,2.13.63,2.13h.04s.27-1.23.57-2.13l1.37-4.39h2.6l-3.4,9.99c-.74,2.17-1.46,2.94-3.44,2.94h-1.52v-2.03Z"/>
        <path class="cls-4" d="M71.39,193.64h2.39c.17,1.12.97,1.61,2.13,1.61s1.79-.44,1.79-1.12c0-.93-1.23-1.03-2.56-1.29-1.75-.34-3.46-.82-3.46-2.94s1.75-3.12,3.97-3.12c2.56,0,3.99,1.27,4.18,3.23h-2.34c-.11-1.04-.78-1.42-1.88-1.42-1.01,0-1.67.38-1.67,1.08,0,.84,1.29.91,2.68,1.2,1.63.34,3.44.8,3.44,3.08,0,1.96-1.67,3.13-4.1,3.13-2.83,0-4.41-1.37-4.56-3.44Z"/>
        <path class="cls-4" d="M81.21,183.21h2.58v2.32h-2.58v-2.32ZM81.21,187.05h2.58v9.75h-2.58v-9.75Z"/>
        <path class="cls-4" d="M84.99,191.91c0-2.89,1.96-5.13,4.81-5.13,3.13,0,4.81,2.39,4.81,5.87h-7.07c.19,1.5,1.03,2.43,2.49,2.43,1.01,0,1.6-.46,1.88-1.2h2.55c-.36,1.73-1.9,3.19-4.41,3.19-3.23,0-5.05-2.26-5.05-5.17ZM87.58,190.87h4.33c-.08-1.24-.89-2.09-2.07-2.09-1.37,0-2.03.82-2.26,2.09Z"/>
        <path class="cls-4" d="M99.49,192.35l-1.12,1.16v3.29h-2.56v-13.58h2.56v7.52l3.46-3.68h3.1l-3.59,3.7,4.03,6.04h-3.13l-2.74-4.45Z"/>
        <path class="cls-4" d="M105.06,191.91c0-2.89,1.96-5.13,4.81-5.13,3.13,0,4.81,2.39,4.81,5.87h-7.07c.19,1.5,1.03,2.43,2.49,2.43,1.01,0,1.6-.46,1.88-1.2h2.55c-.36,1.73-1.9,3.19-4.41,3.19-3.23,0-5.05-2.26-5.05-5.17ZM107.64,190.87h4.33c-.08-1.24-.89-2.09-2.07-2.09-1.37,0-2.03.82-2.26,2.09Z"/>
        <path class="cls-4" d="M121.64,188.32h.06c.7-1.03,1.5-1.54,2.83-1.54,2.01,0,3.36,1.52,3.36,3.65v6.36h-2.58v-5.98c0-1.04-.61-1.79-1.69-1.79-1.14,0-1.98.91-1.98,2.24v5.53h-2.58v-13.58h2.58v5.11Z"/>
        <path class="cls-4" d="M135.65,196.79v-1.14h-.06c-.67.89-1.42,1.41-2.79,1.41-2.17,0-3.38-1.39-3.38-3.51v-6.5h2.56v6.06c0,1.14.51,1.77,1.61,1.77,1.22,0,1.96-.91,1.96-2.2v-5.62h2.58v9.75h-2.49Z"/>
        <path class="cls-4" d="M142.33,195.58h-.04v1.22h-2.49v-13.58h2.58v5.02h.06c.53-.82,1.37-1.44,2.72-1.44,2.45,0,4.2,2.11,4.2,5.15s-1.67,5.15-4.12,5.15c-1.37,0-2.34-.59-2.91-1.5ZM146.74,191.93c0-1.8-.72-3.06-2.17-3.06-1.63,0-2.24,1.31-2.24,3.12s.89,2.93,2.34,2.93c1.33,0,2.07-1.1,2.07-2.98Z"/>
        <path class="cls-4" d="M152.96,187.05h2.62l1.56,5.05c.29.93.44,1.56.44,1.56h.04s.13-.63.42-1.56l1.6-5.05h2.58l-3.4,9.75h-2.47l-3.38-9.75Z"/>
        <path class="cls-4" d="M162.32,191.93c0-2.91,2.07-5.15,5.09-5.15s5.09,2.24,5.09,5.15-2.07,5.15-5.09,5.15-5.09-2.24-5.09-5.15ZM169.88,191.93c0-1.9-.89-3.19-2.47-3.19s-2.47,1.29-2.47,3.19.87,3.17,2.47,3.17,2.47-1.27,2.47-3.17Z"/>
        <path class="cls-4" d="M173.23,191.93c0-2.91,2.07-5.15,5.09-5.15s5.09,2.24,5.09,5.15-2.07,5.15-5.09,5.15-5.09-2.24-5.09-5.15ZM180.79,191.93c0-1.9-.89-3.19-2.47-3.19s-2.47,1.29-2.47,3.19.87,3.17,2.47,3.17,2.47-1.27,2.47-3.17Z"/>
        <path class="cls-4" d="M187.1,188.61h.06c.59-1.1,1.25-1.67,2.39-1.67.29,0,.46.02.61.08v2.26h-.06c-1.69-.17-2.91.72-2.91,2.77v4.75h-2.58v-9.75h2.49v1.56Z"/>
        <path class="cls-4" d="M193.67,187.05h2.62l1.56,5.05c.29.93.44,1.56.44,1.56h.04s.13-.63.42-1.56l1.6-5.05h2.58l-3.4,9.75h-2.47l-3.38-9.75Z"/>
        <path class="cls-4" d="M203.04,191.91c0-2.89,1.96-5.13,4.81-5.13,3.13,0,4.81,2.39,4.81,5.87h-7.07c.19,1.5,1.03,2.43,2.49,2.43,1.01,0,1.6-.46,1.88-1.2h2.55c-.36,1.73-1.9,3.19-4.41,3.19-3.23,0-5.05-2.26-5.05-5.17ZM205.62,190.87h4.33c-.08-1.24-.89-2.09-2.07-2.09-1.37,0-2.03.82-2.26,2.09Z"/>
        <path class="cls-4" d="M216.34,188.61h.06c.59-1.1,1.25-1.67,2.39-1.67.28,0,.46.02.61.08v2.26h-.06c-1.69-.17-2.91.72-2.91,2.77v4.75h-2.58v-9.75h2.49v1.56Z"/>
        <path class="cls-4" d="M223.05,195.58h-.04v1.22h-2.49v-13.58h2.58v5.02h.06c.53-.82,1.37-1.44,2.72-1.44,2.45,0,4.2,2.11,4.2,5.15s-1.67,5.15-4.12,5.15c-1.37,0-2.34-.59-2.91-1.5ZM227.45,191.93c0-1.8-.72-3.06-2.17-3.06-1.63,0-2.24,1.31-2.24,3.12s.89,2.93,2.34,2.93c1.33,0,2.07-1.1,2.07-2.98Z"/>
        <path class="cls-4" d="M231.27,183.21h2.58v2.32h-2.58v-2.32ZM231.27,187.05h2.58v9.75h-2.58v-9.75Z"/>
        <path class="cls-4" d="M238.06,188.38h.06c.67-1.04,1.56-1.6,2.89-1.6,2.01,0,3.36,1.52,3.36,3.65v6.36h-2.58v-5.98c0-1.04-.61-1.79-1.69-1.79-1.14,0-1.98.91-1.98,2.24v5.53h-2.58v-9.75h2.53v1.33Z"/>
        <path class="cls-4" d="M245.49,191.93c0-3.04,1.73-5.15,4.16-5.15,1.37,0,2.22.63,2.75,1.44h.06v-5.02h2.58v13.58h-2.49v-1.27h-.04c-.57.93-1.54,1.56-2.91,1.56-2.45,0-4.12-2-4.12-5.15ZM252.51,191.99c0-1.86-.61-3.12-2.26-3.12-1.42,0-2.15,1.25-2.15,3.06s.74,2.98,2.07,2.98c1.54,0,2.34-1.14,2.34-2.93Z"/>
        <path class="cls-4" d="M256.71,183.21h2.58v2.32h-2.58v-2.32ZM256.71,187.05h2.58v9.75h-2.58v-9.75Z"/>
        <path class="cls-4" d="M263.5,188.38h.06c.67-1.04,1.56-1.6,2.89-1.6,2.01,0,3.36,1.52,3.36,3.65v6.36h-2.58v-5.98c0-1.04-.61-1.79-1.69-1.79-1.14,0-1.98.91-1.98,2.24v5.53h-2.58v-9.75h2.53v1.33Z"/>
        <path class="cls-4" d="M271.14,197.08h2.56c.21.61.76,1.08,1.96,1.08,1.46,0,2.17-.7,2.17-2.03v-1.06h-.06c-.57.65-1.31,1.14-2.55,1.14-2.17,0-4.29-1.71-4.29-4.65s1.75-4.77,4.22-4.77c1.22,0,2.11.48,2.7,1.29h.04v-1.03h2.49v9c0,1.37-.44,2.3-1.16,2.96-.82.76-2.07,1.1-3.51,1.1-2.66,0-4.29-1.14-4.56-3.04ZM277.96,191.5c0-1.42-.76-2.64-2.32-2.64-1.31,0-2.18,1.03-2.18,2.66s.87,2.62,2.2,2.62c1.63,0,2.3-1.2,2.3-2.64Z"/>
        <path class="cls-4" d="M284.76,191.91c0-2.89,1.96-5.13,4.81-5.13,3.13,0,4.81,2.39,4.81,5.87h-7.07c.19,1.5,1.03,2.43,2.49,2.43,1.01,0,1.6-.46,1.88-1.2h2.55c-.36,1.73-1.9,3.19-4.41,3.19-3.23,0-5.05-2.26-5.05-5.17ZM287.34,190.87h4.33c-.08-1.24-.89-2.09-2.07-2.09-1.37,0-2.03.82-2.26,2.09Z"/>
        <path class="cls-4" d="M298.1,188.38h.06c.67-1.04,1.56-1.6,2.89-1.6,2.01,0,3.36,1.52,3.36,3.65v6.36h-2.58v-5.98c0-1.04-.61-1.79-1.69-1.79-1.14,0-1.98.91-1.98,2.24v5.53h-2.58v-9.75h2.53v1.33Z"/>
        <path class="cls-4" d="M308.72,191.93c0-2.91,1.9-5.15,4.86-5.15,2.53,0,4.08,1.46,4.43,3.57h-2.53c-.17-.85-.84-1.5-1.79-1.5-1.56,0-2.36,1.2-2.36,3.08s.74,3.08,2.32,3.08c1.04,0,1.79-.55,1.96-1.65h2.49c-.17,2.07-1.79,3.72-4.39,3.72-3.08,0-5-2.24-5-5.15Z"/>
        <path class="cls-4" d="M321.71,188.61h.06c.59-1.1,1.25-1.67,2.39-1.67.28,0,.46.02.61.08v2.26h-.06c-1.69-.17-2.91.72-2.91,2.77v4.75h-2.58v-9.75h2.49v1.56Z"/>
        <path class="cls-4" d="M325.15,191.91c0-2.89,1.96-5.13,4.81-5.13,3.13,0,4.81,2.39,4.81,5.87h-7.07c.19,1.5,1.03,2.43,2.49,2.43,1.01,0,1.6-.46,1.88-1.2h2.55c-.36,1.73-1.9,3.19-4.41,3.19-3.23,0-5.05-2.26-5.05-5.17ZM327.74,190.87h4.33c-.08-1.24-.89-2.09-2.07-2.09-1.37,0-2.03.82-2.26,2.09Z"/>
        <path class="cls-4" d="M341.79,195.71h-.04c-.49.74-1.2,1.31-2.87,1.31-1.99,0-3.4-1.04-3.4-2.98,0-2.15,1.75-2.83,3.91-3.13,1.61-.23,2.36-.36,2.36-1.1,0-.7-.55-1.16-1.63-1.16-1.22,0-1.8.44-1.88,1.37h-2.3c.08-1.71,1.35-3.21,4.2-3.21s4.1,1.31,4.1,3.59v4.96c0,.74.11,1.18.34,1.35v.09h-2.49c-.15-.19-.25-.65-.3-1.08ZM341.81,193.36v-1.46c-.46.27-1.16.42-1.8.57-1.35.3-2.01.61-2.01,1.52s.61,1.23,1.52,1.23c1.48,0,2.3-.91,2.3-1.86Z"/>
        <path class="cls-4" d="M345.14,187.05h1.35v-3.04h2.53v3.04h1.67v1.71h-1.67v5.17c0,.72.4.97.97.97.32,0,.76-.02.76-.02v1.9s-.59.04-1.61.04c-1.25,0-2.64-.49-2.64-2.34v-5.72h-1.35v-1.71Z"/>
        <path class="cls-4" d="M352.02,183.21h2.58v2.32h-2.58v-2.32ZM352.02,187.05h2.58v9.75h-2.58v-9.75Z"/>
        <path class="cls-4" d="M355.47,187.05h2.62l1.56,5.05c.29.93.44,1.56.44,1.56h.04s.13-.63.42-1.56l1.6-5.05h2.58l-3.4,9.75h-2.47l-3.38-9.75Z"/>
        <path class="cls-4" d="M365.6,183.21h2.58v2.32h-2.58v-2.32ZM365.6,187.05h2.58v9.75h-2.58v-9.75Z"/>
        <path class="cls-4" d="M369.29,187.05h1.35v-3.04h2.53v3.04h1.67v1.71h-1.67v5.17c0,.72.4.97.97.97.32,0,.76-.02.76-.02v1.9s-.59.04-1.61.04c-1.25,0-2.64-.49-2.64-2.34v-5.72h-1.35v-1.71Z"/>
        <path class="cls-4" d="M375.61,191.91c0-2.89,1.96-5.13,4.81-5.13,3.13,0,4.81,2.39,4.81,5.87h-7.07c.19,1.5,1.03,2.43,2.49,2.43,1.01,0,1.6-.46,1.88-1.2h2.55c-.36,1.73-1.9,3.19-4.41,3.19-3.23,0-5.05-2.26-5.05-5.17ZM378.2,190.87h4.33c-.08-1.24-.89-2.09-2.07-2.09-1.37,0-2.03.82-2.26,2.09Z"/>
        <path class="cls-4" d="M386.43,183.21h2.58v2.32h-2.58v-2.32ZM386.43,187.05h2.58v9.75h-2.58v-9.75Z"/>
        <path class="cls-4" d="M390.11,187.05h1.35v-3.04h2.53v3.04h1.67v1.71h-1.67v5.17c0,.72.4.97.97.97.32,0,.76-.02.76-.02v1.9s-.59.04-1.61.04c-1.25,0-2.64-.49-2.64-2.34v-5.72h-1.35v-1.71Z"/>
        <path class="cls-4" d="M397.03,194.04h2.77v2.75h-2.77v-2.75Z"/>
      </g>
    </g>
  </g>
</svg>