<?xml version="1.0" encoding="UTF-8"?>
<svg id="Layer_2" data-name="Layer 2" xmlns="http://www.w3.org/2000/svg" xmlns:xlink="http://www.w3.org/1999/xlink" viewBox="0 0 555.52 231">
  <defs>
    <style>
      .cls-1, .cls-2, .cls-3 {
        fill: none;
      }

      .cls-4 {
        font-size: 30px;
      }

      .cls-4, .cls-5 {
        fill: #231f20;
        font-family: NHaasGroteskDSPro-65Md, 'Neue Haas Grotesk Display Pro';
        font-weight: 500;
      }

      .cls-2 {
        stroke-miterlimit: 10;
      }

      .cls-2, .cls-3 {
        stroke: #231f20;
      }

      .cls-6 {
        letter-spacing: 0em;
      }

      .cls-7 {
        fill: #fff;
      }

      .cls-5 {
        font-size: 19px;
      }

      .cls-8 {
        letter-spacing: 0em;
      }

      .cls-9 {
        letter-spacing: -.02em;
      }

      .cls-10 {
        letter-spacing: -.01em;
      }

      .cls-11 {
        letter-spacing: -.02em;
      }

      .cls-12 {
        letter-spacing: -.01em;
      }

      .cls-13 {
        letter-spacing: -.01em;
      }

      .cls-14 {
        letter-spacing: -.01em;
      }

      .cls-15 {
        letter-spacing: -.01em;
      }

      .cls-16 {
        letter-spacing: -.03em;
      }

      .cls-17 {
        letter-spacing: 0em;
      }

      .cls-18 {
        letter-spacing: 0em;
      }

      .cls-19 {
        letter-spacing: 0em;
      }

      .cls-20 {
        letter-spacing: 0em;
      }

      .cls-21 {
        letter-spacing: 0em;
      }

      .cls-22 {
        letter-spacing: 0em;
      }

      .cls-23 {
        letter-spacing: 0em;
      }

      .cls-24 {
        letter-spacing: .02em;
      }

      .cls-25 {
        clip-path: url(#clippath);
      }

      .cls-26 {
        letter-spacing: .01em;
      }

      .cls-27 {
        fill: #f37322;
      }

      .cls-28 {
        letter-spacing: 0em;
      }

      .cls-29 {
        letter-spacing: 0em;
      }
    </style>
    <clipPath id="clippath">
      <rect class="cls-1" width="555.52" height="231"/>
    </clipPath>
  </defs>
  <g id="Layer_1-2" data-name="Layer 1">
    <g>
      <rect class="cls-7" x="9.5" y="4" width="545.52" height="226.5"/>
      <g class="cls-25">
        <rect class="cls-2" x="9.5" y="4" width="545.52" height="226.5"/>
      </g>
      <rect class="cls-27" x="9.36" y="4" width="77.68" height="34.5"/>
      <rect class="cls-3" x="9.36" y="4" width="77.68" height="34.5"/>
      <text class="cls-4" transform="translate(24.66 31.13)"><tspan class="cls-14" x="0" y="0">w</tspan><tspan class="cls-20" x="21.93" y="0">a</tspan><tspan class="cls-8" x="37.32" y="0">t</tspan></text>
      <text class="cls-5" transform="translate(55.26 71.78)"><tspan x="0" y="0">de nieu</tspan><tspan class="cls-15" x="59.62" y="0">w</tspan><tspan x="73.51" y="0">e </tspan><tspan class="cls-9" x="87.04" y="0">v</tspan><tspan x="96.08" y="0">ernis</tspan><tspan class="cls-28" x="136.99" y="0">s</tspan><tspan class="cls-6" x="146.28" y="0">age is een pop up galerie die jonge </tspan></text>
      <text class="cls-5" transform="translate(55.26 96.78)"><tspan class="cls-15" x="0" y="0">k</tspan><tspan x="10.11" y="0">un</tspan><tspan class="cls-21" x="30.86" y="0">s</tspan><tspan class="cls-19" x="39.9" y="0">t</tspan><tspan class="cls-6" x="46.13" y="0">enaars een podium biedt en de oude</tspan><tspan class="cls-15" x="342.38" y="0">r</tspan><tspan x="348.78" y="0">e gene</tspan><tspan class="cls-15" x="404.05" y="0">r</tspan><tspan class="cls-23" x="410.45" y="0">a</tspan><tspan x="420.18" y="0">tie </tspan></text>
      <text class="cls-5" transform="translate(55.26 121.78)"><tspan x="0" y="0">uitnodigt om el</tspan><tspan class="cls-9" x="121.98" y="0">k</tspan><tspan class="cls-6" x="132.07" y="0">aar </tspan><tspan class="cls-19" x="161.76" y="0">t</tspan><tspan x="168" y="0">e o</tspan><tspan class="cls-21" x="192.43" y="0">n</tspan><tspan x="202.69" y="0">tmo</tspan><tspan class="cls-23" x="235.75" y="0">e</tspan><tspan class="cls-18" x="245.89" y="0">t</tspan><tspan x="252.13" y="0">en. </tspan><tspan class="cls-12" x="280.23" y="0">E</tspan><tspan class="cls-6" x="291.72" y="0">én plek </tspan><tspan class="cls-10" x="354.76" y="0">w</tspan><tspan class="cls-6" x="368.63" y="0">aar </tspan></text>
      <text class="cls-5" transform="translate(55.26 146.79)"><tspan x="0" y="0">c</tspan><tspan class="cls-15" x="10.03" y="0">r</tspan><tspan x="16.44" y="0">e</tspan><tspan class="cls-21" x="26.77" y="0">a</tspan><tspan x="36.52" y="0">ti</tspan><tspan class="cls-22" x="47.08" y="0">e</tspan><tspan class="cls-9" x="57.25" y="0">v</tspan><tspan x="66.29" y="0">elingen </tspan><tspan class="cls-28" x="130.24" y="0">s</tspan><tspan x="139.53" y="0">amen</tspan><tspan class="cls-16" x="186.06" y="0">k</tspan><tspan x="195.79" y="0">omen om </tspan><tspan class="cls-15" x="276.45" y="0">k</tspan><tspan x="286.55" y="0">un</tspan><tspan class="cls-21" x="307.3" y="0">s</tspan><tspan x="316.35" y="0">t </tspan><tspan class="cls-18" x="325.85" y="0">t</tspan><tspan x="332.08" y="0">e o</tspan><tspan class="cls-23" x="356.51" y="0">n</tspan><tspan class="cls-18" x="366.75" y="0">t</tspan><tspan x="372.98" y="0">dek</tspan><tspan class="cls-16" x="404.45" y="0">k</tspan><tspan x="414.18" y="0">en, </tspan></text>
      <text class="cls-5" transform="translate(55.26 171.79)"><tspan x="0" y="0">el</tspan><tspan class="cls-13" x="14.67" y="0">k</tspan><tspan x="24.78" y="0">aar </tspan><tspan class="cls-18" x="54.47" y="0">t</tspan><tspan x="60.7" y="0">e inspi</tspan><tspan class="cls-9" x="113.24" y="0">r</tspan><tspan x="119.62" y="0">e</tspan><tspan class="cls-9" x="129.96" y="0">r</tspan><tspan x="136.34" y="0">en en </tspan><tspan class="cls-19" x="184.26" y="0">t</tspan><tspan x="190.49" y="0">e n</tspan><tspan class="cls-22" x="214.45" y="0">e</tspan><tspan class="cls-26" x="224.61" y="0">t</tspan><tspan class="cls-10" x="231.19" y="0">w</tspan><tspan class="cls-6" x="245.06" y="0">er</tspan><tspan class="cls-16" x="262.06" y="0">k</tspan><tspan x="271.79" y="0">en. </tspan><tspan class="cls-11" x="299.89" y="0">Z</tspan><tspan x="311.42" y="0">o c</tspan><tspan class="cls-15" x="335.55" y="0">r</tspan><tspan x="341.96" y="0">eë</tspan><tspan class="cls-15" x="362.63" y="0">r</tspan><tspan x="369.03" y="0">en </tspan><tspan class="cls-10" x="392.99" y="0">w</tspan><tspan x="406.86" y="0">e een </tspan></text>
      <text class="cls-5" transform="translate(55.26 196.79)"><tspan class="cls-24" x="0" y="0">f</tspan><tspan class="cls-17" x="6.55" y="0">y</tspan><tspan class="cls-6" x="15.9" y="0">sie</tspan><tspan class="cls-16" x="39.71" y="0">k</tspan><tspan x="49.44" y="0">e hub </tspan><tspan class="cls-9" x="97.66" y="0">v</tspan><tspan x="106.7" y="0">oor </tspan><tspan class="cls-9" x="138.38" y="0">v</tspan><tspan x="147.42" y="0">erbinding en c</tspan><tspan class="cls-12" x="263.13" y="0">r</tspan><tspan class="cls-6" x="269.53" y="0">e</tspan><tspan class="cls-22" x="279.87" y="0">a</tspan><tspan x="289.61" y="0">tivi</tspan><tspan class="cls-19" x="313.76" y="0">t</tspan><tspan x="319.99" y="0">ei</tspan><tspan class="cls-29" x="334.59" y="0">t</tspan><tspan x="341.08" y="0">.</tspan></text>
    </g>
  </g>
</svg>