<?xml version="1.0" encoding="UTF-8"?>
<svg id="Layer_2" data-name="Layer 2" xmlns="http://www.w3.org/2000/svg" xmlns:xlink="http://www.w3.org/1999/xlink" viewBox="0 0 58 22">
  <defs>
    <style>
      .cls-1, .cls-2 {
        fill: none;
      }

      .cls-3 {
        fill: #231f20;
      }

      .cls-2 {
        stroke: #231f20;
        stroke-miterlimit: 10;
      }

      .cls-4 {
        clip-path: url(#clippath);
      }
    </style>
    <clipPath id="clippath">
      <rect class="cls-1" width="58" height="22"/>
    </clipPath>
  </defs>
  <g id="Layer_1-2" data-name="Layer 1">
    <g>
      <g>
        <path class="cls-3" d="M15.39,13.67c0-1.76,1-2.98,2.41-2.98.79,0,1.29.36,1.6.84h.03v-2.9h1.5v7.87h-1.44v-.74h-.02c-.33.54-.89.9-1.68.9-1.42,0-2.39-1.16-2.39-2.98ZM19.46,13.7c0-1.08-.35-1.8-1.31-1.8-.82,0-1.24.73-1.24,1.77s.43,1.73,1.2,1.73c.89,0,1.35-.66,1.35-1.69Z"/>
        <path class="cls-3" d="M25.45,16.48v-.66h-.03c-.39.52-.83.81-1.62.81-1.25,0-1.96-.8-1.96-2.04v-3.76h1.49v3.51c0,.66.3,1.02.94,1.02.7,0,1.13-.53,1.13-1.28v-3.26h1.5v5.64h-1.44Z"/>
        <path class="cls-3" d="M27.53,10.84h.78v-1.76h1.46v1.76h.97v.99h-.97v2.99c0,.42.23.56.56.56.19,0,.44-.01.44-.01v1.1s-.34.02-.94.02c-.73,0-1.53-.29-1.53-1.35v-3.31h-.78v-.99Z"/>
        <path class="cls-3" d="M31.19,13.67c0-1.68,1.1-2.98,2.82-2.98,1.46,0,2.37.85,2.56,2.07h-1.46c-.1-.5-.48-.87-1.03-.87-.9,0-1.36.69-1.36,1.78s.43,1.78,1.34,1.78c.6,0,1.03-.32,1.13-.96h1.44c-.1,1.2-1.03,2.16-2.54,2.16-1.78,0-2.89-1.3-2.89-2.98Z"/>
        <path class="cls-3" d="M38.77,11.58h.03c.41-.59.87-.89,1.64-.89,1.17,0,1.95.88,1.95,2.11v3.69h-1.5v-3.47c0-.6-.35-1.03-.98-1.03-.66,0-1.14.53-1.14,1.3v3.2h-1.5v-7.87h1.5v2.96Z"/>
      </g>
      <g class="cls-4">
        <rect class="cls-2" x="9.5" y="5.5" width="39" height="15"/>
      </g>
    </g>
  </g>
</svg>