<?xml version="1.0" encoding="UTF-8"?>
<svg id="Layer_2" data-name="Layer 2" xmlns="http://www.w3.org/2000/svg" viewBox="0 0 151.01 111.17">
  <defs>
    <style>
      .cls-1 {
        fill: #231f20;
      }
    </style>
  </defs>
  <g id="Layer_1-2" data-name="Layer 1">
    <g>
      <path class="cls-1" d="M1.63,0h6.38v31.46H1.63V0Z"/>
      <path class="cls-1" d="M11.88,9.73c1.36-.44,2.99-1.85,2.99-4h-2.9V0h5.94v5.19c0,4-3.08,6.12-6.03,6.6v-2.07Z"/>
      <path class="cls-1" d="M21.03,8.89h5.76v3.04h.13c1.23-2.07,3.43-3.65,6.56-3.65,2.86,0,5.15,1.58,6.25,3.96h.09c1.54-2.46,3.92-3.96,6.78-3.96,4.75,0,7.44,3.08,7.44,8.01v15.18h-5.98v-14.17c0-2.55-1.28-3.87-3.48-3.87-2.51,0-4.05,1.94-4.05,4.93v13.11h-5.98v-14.17c0-2.55-1.28-3.87-3.48-3.87-2.42,0-4.05,1.94-4.05,4.93v13.11h-5.98V8.89Z"/>
      <path class="cls-1" d="M6.95,48.97h.13c1.54-2.42,3.61-3.7,6.69-3.7,4.66,0,7.79,3.52,7.79,8.45v14.74h-5.98v-13.86c0-2.42-1.41-4.14-3.92-4.14-2.64,0-4.58,2.11-4.58,5.19v12.81H1.1v-22.57h5.85v3.08Z"/>
      <path class="cls-1" d="M24.16,57.2c0-6.73,4.8-11.93,11.79-11.93s11.79,5.19,11.79,11.93-4.8,11.93-11.79,11.93-11.79-5.19-11.79-11.93ZM41.67,57.2c0-4.4-2.07-7.39-5.72-7.39s-5.72,2.99-5.72,7.39,2.02,7.35,5.72,7.35,5.72-2.95,5.72-7.35Z"/>
      <path class="cls-1" d="M48.75,45.89h3.12v-7.04h5.85v7.04h3.87v3.96h-3.87v11.97c0,1.67.92,2.24,2.24,2.24.75,0,1.76-.04,1.76-.04v4.4s-1.36.09-3.74.09c-2.9,0-6.12-1.14-6.12-5.41v-13.24h-3.12v-3.96Z"/>
      <path class="cls-1" d="M0,92.2c0-6.73,4.4-11.93,11.27-11.93,5.85,0,9.46,3.39,10.25,8.27h-5.85c-.4-1.98-1.94-3.48-4.14-3.48-3.61,0-5.46,2.77-5.46,7.13s1.72,7.13,5.37,7.13c2.42,0,4.14-1.28,4.53-3.83h5.76c-.4,4.8-4.14,8.62-10.17,8.62-7.13,0-11.57-5.19-11.57-11.93Z"/>
      <path class="cls-1" d="M23.23,92.2c0-6.73,4.8-11.93,11.79-11.93s11.79,5.19,11.79,11.93-4.8,11.93-11.79,11.93-11.79-5.19-11.79-11.93ZM40.75,92.2c0-4.4-2.07-7.39-5.72-7.39s-5.72,2.99-5.72,7.39,2.02,7.35,5.72,7.35,5.72-2.95,5.72-7.35Z"/>
      <path class="cls-1" d="M49.59,80.89h5.76v3.04h.13c1.23-2.07,3.43-3.65,6.56-3.65,2.86,0,5.15,1.58,6.25,3.96h.09c1.54-2.46,3.92-3.96,6.78-3.96,4.75,0,7.44,3.08,7.44,8.01v15.18h-5.98v-14.17c0-2.55-1.28-3.87-3.48-3.87-2.51,0-4.05,1.94-4.05,4.93v13.11h-5.98v-14.17c0-2.55-1.28-3.87-3.48-3.87-2.42,0-4.05,1.94-4.05,4.93v13.11h-5.98v-22.58Z"/>
      <path class="cls-1" d="M86.28,72h5.99v5.37h-5.99v-5.37ZM86.28,80.89h5.99v22.58h-5.99v-22.58Z"/>
      <path class="cls-1" d="M101.99,83.97h.13c1.54-2.42,3.61-3.7,6.69-3.7,4.66,0,7.79,3.52,7.79,8.45v14.74h-5.98v-13.86c0-2.42-1.41-4.14-3.92-4.14-2.64,0-4.58,2.11-4.58,5.19v12.81h-5.98v-22.58h5.85v3.08Z"/>
      <path class="cls-1" d="M119.68,104.12h5.94c.48,1.41,1.76,2.51,4.53,2.51,3.39,0,5.02-1.63,5.02-4.71v-2.46h-.13c-1.32,1.5-3.04,2.64-5.9,2.64-5.02,0-9.95-3.96-9.95-10.78s4.05-11.05,9.77-11.05c2.82,0,4.88,1.1,6.25,2.99h.09v-2.38h5.77v20.86c0,3.17-1.01,5.32-2.68,6.86-1.89,1.76-4.8,2.55-8.14,2.55-6.16,0-9.95-2.64-10.56-7.04ZM135.48,91.19c0-3.3-1.76-6.12-5.37-6.12-3.04,0-5.06,2.38-5.06,6.16s2.02,6.07,5.1,6.07c3.78,0,5.33-2.77,5.33-6.12Z"/>
      <path class="cls-1" d="M144.58,97.08h6.43v6.38h-6.43v-6.38Z"/>
    </g>
  </g>
</svg>