<?xml version="1.0" encoding="UTF-8"?>
<svg id="Layer_2" data-name="Layer 2" xmlns="http://www.w3.org/2000/svg" viewBox="0 0 116.73 104.12">
  <defs>
    <style>
      .cls-1 {
        fill: #231f20;
      }
    </style>
  </defs>
  <g id="Layer_1-2" data-name="Layer 1">
    <g>
      <path class="cls-1" d="M2.29,0h6.38v31.46H2.29V0Z"/>
      <path class="cls-1" d="M0,43.89h5.94l2.73,10.47c.48,1.85,1.01,4.22,1.01,4.22h.09s.48-2.42.97-4.27l2.82-10.43h5.1l2.95,10.43c.48,1.89,1.06,4.27,1.06,4.27h.09s.53-2.38,1.01-4.22l2.86-10.47h5.81l-6.73,22.58h-5.46l-2.99-11.09c-.48-1.8-1.01-3.92-1.01-3.92h-.09s-.57,2.11-1.06,3.92l-3.08,11.09h-5.41L0,43.89Z"/>
      <path class="cls-1" d="M34.54,35h5.99v5.37h-5.99v-5.37ZM34.54,43.89h5.99v22.58h-5.99v-22.58Z"/>
      <path class="cls-1" d="M44.48,35h5.99v31.46h-5.99v-31.46Z"/>
      <path class="cls-1" d="M54.52,35h5.98v31.46h-5.98v-31.46Z"/>
      <path class="cls-1" d="M.66,92.2c0-6.73,4.4-11.93,11.27-11.93,5.85,0,9.46,3.39,10.25,8.27h-5.85c-.4-1.98-1.94-3.48-4.14-3.48-3.61,0-5.46,2.77-5.46,7.13s1.72,7.13,5.37,7.13c2.42,0,4.14-1.28,4.53-3.83h5.76c-.4,4.8-4.14,8.62-10.17,8.62-7.13,0-11.57-5.19-11.57-11.93Z"/>
      <path class="cls-1" d="M23.89,92.2c0-6.73,4.8-11.93,11.79-11.93s11.79,5.19,11.79,11.93-4.8,11.93-11.79,11.93-11.79-5.19-11.79-11.93ZM41.41,92.2c0-4.4-2.07-7.39-5.72-7.39s-5.72,2.99-5.72,7.39,2.02,7.35,5.72,7.35,5.72-2.95,5.72-7.35Z"/>
      <path class="cls-1" d="M50.25,80.89h5.76v3.04h.13c1.23-2.07,3.43-3.65,6.56-3.65,2.86,0,5.15,1.58,6.25,3.96h.09c1.54-2.46,3.92-3.96,6.78-3.96,4.75,0,7.44,3.08,7.44,8.01v15.18h-5.99v-14.17c0-2.55-1.28-3.87-3.48-3.87-2.51,0-4.05,1.94-4.05,4.93v13.11h-5.99v-14.17c0-2.55-1.28-3.87-3.48-3.87-2.42,0-4.05,1.94-4.05,4.93v13.11h-5.98v-22.58Z"/>
      <path class="cls-1" d="M85.84,92.16c0-6.69,4.53-11.88,11.13-11.88,7.26,0,11.13,5.54,11.13,13.6h-16.37c.44,3.48,2.38,5.63,5.76,5.63,2.33,0,3.7-1.06,4.36-2.77h5.9c-.84,4-4.4,7.39-10.21,7.39-7.48,0-11.71-5.24-11.71-11.97ZM91.83,89.74h10.03c-.18-2.86-2.07-4.84-4.8-4.84-3.17,0-4.71,1.89-5.24,4.84Z"/>
      <path class="cls-1" d="M110.31,97.08h6.42v6.38h-6.42v-6.38Z"/>
    </g>
  </g>
</svg>