<?xml version="1.0" encoding="UTF-8"?>
<svg id="Layer_2" data-name="Layer 2" xmlns="http://www.w3.org/2000/svg" viewBox="0 0 243.65 100.55">
  <defs>
    <style>
      .cls-1 {
        fill: #231f20;
      }
    </style>
  </defs>
  <g id="Layer_1-2" data-name="Layer 1">
    <g>
      <g>
        <path class="cls-1" d="M.88,7.88h5.11v2.5h.12c1.29-1.75,3.16-3.04,5.89-3.04,5.3,0,8.7,4.33,8.7,10.57s-3.51,10.57-8.66,10.57c-2.81,0-4.64-1.13-5.77-2.85h-.08v8.81H.88V7.88ZM15.31,18.06c0-3.78-1.33-6.44-4.6-6.44s-4.64,2.85-4.64,6.44,1.68,6.01,4.84,6.01c2.69,0,4.41-2.22,4.41-6.01Z"/>
        <path class="cls-1" d="M22.17,17.9c0-5.97,4.25-10.57,10.45-10.57s10.45,4.6,10.45,10.57-4.25,10.57-10.45,10.57-10.45-4.6-10.45-10.57ZM37.7,17.9c0-3.9-1.83-6.55-5.07-6.55s-5.07,2.65-5.07,6.55,1.79,6.51,5.07,6.51,5.07-2.61,5.07-6.51Z"/>
        <path class="cls-1" d="M45.54,7.88h5.11v2.5h.12c1.29-1.75,3.16-3.04,5.89-3.04,5.3,0,8.7,4.33,8.7,10.57s-3.51,10.57-8.66,10.57c-2.81,0-4.64-1.13-5.77-2.85h-.08v8.81h-5.3V7.88ZM59.96,18.06c0-3.78-1.33-6.44-4.6-6.44s-4.64,2.85-4.64,6.44,1.68,6.01,4.84,6.01c2.69,0,4.41-2.22,4.41-6.01Z"/>
        <path class="cls-1" d="M67.41,15.95h10.57v4.56h-10.57v-4.56Z"/>
        <path class="cls-1" d="M93.66,27.89v-2.34h-.12c-1.36,1.83-2.92,2.89-5.73,2.89-4.45,0-6.94-2.85-6.94-7.21V7.88h5.26v12.44c0,2.34,1.05,3.63,3.32,3.63,2.5,0,4.02-1.87,4.02-4.52V7.88h5.3v20.01h-5.11Z"/>
        <path class="cls-1" d="M102.2,7.88h5.11v2.5h.12c1.29-1.75,3.16-3.04,5.89-3.04,5.3,0,8.7,4.33,8.7,10.57s-3.51,10.57-8.66,10.57c-2.81,0-4.64-1.13-5.77-2.85h-.08v8.81h-5.3V7.88ZM116.63,18.06c0-3.78-1.33-6.44-4.6-6.44s-4.64,2.85-4.64,6.44,1.68,6.01,4.84,6.01c2.69,0,4.41-2.22,4.41-6.01Z"/>
        <path class="cls-1" d="M130.48,28.47h5.27c.43,1.25,1.56,2.22,4.02,2.22,3,0,4.45-1.44,4.45-4.17v-2.18h-.12c-1.17,1.33-2.69,2.34-5.23,2.34-4.45,0-8.81-3.51-8.81-9.56s3.59-9.79,8.66-9.79c2.5,0,4.33.97,5.54,2.65h.08v-2.11h5.11v18.49c0,2.81-.9,4.72-2.38,6.08-1.68,1.56-4.25,2.26-7.22,2.26-5.46,0-8.81-2.34-9.36-6.24ZM144.48,17c0-2.92-1.56-5.42-4.76-5.42-2.69,0-4.49,2.11-4.49,5.46s1.79,5.38,4.52,5.38c3.35,0,4.72-2.46,4.72-5.42Z"/>
        <path class="cls-1" d="M164.83,25.66h-.08c-1.01,1.52-2.46,2.69-5.89,2.69-4.1,0-6.98-2.14-6.98-6.12,0-4.41,3.59-5.81,8.03-6.44,3.32-.47,4.84-.74,4.84-2.26,0-1.44-1.13-2.38-3.35-2.38-2.5,0-3.71.9-3.86,2.81h-4.72c.16-3.51,2.77-6.59,8.62-6.59s8.42,2.69,8.42,7.37v10.18c0,1.52.23,2.42.7,2.77v.2h-5.11c-.31-.39-.51-1.33-.62-2.22ZM164.87,20.83v-3c-.94.55-2.38.86-3.71,1.17-2.77.62-4.13,1.25-4.13,3.12s1.25,2.54,3.12,2.54c3.04,0,4.72-1.87,4.72-3.82Z"/>
        <path class="cls-1" d="M173.3,0h5.3v27.89h-5.3V0Z"/>
        <path class="cls-1" d="M182.19,0h5.3v27.89h-5.3V0Z"/>
        <path class="cls-1" d="M190.03,17.86c0-5.93,4.02-10.53,9.87-10.53,6.43,0,9.87,4.91,9.87,12.05h-14.51c.39,3.08,2.11,4.99,5.11,4.99,2.07,0,3.28-.94,3.86-2.46h5.23c-.74,3.55-3.9,6.55-9.05,6.55-6.63,0-10.37-4.64-10.37-10.61ZM195.33,15.72h8.89c-.16-2.54-1.83-4.29-4.25-4.29-2.81,0-4.17,1.68-4.64,4.29Z"/>
        <path class="cls-1" d="M217.33,11.08h.12c1.21-2.26,2.57-3.43,4.91-3.43.58,0,.94.04,1.25.16v4.64h-.12c-3.47-.35-5.97,1.48-5.97,5.69v9.75h-5.3V7.88h5.11v3.2Z"/>
        <path class="cls-1" d="M226.49,30.26h1.87c2.11,0,2.96-1.09,2.96-2.73,0-1.09-.39-2.38-1.52-5.42l-5.38-14.24h5.58l2.96,9.01c.62,1.83,1.29,4.37,1.29,4.37h.08s.55-2.54,1.17-4.37l2.81-9.01h5.34l-6.98,20.51c-1.52,4.45-3,6.05-7.06,6.05h-3.12v-4.17Z"/>
      </g>
      <g>
        <path class="cls-1" d="M6.61,55.26c3.35-2.65,7.02-4.52,7.02-7.96,0-2.5-1.33-4.17-3.71-4.17-2.69,0-4.29,1.95-4.37,5.42H.57c0-6.08,3.12-9.95,9.48-9.95,5.81,0,9.09,3.94,9.09,8.54,0,5.03-3.43,7.41-6.71,9.59-2.07,1.33-4.49,3.04-5.38,4.76h12.32v4.37H.18c.2-5.11,3.39-8.23,6.44-10.61Z"/>
        <path class="cls-1" d="M21.39,58.15c0-3.31,1.95-5.89,4.88-7.02v-.12c-2.38-1.09-3.74-2.73-3.74-5.3,0-4.52,3.94-7.1,9.71-7.1s9.52,2.54,9.52,7.02c0,2.5-1.4,4.25-3.71,5.34v.12c2.96,1.05,4.84,3.59,4.84,6.83,0,5.5-4.56,8.54-10.61,8.54s-10.88-2.92-10.88-8.31ZM37.42,57.96c0-2.73-1.91-4.52-5.19-4.52s-5.34,1.79-5.34,4.52,2.03,4.21,5.26,4.21,5.27-1.68,5.27-4.21ZM36.57,46.14c0-2.11-1.64-3.51-4.41-3.51s-4.45,1.4-4.45,3.51,1.64,3.59,4.45,3.59,4.41-1.48,4.41-3.59Z"/>
        <path class="cls-1" d="M45.18,60.22h5.69v5.66h-5.69v-5.66Z"/>
        <path class="cls-1" d="M52.71,52.53c0-8.54,4.41-13.96,11.19-13.96s11.12,5.38,11.12,13.96-4.21,13.96-11.15,13.96-11.15-5.46-11.15-13.96ZM69.48,52.53c0-5.66-1.64-9.44-5.58-9.44s-5.66,3.74-5.66,9.44,1.68,9.44,5.66,9.44,5.58-3.71,5.58-9.44Z"/>
        <path class="cls-1" d="M77.4,52.92c-.04-4.72.9-8.54,3.28-11.23,1.72-1.95,4.06-3.08,7.68-3.08,5.34,0,8.54,2.92,9.21,6.9h-5.11c-.39-1.64-1.56-2.85-3.9-2.85-3.9,0-5.77,2.92-5.77,7.64h.08c1.4-1.64,3.16-2.77,6.28-2.77,4.95,0,9.28,3.86,9.28,9.56s-4.37,9.36-9.95,9.36c-7.64,0-11-6.28-11.08-13.53ZM93.35,57.17c0-3.04-2.14-5.34-5.03-5.34-3.28,0-5.19,2.22-5.19,5.3s2.14,5.15,5.15,5.15,5.07-2.22,5.07-5.11Z"/>
        <path class="cls-1" d="M100.56,60.22h5.69v5.66h-5.69v-5.66Z"/>
        <path class="cls-1" d="M115.11,55.26c3.35-2.65,7.02-4.52,7.02-7.96,0-2.5-1.33-4.17-3.71-4.17-2.69,0-4.29,1.95-4.37,5.42h-4.99c0-6.08,3.12-9.95,9.48-9.95,5.81,0,9.09,3.94,9.09,8.54,0,5.03-3.43,7.41-6.71,9.59-2.07,1.33-4.49,3.04-5.38,4.76h12.32v4.37h-19.19c.19-5.11,3.39-8.23,6.43-10.61Z"/>
        <path class="cls-1" d="M129.5,58.15h5.23c.47,2.61,2.65,3.86,5.42,3.86,3.04,0,4.95-2.18,4.95-5.03,0-3.16-2.14-4.91-4.95-4.91-2.03,0-3.59.78-4.37,1.68h-5.11l2.57-14.59h15.76v4.41h-12.05l-1.01,5.77h.08c1.17-1.01,3.08-1.68,5.54-1.68,4.72,0,9.05,3.55,9.05,9.32s-4.49,9.48-10.34,9.48-10.26-3.12-10.76-8.31Z"/>
      </g>
      <g>
        <path class="cls-1" d="M14.61,97.38h-.09c-1.14,1.72-2.77,3.04-6.65,3.04-4.62,0-7.88-2.42-7.88-6.91,0-4.97,4.05-6.56,9.07-7.26,3.74-.53,5.46-.84,5.46-2.55s-1.28-2.68-3.79-2.68c-2.82,0-4.18,1.01-4.36,3.17H1.06c.18-3.96,3.12-7.44,9.73-7.44s9.51,3.04,9.51,8.32v11.49c0,1.72.26,2.73.79,3.12v.22h-5.76c-.35-.44-.57-1.5-.7-2.51ZM14.65,91.92v-3.39c-1.06.62-2.68.97-4.18,1.32-3.12.7-4.67,1.41-4.67,3.52s1.41,2.86,3.52,2.86c3.43,0,5.33-2.11,5.33-4.31Z"/>
        <path class="cls-1" d="M24.07,77.31h5.76v3.04h.13c1.23-2.07,3.43-3.65,6.56-3.65,2.86,0,5.15,1.58,6.25,3.96h.09c1.54-2.46,3.92-3.96,6.78-3.96,4.75,0,7.44,3.08,7.44,8.01v15.18h-5.99v-14.17c0-2.55-1.28-3.87-3.48-3.87-2.51,0-4.05,1.94-4.05,4.93v13.11h-5.99v-14.17c0-2.55-1.28-3.87-3.48-3.87-2.42,0-4.05,1.94-4.05,4.93v13.11h-5.99v-22.58Z"/>
        <path class="cls-1" d="M59.36,92.58h5.54c.4,2.6,2.24,3.74,4.93,3.74s4.14-1.01,4.14-2.6c0-2.16-2.86-2.38-5.94-2.99-4.05-.79-8.01-1.89-8.01-6.82s4.05-7.22,9.2-7.22c5.94,0,9.24,2.95,9.68,7.48h-5.41c-.26-2.42-1.8-3.3-4.36-3.3-2.33,0-3.87.88-3.87,2.51,0,1.94,2.99,2.11,6.21,2.77,3.79.79,7.97,1.85,7.97,7.13,0,4.53-3.87,7.26-9.51,7.26-6.56,0-10.21-3.17-10.56-7.96Z"/>
        <path class="cls-1" d="M80.39,77.31h3.12v-7.04h5.85v7.04h3.87v3.96h-3.87v11.97c0,1.67.92,2.24,2.24,2.24.75,0,1.76-.04,1.76-.04v4.4s-1.36.09-3.74.09c-2.9,0-6.12-1.14-6.12-5.41v-13.25h-3.12v-3.96Z"/>
        <path class="cls-1" d="M95.04,88.58c0-6.69,4.53-11.88,11.13-11.88,7.26,0,11.13,5.54,11.13,13.6h-16.37c.44,3.48,2.38,5.63,5.77,5.63,2.33,0,3.7-1.06,4.36-2.77h5.9c-.84,4-4.4,7.39-10.21,7.39-7.48,0-11.71-5.24-11.71-11.97ZM101.02,86.16h10.03c-.18-2.86-2.07-4.84-4.8-4.84-3.17,0-4.71,1.89-5.24,4.84Z"/>
        <path class="cls-1" d="M125.84,80.92h.13c1.36-2.55,2.9-3.87,5.54-3.87.66,0,1.06.04,1.41.18v5.24h-.13c-3.92-.4-6.73,1.67-6.73,6.42v11h-5.98v-22.58h5.76v3.61Z"/>
        <path class="cls-1" d="M133.8,88.62c0-7.04,4-11.93,9.64-11.93,3.17,0,5.15,1.45,6.38,3.34h.13v-11.62h5.98v31.46h-5.76v-2.95h-.09c-1.32,2.16-3.56,3.61-6.73,3.61-5.68,0-9.55-4.62-9.55-11.93ZM150.08,88.75c0-4.31-1.41-7.22-5.24-7.22-3.3,0-4.97,2.9-4.97,7.08s1.72,6.91,4.8,6.91c3.56,0,5.41-2.64,5.41-6.78Z"/>
        <path class="cls-1" d="M173.32,97.38h-.09c-1.14,1.72-2.77,3.04-6.64,3.04-4.62,0-7.88-2.42-7.88-6.91,0-4.97,4.05-6.56,9.07-7.26,3.74-.53,5.46-.84,5.46-2.55s-1.28-2.68-3.78-2.68c-2.82,0-4.18,1.01-4.36,3.17h-5.33c.18-3.96,3.12-7.44,9.73-7.44s9.5,3.04,9.5,8.32v11.49c0,1.72.26,2.73.79,3.12v.22h-5.76c-.35-.44-.57-1.5-.7-2.51ZM173.36,91.92v-3.39c-1.06.62-2.68.97-4.18,1.32-3.12.7-4.66,1.41-4.66,3.52s1.41,2.86,3.52,2.86c3.43,0,5.32-2.11,5.32-4.31Z"/>
        <path class="cls-1" d="M182.77,77.31h5.76v3.04h.13c1.23-2.07,3.43-3.65,6.56-3.65,2.86,0,5.15,1.58,6.25,3.96h.09c1.54-2.46,3.92-3.96,6.78-3.96,4.75,0,7.44,3.08,7.44,8.01v15.18h-5.98v-14.17c0-2.55-1.28-3.87-3.48-3.87-2.51,0-4.05,1.94-4.05,4.93v13.11h-5.98v-14.17c0-2.55-1.28-3.87-3.48-3.87-2.42,0-4.05,1.94-4.05,4.93v13.11h-5.98v-22.58Z"/>
        <path class="cls-1" d="M219.12,93.5h6.42v6.38h-6.42v-6.38Z"/>
      </g>
    </g>
  </g>
</svg>