<?xml version="1.0" encoding="UTF-8"?>
<svg id="Layer_2" data-name="Layer 2" xmlns="http://www.w3.org/2000/svg" viewBox="0 0 170.67 107.46">
  <defs>
    <style>
      .cls-1 {
        fill: #231f20;
      }
    </style>
  </defs>
  <g id="Layer_1-2" data-name="Layer 1">
    <g>
      <path class="cls-1" d="M1.36,19.67v-5.1l18.04-7.61v5.02l-9.55,3.74c-1.45.57-4.18,1.45-4.18,1.45v.09s2.73.79,4.18,1.32l9.55,3.61v5.1L1.36,19.67Z"/>
      <path class="cls-1" d="M29.79,18.79c3.78-2.99,7.92-5.1,7.92-8.98,0-2.82-1.5-4.71-4.18-4.71-3.04,0-4.84,2.2-4.93,6.12h-5.63c0-6.86,3.52-11.22,10.69-11.22,6.56,0,10.25,4.45,10.25,9.64,0,5.68-3.87,8.36-7.57,10.83-2.33,1.5-5.06,3.43-6.07,5.37h13.91v4.93h-21.65c.22-5.76,3.83-9.29,7.26-11.97Z"/>
      <path class="cls-1" d="M46.02,22.05h5.9c.53,2.95,2.99,4.36,6.12,4.36,3.43,0,5.59-2.46,5.59-5.68,0-3.56-2.42-5.54-5.59-5.54-2.29,0-4.05.88-4.93,1.89h-5.77L50.25.62h17.78v4.97h-13.6l-1.14,6.51h.09c1.32-1.14,3.48-1.89,6.25-1.89,5.32,0,10.21,4,10.21,10.52s-5.06,10.69-11.66,10.69-11.57-3.52-12.15-9.37Z"/>
      <path class="cls-1" d="M1.36,59.27l9.55-3.74c1.45-.57,4.18-1.45,4.18-1.45v-.09s-2.73-.79-4.18-1.32l-9.55-3.61v-5.1l18.04,7.61v5.1l-18.04,7.61v-5.02Z"/>
      <path class="cls-1" d="M21.96,59.05h5.9c.53,2.95,2.99,4.36,6.12,4.36,3.43,0,5.59-2.46,5.59-5.68,0-3.56-2.42-5.54-5.59-5.54-2.29,0-4.05.88-4.93,1.89h-5.77l2.9-16.46h17.78v4.97h-13.6l-1.14,6.51h.09c1.32-1.14,3.48-1.89,6.25-1.89,5.32,0,10.21,4,10.21,10.52s-5.06,10.69-11.66,10.69-11.57-3.52-12.15-9.37Z"/>
      <path class="cls-1" d="M48.14,52.71c0-9.64,4.97-15.75,12.63-15.75s12.54,6.07,12.54,15.75-4.75,15.75-12.59,15.75-12.59-6.16-12.59-15.75ZM67.06,52.71c0-6.38-1.85-10.65-6.29-10.65s-6.38,4.22-6.38,10.65,1.89,10.65,6.38,10.65,6.29-4.18,6.29-10.65Z"/>
      <path class="cls-1" d="M0,77.19h3.12v-7.04h5.85v7.04h3.87v3.96h-3.87v11.97c0,1.67.92,2.24,2.24,2.24.75,0,1.76-.04,1.76-.04v4.4s-1.36.09-3.74.09c-2.9,0-6.12-1.14-6.12-5.41v-13.25H0v-3.96Z"/>
      <path class="cls-1" d="M14.61,88.5c0-6.73,4.8-11.93,11.79-11.93s11.79,5.19,11.79,11.93-4.8,11.93-11.79,11.93-11.79-5.19-11.79-11.93ZM32.12,88.5c0-4.4-2.07-7.39-5.72-7.39s-5.72,2.99-5.72,7.39,2.02,7.35,5.72,7.35,5.72-2.95,5.72-7.35Z"/>
      <path class="cls-1" d="M40.35,100.42h5.94c.48,1.41,1.76,2.51,4.53,2.51,3.39,0,5.02-1.63,5.02-4.71v-2.46h-.13c-1.32,1.5-3.04,2.64-5.9,2.64-5.02,0-9.95-3.96-9.95-10.78s4.05-11.05,9.77-11.05c2.82,0,4.88,1.1,6.25,2.99h.09v-2.38h5.77v20.86c0,3.17-1.01,5.32-2.68,6.86-1.89,1.76-4.8,2.55-8.14,2.55-6.16,0-9.95-2.64-10.56-7.04ZM56.15,87.48c0-3.3-1.76-6.12-5.37-6.12-3.04,0-5.06,2.38-5.06,6.16s2.02,6.07,5.1,6.07c3.78,0,5.33-2.77,5.33-6.12Z"/>
      <path class="cls-1" d="M64.5,88.45c0-6.69,4.53-11.88,11.13-11.88,7.26,0,11.13,5.54,11.13,13.6h-16.37c.44,3.48,2.38,5.63,5.77,5.63,2.33,0,3.7-1.06,4.36-2.77h5.9c-.84,4-4.4,7.39-10.21,7.39-7.48,0-11.71-5.24-11.71-11.97ZM70.49,86.03h10.03c-.18-2.86-2.07-4.84-4.8-4.84-3.17,0-4.71,1.89-5.24,4.84Z"/>
      <path class="cls-1" d="M87.78,77.19h3.12v-7.04h5.85v7.04h3.87v3.96h-3.87v11.97c0,1.67.92,2.24,2.24,2.24.75,0,1.76-.04,1.76-.04v4.4s-1.36.09-3.74.09c-2.9,0-6.12-1.14-6.12-5.41v-13.25h-3.12v-3.96Z"/>
      <path class="cls-1" d="M109.69,80.13h.13c1.63-2.38,3.48-3.56,6.56-3.56,4.66,0,7.79,3.52,7.79,8.45v14.74h-5.98v-13.86c0-2.42-1.41-4.14-3.92-4.14-2.64,0-4.58,2.11-4.58,5.19v12.81h-5.98v-31.46h5.98v11.84Z"/>
      <path class="cls-1" d="M126.76,88.45c0-6.69,4.53-11.88,11.13-11.88,7.26,0,11.13,5.54,11.13,13.6h-16.37c.44,3.48,2.38,5.63,5.76,5.63,2.33,0,3.7-1.06,4.36-2.77h5.9c-.84,4-4.4,7.39-10.21,7.39-7.48,0-11.71-5.24-11.71-11.97ZM132.75,86.03h10.03c-.18-2.86-2.07-4.84-4.8-4.84-3.17,0-4.71,1.89-5.24,4.84Z"/>
      <path class="cls-1" d="M157.56,80.79h.13c1.36-2.55,2.9-3.87,5.54-3.87.66,0,1.06.04,1.41.18v5.24h-.13c-3.92-.4-6.73,1.67-6.73,6.42v11h-5.99v-22.58h5.77v3.61Z"/>
      <path class="cls-1" d="M164.25,93.38h6.42v6.38h-6.42v-6.38Z"/>
    </g>
  </g>
</svg>