<?xml version="1.0" encoding="UTF-8"?>
<svg id="Layer_2" data-name="Layer 2" xmlns="http://www.w3.org/2000/svg" xmlns:xlink="http://www.w3.org/1999/xlink" viewBox="0 0 56 22">
  <defs>
    <style>
      .cls-1, .cls-2 {
        fill: none;
      }

      .cls-3 {
        fill: #231f20;
      }

      .cls-2 {
        stroke: #231f20;
        stroke-miterlimit: 10;
      }

      .cls-4 {
        clip-path: url(#clippath);
      }
    </style>
    <clipPath id="clippath">
      <rect class="cls-1" width="56" height="22"/>
    </clipPath>
  </defs>
  <g id="Layer_1-2" data-name="Layer 1">
    <g>
      <g>
        <path class="cls-3" d="M16.28,10.84h1.49l.68,2.62c.12.46.25,1.06.25,1.06h.02s.12-.6.24-1.07l.7-2.61h1.28l.74,2.61c.12.47.26,1.07.26,1.07h.02s.13-.59.25-1.06l.72-2.62h1.45l-1.68,5.64h-1.36l-.75-2.77c-.12-.45-.25-.98-.25-.98h-.02s-.14.53-.26.98l-.77,2.77h-1.35l-1.65-5.64Z"/>
        <path class="cls-3" d="M26.42,11.58h.03c.41-.59.87-.89,1.64-.89,1.17,0,1.95.88,1.95,2.11v3.69h-1.5v-3.47c0-.6-.35-1.03-.98-1.03-.66,0-1.14.53-1.14,1.3v3.2h-1.5v-7.87h1.5v2.96Z"/>
        <path class="cls-3" d="M34.34,15.85h-.02c-.29.43-.69.76-1.66.76-1.16,0-1.97-.6-1.97-1.73,0-1.24,1.01-1.64,2.27-1.81.94-.13,1.36-.21,1.36-.64,0-.41-.32-.67-.95-.67-.7,0-1.05.25-1.09.79h-1.33c.04-.99.78-1.86,2.43-1.86s2.38.76,2.38,2.08v2.87c0,.43.07.68.2.78v.05h-1.44c-.09-.11-.14-.37-.18-.63ZM34.35,14.49v-.85c-.26.15-.67.24-1.04.33-.78.18-1.17.35-1.17.88s.35.71.88.71c.86,0,1.33-.53,1.33-1.08Z"/>
        <path class="cls-3" d="M36.27,10.84h.78v-1.76h1.46v1.76h.97v.99h-.97v2.99c0,.42.23.56.56.56.19,0,.44-.01.44-.01v1.1s-.34.02-.94.02c-.73,0-1.53-.29-1.53-1.35v-3.31h-.78v-.99Z"/>
      </g>
      <g class="cls-4">
        <rect class="cls-2" x="9.5" y="5.5" width="37" height="15"/>
      </g>
    </g>
  </g>
</svg>