<?xml version="1.0" encoding="UTF-8"?>
<svg id="Layer_2" data-name="Layer 2" xmlns="http://www.w3.org/2000/svg" xmlns:xlink="http://www.w3.org/1999/xlink" viewBox="0 0 555.52 231">
  <defs>
    <style>
      .cls-1, .cls-2, .cls-3 {
        fill: none;
      }

      .cls-4 {
        fill: #231f20;
      }

      .cls-2 {
        stroke-miterlimit: 10;
      }

      .cls-2, .cls-3 {
        stroke: #231f20;
      }

      .cls-5 {
        fill: #fff;
      }

      .cls-6 {
        clip-path: url(#clippath);
      }

      .cls-7 {
        fill: #f37322;
      }
    </style>
    <clipPath id="clippath">
      <rect class="cls-1" width="555.52" height="231"/>
    </clipPath>
  </defs>
  <g id="Layer_1-2" data-name="Layer 1">
    <g>
      <rect class="cls-5" x="9.5" y="4" width="545.52" height="226.5"/>
      <g class="cls-6">
        <rect class="cls-2" x="9.5" y="4" width="545.52" height="226.5"/>
      </g>
      <rect class="cls-7" x="9.36" y="4" width="87.68" height="34.5"/>
      <rect class="cls-3" x="9.36" y="4" width="87.68" height="34.5"/>
      <g>
        <path class="cls-4" d="M21.32,15.74h4.05l1.86,7.14c.33,1.26.69,2.88.69,2.88h.06s.33-1.65.66-2.91l1.92-7.11h3.48l2.01,7.11c.33,1.29.72,2.91.72,2.91h.06s.36-1.62.69-2.88l1.95-7.14h3.96l-4.59,15.39h-3.72l-2.04-7.56c-.33-1.23-.69-2.67-.69-2.67h-.06s-.39,1.44-.72,2.67l-2.1,7.56h-3.69l-4.5-15.39Z"/>
        <path class="cls-4" d="M48.95,17.75h.09c1.11-1.62,2.37-2.43,4.47-2.43,3.18,0,5.31,2.4,5.31,5.76v10.05h-4.08v-9.45c0-1.65-.96-2.82-2.67-2.82-1.8,0-3.12,1.44-3.12,3.54v8.73h-4.08V9.68h4.08v8.07Z"/>
        <path class="cls-4" d="M70.55,29.42h-.06c-.78,1.17-1.89,2.07-4.53,2.07-3.15,0-5.37-1.65-5.37-4.71,0-3.39,2.76-4.47,6.18-4.95,2.55-.36,3.72-.57,3.72-1.74,0-1.11-.87-1.83-2.58-1.83-1.92,0-2.85.69-2.97,2.16h-3.63c.12-2.7,2.13-5.07,6.63-5.07s6.48,2.07,6.48,5.67v7.83c0,1.17.18,1.86.54,2.13v.15h-3.93c-.24-.3-.39-1.02-.48-1.71ZM70.58,25.7v-2.31c-.72.42-1.83.66-2.85.9-2.13.48-3.18.96-3.18,2.4s.96,1.95,2.4,1.95c2.34,0,3.63-1.44,3.63-2.94Z"/>
        <path class="cls-4" d="M75.83,15.74h2.13v-4.8h3.99v4.8h2.64v2.7h-2.64v8.16c0,1.14.63,1.53,1.53,1.53.51,0,1.2-.03,1.2-.03v3s-.93.06-2.55.06c-1.98,0-4.17-.78-4.17-3.69v-9.03h-2.13v-2.7Z"/>
      </g>
      <g>
        <path class="cls-4" d="M55.62,66.91c0-3.04,1.73-5.15,4.16-5.15,1.37,0,2.22.63,2.75,1.44h.06v-5.02h2.58v13.58h-2.49v-1.27h-.04c-.57.93-1.54,1.56-2.91,1.56-2.45,0-4.12-2-4.12-5.15ZM62.65,66.97c0-1.86-.61-3.12-2.26-3.12-1.42,0-2.15,1.25-2.15,3.06s.74,2.98,2.07,2.98c1.54,0,2.34-1.14,2.34-2.93Z"/>
        <path class="cls-4" d="M66.37,66.89c0-2.89,1.96-5.13,4.81-5.13,3.13,0,4.81,2.39,4.81,5.87h-7.07c.19,1.5,1.03,2.43,2.49,2.43,1.01,0,1.6-.46,1.88-1.2h2.55c-.36,1.73-1.9,3.19-4.41,3.19-3.23,0-5.05-2.26-5.05-5.17ZM68.96,65.85h4.33c-.08-1.24-.89-2.09-2.07-2.09-1.37,0-2.03.82-2.26,2.09Z"/>
        <path class="cls-4" d="M82.9,63.36h.06c.67-1.04,1.56-1.6,2.89-1.6,2.01,0,3.36,1.52,3.36,3.65v6.36h-2.58v-5.98c0-1.04-.61-1.79-1.69-1.79-1.14,0-1.98.91-1.98,2.24v5.53h-2.58v-9.75h2.53v1.33Z"/>
        <path class="cls-4" d="M90.81,58.19h2.58v2.32h-2.58v-2.32ZM90.81,62.03h2.58v9.75h-2.58v-9.75Z"/>
        <path class="cls-4" d="M94.59,66.89c0-2.89,1.96-5.13,4.81-5.13,3.13,0,4.81,2.39,4.81,5.87h-7.07c.19,1.5,1.03,2.43,2.49,2.43,1.01,0,1.6-.46,1.88-1.2h2.55c-.36,1.73-1.9,3.19-4.41,3.19-3.23,0-5.05-2.26-5.05-5.17ZM97.17,65.85h4.33c-.08-1.24-.89-2.09-2.07-2.09-1.37,0-2.03.82-2.26,2.09Z"/>
        <path class="cls-4" d="M111.56,71.78v-1.14h-.06c-.67.89-1.42,1.41-2.79,1.41-2.17,0-3.38-1.39-3.38-3.51v-6.5h2.57v6.06c0,1.14.51,1.77,1.61,1.77,1.22,0,1.96-.91,1.96-2.2v-5.62h2.58v9.75h-2.49Z"/>
        <path class="cls-4" d="M114.96,62.03h2.56l1.18,4.52c.21.8.44,1.82.44,1.82h.04s.21-1.04.42-1.84l1.22-4.5h2.2l1.27,4.5c.21.82.46,1.84.46,1.84h.04s.23-1.03.44-1.82l1.24-4.52h2.51l-2.91,9.75h-2.36l-1.29-4.79c-.21-.78-.44-1.69-.44-1.69h-.04s-.25.91-.46,1.69l-1.33,4.79h-2.34l-2.85-9.75Z"/>
        <path class="cls-4" d="M129.13,66.89c0-2.89,1.96-5.13,4.81-5.13,3.13,0,4.81,2.39,4.81,5.87h-7.07c.19,1.5,1.03,2.43,2.49,2.43,1.01,0,1.6-.46,1.88-1.2h2.55c-.36,1.73-1.9,3.19-4.41,3.19-3.23,0-5.05-2.26-5.05-5.17ZM131.71,65.85h4.33c-.08-1.24-.89-2.09-2.07-2.09-1.37,0-2.03.82-2.26,2.09Z"/>
        <path class="cls-4" d="M142.34,62.03h2.62l1.56,5.05c.29.93.44,1.56.44,1.56h.04s.13-.63.42-1.56l1.6-5.05h2.58l-3.4,9.75h-2.47l-3.38-9.75Z"/>
        <path class="cls-4" d="M151.7,66.89c0-2.89,1.96-5.13,4.81-5.13,3.13,0,4.81,2.39,4.81,5.87h-7.07c.19,1.5,1.03,2.43,2.49,2.43,1.01,0,1.6-.46,1.88-1.2h2.55c-.36,1.73-1.9,3.19-4.41,3.19-3.23,0-5.05-2.26-5.05-5.17ZM154.29,65.85h4.33c-.08-1.24-.89-2.09-2.07-2.09-1.37,0-2.03.82-2.26,2.09Z"/>
        <path class="cls-4" d="M165,63.59h.06c.59-1.1,1.25-1.67,2.39-1.67.29,0,.46.02.61.08v2.26h-.06c-1.69-.17-2.91.72-2.91,2.77v4.75h-2.58v-9.75h2.49v1.56Z"/>
        <path class="cls-4" d="M171.71,63.36h.06c.67-1.04,1.56-1.6,2.89-1.6,2.01,0,3.36,1.52,3.36,3.65v6.36h-2.58v-5.98c0-1.04-.61-1.79-1.69-1.79-1.14,0-1.98.91-1.98,2.24v5.53h-2.58v-9.75h2.53v1.33Z"/>
        <path class="cls-4" d="M179.61,58.19h2.58v2.32h-2.58v-2.32ZM179.61,62.03h2.58v9.75h-2.58v-9.75Z"/>
        <path class="cls-4" d="M183.26,68.62h2.39c.17,1.12.97,1.61,2.13,1.61s1.79-.44,1.79-1.12c0-.93-1.24-1.03-2.57-1.29-1.75-.34-3.46-.82-3.46-2.94s1.75-3.12,3.97-3.12c2.56,0,3.99,1.27,4.18,3.23h-2.34c-.11-1.04-.78-1.42-1.88-1.42-1.01,0-1.67.38-1.67,1.08,0,.84,1.29.91,2.68,1.2,1.63.34,3.44.8,3.44,3.08,0,1.96-1.67,3.13-4.1,3.13-2.83,0-4.41-1.37-4.56-3.44Z"/>
        <path class="cls-4" d="M192.48,68.62h2.39c.17,1.12.97,1.61,2.13,1.61s1.79-.44,1.79-1.12c0-.93-1.23-1.03-2.56-1.29-1.75-.34-3.46-.82-3.46-2.94s1.75-3.12,3.97-3.12c2.56,0,3.99,1.27,4.18,3.23h-2.34c-.11-1.04-.78-1.42-1.88-1.42-1.01,0-1.67.38-1.67,1.08,0,.84,1.29.91,2.68,1.2,1.63.34,3.44.8,3.44,3.08,0,1.96-1.67,3.13-4.1,3.13-2.83,0-4.41-1.37-4.56-3.44Z"/>
        <path class="cls-4" d="M208.21,70.69h-.04c-.49.74-1.2,1.31-2.87,1.31-2,0-3.4-1.04-3.4-2.98,0-2.15,1.75-2.83,3.91-3.13,1.62-.23,2.36-.36,2.36-1.1,0-.7-.55-1.16-1.63-1.16-1.22,0-1.8.44-1.88,1.37h-2.3c.08-1.71,1.35-3.21,4.2-3.21s4.1,1.31,4.1,3.59v4.96c0,.74.11,1.18.34,1.35v.09h-2.49c-.15-.19-.25-.65-.3-1.08ZM208.23,68.34v-1.46c-.46.27-1.16.42-1.8.57-1.35.3-2.01.61-2.01,1.52s.61,1.23,1.52,1.23c1.48,0,2.3-.91,2.3-1.86Z"/>
        <path class="cls-4" d="M212.03,72.06h2.57c.21.61.76,1.08,1.96,1.08,1.46,0,2.17-.7,2.17-2.03v-1.06h-.06c-.57.65-1.31,1.14-2.54,1.14-2.17,0-4.29-1.71-4.29-4.65s1.75-4.77,4.22-4.77c1.22,0,2.11.48,2.7,1.29h.04v-1.03h2.49v9c0,1.37-.44,2.3-1.16,2.96-.82.76-2.07,1.1-3.51,1.1-2.66,0-4.29-1.14-4.56-3.04ZM218.85,66.48c0-1.42-.76-2.64-2.32-2.64-1.31,0-2.18,1.03-2.18,2.66s.87,2.62,2.2,2.62c1.63,0,2.3-1.2,2.3-2.64Z"/>
        <path class="cls-4" d="M222.46,66.89c0-2.89,1.96-5.13,4.81-5.13,3.13,0,4.81,2.39,4.81,5.87h-7.07c.19,1.5,1.03,2.43,2.49,2.43,1.01,0,1.6-.46,1.88-1.2h2.55c-.36,1.73-1.9,3.19-4.41,3.19-3.23,0-5.05-2.26-5.05-5.17ZM225.04,65.85h4.33c-.08-1.24-.89-2.09-2.07-2.09-1.37,0-2.03.82-2.26,2.09Z"/>
        <path class="cls-4" d="M236.46,58.19h2.58v2.32h-2.58v-2.32ZM236.46,62.03h2.58v9.75h-2.58v-9.75Z"/>
        <path class="cls-4" d="M240.11,68.62h2.39c.17,1.12.97,1.61,2.13,1.61s1.79-.44,1.79-1.12c0-.93-1.24-1.03-2.57-1.29-1.75-.34-3.46-.82-3.46-2.94s1.75-3.12,3.97-3.12c2.56,0,3.99,1.27,4.18,3.23h-2.34c-.11-1.04-.78-1.42-1.88-1.42-1.01,0-1.67.38-1.67,1.08,0,.84,1.29.91,2.68,1.2,1.63.34,3.44.8,3.44,3.08,0,1.96-1.67,3.13-4.1,3.13-2.83,0-4.41-1.37-4.56-3.44Z"/>
        <path class="cls-4" d="M258.95,70.69h-.04c-.49.74-1.2,1.31-2.87,1.31-2,0-3.4-1.04-3.4-2.98,0-2.15,1.75-2.83,3.91-3.13,1.62-.23,2.36-.36,2.36-1.1,0-.7-.55-1.16-1.63-1.16-1.22,0-1.8.44-1.88,1.37h-2.3c.08-1.71,1.35-3.21,4.2-3.21s4.1,1.31,4.1,3.59v4.96c0,.74.11,1.18.34,1.35v.09h-2.49c-.15-.19-.25-.65-.3-1.08ZM258.97,68.34v-1.46c-.46.27-1.16.42-1.8.57-1.35.3-2.01.61-2.01,1.52s.61,1.23,1.52,1.23c1.48,0,2.3-.91,2.3-1.86Z"/>
        <path class="cls-4" d="M266.23,62.03h2.49v1.22h.06c.63-.86,1.54-1.48,2.87-1.48,2.58,0,4.24,2.11,4.24,5.15s-1.71,5.15-4.22,5.15c-1.37,0-2.26-.55-2.81-1.39h-.04v4.29h-2.58v-12.94ZM273.26,66.99c0-1.84-.65-3.13-2.24-3.13s-2.26,1.39-2.26,3.13.82,2.93,2.36,2.93c1.31,0,2.15-1.08,2.15-2.93Z"/>
        <path class="cls-4" d="M276.61,66.91c0-2.91,2.07-5.15,5.09-5.15s5.09,2.24,5.09,5.15-2.07,5.15-5.09,5.15-5.09-2.24-5.09-5.15ZM284.17,66.91c0-1.9-.89-3.19-2.47-3.19s-2.47,1.29-2.47,3.19.87,3.17,2.47,3.17,2.47-1.27,2.47-3.17Z"/>
        <path class="cls-4" d="M287.99,62.03h2.49v1.22h.06c.63-.86,1.54-1.48,2.87-1.48,2.58,0,4.24,2.11,4.24,5.15s-1.71,5.15-4.22,5.15c-1.37,0-2.26-.55-2.81-1.39h-.04v4.29h-2.58v-12.94ZM295.02,66.99c0-1.84-.65-3.13-2.24-3.13s-2.26,1.39-2.26,3.13.82,2.93,2.36,2.93c1.31,0,2.15-1.08,2.15-2.93Z"/>
        <path class="cls-4" d="M298.65,65.96h5.15v2.22h-5.15v-2.22Z"/>
        <path class="cls-4" d="M311.43,71.78v-1.14h-.06c-.67.89-1.42,1.41-2.79,1.41-2.17,0-3.38-1.39-3.38-3.51v-6.5h2.57v6.06c0,1.14.51,1.77,1.61,1.77,1.22,0,1.96-.91,1.96-2.2v-5.62h2.58v9.75h-2.49Z"/>
        <path class="cls-4" d="M315.59,62.03h2.49v1.22h.06c.63-.86,1.54-1.48,2.87-1.48,2.58,0,4.24,2.11,4.24,5.15s-1.71,5.15-4.22,5.15c-1.37,0-2.26-.55-2.81-1.39h-.04v4.29h-2.58v-12.94ZM322.62,66.99c0-1.84-.65-3.13-2.24-3.13s-2.26,1.39-2.26,3.13.82,2.93,2.36,2.93c1.31,0,2.15-1.08,2.15-2.93Z"/>
        <path class="cls-4" d="M329.37,72.06h2.57c.21.61.76,1.08,1.96,1.08,1.46,0,2.17-.7,2.17-2.03v-1.06h-.06c-.57.65-1.31,1.14-2.54,1.14-2.17,0-4.29-1.71-4.29-4.65s1.75-4.77,4.22-4.77c1.22,0,2.11.48,2.7,1.29h.04v-1.03h2.49v9c0,1.37-.44,2.3-1.16,2.96-.82.76-2.07,1.1-3.51,1.1-2.66,0-4.29-1.14-4.56-3.04ZM336.19,66.48c0-1.42-.76-2.64-2.32-2.64-1.31,0-2.18,1.03-2.18,2.66s.87,2.62,2.2,2.62c1.63,0,2.3-1.2,2.3-2.64Z"/>
        <path class="cls-4" d="M346.11,70.69h-.04c-.49.74-1.2,1.31-2.87,1.31-2,0-3.4-1.04-3.4-2.98,0-2.15,1.75-2.83,3.91-3.13,1.62-.23,2.36-.36,2.36-1.1,0-.7-.55-1.16-1.63-1.16-1.22,0-1.8.44-1.88,1.37h-2.3c.08-1.71,1.35-3.21,4.2-3.21s4.1,1.31,4.1,3.59v4.96c0,.74.11,1.18.34,1.35v.09h-2.49c-.15-.19-.25-.65-.3-1.08ZM346.13,68.34v-1.46c-.46.27-1.16.42-1.8.57-1.35.3-2.01.61-2.01,1.52s.61,1.23,1.52,1.23c1.48,0,2.3-.91,2.3-1.86Z"/>
        <path class="cls-4" d="M350.23,58.19h2.58v13.58h-2.58v-13.58Z"/>
        <path class="cls-4" d="M354.56,58.19h2.58v13.58h-2.58v-13.58Z"/>
        <path class="cls-4" d="M358.38,66.89c0-2.89,1.96-5.13,4.81-5.13,3.13,0,4.81,2.39,4.81,5.87h-7.07c.19,1.5,1.03,2.43,2.49,2.43,1.01,0,1.6-.46,1.88-1.2h2.55c-.36,1.73-1.9,3.19-4.41,3.19-3.23,0-5.05-2.26-5.05-5.17ZM360.97,65.85h4.33c-.08-1.24-.89-2.09-2.07-2.09-1.37,0-2.03.82-2.26,2.09Z"/>
        <path class="cls-4" d="M371.68,63.59h.06c.59-1.1,1.25-1.67,2.39-1.67.29,0,.46.02.61.08v2.26h-.06c-1.69-.17-2.91.72-2.91,2.77v4.75h-2.58v-9.75h2.49v1.56Z"/>
        <path class="cls-4" d="M376.15,72.93h.91c1.03,0,1.44-.53,1.44-1.33,0-.53-.19-1.16-.74-2.64l-2.62-6.93h2.72l1.44,4.39c.3.89.63,2.13.63,2.13h.04s.27-1.23.57-2.13l1.37-4.39h2.6l-3.4,9.99c-.74,2.17-1.46,2.94-3.44,2.94h-1.52v-2.03Z"/>
        <path class="cls-4" d="M388,62.03h1.35v-3.04h2.53v3.04h1.67v1.71h-1.67v5.17c0,.72.4.97.97.97.32,0,.76-.02.76-.02v1.9s-.59.04-1.62.04c-1.25,0-2.64-.49-2.64-2.34v-5.72h-1.35v-1.71Z"/>
        <path class="cls-4" d="M397.46,63.3h.06c.7-1.03,1.5-1.54,2.83-1.54,2.01,0,3.36,1.52,3.36,3.65v6.36h-2.58v-5.98c0-1.04-.61-1.79-1.69-1.79-1.14,0-1.98.91-1.98,2.24v5.53h-2.58v-13.58h2.58v5.11Z"/>
        <path class="cls-4" d="M411.14,70.69h-.04c-.49.74-1.2,1.31-2.87,1.31-2,0-3.4-1.04-3.4-2.98,0-2.15,1.75-2.83,3.91-3.13,1.62-.23,2.36-.36,2.36-1.1,0-.7-.55-1.16-1.63-1.16-1.22,0-1.8.44-1.88,1.37h-2.3c.08-1.71,1.35-3.21,4.2-3.21s4.1,1.31,4.1,3.59v4.96c0,.74.11,1.18.34,1.35v.09h-2.49c-.15-.19-.25-.65-.3-1.08ZM411.16,68.34v-1.46c-.46.27-1.16.42-1.8.57-1.35.3-2.01.61-2.01,1.52s.61,1.23,1.52,1.23c1.48,0,2.3-.91,2.3-1.86Z"/>
        <path class="cls-4" d="M414.49,62.03h1.35v-3.04h2.53v3.04h1.67v1.71h-1.67v5.17c0,.72.4.97.97.97.32,0,.76-.02.76-.02v1.9s-.59.04-1.62.04c-1.25,0-2.64-.49-2.64-2.34v-5.72h-1.35v-1.71Z"/>
        <path class="cls-4" d="M424.56,62.03h2.49v1.22h.06c.63-.86,1.54-1.48,2.87-1.48,2.58,0,4.24,2.11,4.24,5.15s-1.71,5.15-4.22,5.15c-1.37,0-2.26-.55-2.81-1.39h-.04v4.29h-2.58v-12.94ZM431.59,66.99c0-1.84-.65-3.13-2.24-3.13s-2.26,1.39-2.26,3.13.82,2.93,2.36,2.93c1.31,0,2.15-1.08,2.15-2.93Z"/>
        <path class="cls-4" d="M437.9,63.59h.06c.59-1.1,1.25-1.67,2.39-1.67.29,0,.46.02.61.08v2.26h-.06c-1.69-.17-2.91.72-2.91,2.77v4.75h-2.58v-9.75h2.49v1.56Z"/>
        <path class="cls-4" d="M441.33,66.91c0-2.91,2.07-5.15,5.09-5.15s5.09,2.24,5.09,5.15-2.07,5.15-5.09,5.15-5.09-2.24-5.09-5.15ZM448.9,66.91c0-1.9-.89-3.19-2.47-3.19s-2.47,1.29-2.47,3.19.87,3.17,2.47,3.17,2.47-1.27,2.47-3.17Z"/>
        <path class="cls-4" d="M451.65,62.03h2.62l1.56,5.05c.29.93.44,1.56.44,1.56h.04s.13-.63.42-1.56l1.6-5.05h2.58l-3.4,9.75h-2.47l-3.38-9.75Z"/>
        <path class="cls-4" d="M461.78,58.19h2.58v2.32h-2.58v-2.32ZM461.78,62.03h2.58v9.75h-2.58v-9.75Z"/>
        <path class="cls-4" d="M465.56,66.91c0-3.04,1.73-5.15,4.16-5.15,1.37,0,2.22.63,2.75,1.44h.06v-5.02h2.58v13.58h-2.49v-1.27h-.04c-.57.93-1.54,1.56-2.91,1.56-2.45,0-4.12-2-4.12-5.15ZM472.59,66.97c0-1.86-.61-3.12-2.26-3.12-1.42,0-2.15,1.25-2.15,3.06s.74,2.98,2.07,2.98c1.54,0,2.34-1.14,2.34-2.93Z"/>
        <path class="cls-4" d="M476.31,66.89c0-2.89,1.96-5.13,4.81-5.13,3.13,0,4.81,2.39,4.81,5.87h-7.07c.19,1.5,1.03,2.43,2.49,2.43,1.01,0,1.6-.46,1.88-1.2h2.55c-.36,1.73-1.9,3.19-4.41,3.19-3.23,0-5.05-2.26-5.05-5.17ZM478.9,65.85h4.33c-.08-1.24-.89-2.09-2.07-2.09-1.37,0-2.03.82-2.26,2.09Z"/>
        <path class="cls-4" d="M486.52,68.62h2.39c.17,1.12.97,1.61,2.13,1.61s1.79-.44,1.79-1.12c0-.93-1.23-1.03-2.56-1.29-1.75-.34-3.46-.82-3.46-2.94s1.75-3.12,3.97-3.12c2.56,0,3.99,1.27,4.18,3.23h-2.34c-.11-1.04-.78-1.42-1.88-1.42-1.01,0-1.67.38-1.67,1.08,0,.84,1.29.91,2.68,1.2,1.63.34,3.44.8,3.44,3.08,0,1.96-1.67,3.13-4.1,3.13-2.83,0-4.41-1.37-4.56-3.44Z"/>
      </g>
      <g>
        <path class="cls-4" d="M61.93,95.7h-.04c-.49.74-1.2,1.31-2.87,1.31-2,0-3.4-1.04-3.4-2.98,0-2.15,1.75-2.83,3.91-3.13,1.62-.23,2.36-.36,2.36-1.1,0-.7-.55-1.16-1.63-1.16-1.22,0-1.8.44-1.88,1.37h-2.3c.08-1.71,1.35-3.21,4.2-3.21s4.1,1.31,4.1,3.59v4.96c0,.74.11,1.18.34,1.35v.09h-2.49c-.15-.19-.25-.65-.3-1.08ZM61.95,93.34v-1.46c-.46.27-1.16.42-1.8.57-1.35.3-2.01.61-2.01,1.52s.61,1.23,1.52,1.23c1.48,0,2.3-.91,2.3-1.86Z"/>
        <path class="cls-4" d="M69.21,87.03h2.49v1.22h.06c.63-.86,1.54-1.48,2.87-1.48,2.58,0,4.24,2.11,4.24,5.15s-1.71,5.15-4.22,5.15c-1.37,0-2.26-.55-2.81-1.39h-.04v4.29h-2.58v-12.94ZM76.23,91.99c0-1.84-.65-3.13-2.24-3.13s-2.26,1.39-2.26,3.13.82,2.93,2.36,2.93c1.31,0,2.15-1.08,2.15-2.93Z"/>
        <path class="cls-4" d="M80.09,83.2h2.58v13.58h-2.58v-13.58Z"/>
        <path class="cls-4" d="M90.22,95.7h-.04c-.49.74-1.2,1.31-2.87,1.31-1.99,0-3.4-1.04-3.4-2.98,0-2.15,1.75-2.83,3.91-3.13,1.61-.23,2.36-.36,2.36-1.1,0-.7-.55-1.16-1.63-1.16-1.22,0-1.8.44-1.88,1.37h-2.3c.08-1.71,1.35-3.21,4.2-3.21s4.1,1.31,4.1,3.59v4.96c0,.74.11,1.18.34,1.35v.09h-2.49c-.15-.19-.25-.65-.3-1.08ZM90.24,93.34v-1.46c-.46.27-1.16.42-1.8.57-1.35.3-2.01.61-2.01,1.52s.61,1.23,1.52,1.23c1.48,0,2.3-.91,2.3-1.86Z"/>
        <path class="cls-4" d="M93.56,87.03h1.35v-3.04h2.53v3.04h1.67v1.71h-1.67v5.17c0,.72.4.97.97.97.32,0,.76-.02.76-.02v1.9s-.59.04-1.62.04c-1.25,0-2.64-.49-2.64-2.34v-5.72h-1.35v-1.71Z"/>
        <path class="cls-4" d="M99.66,87.03h1.33v-.87c0-2.38,1.84-3.21,4.33-2.95v2c-1.22-.06-1.75.09-1.75,1.1v.72h1.75v1.79h-1.75v7.96h-2.58v-7.96h-1.33v-1.79Z"/>
        <path class="cls-4" d="M105.76,91.92c0-2.91,2.07-5.15,5.09-5.15s5.09,2.24,5.09,5.15-2.07,5.15-5.09,5.15-5.09-2.24-5.09-5.15ZM113.32,91.92c0-1.9-.89-3.19-2.47-3.19s-2.47,1.29-2.47,3.19.87,3.17,2.47,3.17,2.47-1.27,2.47-3.17Z"/>
        <path class="cls-4" d="M119.63,88.59h.06c.59-1.1,1.25-1.67,2.39-1.67.29,0,.46.02.61.08v2.26h-.06c-1.69-.17-2.91.72-2.91,2.77v4.75h-2.58v-9.75h2.49v1.56Z"/>
        <path class="cls-4" d="M123.81,87.03h2.49v1.31h.06c.53-.89,1.48-1.58,2.83-1.58,1.24,0,2.22.68,2.7,1.71h.04c.67-1.06,1.69-1.71,2.92-1.71,2.05,0,3.21,1.33,3.21,3.46v6.55h-2.58v-6.12c0-1.1-.55-1.67-1.5-1.67-1.08,0-1.75.84-1.75,2.13v5.66h-2.58v-6.12c0-1.1-.55-1.67-1.5-1.67-1.04,0-1.75.84-1.75,2.13v5.66h-2.58v-9.75Z"/>
        <path class="cls-4" d="M142.28,87.03h1.33v-.87c0-2.38,1.84-3.21,4.33-2.95v2c-1.22-.06-1.75.09-1.75,1.1v.72h1.75v1.79h-1.75v7.96h-2.58v-7.96h-1.33v-1.79Z"/>
        <path class="cls-4" d="M148.36,91.92c0-2.91,2.07-5.15,5.09-5.15s5.09,2.24,5.09,5.15-2.07,5.15-5.09,5.15-5.09-2.24-5.09-5.15ZM155.92,91.92c0-1.9-.89-3.19-2.47-3.19s-2.47,1.29-2.47,3.19.87,3.17,2.47,3.17,2.47-1.27,2.47-3.17Z"/>
        <path class="cls-4" d="M162.23,88.59h.06c.59-1.1,1.25-1.67,2.39-1.67.29,0,.46.02.61.08v2.26h-.06c-1.69-.17-2.91.72-2.91,2.77v4.75h-2.58v-9.75h2.49v1.56Z"/>
        <path class="cls-4" d="M169.81,97.94h.91c1.03,0,1.44-.53,1.44-1.33,0-.53-.19-1.16-.74-2.64l-2.62-6.93h2.72l1.44,4.39c.3.89.63,2.13.63,2.13h.04s.27-1.23.57-2.13l1.37-4.39h2.6l-3.4,9.99c-.74,2.17-1.46,2.94-3.44,2.94h-1.52v-2.03Z"/>
        <path class="cls-4" d="M178.28,91.92c0-2.91,2.07-5.15,5.09-5.15s5.09,2.24,5.09,5.15-2.07,5.15-5.09,5.15-5.09-2.24-5.09-5.15ZM185.84,91.92c0-1.9-.89-3.19-2.47-3.19s-2.47,1.29-2.47,3.19.87,3.17,2.47,3.17,2.47-1.27,2.47-3.17Z"/>
        <path class="cls-4" d="M195.82,96.78v-1.14h-.06c-.67.89-1.42,1.41-2.79,1.41-2.17,0-3.38-1.39-3.38-3.51v-6.5h2.56v6.06c0,1.14.51,1.77,1.62,1.77,1.22,0,1.96-.91,1.96-2.2v-5.62h2.58v9.75h-2.49Z"/>
        <path class="cls-4" d="M202.51,88.36h.06c.67-1.04,1.56-1.6,2.89-1.6,2.01,0,3.36,1.52,3.36,3.65v6.36h-2.58v-5.98c0-1.04-.61-1.79-1.69-1.79-1.14,0-1.98.91-1.98,2.24v5.53h-2.58v-9.75h2.53v1.33Z"/>
        <path class="cls-4" d="M210.15,97.06h2.57c.21.61.76,1.08,1.96,1.08,1.46,0,2.17-.7,2.17-2.03v-1.06h-.06c-.57.65-1.31,1.14-2.54,1.14-2.17,0-4.29-1.71-4.29-4.65s1.75-4.77,4.22-4.77c1.22,0,2.11.48,2.7,1.29h.04v-1.03h2.49v9c0,1.37-.44,2.3-1.16,2.96-.82.76-2.07,1.1-3.51,1.1-2.66,0-4.29-1.14-4.56-3.04ZM216.97,91.48c0-1.42-.76-2.64-2.32-2.64-1.31,0-2.18,1.03-2.18,2.66s.87,2.62,2.2,2.62c1.63,0,2.3-1.2,2.3-2.64Z"/>
        <path class="cls-4" d="M230.08,95.7h-.04c-.49.74-1.2,1.31-2.87,1.31-2,0-3.4-1.04-3.4-2.98,0-2.15,1.75-2.83,3.91-3.13,1.62-.23,2.36-.36,2.36-1.1,0-.7-.55-1.16-1.63-1.16-1.22,0-1.8.44-1.88,1.37h-2.3c.08-1.71,1.35-3.21,4.2-3.21s4.1,1.31,4.1,3.59v4.96c0,.74.11,1.18.34,1.35v.09h-2.49c-.15-.19-.25-.65-.3-1.08ZM230.09,93.34v-1.46c-.46.27-1.16.42-1.8.57-1.35.3-2.01.61-2.01,1.52s.61,1.23,1.52,1.23c1.48,0,2.3-.91,2.3-1.86Z"/>
        <path class="cls-4" d="M236.65,88.59h.06c.59-1.1,1.25-1.67,2.39-1.67.29,0,.46.02.61.08v2.26h-.06c-1.69-.17-2.91.72-2.91,2.77v4.75h-2.58v-9.75h2.49v1.56Z"/>
        <path class="cls-4" d="M240.36,87.03h1.35v-3.04h2.53v3.04h1.67v1.71h-1.67v5.17c0,.72.4.97.97.97.32,0,.76-.02.76-.02v1.9s-.59.04-1.62.04c-1.25,0-2.64-.49-2.64-2.34v-5.72h-1.35v-1.71Z"/>
        <path class="cls-4" d="M247.23,83.2h2.58v2.32h-2.58v-2.32ZM247.23,87.03h2.58v9.75h-2.58v-9.75Z"/>
        <path class="cls-4" d="M250.88,93.63h2.39c.17,1.12.97,1.61,2.13,1.61s1.79-.44,1.79-1.12c0-.93-1.24-1.03-2.57-1.29-1.75-.34-3.46-.82-3.46-2.94s1.75-3.12,3.97-3.12c2.56,0,3.99,1.27,4.18,3.23h-2.34c-.11-1.04-.78-1.42-1.88-1.42-1.01,0-1.67.38-1.67,1.08,0,.84,1.29.91,2.68,1.2,1.63.34,3.44.8,3.44,3.08,0,1.96-1.67,3.13-4.1,3.13-2.83,0-4.41-1.37-4.56-3.44Z"/>
        <path class="cls-4" d="M259.94,87.03h1.35v-3.04h2.53v3.04h1.67v1.71h-1.67v5.17c0,.72.4.97.97.97.32,0,.76-.02.76-.02v1.9s-.59.04-1.61.04c-1.25,0-2.64-.49-2.64-2.34v-5.72h-1.35v-1.71Z"/>
        <path class="cls-4" d="M266.31,93.63h2.39c.17,1.12.97,1.61,2.13,1.61s1.79-.44,1.79-1.12c0-.93-1.24-1.03-2.57-1.29-1.75-.34-3.46-.82-3.46-2.94s1.75-3.12,3.97-3.12c2.56,0,3.99,1.27,4.18,3.23h-2.34c-.11-1.04-.78-1.42-1.88-1.42-1.01,0-1.67.38-1.67,1.08,0,.84,1.29.91,2.68,1.2,1.63.34,3.44.8,3.44,3.08,0,1.96-1.67,3.13-4.1,3.13-2.83,0-4.41-1.37-4.56-3.44Z"/>
        <path class="cls-4" d="M278.56,87.03h2.56l1.18,4.52c.21.8.44,1.82.44,1.82h.04s.21-1.04.42-1.84l1.22-4.5h2.2l1.27,4.5c.21.82.46,1.84.46,1.84h.04s.23-1.03.44-1.82l1.23-4.52h2.51l-2.91,9.75h-2.36l-1.29-4.79c-.21-.78-.44-1.69-.44-1.69h-.04s-.25.91-.46,1.69l-1.33,4.79h-2.34l-2.85-9.75Z"/>
        <path class="cls-4" d="M296.06,88.31h.06c.7-1.03,1.5-1.54,2.83-1.54,2.01,0,3.36,1.52,3.36,3.65v6.36h-2.58v-5.98c0-1.04-.61-1.79-1.69-1.79-1.14,0-1.98.91-1.98,2.24v5.53h-2.58v-13.58h2.58v5.11Z"/>
        <path class="cls-4" d="M303.91,83.2h2.58v2.32h-2.58v-2.32ZM303.91,87.03h2.58v9.75h-2.58v-9.75Z"/>
        <path class="cls-4" d="M308.2,83.2h2.58v13.58h-2.58v-13.58Z"/>
        <path class="cls-4" d="M312.02,91.9c0-2.89,1.96-5.13,4.81-5.13,3.13,0,4.81,2.39,4.81,5.87h-7.07c.19,1.5,1.03,2.43,2.49,2.43,1.01,0,1.6-.46,1.88-1.2h2.55c-.36,1.73-1.9,3.19-4.41,3.19-3.23,0-5.05-2.26-5.05-5.17ZM314.61,90.85h4.33c-.08-1.24-.89-2.09-2.07-2.09-1.37,0-2.03.82-2.26,2.09Z"/>
        <path class="cls-4" d="M326.02,83.2h2.58v2.32h-2.58v-2.32ZM326.02,87.03h2.58v9.75h-2.58v-9.75Z"/>
        <path class="cls-4" d="M332.81,88.36h.06c.67-1.04,1.56-1.6,2.89-1.6,2.01,0,3.36,1.52,3.36,3.65v6.36h-2.58v-5.98c0-1.04-.61-1.79-1.69-1.79-1.14,0-1.98.91-1.98,2.24v5.53h-2.58v-9.75h2.53v1.33Z"/>
        <path class="cls-4" d="M339.74,87.03h2.62l1.56,5.05c.29.93.44,1.56.44,1.56h.04s.13-.63.42-1.56l1.6-5.05h2.58l-3.4,9.75h-2.47l-3.38-9.75Z"/>
        <path class="cls-4" d="M349.87,83.2h2.58v2.32h-2.58v-2.32ZM349.87,87.03h2.58v9.75h-2.58v-9.75Z"/>
        <path class="cls-4" d="M353.56,87.03h1.35v-3.04h2.53v3.04h1.67v1.71h-1.67v5.17c0,.72.4.97.97.97.32,0,.76-.02.76-.02v1.9s-.59.04-1.62.04c-1.25,0-2.64-.49-2.64-2.34v-5.72h-1.35v-1.71Z"/>
        <path class="cls-4" d="M360.43,83.2h2.58v2.32h-2.58v-2.32ZM360.43,87.03h2.58v9.75h-2.58v-9.75Z"/>
        <path class="cls-4" d="M367.22,88.36h.06c.67-1.04,1.56-1.6,2.89-1.6,2.01,0,3.36,1.52,3.36,3.65v6.36h-2.58v-5.98c0-1.04-.61-1.79-1.69-1.79-1.14,0-1.98.91-1.98,2.24v5.53h-2.58v-9.75h2.53v1.33Z"/>
        <path class="cls-4" d="M374.85,97.06h2.56c.21.61.76,1.08,1.96,1.08,1.46,0,2.17-.7,2.17-2.03v-1.06h-.06c-.57.65-1.31,1.14-2.55,1.14-2.17,0-4.29-1.71-4.29-4.65s1.75-4.77,4.22-4.77c1.22,0,2.11.48,2.7,1.29h.04v-1.03h2.49v9c0,1.37-.44,2.3-1.16,2.96-.82.76-2.07,1.1-3.51,1.1-2.66,0-4.29-1.14-4.56-3.04ZM381.67,91.48c0-1.42-.76-2.64-2.32-2.64-1.31,0-2.18,1.03-2.18,2.66s.87,2.62,2.2,2.62c1.63,0,2.3-1.2,2.3-2.64Z"/>
        <path class="cls-4" d="M388.38,87.03h1.35v-3.04h2.53v3.04h1.67v1.71h-1.67v5.17c0,.72.4.97.97.97.32,0,.76-.02.76-.02v1.9s-.59.04-1.61.04c-1.25,0-2.64-.49-2.64-2.34v-5.72h-1.35v-1.71Z"/>
        <path class="cls-4" d="M397.84,88.31h.06c.7-1.03,1.5-1.54,2.83-1.54,2.01,0,3.36,1.52,3.36,3.65v6.36h-2.58v-5.98c0-1.04-.61-1.79-1.69-1.79-1.14,0-1.98.91-1.98,2.24v5.53h-2.58v-13.58h2.58v5.11Z"/>
        <path class="cls-4" d="M405.22,91.9c0-2.89,1.96-5.13,4.81-5.13,3.13,0,4.81,2.39,4.81,5.87h-7.07c.19,1.5,1.03,2.43,2.49,2.43,1.01,0,1.6-.46,1.88-1.2h2.55c-.36,1.73-1.9,3.19-4.41,3.19-3.23,0-5.05-2.26-5.05-5.17ZM407.8,90.85h4.33c-.08-1.24-.89-2.09-2.07-2.09-1.37,0-2.03.82-2.26,2.09Z"/>
        <path class="cls-4" d="M418.74,91.92c0-2.91,2.07-5.15,5.09-5.15s5.09,2.24,5.09,5.15-2.07,5.15-5.09,5.15-5.09-2.24-5.09-5.15ZM426.3,91.92c0-1.9-.89-3.19-2.47-3.19s-2.47,1.29-2.47,3.19.87,3.17,2.47,3.17,2.47-1.27,2.47-3.17Z"/>
        <path class="cls-4" d="M430.16,83.2h2.58v13.58h-2.58v-13.58Z"/>
        <path class="cls-4" d="M433.98,91.92c0-3.04,1.73-5.15,4.16-5.15,1.37,0,2.22.63,2.75,1.44h.06v-5.02h2.58v13.58h-2.49v-1.27h-.04c-.57.93-1.54,1.56-2.91,1.56-2.45,0-4.12-2-4.12-5.15ZM441.01,91.97c0-1.86-.61-3.12-2.26-3.12-1.42,0-2.15,1.25-2.15,3.06s.74,2.98,2.07,2.98c1.54,0,2.34-1.14,2.34-2.93Z"/>
        <path class="cls-4" d="M444.74,91.9c0-2.89,1.96-5.13,4.81-5.13,3.13,0,4.81,2.39,4.81,5.87h-7.07c.19,1.5,1.03,2.43,2.49,2.43,1.01,0,1.6-.46,1.88-1.2h2.55c-.36,1.73-1.9,3.19-4.41,3.19-3.23,0-5.05-2.26-5.05-5.17ZM447.32,90.85h4.33c-.08-1.24-.89-2.09-2.07-2.09-1.37,0-2.03.82-2.26,2.09Z"/>
        <path class="cls-4" d="M458.03,88.59h.06c.59-1.1,1.25-1.67,2.39-1.67.29,0,.46.02.61.08v2.26h-.06c-1.69-.17-2.91.72-2.91,2.77v4.75h-2.58v-9.75h2.49v1.56Z"/>
      </g>
      <g>
        <path class="cls-4" d="M55.83,122.07h2.56c.21.61.76,1.08,1.96,1.08,1.46,0,2.17-.7,2.17-2.03v-1.06h-.06c-.57.65-1.31,1.14-2.55,1.14-2.17,0-4.29-1.71-4.29-4.65s1.75-4.77,4.22-4.77c1.22,0,2.11.48,2.7,1.29h.04v-1.03h2.49v9c0,1.37-.44,2.3-1.16,2.96-.82.76-2.07,1.1-3.51,1.1-2.66,0-4.29-1.14-4.56-3.04ZM62.65,116.48c0-1.42-.76-2.64-2.32-2.64-1.31,0-2.18,1.03-2.18,2.66s.87,2.62,2.2,2.62c1.63,0,2.3-1.2,2.3-2.64Z"/>
        <path class="cls-4" d="M66.26,116.9c0-2.89,1.96-5.13,4.81-5.13,3.13,0,4.81,2.39,4.81,5.87h-7.07c.19,1.5,1.03,2.43,2.49,2.43,1.01,0,1.6-.46,1.88-1.2h2.55c-.36,1.73-1.9,3.19-4.41,3.19-3.23,0-5.05-2.26-5.05-5.17ZM68.84,115.86h4.33c-.08-1.24-.89-2.09-2.07-2.09-1.37,0-2.03.82-2.26,2.09Z"/>
        <path class="cls-4" d="M79.6,113.37h.06c.67-1.04,1.56-1.6,2.89-1.6,2.01,0,3.36,1.52,3.36,3.65v6.36h-2.58v-5.98c0-1.04-.61-1.79-1.69-1.79-1.14,0-1.98.91-1.98,2.24v5.53h-2.58v-9.75h2.53v1.33Z"/>
        <path class="cls-4" d="M87.03,116.9c0-2.89,1.96-5.13,4.81-5.13,3.13,0,4.81,2.39,4.81,5.87h-7.07c.19,1.5,1.03,2.43,2.49,2.43,1.01,0,1.6-.46,1.88-1.2h2.55c-.36,1.73-1.9,3.19-4.41,3.19-3.23,0-5.05-2.26-5.05-5.17ZM89.61,115.86h4.33c-.08-1.24-.89-2.09-2.07-2.09-1.37,0-2.03.82-2.26,2.09Z"/>
        <path class="cls-4" d="M100.33,113.6h.06c.59-1.1,1.25-1.67,2.39-1.67.29,0,.46.02.61.08v2.26h-.06c-1.69-.17-2.91.72-2.91,2.77v4.75h-2.58v-9.75h2.49v1.56Z"/>
        <path class="cls-4" d="M110.07,120.7h-.04c-.49.74-1.2,1.31-2.87,1.31-2,0-3.4-1.04-3.4-2.98,0-2.15,1.75-2.83,3.91-3.13,1.62-.23,2.36-.36,2.36-1.1,0-.7-.55-1.16-1.63-1.16-1.22,0-1.8.44-1.88,1.37h-2.3c.08-1.71,1.35-3.21,4.2-3.21s4.1,1.31,4.1,3.59v4.96c0,.74.11,1.18.34,1.35v.09h-2.49c-.15-.19-.25-.65-.3-1.08ZM110.09,118.35v-1.46c-.46.27-1.16.42-1.8.57-1.35.3-2.01.61-2.01,1.52s.61,1.23,1.52,1.23c1.48,0,2.3-.91,2.3-1.86Z"/>
        <path class="cls-4" d="M113.42,112.04h1.35v-3.04h2.53v3.04h1.67v1.71h-1.67v5.17c0,.72.4.97.97.97.32,0,.76-.02.76-.02v1.9s-.59.04-1.62.04c-1.25,0-2.64-.49-2.64-2.34v-5.72h-1.35v-1.71Z"/>
        <path class="cls-4" d="M120.3,108.2h2.58v2.32h-2.58v-2.32ZM120.3,112.04h2.58v9.75h-2.58v-9.75Z"/>
        <path class="cls-4" d="M124.08,116.92c0-2.91,2.07-5.15,5.09-5.15s5.09,2.24,5.09,5.15-2.07,5.15-5.09,5.15-5.09-2.24-5.09-5.15ZM131.64,116.92c0-1.9-.89-3.19-2.47-3.19s-2.47,1.29-2.47,3.19.87,3.17,2.47,3.17,2.47-1.27,2.47-3.17Z"/>
        <path class="cls-4" d="M137.98,113.37h.06c.67-1.04,1.56-1.6,2.89-1.6,2.01,0,3.36,1.52,3.36,3.65v6.36h-2.58v-5.98c0-1.04-.61-1.79-1.69-1.79-1.14,0-1.98.91-1.98,2.24v5.53h-2.58v-9.75h2.53v1.33Z"/>
        <path class="cls-4" d="M148.51,112.04h1.35v-3.04h2.53v3.04h1.67v1.71h-1.67v5.17c0,.72.4.97.97.97.32,0,.76-.02.76-.02v1.9s-.59.04-1.62.04c-1.25,0-2.64-.49-2.64-2.34v-5.72h-1.35v-1.71Z"/>
        <path class="cls-4" d="M154.82,116.92c0-2.91,2.07-5.15,5.09-5.15s5.09,2.24,5.09,5.15-2.07,5.15-5.09,5.15-5.09-2.24-5.09-5.15ZM162.38,116.92c0-1.9-.89-3.19-2.47-3.19s-2.47,1.29-2.47,3.19.87,3.17,2.47,3.17,2.47-1.27,2.47-3.17Z"/>
        <path class="cls-4" d="M168.92,116.92c0-2.91,1.9-5.15,4.86-5.15,2.53,0,4.08,1.46,4.43,3.57h-2.53c-.17-.85-.84-1.5-1.79-1.5-1.56,0-2.36,1.2-2.36,3.08s.74,3.08,2.32,3.08c1.04,0,1.79-.55,1.96-1.65h2.49c-.17,2.07-1.79,3.72-4.39,3.72-3.08,0-5-2.24-5-5.15Z"/>
        <path class="cls-4" d="M178.95,116.92c0-2.91,2.07-5.15,5.09-5.15s5.09,2.24,5.09,5.15-2.07,5.15-5.09,5.15-5.09-2.24-5.09-5.15ZM186.51,116.92c0-1.9-.89-3.19-2.47-3.19s-2.47,1.29-2.47,3.19.87,3.17,2.47,3.17,2.47-1.27,2.47-3.17Z"/>
        <path class="cls-4" d="M192.86,113.37h.06c.67-1.04,1.56-1.6,2.89-1.6,2.01,0,3.36,1.52,3.36,3.65v6.36h-2.58v-5.98c0-1.04-.61-1.79-1.69-1.79-1.14,0-1.98.91-1.98,2.24v5.53h-2.58v-9.75h2.53v1.33Z"/>
        <path class="cls-4" d="M203.29,113.37h.06c.67-1.04,1.56-1.6,2.89-1.6,2.01,0,3.36,1.52,3.36,3.65v6.36h-2.58v-5.98c0-1.04-.61-1.79-1.69-1.79-1.14,0-1.98.91-1.98,2.24v5.53h-2.58v-9.75h2.53v1.33Z"/>
        <path class="cls-4" d="M210.72,116.9c0-2.89,1.96-5.13,4.81-5.13,3.13,0,4.81,2.39,4.81,5.87h-7.07c.19,1.5,1.03,2.43,2.49,2.43,1.01,0,1.6-.46,1.88-1.2h2.55c-.36,1.73-1.9,3.19-4.41,3.19-3.23,0-5.05-2.26-5.05-5.17ZM213.3,115.86h4.33c-.08-1.24-.89-2.09-2.07-2.09-1.37,0-2.03.82-2.26,2.09Z"/>
        <path class="cls-4" d="M221.05,116.92c0-2.91,1.9-5.15,4.86-5.15,2.53,0,4.08,1.46,4.43,3.57h-2.53c-.17-.85-.84-1.5-1.79-1.5-1.56,0-2.36,1.2-2.36,3.08s.74,3.08,2.32,3.08c1.04,0,1.79-.55,1.96-1.65h2.49c-.17,2.07-1.79,3.72-4.39,3.72-3.08,0-5-2.24-5-5.15Z"/>
        <path class="cls-4" d="M230.99,112.04h1.35v-3.04h2.53v3.04h1.67v1.71h-1.67v5.17c0,.72.4.97.97.97.32,0,.76-.02.76-.02v1.9s-.59.04-1.61.04c-1.25,0-2.64-.49-2.64-2.34v-5.72h-1.35v-1.71Z"/>
        <path class="cls-4" d="M237.9,119.03h2.77v2.75h-2.77v-2.75Z"/>
        <path class="cls-4" d="M245.62,108.2h2.75v13.58h-2.75v-13.58Z"/>
        <path class="cls-4" d="M249.7,112.04h1.35v-3.04h2.53v3.04h1.67v1.71h-1.67v5.17c0,.72.4.97.97.97.32,0,.76-.02.76-.02v1.9s-.59.04-1.61.04c-1.25,0-2.64-.49-2.64-2.34v-5.72h-1.35v-1.71Z"/>
        <path class="cls-4" d="M256.43,112.4c.59-.19,1.29-.8,1.29-1.73h-1.25v-2.47h2.56v2.24c0,1.73-1.33,2.64-2.6,2.85v-.89Z"/>
        <path class="cls-4" d="M259.03,118.63h2.39c.17,1.12.97,1.61,2.13,1.61s1.79-.44,1.79-1.12c0-.93-1.24-1.03-2.57-1.29-1.75-.34-3.46-.82-3.46-2.94s1.75-3.12,3.97-3.12c2.56,0,3.99,1.27,4.18,3.23h-2.34c-.11-1.04-.78-1.42-1.88-1.42-1.01,0-1.67.38-1.67,1.08,0,.84,1.29.91,2.68,1.2,1.63.34,3.44.8,3.44,3.08,0,1.96-1.67,3.13-4.1,3.13-2.83,0-4.41-1.37-4.56-3.44Z"/>
        <path class="cls-4" d="M277.88,120.7h-.04c-.49.74-1.2,1.31-2.87,1.31-2,0-3.4-1.04-3.4-2.98,0-2.15,1.75-2.83,3.91-3.13,1.62-.23,2.36-.36,2.36-1.1,0-.7-.55-1.16-1.63-1.16-1.22,0-1.8.44-1.88,1.37h-2.3c.08-1.71,1.35-3.21,4.2-3.21s4.1,1.31,4.1,3.59v4.96c0,.74.11,1.18.34,1.35v.09h-2.49c-.15-.19-.25-.65-.3-1.08ZM277.9,118.35v-1.46c-.46.27-1.16.42-1.8.57-1.35.3-2.01.61-2.01,1.52s.61,1.23,1.52,1.23c1.48,0,2.3-.91,2.3-1.86Z"/>
        <path class="cls-4" d="M284.55,118.63h2.39c.17,1.12.97,1.61,2.13,1.61s1.79-.44,1.79-1.12c0-.93-1.24-1.03-2.57-1.29-1.75-.34-3.46-.82-3.46-2.94s1.75-3.12,3.97-3.12c2.56,0,3.99,1.27,4.18,3.23h-2.34c-.11-1.04-.78-1.42-1.88-1.42-1.01,0-1.67.38-1.67,1.08,0,.84,1.29.91,2.68,1.2,1.63.34,3.44.8,3.44,3.08,0,1.96-1.67,3.13-4.1,3.13-2.83,0-4.41-1.37-4.56-3.44Z"/>
        <path class="cls-4" d="M294.37,112.04h2.49v1.22h.06c.63-.86,1.54-1.48,2.87-1.48,2.58,0,4.24,2.11,4.24,5.15s-1.71,5.15-4.22,5.15c-1.37,0-2.26-.55-2.81-1.39h-.04v4.29h-2.58v-12.94ZM301.4,117c0-1.84-.65-3.13-2.24-3.13s-2.26,1.39-2.26,3.13.82,2.93,2.36,2.93c1.31,0,2.15-1.08,2.15-2.93Z"/>
        <path class="cls-4" d="M311.05,120.7h-.04c-.49.74-1.2,1.31-2.87,1.31-1.99,0-3.4-1.04-3.4-2.98,0-2.15,1.75-2.83,3.91-3.13,1.61-.23,2.36-.36,2.36-1.1,0-.7-.55-1.16-1.63-1.16-1.22,0-1.8.44-1.88,1.37h-2.3c.08-1.71,1.35-3.21,4.2-3.21s4.1,1.31,4.1,3.59v4.96c0,.74.11,1.18.34,1.35v.09h-2.49c-.15-.19-.25-.65-.3-1.08ZM311.07,118.35v-1.46c-.46.27-1.16.42-1.8.57-1.35.3-2.01.61-2.01,1.52s.61,1.23,1.52,1.23c1.48,0,2.3-.91,2.3-1.86Z"/>
        <path class="cls-4" d="M314.66,116.92c0-2.91,1.9-5.15,4.86-5.15,2.53,0,4.08,1.46,4.43,3.57h-2.53c-.17-.85-.84-1.5-1.79-1.5-1.56,0-2.36,1.2-2.36,3.08s.74,3.08,2.32,3.08c1.04,0,1.79-.55,1.96-1.65h2.49c-.17,2.07-1.79,3.72-4.39,3.72-3.08,0-5-2.24-5-5.15Z"/>
        <path class="cls-4" d="M324.69,116.9c0-2.89,1.96-5.13,4.81-5.13,3.13,0,4.81,2.39,4.81,5.87h-7.07c.19,1.5,1.03,2.43,2.49,2.43,1.01,0,1.6-.46,1.88-1.2h2.55c-.36,1.73-1.9,3.19-4.41,3.19-3.23,0-5.05-2.26-5.05-5.17ZM327.28,115.86h4.33c-.08-1.24-.89-2.09-2.07-2.09-1.37,0-2.03.82-2.26,2.09Z"/>
        <path class="cls-4" d="M337.94,112.04h2.56l1.18,4.52c.21.8.44,1.82.44,1.82h.04s.21-1.04.42-1.84l1.22-4.5h2.2l1.27,4.5c.21.82.46,1.84.46,1.84h.04s.23-1.03.44-1.82l1.24-4.52h2.51l-2.91,9.75h-2.36l-1.29-4.79c-.21-.78-.44-1.69-.44-1.69h-.04s-.25.91-.46,1.69l-1.33,4.79h-2.34l-2.85-9.75Z"/>
        <path class="cls-4" d="M355.44,113.31h.06c.7-1.03,1.5-1.54,2.83-1.54,2.01,0,3.36,1.52,3.36,3.65v6.36h-2.58v-5.98c0-1.04-.61-1.79-1.69-1.79-1.14,0-1.98.91-1.98,2.24v5.53h-2.58v-13.58h2.58v5.11Z"/>
        <path class="cls-4" d="M362.81,116.9c0-2.89,1.96-5.13,4.81-5.13,3.13,0,4.81,2.39,4.81,5.87h-7.07c.19,1.5,1.03,2.43,2.49,2.43,1.01,0,1.6-.46,1.88-1.2h2.55c-.36,1.73-1.9,3.19-4.41,3.19-3.23,0-5.05-2.26-5.05-5.17ZM365.39,115.86h4.33c-.08-1.24-.89-2.09-2.07-2.09-1.37,0-2.03.82-2.26,2.09Z"/>
        <path class="cls-4" d="M376.11,113.6h.06c.59-1.1,1.25-1.67,2.39-1.67.29,0,.46.02.61.08v2.26h-.06c-1.69-.17-2.91.72-2.91,2.77v4.75h-2.58v-9.75h2.49v1.56Z"/>
        <path class="cls-4" d="M379.55,116.9c0-2.89,1.96-5.13,4.81-5.13,3.13,0,4.81,2.39,4.81,5.87h-7.07c.19,1.5,1.03,2.43,2.49,2.43,1.01,0,1.6-.46,1.88-1.2h2.55c-.36,1.73-1.9,3.19-4.41,3.19-3.23,0-5.05-2.26-5.05-5.17ZM382.13,115.86h4.33c-.08-1.24-.89-2.09-2.07-2.09-1.37,0-2.03.82-2.26,2.09Z"/>
        <path class="cls-4" d="M393.07,116.92c0-2.91,1.9-5.15,4.86-5.15,2.53,0,4.08,1.46,4.43,3.57h-2.53c-.17-.85-.84-1.5-1.79-1.5-1.56,0-2.36,1.2-2.36,3.08s.74,3.08,2.32,3.08c1.04,0,1.79-.55,1.96-1.65h2.49c-.17,2.07-1.79,3.72-4.39,3.72-3.08,0-5-2.24-5-5.15Z"/>
        <path class="cls-4" d="M406.07,113.6h.06c.59-1.1,1.25-1.67,2.39-1.67.29,0,.46.02.61.08v2.26h-.06c-1.69-.17-2.91.72-2.91,2.77v4.75h-2.58v-9.75h2.49v1.56Z"/>
        <path class="cls-4" d="M409.51,116.9c0-2.89,1.96-5.13,4.81-5.13,3.13,0,4.81,2.39,4.81,5.87h-7.07c.19,1.5,1.03,2.43,2.49,2.43,1.01,0,1.6-.46,1.88-1.2h2.55c-.36,1.73-1.9,3.19-4.41,3.19-3.23,0-5.05-2.26-5.05-5.17ZM412.09,115.86h4.33c-.08-1.24-.89-2.09-2.07-2.09-1.37,0-2.03.82-2.26,2.09Z"/>
        <path class="cls-4" d="M426.15,120.7h-.04c-.49.74-1.2,1.31-2.87,1.31-1.99,0-3.4-1.04-3.4-2.98,0-2.15,1.75-2.83,3.91-3.13,1.61-.23,2.36-.36,2.36-1.1,0-.7-.55-1.16-1.63-1.16-1.22,0-1.8.44-1.88,1.37h-2.3c.08-1.71,1.35-3.21,4.2-3.21s4.1,1.31,4.1,3.59v4.96c0,.74.11,1.18.34,1.35v.09h-2.49c-.15-.19-.25-.65-.3-1.08ZM426.17,118.35v-1.46c-.46.27-1.16.42-1.8.57-1.35.3-2.01.61-2.01,1.52s.61,1.23,1.52,1.23c1.48,0,2.3-.91,2.3-1.86Z"/>
        <path class="cls-4" d="M429.5,112.04h1.35v-3.04h2.53v3.04h1.67v1.71h-1.67v5.17c0,.72.4.97.97.97.32,0,.76-.02.76-.02v1.9s-.59.04-1.62.04c-1.25,0-2.64-.49-2.64-2.34v-5.72h-1.35v-1.71Z"/>
        <path class="cls-4" d="M436.37,108.2h2.58v2.32h-2.58v-2.32ZM436.37,112.04h2.58v9.75h-2.58v-9.75Z"/>
        <path class="cls-4" d="M439.83,112.04h2.62l1.56,5.05c.29.93.44,1.56.44,1.56h.04s.13-.63.42-1.56l1.6-5.05h2.58l-3.4,9.75h-2.47l-3.38-9.75Z"/>
        <path class="cls-4" d="M449.22,116.9c0-2.89,1.96-5.13,4.81-5.13,3.13,0,4.81,2.39,4.81,5.87h-7.07c.19,1.5,1.03,2.43,2.49,2.43,1.01,0,1.6-.46,1.88-1.2h2.55c-.36,1.73-1.9,3.19-4.41,3.19-3.23,0-5.05-2.26-5.05-5.17ZM451.8,115.86h4.33c-.08-1.24-.89-2.09-2.07-2.09-1.37,0-2.03.82-2.26,2.09Z"/>
        <path class="cls-4" d="M459.42,118.63h2.39c.17,1.12.97,1.61,2.13,1.61s1.79-.44,1.79-1.12c0-.93-1.23-1.03-2.56-1.29-1.75-.34-3.46-.82-3.46-2.94s1.75-3.12,3.97-3.12c2.56,0,3.99,1.27,4.18,3.23h-2.34c-.11-1.04-.78-1.42-1.88-1.42-1.01,0-1.67.38-1.67,1.08,0,.84,1.29.91,2.68,1.2,1.63.34,3.44.8,3.44,3.08,0,1.96-1.67,3.13-4.1,3.13-2.83,0-4.41-1.37-4.56-3.44Z"/>
      </g>
      <g>
        <path class="cls-4" d="M55.62,141.92c0-2.91,1.9-5.15,4.86-5.15,2.53,0,4.08,1.46,4.43,3.57h-2.53c-.17-.85-.84-1.5-1.79-1.5-1.56,0-2.36,1.2-2.36,3.08s.74,3.08,2.32,3.08c1.04,0,1.79-.55,1.96-1.65h2.49c-.17,2.07-1.79,3.72-4.39,3.72-3.08,0-5-2.24-5-5.15Z"/>
        <path class="cls-4" d="M65.65,141.92c0-2.91,2.07-5.15,5.09-5.15s5.09,2.24,5.09,5.15-2.07,5.15-5.09,5.15-5.09-2.24-5.09-5.15ZM73.21,141.92c0-1.9-.89-3.19-2.47-3.19s-2.47,1.29-2.47,3.19.87,3.17,2.47,3.17,2.47-1.27,2.47-3.17Z"/>
        <path class="cls-4" d="M77.03,137.04h2.49v1.31h.06c.53-.89,1.48-1.58,2.83-1.58,1.23,0,2.22.68,2.7,1.71h.04c.67-1.06,1.69-1.71,2.93-1.71,2.05,0,3.21,1.33,3.21,3.46v6.55h-2.58v-6.12c0-1.1-.55-1.67-1.5-1.67-1.08,0-1.75.84-1.75,2.13v5.66h-2.58v-6.12c0-1.1-.55-1.67-1.5-1.67-1.04,0-1.75.84-1.75,2.13v5.66h-2.58v-9.75Z"/>
        <path class="cls-4" d="M92.4,141.91c0-2.89,1.96-5.13,4.81-5.13,3.13,0,4.81,2.39,4.81,5.87h-7.07c.19,1.5,1.03,2.43,2.49,2.43,1.01,0,1.6-.46,1.88-1.2h2.55c-.36,1.73-1.9,3.19-4.41,3.19-3.23,0-5.05-2.26-5.05-5.17ZM94.99,140.86h4.33c-.08-1.24-.89-2.09-2.07-2.09-1.37,0-2.03.82-2.26,2.09Z"/>
        <path class="cls-4" d="M105.84,137.04h1.35v-3.04h2.53v3.04h1.67v1.71h-1.67v5.17c0,.72.4.97.97.97.32,0,.76-.02.76-.02v1.9s-.59.04-1.61.04c-1.25,0-2.64-.49-2.64-2.34v-5.72h-1.35v-1.71Z"/>
        <path class="cls-4" d="M112.16,141.92c0-2.91,2.07-5.15,5.09-5.15s5.09,2.24,5.09,5.15-2.07,5.15-5.09,5.15-5.09-2.24-5.09-5.15ZM119.73,141.92c0-1.9-.89-3.19-2.47-3.19s-2.47,1.29-2.47,3.19.87,3.17,2.47,3.17,2.47-1.27,2.47-3.17Z"/>
        <path class="cls-4" d="M123.28,147.07h2.56c.21.61.76,1.08,1.96,1.08,1.46,0,2.17-.7,2.17-2.03v-1.06h-.06c-.57.65-1.31,1.14-2.55,1.14-2.17,0-4.29-1.71-4.29-4.65s1.75-4.77,4.22-4.77c1.22,0,2.11.48,2.7,1.29h.04v-1.03h2.49v9c0,1.37-.44,2.3-1.16,2.96-.82.76-2.07,1.1-3.51,1.1-2.66,0-4.29-1.14-4.56-3.04ZM130.1,141.49c0-1.42-.76-2.64-2.32-2.64-1.31,0-2.18,1.03-2.18,2.66s.87,2.62,2.2,2.62c1.63,0,2.3-1.2,2.3-2.64Z"/>
        <path class="cls-4" d="M133.71,141.91c0-2.89,1.96-5.13,4.81-5.13,3.13,0,4.81,2.39,4.81,5.87h-7.07c.19,1.5,1.03,2.43,2.49,2.43,1.01,0,1.6-.46,1.88-1.2h2.55c-.36,1.73-1.9,3.19-4.41,3.19-3.23,0-5.05-2.26-5.05-5.17ZM136.29,140.86h4.33c-.08-1.24-.89-2.09-2.07-2.09-1.37,0-2.03.82-2.26,2.09Z"/>
        <path class="cls-4" d="M143.78,137.04h1.35v-3.04h2.53v3.04h1.67v1.71h-1.67v5.17c0,.72.4.97.97.97.32,0,.76-.02.76-.02v1.9s-.59.04-1.61.04c-1.25,0-2.64-.49-2.64-2.34v-5.72h-1.35v-1.71Z"/>
        <path class="cls-4" d="M153.24,138.31h.06c.7-1.03,1.5-1.54,2.83-1.54,2.01,0,3.36,1.52,3.36,3.65v6.36h-2.58v-5.98c0-1.04-.61-1.79-1.69-1.79-1.14,0-1.98.91-1.98,2.24v5.53h-2.58v-13.58h2.58v5.11Z"/>
        <path class="cls-4" d="M160.61,141.91c0-2.89,1.96-5.13,4.81-5.13,3.13,0,4.81,2.39,4.81,5.87h-7.07c.19,1.5,1.03,2.43,2.49,2.43,1.01,0,1.6-.46,1.88-1.2h2.55c-.36,1.73-1.9,3.19-4.41,3.19-3.23,0-5.05-2.26-5.05-5.17ZM163.2,140.86h4.33c-.08-1.24-.89-2.09-2.07-2.09-1.37,0-2.03.82-2.26,2.09Z"/>
        <path class="cls-4" d="M173.91,138.6h.06c.59-1.1,1.25-1.67,2.39-1.67.29,0,.46.02.61.08v2.26h-.06c-1.69-.17-2.91.72-2.91,2.77v4.75h-2.58v-9.75h2.49v1.56Z"/>
        <path class="cls-4" d="M180.72,137.04h1.35v-3.04h2.53v3.04h1.67v1.71h-1.67v5.17c0,.72.4.97.97.97.32,0,.76-.02.76-.02v1.9s-.59.04-1.61.04c-1.25,0-2.64-.49-2.64-2.34v-5.72h-1.35v-1.71Z"/>
        <path class="cls-4" d="M187.02,141.92c0-2.91,2.07-5.15,5.09-5.15s5.09,2.24,5.09,5.15-2.07,5.15-5.09,5.15-5.09-2.24-5.09-5.15ZM194.58,141.92c0-1.9-.89-3.19-2.47-3.19s-2.47,1.29-2.47,3.19.87,3.17,2.47,3.17,2.47-1.27,2.47-3.17Z"/>
        <path class="cls-4" d="M201.12,141.92c0-3.04,1.73-5.15,4.16-5.15,1.37,0,2.22.63,2.75,1.44h.06v-5.02h2.58v13.58h-2.49v-1.27h-.04c-.57.93-1.54,1.56-2.91,1.56-2.45,0-4.12-2-4.12-5.15ZM208.15,141.98c0-1.86-.61-3.12-2.26-3.12-1.42,0-2.15,1.25-2.15,3.06s.74,2.98,2.07,2.98c1.54,0,2.34-1.14,2.34-2.93Z"/>
        <path class="cls-4" d="M212.35,133.2h2.58v2.32h-2.58v-2.32ZM212.35,137.04h2.58v9.75h-2.58v-9.75Z"/>
        <path class="cls-4" d="M216,143.63h2.39c.17,1.12.97,1.61,2.13,1.61s1.79-.44,1.79-1.12c0-.93-1.23-1.03-2.56-1.29-1.75-.34-3.46-.82-3.46-2.94s1.75-3.12,3.97-3.12c2.56,0,3.99,1.27,4.18,3.23h-2.34c-.11-1.04-.78-1.42-1.88-1.42-1.01,0-1.67.38-1.67,1.08,0,.84,1.29.91,2.68,1.2,1.63.34,3.44.8,3.44,3.08,0,1.96-1.67,3.13-4.1,3.13-2.83,0-4.41-1.37-4.56-3.44Z"/>
        <path class="cls-4" d="M225.44,141.92c0-2.91,1.9-5.15,4.86-5.15,2.53,0,4.08,1.46,4.43,3.57h-2.53c-.17-.85-.84-1.5-1.79-1.5-1.56,0-2.36,1.2-2.36,3.08s.74,3.08,2.32,3.08c1.04,0,1.79-.55,1.96-1.65h2.49c-.17,2.07-1.79,3.72-4.39,3.72-3.08,0-5-2.24-5-5.15Z"/>
        <path class="cls-4" d="M235.47,141.92c0-2.91,2.07-5.15,5.09-5.15s5.09,2.24,5.09,5.15-2.07,5.15-5.09,5.15-5.09-2.24-5.09-5.15ZM243.03,141.92c0-1.9-.89-3.19-2.47-3.19s-2.47,1.29-2.47,3.19.87,3.17,2.47,3.17,2.47-1.27,2.47-3.17Z"/>
        <path class="cls-4" d="M245.79,137.04h2.62l1.56,5.05c.29.93.44,1.56.44,1.56h.04s.13-.63.42-1.56l1.6-5.05h2.58l-3.4,9.75h-2.47l-3.38-9.75Z"/>
        <path class="cls-4" d="M255.16,141.91c0-2.89,1.96-5.13,4.81-5.13,3.13,0,4.81,2.39,4.81,5.87h-7.07c.19,1.5,1.03,2.43,2.49,2.43,1.01,0,1.6-.46,1.88-1.2h2.55c-.36,1.73-1.9,3.19-4.41,3.19-3.23,0-5.05-2.26-5.05-5.17ZM257.74,140.86h4.33c-.08-1.24-.89-2.09-2.07-2.09-1.37,0-2.03.82-2.26,2.09Z"/>
        <path class="cls-4" d="M268.46,138.6h.06c.59-1.1,1.25-1.67,2.39-1.67.29,0,.46.02.61.08v2.26h-.06c-1.69-.17-2.91.72-2.91,2.77v4.75h-2.58v-9.75h2.49v1.56Z"/>
        <path class="cls-4" d="M281.66,145.7h-.04c-.49.74-1.2,1.31-2.87,1.31-1.99,0-3.4-1.04-3.4-2.98,0-2.15,1.75-2.83,3.91-3.13,1.61-.23,2.36-.36,2.36-1.1,0-.7-.55-1.16-1.63-1.16-1.22,0-1.8.44-1.88,1.37h-2.3c.08-1.71,1.35-3.21,4.2-3.21s4.1,1.31,4.1,3.59v4.96c0,.74.11,1.18.34,1.35v.09h-2.49c-.15-.19-.25-.65-.3-1.08ZM281.68,143.35v-1.46c-.46.27-1.16.42-1.8.57-1.35.3-2.01.61-2.01,1.52s.61,1.23,1.52,1.23c1.48,0,2.3-.91,2.3-1.86Z"/>
        <path class="cls-4" d="M288.23,138.6h.06c.59-1.1,1.25-1.67,2.39-1.67.29,0,.46.02.61.08v2.26h-.06c-1.69-.17-2.91.72-2.91,2.77v4.75h-2.58v-9.75h2.49v1.56Z"/>
        <path class="cls-4" d="M291.92,137.04h1.35v-3.04h2.53v3.04h1.67v1.71h-1.67v5.17c0,.72.4.97.97.97.32,0,.76-.02.76-.02v1.9s-.59.04-1.61.04c-1.25,0-2.64-.49-2.64-2.34v-5.72h-1.35v-1.71Z"/>
        <path class="cls-4" d="M298.86,149.01c.74-.38,1.37-1.04,1.37-2.22h-1.39v-2.75h2.77v2.6c0,1.94-1.29,3.04-2.75,3.31v-.93Z"/>
        <path class="cls-4" d="M306.32,133.2h2.58v2.32h-2.58v-2.32ZM306.32,137.04h2.58v9.75h-2.58v-9.75Z"/>
        <path class="cls-4" d="M313.1,138.37h.06c.67-1.04,1.56-1.6,2.89-1.6,2.01,0,3.36,1.52,3.36,3.65v6.36h-2.58v-5.98c0-1.04-.61-1.79-1.69-1.79-1.14,0-1.98.91-1.98,2.24v5.53h-2.58v-9.75h2.53v1.33Z"/>
        <path class="cls-4" d="M320.4,143.63h2.39c.17,1.12.97,1.61,2.13,1.61s1.79-.44,1.79-1.12c0-.93-1.23-1.03-2.56-1.29-1.75-.34-3.46-.82-3.46-2.94s1.75-3.12,3.97-3.12c2.56,0,3.99,1.27,4.18,3.23h-2.34c-.11-1.04-.78-1.42-1.88-1.42-1.01,0-1.67.38-1.67,1.08,0,.84,1.29.91,2.68,1.2,1.63.34,3.44.8,3.44,3.08,0,1.96-1.67,3.13-4.1,3.13-2.83,0-4.41-1.37-4.56-3.44Z"/>
        <path class="cls-4" d="M330.22,137.04h2.49v1.22h.06c.63-.86,1.54-1.48,2.87-1.48,2.58,0,4.24,2.11,4.24,5.15s-1.71,5.15-4.22,5.15c-1.37,0-2.26-.55-2.81-1.39h-.04v4.29h-2.58v-12.94ZM337.25,142c0-1.84-.65-3.13-2.24-3.13s-2.26,1.39-2.26,3.13.82,2.93,2.36,2.93c1.31,0,2.15-1.08,2.15-2.93Z"/>
        <path class="cls-4" d="M341.07,133.2h2.58v2.32h-2.58v-2.32ZM341.07,137.04h2.58v9.75h-2.58v-9.75Z"/>
        <path class="cls-4" d="M347.82,138.6h.06c.59-1.1,1.25-1.67,2.39-1.67.29,0,.46.02.61.08v2.26h-.06c-1.69-.17-2.91.72-2.91,2.77v4.75h-2.58v-9.75h2.49v1.56Z"/>
        <path class="cls-4" d="M351.24,141.91c0-2.89,1.96-5.13,4.81-5.13,3.13,0,4.81,2.39,4.81,5.87h-7.07c.19,1.5,1.03,2.43,2.49,2.43,1.01,0,1.6-.46,1.88-1.2h2.55c-.36,1.73-1.9,3.19-4.41,3.19-3.23,0-5.05-2.26-5.05-5.17ZM353.82,140.86h4.33c-.08-1.24-.89-2.09-2.07-2.09-1.37,0-2.03.82-2.26,2.09Z"/>
        <path class="cls-4" d="M364.77,141.92c0-2.91,2.07-5.15,5.09-5.15s5.09,2.24,5.09,5.15-2.07,5.15-5.09,5.15-5.09-2.24-5.09-5.15ZM372.33,141.92c0-1.9-.89-3.19-2.47-3.19s-2.47,1.29-2.47,3.19.87,3.17,2.47,3.17,2.47-1.27,2.47-3.17Z"/>
        <path class="cls-4" d="M378.67,138.37h.06c.67-1.04,1.56-1.6,2.89-1.6,2.01,0,3.36,1.52,3.36,3.65v6.36h-2.58v-5.98c0-1.04-.61-1.79-1.69-1.79-1.14,0-1.98.91-1.98,2.24v5.53h-2.58v-9.75h2.53v1.33Z"/>
        <path class="cls-4" d="M386.1,141.91c0-2.89,1.96-5.13,4.81-5.13,3.13,0,4.81,2.39,4.81,5.87h-7.07c.19,1.5,1.03,2.43,2.49,2.43,1.01,0,1.6-.46,1.88-1.2h2.55c-.36,1.73-1.9,3.19-4.41,3.19-3.23,0-5.05-2.26-5.05-5.17ZM388.69,140.86h4.33c-.08-1.24-.89-2.09-2.07-2.09-1.37,0-2.03.82-2.26,2.09Z"/>
        <path class="cls-4" d="M405.94,145.7h-.04c-.49.74-1.2,1.31-2.87,1.31-2,0-3.4-1.04-3.4-2.98,0-2.15,1.75-2.83,3.91-3.13,1.62-.23,2.36-.36,2.36-1.1,0-.7-.55-1.16-1.63-1.16-1.22,0-1.8.44-1.88,1.37h-2.3c.08-1.71,1.35-3.21,4.2-3.21s4.1,1.31,4.1,3.59v4.96c0,.74.11,1.18.34,1.35v.09h-2.49c-.15-.19-.25-.65-.3-1.08ZM405.96,143.35v-1.46c-.46.27-1.16.42-1.8.57-1.35.3-2.01.61-2.01,1.52s.61,1.23,1.52,1.23c1.48,0,2.3-.91,2.3-1.86Z"/>
        <path class="cls-4" d="M412.55,138.37h.06c.67-1.04,1.56-1.6,2.89-1.6,2.01,0,3.36,1.52,3.36,3.65v6.36h-2.58v-5.98c0-1.04-.61-1.79-1.69-1.79-1.14,0-1.98.91-1.98,2.24v5.53h-2.58v-9.75h2.53v1.33Z"/>
        <path class="cls-4" d="M419.98,141.92c0-2.91,2.07-5.15,5.09-5.15s5.09,2.24,5.09,5.15-2.07,5.15-5.09,5.15-5.09-2.24-5.09-5.15ZM427.54,141.92c0-1.9-.89-3.19-2.47-3.19s-2.47,1.29-2.47,3.19.87,3.17,2.47,3.17,2.47-1.27,2.47-3.17Z"/>
        <path class="cls-4" d="M430.62,137.04h1.35v-3.04h2.53v3.04h1.67v1.71h-1.67v5.17c0,.72.4.97.97.97.32,0,.76-.02.76-.02v1.9s-.59.04-1.62.04c-1.25,0-2.64-.49-2.64-2.34v-5.72h-1.35v-1.71Z"/>
        <path class="cls-4" d="M440.08,138.31h.06c.7-1.03,1.5-1.54,2.83-1.54,2.01,0,3.36,1.52,3.36,3.65v6.36h-2.58v-5.98c0-1.04-.61-1.79-1.69-1.79-1.14,0-1.98.91-1.98,2.24v5.53h-2.58v-13.58h2.58v5.11Z"/>
        <path class="cls-4" d="M447.45,141.91c0-2.89,1.96-5.13,4.81-5.13,3.13,0,4.81,2.39,4.81,5.87h-7.07c.19,1.5,1.03,2.43,2.49,2.43,1.01,0,1.6-.46,1.88-1.2h2.55c-.36,1.73-1.9,3.19-4.41,3.19-3.23,0-5.05-2.26-5.05-5.17ZM450.03,140.86h4.33c-.08-1.24-.89-2.09-2.07-2.09-1.37,0-2.03.82-2.26,2.09Z"/>
        <path class="cls-4" d="M460.75,138.6h.06c.59-1.1,1.25-1.67,2.39-1.67.29,0,.46.02.61.08v2.26h-.06c-1.69-.17-2.91.72-2.91,2.77v4.75h-2.58v-9.75h2.49v1.56Z"/>
        <path class="cls-4" d="M463.68,149.01c.74-.38,1.37-1.04,1.37-2.22h-1.39v-2.75h2.77v2.6c0,1.94-1.29,3.04-2.75,3.31v-.93Z"/>
      </g>
      <g>
        <path class="cls-4" d="M61.93,170.71h-.04c-.49.74-1.2,1.31-2.87,1.31-2,0-3.4-1.04-3.4-2.98,0-2.15,1.75-2.83,3.91-3.13,1.62-.23,2.36-.36,2.36-1.1,0-.7-.55-1.16-1.63-1.16-1.22,0-1.8.44-1.88,1.37h-2.3c.08-1.71,1.35-3.21,4.2-3.21s4.1,1.31,4.1,3.59v4.96c0,.74.11,1.18.34,1.35v.09h-2.49c-.15-.19-.25-.65-.3-1.08ZM61.95,168.35v-1.46c-.46.27-1.16.42-1.8.57-1.35.3-2.01.61-2.01,1.52s.61,1.23,1.52,1.23c1.48,0,2.3-.91,2.3-1.86Z"/>
        <path class="cls-4" d="M68.54,163.38h.06c.67-1.04,1.56-1.6,2.89-1.6,2.01,0,3.36,1.52,3.36,3.65v6.36h-2.58v-5.98c0-1.04-.61-1.79-1.69-1.79-1.14,0-1.98.91-1.98,2.24v5.53h-2.58v-9.75h2.53v1.33Z"/>
        <path class="cls-4" d="M75.97,166.93c0-3.04,1.73-5.15,4.16-5.15,1.37,0,2.22.63,2.75,1.44h.06v-5.02h2.58v13.58h-2.49v-1.27h-.04c-.57.93-1.54,1.56-2.91,1.56-2.45,0-4.12-2-4.12-5.15ZM83,166.98c0-1.86-.61-3.12-2.26-3.12-1.42,0-2.15,1.25-2.15,3.06s.74,2.98,2.07,2.98c1.54,0,2.34-1.14,2.34-2.93Z"/>
        <path class="cls-4" d="M92.92,163.38h.06c.67-1.04,1.56-1.6,2.89-1.6,2.01,0,3.36,1.52,3.36,3.65v6.36h-2.58v-5.98c0-1.04-.61-1.79-1.69-1.79-1.14,0-1.98.91-1.98,2.24v5.53h-2.58v-9.75h2.53v1.33Z"/>
        <path class="cls-4" d="M100.35,166.91c0-2.89,1.96-5.13,4.81-5.13,3.13,0,4.81,2.39,4.81,5.87h-7.07c.19,1.5,1.03,2.43,2.49,2.43,1.01,0,1.6-.46,1.88-1.2h2.55c-.36,1.73-1.9,3.19-4.41,3.19-3.23,0-5.05-2.26-5.05-5.17ZM102.93,165.86h4.33c-.08-1.24-.89-2.09-2.07-2.09-1.37,0-2.03.82-2.26,2.09Z"/>
        <path class="cls-4" d="M110.42,162.05h1.35v-3.04h2.53v3.04h1.67v1.71h-1.67v5.17c0,.72.4.97.97.97.32,0,.76-.02.76-.02v1.9s-.59.04-1.62.04c-1.25,0-2.64-.49-2.64-2.34v-5.72h-1.35v-1.71Z"/>
        <path class="cls-4" d="M116.8,162.05h2.56l1.18,4.52c.21.8.44,1.82.44,1.82h.04s.21-1.04.42-1.84l1.22-4.5h2.2l1.27,4.5c.21.82.46,1.84.46,1.84h.04s.23-1.03.44-1.82l1.23-4.52h2.51l-2.91,9.75h-2.36l-1.29-4.79c-.21-.78-.44-1.69-.44-1.69h-.04s-.25.91-.46,1.69l-1.33,4.79h-2.34l-2.85-9.75Z"/>
        <path class="cls-4" d="M130.95,166.93c0-2.91,2.07-5.15,5.09-5.15s5.09,2.24,5.09,5.15-2.07,5.15-5.09,5.15-5.09-2.24-5.09-5.15ZM138.52,166.93c0-1.9-.89-3.19-2.47-3.19s-2.47,1.29-2.47,3.19.87,3.17,2.47,3.17,2.47-1.27,2.47-3.17Z"/>
        <path class="cls-4" d="M144.82,163.6h.06c.59-1.1,1.25-1.67,2.39-1.67.29,0,.46.02.61.08v2.26h-.06c-1.69-.17-2.91.72-2.91,2.77v4.75h-2.58v-9.75h2.49v1.56Z"/>
        <path class="cls-4" d="M152.69,167.35l-1.12,1.16v3.29h-2.56v-13.58h2.56v7.52l3.46-3.68h3.1l-3.59,3.7,4.03,6.04h-3.13l-2.74-4.45Z"/>
        <path class="cls-4" d="M159.32,169.04h2.77v2.75h-2.77v-2.75Z"/>
        <path class="cls-4" d="M167.02,158.21h6.08c1.46,0,2.58.36,3.29.99.74.66,1.08,1.48,1.08,2.54,0,1.39-.86,2.28-2.13,2.72v.06c1.5.44,2.53,1.69,2.53,3.36,0,1.27-.4,2.15-1.2,2.83-.78.68-1.98,1.08-3.42,1.08h-6.23v-13.58ZM172.75,163.68c1.2,0,2.01-.57,2.01-1.63,0-1.01-.74-1.6-1.96-1.6h-3.04v3.23h2.98ZM169.77,169.51h3.17c1.33,0,2.13-.74,2.13-1.84,0-1.29-.95-1.96-2.2-1.96h-3.1v3.8Z"/>
        <path class="cls-4" d="M179.4,172.95h.91c1.03,0,1.44-.53,1.44-1.33,0-.53-.19-1.16-.74-2.64l-2.62-6.93h2.72l1.44,4.39c.3.89.63,2.13.63,2.13h.04s.27-1.23.57-2.13l1.37-4.39h2.6l-3.4,9.99c-.74,2.17-1.46,2.94-3.44,2.94h-1.52v-2.03Z"/>
        <path class="cls-4" d="M191.35,166.93c0-3.04,1.73-5.15,4.16-5.15,1.37,0,2.22.63,2.75,1.44h.06v-5.02h2.58v13.58h-2.49v-1.27h-.04c-.57.93-1.54,1.56-2.91,1.56-2.45,0-4.12-2-4.12-5.15ZM198.38,166.98c0-1.86-.61-3.12-2.26-3.12-1.42,0-2.15,1.25-2.15,3.06s.74,2.98,2.07,2.98c1.54,0,2.34-1.14,2.34-2.93Z"/>
        <path class="cls-4" d="M202.11,166.93c0-2.91,2.07-5.15,5.09-5.15s5.09,2.24,5.09,5.15-2.07,5.15-5.09,5.15-5.09-2.24-5.09-5.15ZM209.67,166.93c0-1.9-.89-3.19-2.47-3.19s-2.47,1.29-2.47,3.19.87,3.17,2.47,3.17,2.47-1.27,2.47-3.17Z"/>
        <path class="cls-4" d="M213.49,158.21h2.58v2.32h-2.58v-2.32ZM213.49,162.05h2.58v9.75h-2.58v-9.75Z"/>
        <path class="cls-4" d="M220.27,163.38h.06c.67-1.04,1.56-1.6,2.89-1.6,2.01,0,3.36,1.52,3.36,3.65v6.36h-2.58v-5.98c0-1.04-.61-1.79-1.69-1.79-1.14,0-1.98.91-1.98,2.24v5.53h-2.58v-9.75h2.53v1.33Z"/>
        <path class="cls-4" d="M227.91,172.08h2.57c.21.61.76,1.08,1.96,1.08,1.46,0,2.17-.7,2.17-2.03v-1.06h-.06c-.57.65-1.31,1.14-2.54,1.14-2.17,0-4.29-1.71-4.29-4.65s1.75-4.77,4.22-4.77c1.22,0,2.11.48,2.7,1.29h.04v-1.03h2.49v9c0,1.37-.44,2.3-1.16,2.96-.82.76-2.07,1.1-3.51,1.1-2.66,0-4.29-1.14-4.56-3.04ZM234.73,166.49c0-1.42-.76-2.64-2.32-2.64-1.31,0-2.18,1.03-2.18,2.66s.87,2.62,2.2,2.62c1.63,0,2.3-1.2,2.3-2.64Z"/>
        <path class="cls-4" d="M241.4,168.64h2.39c.17,1.12.97,1.61,2.13,1.61s1.79-.44,1.79-1.12c0-.93-1.24-1.03-2.57-1.29-1.75-.34-3.46-.82-3.46-2.94s1.75-3.12,3.97-3.12c2.56,0,3.99,1.27,4.18,3.23h-2.34c-.11-1.04-.78-1.42-1.88-1.42-1.01,0-1.67.38-1.67,1.08,0,.84,1.29.91,2.68,1.2,1.63.34,3.44.8,3.44,3.08,0,1.96-1.67,3.13-4.1,3.13-2.83,0-4.41-1.37-4.56-3.44Z"/>
        <path class="cls-4" d="M250.82,166.93c0-2.91,2.07-5.15,5.09-5.15s5.09,2.24,5.09,5.15-2.07,5.15-5.09,5.15-5.09-2.24-5.09-5.15ZM258.38,166.93c0-1.9-.89-3.19-2.47-3.19s-2.47,1.29-2.47,3.19.87,3.17,2.47,3.17,2.47-1.27,2.47-3.17Z"/>
        <path class="cls-4" d="M261.71,174.01c.74-.38,1.37-1.04,1.37-2.22h-1.39v-2.75h2.77v2.6c0,1.94-1.29,3.04-2.75,3.31v-.93Z"/>
        <path class="cls-4" d="M268.42,162.05h2.56l1.18,4.52c.21.8.44,1.82.44,1.82h.04s.21-1.04.42-1.84l1.22-4.5h2.2l1.27,4.5c.21.82.46,1.84.46,1.84h.04s.23-1.03.44-1.82l1.23-4.52h2.51l-2.91,9.75h-2.36l-1.29-4.79c-.21-.78-.44-1.69-.44-1.69h-.04s-.25.91-.46,1.69l-1.33,4.79h-2.34l-2.85-9.75Z"/>
        <path class="cls-4" d="M282.57,166.91c0-2.89,1.96-5.13,4.81-5.13,3.13,0,4.81,2.39,4.81,5.87h-7.07c.19,1.5,1.03,2.43,2.49,2.43,1.01,0,1.6-.46,1.88-1.2h2.55c-.36,1.73-1.9,3.19-4.41,3.19-3.23,0-5.05-2.26-5.05-5.17ZM285.16,165.86h4.33c-.08-1.24-.89-2.09-2.07-2.09-1.37,0-2.03.82-2.26,2.09Z"/>
        <path class="cls-4" d="M296.1,166.93c0-2.91,1.9-5.15,4.86-5.15,2.53,0,4.08,1.46,4.43,3.57h-2.53c-.17-.85-.84-1.5-1.79-1.5-1.56,0-2.36,1.2-2.36,3.08s.74,3.08,2.32,3.08c1.04,0,1.79-.55,1.96-1.65h2.49c-.17,2.07-1.79,3.72-4.39,3.72-3.08,0-5-2.24-5-5.15Z"/>
        <path class="cls-4" d="M309.1,163.6h.06c.59-1.1,1.25-1.67,2.39-1.67.29,0,.46.02.61.08v2.26h-.06c-1.69-.17-2.91.72-2.91,2.77v4.75h-2.58v-9.75h2.49v1.56Z"/>
        <path class="cls-4" d="M312.53,166.91c0-2.89,1.96-5.13,4.81-5.13,3.13,0,4.81,2.39,4.81,5.87h-7.07c.19,1.5,1.03,2.43,2.49,2.43,1.01,0,1.6-.46,1.88-1.2h2.55c-.36,1.73-1.9,3.19-4.41,3.19-3.23,0-5.05-2.26-5.05-5.17ZM315.12,165.86h4.33c-.08-1.24-.89-2.09-2.07-2.09-1.37,0-2.03.82-2.26,2.09Z"/>
        <path class="cls-4" d="M329.18,170.71h-.04c-.49.74-1.2,1.31-2.87,1.31-1.99,0-3.4-1.04-3.4-2.98,0-2.15,1.75-2.83,3.91-3.13,1.61-.23,2.36-.36,2.36-1.1,0-.7-.55-1.16-1.63-1.16-1.22,0-1.8.44-1.88,1.37h-2.3c.08-1.71,1.35-3.21,4.2-3.21s4.1,1.31,4.1,3.59v4.96c0,.74.11,1.18.34,1.35v.09h-2.49c-.15-.19-.25-.65-.3-1.08ZM329.2,168.35v-1.46c-.46.27-1.16.42-1.8.57-1.35.3-2.01.61-2.01,1.52s.61,1.23,1.52,1.23c1.48,0,2.3-.91,2.3-1.86Z"/>
        <path class="cls-4" d="M332.52,162.05h1.35v-3.04h2.53v3.04h1.67v1.71h-1.67v5.17c0,.72.4.97.97.97.32,0,.76-.02.76-.02v1.9s-.59.04-1.61.04c-1.25,0-2.64-.49-2.64-2.34v-5.72h-1.35v-1.71Z"/>
        <path class="cls-4" d="M338.85,166.91c0-2.89,1.96-5.13,4.81-5.13,3.13,0,4.81,2.39,4.81,5.87h-7.07c.19,1.5,1.03,2.43,2.49,2.43,1.01,0,1.6-.46,1.88-1.2h2.55c-.36,1.73-1.9,3.19-4.41,3.19-3.23,0-5.05-2.26-5.05-5.17ZM341.43,165.86h4.33c-.08-1.24-.89-2.09-2.07-2.09-1.37,0-2.03.82-2.26,2.09Z"/>
        <path class="cls-4" d="M358.68,170.71h-.04c-.49.74-1.2,1.31-2.87,1.31-2,0-3.4-1.04-3.4-2.98,0-2.15,1.75-2.83,3.91-3.13,1.62-.23,2.36-.36,2.36-1.1,0-.7-.55-1.16-1.63-1.16-1.22,0-1.8.44-1.88,1.37h-2.3c.08-1.71,1.35-3.21,4.2-3.21s4.1,1.31,4.1,3.59v4.96c0,.74.11,1.18.34,1.35v.09h-2.49c-.15-.19-.25-.65-.3-1.08ZM358.7,168.35v-1.46c-.46.27-1.16.42-1.8.57-1.35.3-2.01.61-2.01,1.52s.61,1.23,1.52,1.23c1.48,0,2.3-.91,2.3-1.86Z"/>
        <path class="cls-4" d="M365.96,162.05h2.49v1.22h.06c.63-.86,1.54-1.48,2.87-1.48,2.58,0,4.24,2.11,4.24,5.15s-1.71,5.15-4.22,5.15c-1.37,0-2.26-.55-2.81-1.39h-.04v4.29h-2.58v-12.94ZM372.99,167c0-1.84-.65-3.13-2.24-3.13s-2.26,1.39-2.26,3.13.82,2.93,2.36,2.93c1.31,0,2.15-1.08,2.15-2.93Z"/>
        <path class="cls-4" d="M379.39,163.32h.06c.7-1.03,1.5-1.54,2.83-1.54,2.01,0,3.36,1.52,3.36,3.65v6.36h-2.58v-5.98c0-1.04-.61-1.79-1.69-1.79-1.14,0-1.98.91-1.98,2.24v5.53h-2.58v-13.58h2.58v5.11Z"/>
        <path class="cls-4" d="M387.28,172.95h.91c1.03,0,1.44-.53,1.44-1.33,0-.53-.19-1.16-.74-2.64l-2.62-6.93h2.72l1.44,4.39c.3.89.63,2.13.63,2.13h.04s.27-1.23.57-2.13l1.37-4.39h2.6l-3.4,9.99c-.74,2.17-1.46,2.94-3.44,2.94h-1.52v-2.03Z"/>
        <path class="cls-4" d="M395.83,168.64h2.39c.17,1.12.97,1.61,2.13,1.61s1.79-.44,1.79-1.12c0-.93-1.24-1.03-2.57-1.29-1.75-.34-3.46-.82-3.46-2.94s1.75-3.12,3.97-3.12c2.56,0,3.99,1.27,4.18,3.23h-2.34c-.11-1.04-.78-1.42-1.88-1.42-1.01,0-1.67.38-1.67,1.08,0,.84,1.29.91,2.68,1.2,1.63.34,3.44.8,3.44,3.08,0,1.96-1.67,3.13-4.1,3.13-2.83,0-4.41-1.37-4.56-3.44Z"/>
        <path class="cls-4" d="M405.65,158.21h2.58v2.32h-2.58v-2.32ZM405.65,162.05h2.58v9.75h-2.58v-9.75Z"/>
        <path class="cls-4" d="M409.43,166.93c0-2.91,1.9-5.15,4.86-5.15,2.53,0,4.08,1.46,4.43,3.57h-2.53c-.17-.85-.84-1.5-1.79-1.5-1.56,0-2.36,1.2-2.36,3.08s.74,3.08,2.32,3.08c1.04,0,1.79-.55,1.96-1.65h2.49c-.17,2.07-1.79,3.72-4.39,3.72-3.08,0-5-2.24-5-5.15Z"/>
        <path class="cls-4" d="M425.96,170.71h-.04c-.49.74-1.2,1.31-2.87,1.31-1.99,0-3.4-1.04-3.4-2.98,0-2.15,1.75-2.83,3.91-3.13,1.61-.23,2.36-.36,2.36-1.1,0-.7-.55-1.16-1.63-1.16-1.22,0-1.8.44-1.88,1.37h-2.3c.08-1.71,1.35-3.21,4.2-3.21s4.1,1.31,4.1,3.59v4.96c0,.74.11,1.18.34,1.35v.09h-2.49c-.15-.19-.25-.65-.3-1.08ZM425.98,168.35v-1.46c-.46.27-1.16.42-1.8.57-1.35.3-2.01.61-2.01,1.52s.61,1.23,1.52,1.23c1.48,0,2.3-.91,2.3-1.86Z"/>
        <path class="cls-4" d="M430.09,158.21h2.58v13.58h-2.58v-13.58Z"/>
        <path class="cls-4" d="M440.16,163.32h.06c.7-1.03,1.5-1.54,2.83-1.54,2.01,0,3.36,1.52,3.36,3.65v6.36h-2.58v-5.98c0-1.04-.61-1.79-1.69-1.79-1.14,0-1.98.91-1.98,2.24v5.53h-2.58v-13.58h2.58v5.11Z"/>
        <path class="cls-4" d="M454.16,171.79v-1.14h-.06c-.67.89-1.42,1.41-2.79,1.41-2.17,0-3.38-1.39-3.38-3.51v-6.5h2.57v6.06c0,1.14.51,1.77,1.61,1.77,1.22,0,1.96-.91,1.96-2.2v-5.62h2.58v9.75h-2.49Z"/>
        <path class="cls-4" d="M460.85,170.58h-.04v1.22h-2.49v-13.58h2.58v5.02h.06c.53-.82,1.37-1.44,2.72-1.44,2.45,0,4.2,2.11,4.2,5.15s-1.67,5.15-4.12,5.15c-1.37,0-2.34-.59-2.91-1.5ZM465.25,166.93c0-1.8-.72-3.06-2.17-3.06-1.63,0-2.24,1.31-2.24,3.12s.89,2.93,2.34,2.93c1.33,0,2.07-1.1,2.07-2.98Z"/>
        <path class="cls-4" d="M471.7,162.05h1.33v-.87c0-2.38,1.84-3.21,4.33-2.95v2c-1.22-.06-1.75.09-1.75,1.1v.72h1.75v1.79h-1.75v7.96h-2.58v-7.96h-1.33v-1.79Z"/>
        <path class="cls-4" d="M477.79,166.93c0-2.91,2.07-5.15,5.09-5.15s5.09,2.24,5.09,5.15-2.07,5.15-5.09,5.15-5.09-2.24-5.09-5.15ZM485.36,166.93c0-1.9-.89-3.19-2.47-3.19s-2.47,1.29-2.47,3.19.87,3.17,2.47,3.17,2.47-1.27,2.47-3.17Z"/>
        <path class="cls-4" d="M491.66,163.6h.06c.59-1.1,1.25-1.67,2.39-1.67.29,0,.46.02.61.08v2.26h-.06c-1.69-.17-2.91.72-2.91,2.77v4.75h-2.58v-9.75h2.49v1.56Z"/>
      </g>
      <g>
        <path class="cls-4" d="M55.62,191.93c0-2.91,1.9-5.15,4.86-5.15,2.53,0,4.08,1.46,4.43,3.57h-2.53c-.17-.85-.84-1.5-1.79-1.5-1.56,0-2.36,1.2-2.36,3.08s.74,3.08,2.32,3.08c1.04,0,1.79-.55,1.96-1.65h2.49c-.17,2.07-1.79,3.72-4.39,3.72-3.08,0-5-2.24-5-5.15Z"/>
        <path class="cls-4" d="M65.65,191.93c0-2.91,2.07-5.15,5.09-5.15s5.09,2.24,5.09,5.15-2.07,5.15-5.09,5.15-5.09-2.24-5.09-5.15ZM73.21,191.93c0-1.9-.89-3.19-2.47-3.19s-2.47,1.29-2.47,3.19.87,3.17,2.47,3.17,2.47-1.27,2.47-3.17Z"/>
        <path class="cls-4" d="M79.56,188.38h.06c.67-1.04,1.56-1.6,2.89-1.6,2.01,0,3.36,1.52,3.36,3.65v6.36h-2.58v-5.98c0-1.04-.61-1.79-1.69-1.79-1.14,0-1.98.91-1.98,2.24v5.53h-2.58v-9.75h2.53v1.33Z"/>
        <path class="cls-4" d="M89.99,188.38h.06c.67-1.04,1.56-1.6,2.89-1.6,2.01,0,3.36,1.52,3.36,3.65v6.36h-2.58v-5.98c0-1.04-.61-1.79-1.69-1.79-1.14,0-1.98.91-1.98,2.24v5.53h-2.58v-9.75h2.53v1.33Z"/>
        <path class="cls-4" d="M97.42,191.91c0-2.89,1.96-5.13,4.81-5.13,3.13,0,4.81,2.39,4.81,5.87h-7.07c.19,1.5,1.03,2.43,2.49,2.43,1.01,0,1.6-.46,1.88-1.2h2.55c-.36,1.73-1.9,3.19-4.41,3.19-3.23,0-5.05-2.26-5.05-5.17ZM100,190.87h4.33c-.08-1.24-.89-2.09-2.07-2.09-1.37,0-2.03.82-2.26,2.09Z"/>
        <path class="cls-4" d="M107.76,191.93c0-2.91,1.9-5.15,4.86-5.15,2.53,0,4.08,1.46,4.43,3.57h-2.53c-.17-.85-.84-1.5-1.79-1.5-1.56,0-2.36,1.2-2.36,3.08s.74,3.08,2.32,3.08c1.04,0,1.79-.55,1.96-1.65h2.49c-.17,2.07-1.79,3.72-4.39,3.72-3.08,0-5-2.24-5-5.15Z"/>
        <path class="cls-4" d="M117.69,187.05h1.35v-3.04h2.53v3.04h1.67v1.71h-1.67v5.17c0,.72.4.97.97.97.32,0,.76-.02.76-.02v1.9s-.59.04-1.62.04c-1.25,0-2.64-.49-2.64-2.34v-5.72h-1.35v-1.71Z"/>
        <path class="cls-4" d="M124.57,183.21h2.58v2.32h-2.58v-2.32ZM124.57,187.05h2.58v9.75h-2.58v-9.75Z"/>
        <path class="cls-4" d="M128.35,191.93c0-2.91,2.07-5.15,5.09-5.15s5.09,2.24,5.09,5.15-2.07,5.15-5.09,5.15-5.09-2.24-5.09-5.15ZM135.91,191.93c0-1.9-.89-3.19-2.47-3.19s-2.47,1.29-2.47,3.19.87,3.17,2.47,3.17,2.47-1.27,2.47-3.17Z"/>
        <path class="cls-4" d="M142.26,188.38h.06c.67-1.04,1.56-1.6,2.89-1.6,2.01,0,3.36,1.52,3.36,3.65v6.36h-2.58v-5.98c0-1.04-.61-1.79-1.69-1.79-1.14,0-1.98.91-1.98,2.24v5.53h-2.58v-9.75h2.53v1.33Z"/>
        <path class="cls-4" d="M159.19,195.71h-.04c-.49.74-1.2,1.31-2.87,1.31-2,0-3.4-1.04-3.4-2.98,0-2.15,1.75-2.83,3.91-3.13,1.62-.23,2.36-.36,2.36-1.1,0-.7-.55-1.16-1.63-1.16-1.22,0-1.8.44-1.88,1.37h-2.3c.08-1.71,1.35-3.21,4.2-3.21s4.1,1.31,4.1,3.59v4.96c0,.74.11,1.18.34,1.35v.09h-2.49c-.15-.19-.25-.65-.3-1.08ZM159.21,193.36v-1.46c-.46.27-1.16.42-1.8.57-1.35.3-2.01.61-2.01,1.52s.61,1.23,1.52,1.23c1.48,0,2.3-.91,2.3-1.86Z"/>
        <path class="cls-4" d="M165.8,188.38h.06c.67-1.04,1.56-1.6,2.89-1.6,2.01,0,3.36,1.52,3.36,3.65v6.36h-2.58v-5.98c0-1.04-.61-1.79-1.69-1.79-1.14,0-1.98.91-1.98,2.24v5.53h-2.58v-9.75h2.53v1.33Z"/>
        <path class="cls-4" d="M173.23,191.93c0-3.04,1.73-5.15,4.16-5.15,1.37,0,2.22.63,2.75,1.44h.06v-5.02h2.58v13.58h-2.49v-1.27h-.04c-.57.93-1.54,1.56-2.91,1.56-2.45,0-4.12-2-4.12-5.15ZM180.26,191.99c0-1.86-.61-3.12-2.26-3.12-1.42,0-2.15,1.25-2.15,3.06s.74,2.98,2.07,2.98c1.54,0,2.34-1.14,2.34-2.93Z"/>
        <path class="cls-4" d="M187.18,191.93c0-2.91,1.9-5.15,4.86-5.15,2.53,0,4.08,1.46,4.43,3.57h-2.53c-.17-.85-.84-1.5-1.79-1.5-1.56,0-2.36,1.2-2.36,3.08s.74,3.08,2.32,3.08c1.04,0,1.79-.55,1.96-1.65h2.49c-.17,2.07-1.79,3.72-4.39,3.72-3.08,0-5-2.24-5-5.15Z"/>
        <path class="cls-4" d="M200.17,188.61h.06c.59-1.1,1.25-1.67,2.39-1.67.29,0,.46.02.61.08v2.26h-.06c-1.69-.17-2.91.72-2.91,2.77v4.75h-2.58v-9.75h2.49v1.56Z"/>
        <path class="cls-4" d="M203.59,191.91c0-2.89,1.96-5.13,4.81-5.13,3.13,0,4.81,2.39,4.81,5.87h-7.07c.19,1.5,1.03,2.43,2.49,2.43,1.01,0,1.6-.46,1.88-1.2h2.55c-.36,1.73-1.9,3.19-4.41,3.19-3.23,0-5.05-2.26-5.05-5.17ZM206.17,190.87h4.33c-.08-1.24-.89-2.09-2.07-2.09-1.37,0-2.03.82-2.26,2.09Z"/>
        <path class="cls-4" d="M220.23,195.71h-.04c-.49.74-1.2,1.31-2.87,1.31-1.99,0-3.4-1.04-3.4-2.98,0-2.15,1.75-2.83,3.91-3.13,1.61-.23,2.36-.36,2.36-1.1,0-.7-.55-1.16-1.63-1.16-1.22,0-1.8.44-1.88,1.37h-2.3c.08-1.71,1.35-3.21,4.2-3.21s4.1,1.31,4.1,3.59v4.96c0,.74.11,1.18.34,1.35v.09h-2.49c-.15-.19-.25-.65-.3-1.08ZM220.25,193.36v-1.46c-.46.27-1.16.42-1.8.57-1.35.3-2.01.61-2.01,1.52s.61,1.23,1.52,1.23c1.48,0,2.3-.91,2.3-1.86Z"/>
        <path class="cls-4" d="M223.58,187.05h1.35v-3.04h2.53v3.04h1.67v1.71h-1.67v5.17c0,.72.4.97.97.97.32,0,.76-.02.76-.02v1.9s-.59.04-1.62.04c-1.25,0-2.64-.49-2.64-2.34v-5.72h-1.35v-1.71Z"/>
        <path class="cls-4" d="M230.46,183.21h2.58v2.32h-2.58v-2.32ZM230.46,187.05h2.58v9.75h-2.58v-9.75Z"/>
        <path class="cls-4" d="M233.91,187.05h2.62l1.56,5.05c.29.93.44,1.56.44,1.56h.04s.13-.63.42-1.56l1.6-5.05h2.58l-3.4,9.75h-2.47l-3.38-9.75Z"/>
        <path class="cls-4" d="M244.04,183.21h2.58v2.32h-2.58v-2.32ZM244.04,187.05h2.58v9.75h-2.58v-9.75Z"/>
        <path class="cls-4" d="M247.73,187.05h1.35v-3.04h2.53v3.04h1.67v1.71h-1.67v5.17c0,.72.4.97.97.97.32,0,.76-.02.76-.02v1.9s-.59.04-1.62.04c-1.25,0-2.64-.49-2.64-2.34v-5.72h-1.35v-1.71Z"/>
        <path class="cls-4" d="M255,197.95h.91c1.03,0,1.44-.53,1.44-1.33,0-.53-.19-1.16-.74-2.64l-2.62-6.93h2.72l1.44,4.39c.3.89.63,2.13.63,2.13h.04s.27-1.23.57-2.13l1.37-4.39h2.6l-3.4,9.99c-.74,2.17-1.46,2.94-3.44,2.94h-1.52v-2.03Z"/>
        <path class="cls-4" d="M263.06,194.04h2.77v2.75h-2.77v-2.75Z"/>
      </g>
    </g>
  </g>
</svg>