<?xml version="1.0" encoding="UTF-8"?>
<svg id="Layer_2" data-name="Layer 2" xmlns="http://www.w3.org/2000/svg" xmlns:xlink="http://www.w3.org/1999/xlink" viewBox="0 0 345.86 302.5">
  <defs>
    <style>
      .cls-1, .cls-2, .cls-3 {
        fill: none;
      }

      .cls-4 {
        fill: #231f20;
      }

      .cls-2 {
        stroke-miterlimit: 10;
      }

      .cls-2, .cls-3 {
        stroke: #231f20;
      }

      .cls-5 {
        fill: #fff;
      }

      .cls-6 {
        clip-path: url(#clippath);
      }

      .cls-7 {
        fill: #f37322;
      }
    </style>
    <clipPath id="clippath">
      <rect class="cls-1" width="345.86" height="302.5"/>
    </clipPath>
  </defs>
  <g id="Layer_1-2" data-name="Layer 1">
    <g>
      <rect class="cls-5" x="9.5" y="4" width="335.86" height="298"/>
      <g class="cls-6">
        <rect class="cls-2" x="9.5" y="4" width="335.86" height="298"/>
      </g>
      <rect class="cls-7" x="9.36" y="4" width="87.68" height="34.5"/>
      <rect class="cls-3" x="9.36" y="4" width="87.68" height="34.5"/>
      <g>
        <path class="cls-4" d="M21.32,15.74h4.05l1.86,7.14c.33,1.26.69,2.88.69,2.88h.06s.33-1.65.66-2.91l1.92-7.11h3.48l2.01,7.11c.33,1.29.72,2.91.72,2.91h.06s.36-1.62.69-2.88l1.95-7.14h3.96l-4.59,15.39h-3.72l-2.04-7.56c-.33-1.23-.69-2.67-.69-2.67h-.06s-.39,1.44-.72,2.67l-2.1,7.56h-3.69l-4.5-15.39Z"/>
        <path class="cls-4" d="M48.95,17.75h.09c1.11-1.62,2.37-2.43,4.47-2.43,3.18,0,5.31,2.4,5.31,5.76v10.05h-4.08v-9.45c0-1.65-.96-2.82-2.67-2.82-1.8,0-3.12,1.44-3.12,3.54v8.73h-4.08V9.68h4.08v8.07Z"/>
        <path class="cls-4" d="M70.55,29.42h-.06c-.78,1.17-1.89,2.07-4.53,2.07-3.15,0-5.37-1.65-5.37-4.71,0-3.39,2.76-4.47,6.18-4.95,2.55-.36,3.72-.57,3.72-1.74s-.87-1.83-2.58-1.83c-1.92,0-2.85.69-2.97,2.16h-3.63c.12-2.7,2.13-5.07,6.63-5.07s6.48,2.07,6.48,5.67v7.83c0,1.17.18,1.86.54,2.13v.15h-3.93c-.24-.3-.39-1.02-.48-1.71ZM70.58,25.7v-2.31c-.72.42-1.83.66-2.85.9-2.13.48-3.18.96-3.18,2.4s.96,1.95,2.4,1.95c2.34,0,3.63-1.44,3.63-2.94Z"/>
        <path class="cls-4" d="M75.83,15.74h2.13v-4.8h3.99v4.8h2.64v2.7h-2.64v8.16c0,1.14.63,1.53,1.53,1.53.51,0,1.2-.03,1.2-.03v3s-.93.06-2.55.06c-1.98,0-4.17-.78-4.17-3.69v-9.03h-2.13v-2.7Z"/>
      </g>
      <g>
        <path class="cls-4" d="M37.87,66.91c0-3.04,1.73-5.15,4.16-5.15,1.37,0,2.22.63,2.75,1.44h.06v-5.02h2.58v13.58h-2.49v-1.27h-.04c-.57.93-1.54,1.56-2.91,1.56-2.45,0-4.12-2-4.12-5.15ZM44.9,66.97c0-1.86-.61-3.12-2.26-3.12-1.42,0-2.15,1.25-2.15,3.06s.74,2.98,2.07,2.98c1.54,0,2.34-1.14,2.34-2.93Z"/>
        <path class="cls-4" d="M48.63,66.89c0-2.89,1.96-5.13,4.81-5.13,3.13,0,4.81,2.39,4.81,5.87h-7.07c.19,1.5,1.03,2.43,2.49,2.43,1.01,0,1.6-.46,1.88-1.2h2.55c-.36,1.73-1.9,3.19-4.41,3.19-3.23,0-5.05-2.26-5.05-5.17ZM51.21,65.85h4.33c-.08-1.24-.89-2.09-2.07-2.09-1.37,0-2.03.82-2.26,2.09Z"/>
        <path class="cls-4" d="M65.16,63.36h.06c.67-1.04,1.56-1.6,2.89-1.6,2.01,0,3.36,1.52,3.36,3.65v6.36h-2.58v-5.98c0-1.04-.61-1.79-1.69-1.79-1.14,0-1.98.91-1.98,2.24v5.53h-2.58v-9.75h2.53v1.33Z"/>
        <path class="cls-4" d="M73.06,58.19h2.58v2.32h-2.58v-2.32ZM73.06,62.03h2.58v9.75h-2.58v-9.75Z"/>
        <path class="cls-4" d="M76.84,66.89c0-2.89,1.96-5.13,4.81-5.13,3.13,0,4.81,2.39,4.81,5.87h-7.07c.19,1.5,1.03,2.43,2.49,2.43,1.01,0,1.6-.46,1.88-1.2h2.55c-.36,1.73-1.9,3.19-4.41,3.19-3.23,0-5.05-2.26-5.05-5.17ZM79.43,65.85h4.33c-.08-1.24-.89-2.09-2.07-2.09-1.37,0-2.03.82-2.26,2.09Z"/>
        <path class="cls-4" d="M93.81,71.77v-1.14h-.06c-.67.89-1.42,1.41-2.79,1.41-2.17,0-3.38-1.39-3.38-3.51v-6.5h2.56v6.06c0,1.14.51,1.77,1.62,1.77,1.22,0,1.96-.91,1.96-2.2v-5.62h2.58v9.75h-2.49Z"/>
        <path class="cls-4" d="M97.21,62.03h2.56l1.18,4.52c.21.8.44,1.82.44,1.82h.04s.21-1.04.42-1.84l1.22-4.5h2.2l1.27,4.5c.21.82.46,1.84.46,1.84h.04s.23-1.03.44-1.82l1.23-4.52h2.51l-2.91,9.75h-2.36l-1.29-4.79c-.21-.78-.44-1.69-.44-1.69h-.04s-.25.91-.46,1.69l-1.33,4.79h-2.34l-2.85-9.75Z"/>
        <path class="cls-4" d="M111.37,66.89c0-2.89,1.96-5.13,4.81-5.13,3.13,0,4.81,2.39,4.81,5.87h-7.07c.19,1.5,1.03,2.43,2.49,2.43,1.01,0,1.6-.46,1.88-1.2h2.55c-.36,1.73-1.9,3.19-4.41,3.19-3.23,0-5.05-2.26-5.05-5.17ZM113.95,65.85h4.33c-.08-1.24-.89-2.09-2.07-2.09-1.37,0-2.03.82-2.26,2.09Z"/>
        <path class="cls-4" d="M124.57,62.03h2.62l1.56,5.05c.29.93.44,1.56.44,1.56h.04s.13-.63.42-1.56l1.6-5.05h2.58l-3.4,9.75h-2.47l-3.38-9.75Z"/>
        <path class="cls-4" d="M133.96,66.89c0-2.89,1.96-5.13,4.81-5.13,3.13,0,4.81,2.39,4.81,5.87h-7.07c.19,1.5,1.03,2.43,2.49,2.43,1.01,0,1.6-.46,1.88-1.2h2.55c-.36,1.73-1.9,3.19-4.41,3.19-3.23,0-5.05-2.26-5.05-5.17ZM136.54,65.85h4.33c-.08-1.24-.89-2.09-2.07-2.09-1.37,0-2.03.82-2.26,2.09Z"/>
        <path class="cls-4" d="M147.26,63.59h.06c.59-1.1,1.25-1.67,2.39-1.67.28,0,.46.02.61.08v2.26h-.06c-1.69-.17-2.91.72-2.91,2.77v4.75h-2.58v-9.75h2.49v1.56Z"/>
        <path class="cls-4" d="M153.96,63.36h.06c.67-1.04,1.56-1.6,2.89-1.6,2.01,0,3.36,1.52,3.36,3.65v6.36h-2.58v-5.98c0-1.04-.61-1.79-1.69-1.79-1.14,0-1.98.91-1.98,2.24v5.53h-2.58v-9.75h2.53v1.33Z"/>
        <path class="cls-4" d="M161.87,58.19h2.58v2.32h-2.58v-2.32ZM161.87,62.03h2.58v9.75h-2.58v-9.75Z"/>
        <path class="cls-4" d="M165.52,68.62h2.39c.17,1.12.97,1.61,2.13,1.61s1.79-.44,1.79-1.12c0-.93-1.23-1.03-2.56-1.29-1.75-.34-3.46-.82-3.46-2.94s1.75-3.12,3.97-3.12c2.56,0,3.99,1.27,4.18,3.23h-2.34c-.11-1.04-.78-1.42-1.88-1.42-1.01,0-1.67.38-1.67,1.08,0,.84,1.29.91,2.68,1.2,1.63.34,3.44.8,3.44,3.08,0,1.96-1.67,3.13-4.1,3.13-2.83,0-4.41-1.37-4.56-3.44Z"/>
        <path class="cls-4" d="M174.73,68.62h2.39c.17,1.12.97,1.61,2.13,1.61s1.79-.44,1.79-1.12c0-.93-1.24-1.03-2.57-1.29-1.75-.34-3.46-.82-3.46-2.94s1.75-3.12,3.97-3.12c2.56,0,3.99,1.27,4.18,3.23h-2.34c-.11-1.04-.78-1.42-1.88-1.42-1.01,0-1.67.38-1.67,1.08,0,.84,1.29.91,2.68,1.2,1.63.34,3.44.8,3.44,3.08,0,1.96-1.67,3.13-4.1,3.13-2.83,0-4.41-1.37-4.56-3.44Z"/>
        <path class="cls-4" d="M190.46,70.69h-.04c-.49.74-1.2,1.31-2.87,1.31-1.99,0-3.4-1.04-3.4-2.98,0-2.15,1.75-2.83,3.91-3.13,1.61-.23,2.36-.36,2.36-1.1,0-.7-.55-1.16-1.63-1.16-1.22,0-1.8.44-1.88,1.37h-2.3c.08-1.71,1.35-3.21,4.2-3.21s4.1,1.31,4.1,3.59v4.96c0,.74.11,1.18.34,1.35v.09h-2.49c-.15-.19-.25-.65-.3-1.08ZM190.48,68.34v-1.46c-.46.27-1.16.42-1.8.57-1.35.3-2.01.61-2.01,1.52s.61,1.23,1.52,1.23c1.48,0,2.3-.91,2.3-1.86Z"/>
        <path class="cls-4" d="M194.28,72.06h2.56c.21.61.76,1.08,1.96,1.08,1.46,0,2.17-.7,2.17-2.03v-1.06h-.06c-.57.65-1.31,1.14-2.55,1.14-2.17,0-4.29-1.71-4.29-4.65s1.75-4.77,4.22-4.77c1.22,0,2.11.48,2.7,1.29h.04v-1.03h2.49v9c0,1.37-.44,2.3-1.16,2.96-.82.76-2.07,1.1-3.51,1.1-2.66,0-4.29-1.14-4.56-3.04ZM201.1,66.47c0-1.42-.76-2.64-2.32-2.64-1.31,0-2.18,1.03-2.18,2.66s.87,2.62,2.2,2.62c1.63,0,2.3-1.2,2.3-2.64Z"/>
        <path class="cls-4" d="M204.71,66.89c0-2.89,1.96-5.13,4.81-5.13,3.13,0,4.81,2.39,4.81,5.87h-7.07c.19,1.5,1.03,2.43,2.49,2.43,1.01,0,1.6-.46,1.88-1.2h2.55c-.36,1.73-1.9,3.19-4.41,3.19-3.23,0-5.05-2.26-5.05-5.17ZM207.3,65.85h4.33c-.08-1.24-.89-2.09-2.07-2.09-1.37,0-2.03.82-2.26,2.09Z"/>
        <path class="cls-4" d="M218.71,58.19h2.58v2.32h-2.58v-2.32ZM218.71,62.03h2.58v9.75h-2.58v-9.75Z"/>
        <path class="cls-4" d="M222.36,68.62h2.39c.17,1.12.97,1.61,2.13,1.61s1.79-.44,1.79-1.12c0-.93-1.23-1.03-2.56-1.29-1.75-.34-3.46-.82-3.46-2.94s1.75-3.12,3.97-3.12c2.56,0,3.99,1.27,4.18,3.23h-2.34c-.11-1.04-.78-1.42-1.88-1.42-1.01,0-1.67.38-1.67,1.08,0,.84,1.29.91,2.68,1.2,1.63.34,3.44.8,3.44,3.08,0,1.96-1.67,3.13-4.1,3.13-2.83,0-4.41-1.37-4.56-3.44Z"/>
        <path class="cls-4" d="M241.21,70.69h-.04c-.49.74-1.2,1.31-2.87,1.31-1.99,0-3.4-1.04-3.4-2.98,0-2.15,1.75-2.83,3.91-3.13,1.61-.23,2.36-.36,2.36-1.1,0-.7-.55-1.16-1.63-1.16-1.22,0-1.8.44-1.88,1.37h-2.3c.08-1.71,1.35-3.21,4.2-3.21s4.1,1.31,4.1,3.59v4.96c0,.74.11,1.18.34,1.35v.09h-2.49c-.15-.19-.25-.65-.3-1.08ZM241.23,68.34v-1.46c-.46.27-1.16.42-1.8.57-1.35.3-2.01.61-2.01,1.52s.61,1.23,1.52,1.23c1.48,0,2.3-.91,2.3-1.86Z"/>
        <path class="cls-4" d="M248.49,62.03h2.49v1.22h.06c.63-.86,1.54-1.48,2.87-1.48,2.58,0,4.24,2.11,4.24,5.15s-1.71,5.15-4.22,5.15c-1.37,0-2.26-.55-2.81-1.39h-.04v4.29h-2.58v-12.94ZM255.52,66.99c0-1.84-.65-3.13-2.24-3.13s-2.26,1.39-2.26,3.13.82,2.93,2.36,2.93c1.31,0,2.15-1.08,2.15-2.93Z"/>
        <path class="cls-4" d="M258.86,66.91c0-2.91,2.07-5.15,5.09-5.15s5.09,2.24,5.09,5.15-2.07,5.15-5.09,5.15-5.09-2.24-5.09-5.15ZM266.42,66.91c0-1.9-.89-3.19-2.47-3.19s-2.47,1.29-2.47,3.19.87,3.17,2.47,3.17,2.47-1.27,2.47-3.17Z"/>
        <path class="cls-4" d="M270.24,62.03h2.49v1.22h.06c.63-.86,1.54-1.48,2.87-1.48,2.58,0,4.24,2.11,4.24,5.15s-1.71,5.15-4.22,5.15c-1.37,0-2.26-.55-2.81-1.39h-.04v4.29h-2.58v-12.94ZM277.27,66.99c0-1.84-.65-3.13-2.24-3.13s-2.26,1.39-2.26,3.13.82,2.93,2.36,2.93c1.31,0,2.15-1.08,2.15-2.93Z"/>
        <path class="cls-4" d="M280.9,65.96h5.15v2.22h-5.15v-2.22Z"/>
        <path class="cls-4" d="M293.69,71.77v-1.14h-.06c-.67.89-1.42,1.41-2.79,1.41-2.17,0-3.38-1.39-3.38-3.51v-6.5h2.56v6.06c0,1.14.51,1.77,1.62,1.77,1.22,0,1.96-.91,1.96-2.2v-5.62h2.58v9.75h-2.49Z"/>
        <path class="cls-4" d="M297.85,62.03h2.49v1.22h.06c.63-.86,1.54-1.48,2.87-1.48,2.58,0,4.24,2.11,4.24,5.15s-1.71,5.15-4.22,5.15c-1.37,0-2.26-.55-2.81-1.39h-.04v4.29h-2.58v-12.94ZM304.88,66.99c0-1.84-.65-3.13-2.24-3.13s-2.26,1.39-2.26,3.13.82,2.93,2.36,2.93c1.31,0,2.15-1.08,2.15-2.93Z"/>
      </g>
      <g>
        <path class="cls-4" d="M38.08,97.06h2.57c.21.61.76,1.08,1.96,1.08,1.46,0,2.17-.7,2.17-2.03v-1.06h-.06c-.57.65-1.31,1.14-2.54,1.14-2.17,0-4.29-1.71-4.29-4.65s1.75-4.77,4.22-4.77c1.22,0,2.11.48,2.7,1.29h.04v-1.03h2.49v9c0,1.37-.44,2.3-1.16,2.96-.82.76-2.07,1.1-3.51,1.1-2.66,0-4.29-1.14-4.56-3.04ZM44.9,91.48c0-1.42-.76-2.64-2.32-2.64-1.31,0-2.18,1.03-2.18,2.66s.87,2.62,2.2,2.62c1.63,0,2.3-1.2,2.3-2.64Z"/>
        <path class="cls-4" d="M54.82,95.7h-.04c-.49.74-1.2,1.31-2.87,1.31-2,0-3.4-1.04-3.4-2.98,0-2.15,1.75-2.83,3.91-3.13,1.62-.23,2.36-.36,2.36-1.1,0-.7-.55-1.16-1.63-1.16-1.22,0-1.8.44-1.88,1.37h-2.3c.08-1.71,1.35-3.21,4.2-3.21s4.1,1.31,4.1,3.59v4.96c0,.74.11,1.18.34,1.35v.09h-2.49c-.15-.19-.25-.65-.3-1.08ZM54.84,93.34v-1.46c-.46.27-1.16.42-1.8.57-1.35.3-2.01.61-2.01,1.52s.61,1.23,1.52,1.23c1.48,0,2.3-.91,2.3-1.86Z"/>
        <path class="cls-4" d="M58.95,83.2h2.58v13.58h-2.58v-13.58Z"/>
        <path class="cls-4" d="M63.28,83.2h2.58v13.58h-2.58v-13.58Z"/>
        <path class="cls-4" d="M67.1,91.9c0-2.89,1.96-5.13,4.81-5.13,3.13,0,4.81,2.39,4.81,5.87h-7.07c.19,1.5,1.03,2.43,2.49,2.43,1.01,0,1.6-.46,1.88-1.2h2.55c-.36,1.73-1.9,3.19-4.41,3.19-3.23,0-5.05-2.26-5.05-5.17ZM69.68,90.85h4.33c-.08-1.24-.89-2.09-2.07-2.09-1.37,0-2.03.82-2.26,2.09Z"/>
        <path class="cls-4" d="M80.4,88.59h.06c.59-1.1,1.25-1.67,2.39-1.67.28,0,.46.02.61.08v2.26h-.06c-1.69-.17-2.91.72-2.91,2.77v4.75h-2.58v-9.75h2.49v1.56Z"/>
        <path class="cls-4" d="M84.88,97.94h.91c1.03,0,1.44-.53,1.44-1.33,0-.53-.19-1.16-.74-2.64l-2.62-6.93h2.72l1.44,4.39c.3.89.63,2.13.63,2.13h.04s.27-1.23.57-2.13l1.37-4.39h2.6l-3.4,9.99c-.74,2.17-1.46,2.94-3.44,2.94h-1.52v-2.03Z"/>
        <path class="cls-4" d="M96.74,87.03h1.35v-3.04h2.53v3.04h1.67v1.71h-1.67v5.17c0,.72.4.97.97.97.32,0,.76-.02.76-.02v1.9s-.59.04-1.62.04c-1.25,0-2.64-.49-2.64-2.34v-5.72h-1.35v-1.71Z"/>
        <path class="cls-4" d="M106.2,88.31h.06c.7-1.03,1.5-1.54,2.83-1.54,2.01,0,3.36,1.52,3.36,3.65v6.36h-2.58v-5.98c0-1.04-.61-1.79-1.69-1.79-1.14,0-1.98.91-1.98,2.24v5.53h-2.58v-13.58h2.58v5.11Z"/>
        <path class="cls-4" d="M119.88,95.7h-.04c-.49.74-1.2,1.31-2.87,1.31-2,0-3.4-1.04-3.4-2.98,0-2.15,1.75-2.83,3.91-3.13,1.62-.23,2.36-.36,2.36-1.1,0-.7-.55-1.16-1.63-1.16-1.22,0-1.8.44-1.88,1.37h-2.3c.08-1.71,1.35-3.21,4.2-3.21s4.1,1.31,4.1,3.59v4.96c0,.74.11,1.18.34,1.35v.09h-2.49c-.15-.19-.25-.65-.3-1.08ZM119.9,93.34v-1.46c-.46.27-1.16.42-1.8.57-1.35.3-2.01.61-2.01,1.52s.61,1.23,1.52,1.23c1.48,0,2.3-.91,2.3-1.86Z"/>
        <path class="cls-4" d="M123.2,87.03h1.35v-3.04h2.53v3.04h1.67v1.71h-1.67v5.17c0,.72.4.97.97.97.32,0,.76-.02.76-.02v1.9s-.59.04-1.62.04c-1.25,0-2.64-.49-2.64-2.34v-5.72h-1.35v-1.71Z"/>
        <path class="cls-4" d="M133.27,87.03h2.49v1.22h.06c.63-.86,1.54-1.48,2.87-1.48,2.58,0,4.24,2.11,4.24,5.15s-1.71,5.15-4.22,5.15c-1.37,0-2.26-.55-2.81-1.39h-.04v4.29h-2.58v-12.94ZM140.3,91.99c0-1.84-.65-3.13-2.24-3.13s-2.26,1.39-2.26,3.13.82,2.93,2.36,2.93c1.31,0,2.15-1.08,2.15-2.93Z"/>
        <path class="cls-4" d="M146.61,88.59h.06c.59-1.1,1.25-1.67,2.39-1.67.28,0,.46.02.61.08v2.26h-.06c-1.69-.17-2.91.72-2.91,2.77v4.75h-2.58v-9.75h2.49v1.56Z"/>
        <path class="cls-4" d="M150.03,91.91c0-2.91,2.07-5.15,5.09-5.15s5.09,2.24,5.09,5.15-2.07,5.15-5.09,5.15-5.09-2.24-5.09-5.15ZM157.59,91.91c0-1.9-.89-3.19-2.47-3.19s-2.47,1.29-2.47,3.19.87,3.17,2.47,3.17,2.47-1.27,2.47-3.17Z"/>
        <path class="cls-4" d="M160.35,87.03h2.62l1.56,5.05c.29.93.44,1.56.44,1.56h.04s.13-.63.42-1.56l1.6-5.05h2.58l-3.4,9.75h-2.47l-3.38-9.75Z"/>
        <path class="cls-4" d="M170.47,83.2h2.58v2.32h-2.58v-2.32ZM170.47,87.03h2.58v9.75h-2.58v-9.75Z"/>
        <path class="cls-4" d="M174.25,91.91c0-3.04,1.73-5.15,4.16-5.15,1.37,0,2.22.63,2.75,1.44h.06v-5.02h2.58v13.58h-2.49v-1.27h-.04c-.57.93-1.54,1.56-2.91,1.56-2.45,0-4.12-2-4.12-5.15ZM181.28,91.97c0-1.86-.61-3.12-2.26-3.12-1.42,0-2.15,1.25-2.15,3.06s.74,2.98,2.07,2.98c1.54,0,2.34-1.14,2.34-2.93Z"/>
        <path class="cls-4" d="M185.01,91.9c0-2.89,1.96-5.13,4.81-5.13,3.13,0,4.81,2.39,4.81,5.87h-7.07c.19,1.5,1.03,2.43,2.49,2.43,1.01,0,1.6-.46,1.88-1.2h2.55c-.36,1.73-1.9,3.19-4.41,3.19-3.23,0-5.05-2.26-5.05-5.17ZM187.59,90.85h4.33c-.08-1.24-.89-2.09-2.07-2.09-1.37,0-2.03.82-2.26,2.09Z"/>
        <path class="cls-4" d="M195.21,93.62h2.39c.17,1.12.97,1.61,2.13,1.61s1.79-.44,1.79-1.12c0-.93-1.24-1.03-2.57-1.29-1.75-.34-3.46-.82-3.46-2.94s1.75-3.12,3.97-3.12c2.56,0,3.99,1.27,4.18,3.23h-2.34c-.11-1.04-.78-1.42-1.88-1.42-1.01,0-1.67.38-1.67,1.08,0,.84,1.29.91,2.68,1.2,1.63.34,3.44.8,3.44,3.08,0,1.96-1.67,3.13-4.1,3.13-2.83,0-4.41-1.37-4.56-3.44Z"/>
        <path class="cls-4" d="M214.06,95.7h-.04c-.49.74-1.2,1.31-2.87,1.31-2,0-3.4-1.04-3.4-2.98,0-2.15,1.75-2.83,3.91-3.13,1.62-.23,2.36-.36,2.36-1.1,0-.7-.55-1.16-1.63-1.16-1.22,0-1.8.44-1.88,1.37h-2.3c.08-1.71,1.35-3.21,4.2-3.21s4.1,1.31,4.1,3.59v4.96c0,.74.11,1.18.34,1.35v.09h-2.49c-.15-.19-.25-.65-.3-1.08ZM214.08,93.34v-1.46c-.46.27-1.16.42-1.8.57-1.35.3-2.01.61-2.01,1.52s.61,1.23,1.52,1.23c1.48,0,2.3-.91,2.3-1.86Z"/>
        <path class="cls-4" d="M221.34,87.03h2.49v1.22h.06c.63-.86,1.54-1.48,2.87-1.48,2.58,0,4.24,2.11,4.24,5.15s-1.71,5.15-4.22,5.15c-1.37,0-2.26-.55-2.81-1.39h-.04v4.29h-2.58v-12.94ZM228.36,91.99c0-1.84-.65-3.13-2.24-3.13s-2.26,1.39-2.26,3.13.82,2.93,2.36,2.93c1.31,0,2.15-1.08,2.15-2.93Z"/>
        <path class="cls-4" d="M232.22,83.2h2.58v13.58h-2.58v-13.58Z"/>
        <path class="cls-4" d="M242.35,95.7h-.04c-.49.74-1.2,1.31-2.87,1.31-1.99,0-3.4-1.04-3.4-2.98,0-2.15,1.75-2.83,3.91-3.13,1.61-.23,2.36-.36,2.36-1.1,0-.7-.55-1.16-1.63-1.16-1.22,0-1.8.44-1.88,1.37h-2.3c.08-1.71,1.35-3.21,4.2-3.21s4.1,1.31,4.1,3.59v4.96c0,.74.11,1.18.34,1.35v.09h-2.49c-.15-.19-.25-.65-.3-1.08ZM242.37,93.34v-1.46c-.46.27-1.16.42-1.8.57-1.35.3-2.01.61-2.01,1.52s.61,1.23,1.52,1.23c1.48,0,2.3-.91,2.3-1.86Z"/>
        <path class="cls-4" d="M245.68,87.03h1.35v-3.04h2.53v3.04h1.67v1.71h-1.67v5.17c0,.72.4.97.97.97.32,0,.76-.02.76-.02v1.9s-.59.04-1.61.04c-1.25,0-2.64-.49-2.64-2.34v-5.72h-1.35v-1.71Z"/>
        <path class="cls-4" d="M251.77,87.03h1.33v-.87c0-2.38,1.84-3.21,4.33-2.95v2c-1.22-.06-1.75.09-1.75,1.1v.72h1.75v1.79h-1.75v7.96h-2.58v-7.96h-1.33v-1.79Z"/>
        <path class="cls-4" d="M257.87,91.91c0-2.91,2.07-5.15,5.09-5.15s5.09,2.24,5.09,5.15-2.07,5.15-5.09,5.15-5.09-2.24-5.09-5.15ZM265.43,91.91c0-1.9-.89-3.19-2.47-3.19s-2.47,1.29-2.47,3.19.87,3.17,2.47,3.17,2.47-1.27,2.47-3.17Z"/>
        <path class="cls-4" d="M271.74,88.59h.06c.59-1.1,1.25-1.67,2.39-1.67.28,0,.46.02.61.08v2.26h-.06c-1.69-.17-2.91.72-2.91,2.77v4.75h-2.58v-9.75h2.49v1.56Z"/>
        <path class="cls-4" d="M275.92,87.03h2.49v1.31h.06c.53-.89,1.48-1.58,2.83-1.58,1.23,0,2.22.68,2.7,1.71h.04c.67-1.06,1.69-1.71,2.93-1.71,2.05,0,3.21,1.33,3.21,3.46v6.55h-2.58v-6.12c0-1.1-.55-1.67-1.5-1.67-1.08,0-1.75.84-1.75,2.13v5.66h-2.58v-6.12c0-1.1-.55-1.67-1.5-1.67-1.04,0-1.75.84-1.75,2.13v5.66h-2.58v-9.75Z"/>
      </g>
      <g>
        <path class="cls-4" d="M37.78,112.04h1.33v-.87c0-2.38,1.84-3.21,4.33-2.95v2c-1.22-.06-1.75.09-1.75,1.1v.72h1.75v1.79h-1.75v7.96h-2.58v-7.96h-1.33v-1.79Z"/>
        <path class="cls-4" d="M43.88,116.92c0-2.91,2.07-5.15,5.09-5.15s5.09,2.24,5.09,5.15-2.07,5.15-5.09,5.15-5.09-2.24-5.09-5.15ZM51.44,116.92c0-1.9-.89-3.19-2.47-3.19s-2.47,1.29-2.47,3.19.87,3.17,2.47,3.17,2.47-1.27,2.47-3.17Z"/>
        <path class="cls-4" d="M57.75,113.59h.06c.59-1.1,1.25-1.67,2.39-1.67.29,0,.46.02.61.08v2.26h-.06c-1.69-.17-2.91.72-2.91,2.77v4.75h-2.58v-9.75h2.49v1.56Z"/>
        <path class="cls-4" d="M65.33,122.94h.91c1.03,0,1.44-.53,1.44-1.33,0-.53-.19-1.16-.74-2.64l-2.62-6.93h2.72l1.44,4.39c.3.89.63,2.13.63,2.13h.04s.27-1.23.57-2.13l1.37-4.39h2.6l-3.4,9.99c-.74,2.17-1.46,2.94-3.44,2.94h-1.52v-2.03Z"/>
        <path class="cls-4" d="M73.8,116.92c0-2.91,2.07-5.15,5.09-5.15s5.09,2.24,5.09,5.15-2.07,5.15-5.09,5.15-5.09-2.24-5.09-5.15ZM81.36,116.92c0-1.9-.89-3.19-2.47-3.19s-2.47,1.29-2.47,3.19.87,3.17,2.47,3.17,2.47-1.27,2.47-3.17Z"/>
        <path class="cls-4" d="M91.34,121.78v-1.14h-.06c-.67.89-1.42,1.41-2.79,1.41-2.17,0-3.38-1.39-3.38-3.51v-6.5h2.56v6.06c0,1.14.51,1.77,1.62,1.77,1.22,0,1.96-.91,1.96-2.2v-5.62h2.58v9.75h-2.49Z"/>
        <path class="cls-4" d="M98.03,113.37h.06c.67-1.04,1.56-1.6,2.89-1.6,2.01,0,3.36,1.52,3.36,3.65v6.36h-2.58v-5.98c0-1.04-.61-1.79-1.69-1.79-1.14,0-1.98.91-1.98,2.24v5.53h-2.58v-9.75h2.53v1.33Z"/>
        <path class="cls-4" d="M105.67,122.07h2.57c.21.61.76,1.08,1.96,1.08,1.46,0,2.17-.7,2.17-2.03v-1.06h-.06c-.57.65-1.31,1.14-2.54,1.14-2.17,0-4.29-1.71-4.29-4.65s1.75-4.77,4.22-4.77c1.22,0,2.11.48,2.7,1.29h.04v-1.03h2.49v9c0,1.37-.44,2.3-1.16,2.96-.82.76-2.07,1.1-3.51,1.1-2.66,0-4.29-1.14-4.56-3.04ZM112.49,116.48c0-1.42-.76-2.64-2.32-2.64-1.31,0-2.18,1.03-2.18,2.66s.87,2.62,2.2,2.62c1.63,0,2.3-1.2,2.3-2.64Z"/>
        <path class="cls-4" d="M125.6,120.7h-.04c-.49.74-1.2,1.31-2.87,1.31-1.99,0-3.4-1.04-3.4-2.98,0-2.15,1.75-2.83,3.91-3.13,1.61-.23,2.36-.36,2.36-1.1,0-.7-.55-1.16-1.63-1.16-1.22,0-1.8.44-1.88,1.37h-2.3c.08-1.71,1.35-3.21,4.2-3.21s4.1,1.31,4.1,3.59v4.96c0,.74.11,1.18.34,1.35v.09h-2.49c-.15-.19-.25-.65-.3-1.08ZM125.61,118.34v-1.46c-.46.27-1.16.42-1.8.57-1.35.3-2.01.61-2.01,1.52s.61,1.23,1.52,1.23c1.48,0,2.3-.91,2.3-1.86Z"/>
        <path class="cls-4" d="M132.17,113.59h.06c.59-1.1,1.25-1.67,2.39-1.67.28,0,.46.02.61.08v2.26h-.06c-1.69-.17-2.91.72-2.91,2.77v4.75h-2.58v-9.75h2.49v1.56Z"/>
        <path class="cls-4" d="M135.86,112.04h1.35v-3.04h2.53v3.04h1.67v1.71h-1.67v5.17c0,.72.4.97.97.97.32,0,.76-.02.76-.02v1.9s-.59.04-1.61.04c-1.25,0-2.64-.49-2.64-2.34v-5.72h-1.35v-1.71Z"/>
        <path class="cls-4" d="M142.73,108.2h2.58v2.32h-2.58v-2.32ZM142.73,112.04h2.58v9.75h-2.58v-9.75Z"/>
        <path class="cls-4" d="M146.38,118.63h2.39c.17,1.12.97,1.61,2.13,1.61s1.79-.44,1.79-1.12c0-.93-1.24-1.03-2.57-1.29-1.75-.34-3.46-.82-3.46-2.94s1.75-3.12,3.97-3.12c2.56,0,3.99,1.27,4.18,3.23h-2.34c-.11-1.04-.78-1.42-1.88-1.42-1.01,0-1.67.38-1.67,1.08,0,.84,1.29.91,2.68,1.2,1.63.34,3.44.8,3.44,3.08,0,1.96-1.67,3.13-4.1,3.13-2.83,0-4.41-1.37-4.56-3.44Z"/>
        <path class="cls-4" d="M155.46,112.04h1.35v-3.04h2.53v3.04h1.67v1.71h-1.67v5.17c0,.72.4.97.97.97.32,0,.76-.02.76-.02v1.9s-.59.04-1.61.04c-1.25,0-2.64-.49-2.64-2.34v-5.72h-1.35v-1.71Z"/>
        <path class="cls-4" d="M161.83,118.63h2.39c.17,1.12.97,1.61,2.13,1.61s1.79-.44,1.79-1.12c0-.93-1.24-1.03-2.57-1.29-1.75-.34-3.46-.82-3.46-2.94s1.75-3.12,3.97-3.12c2.56,0,3.99,1.27,4.18,3.23h-2.34c-.11-1.04-.78-1.42-1.88-1.42-1.01,0-1.67.38-1.67,1.08,0,.84,1.29.91,2.68,1.2,1.63.34,3.44.8,3.44,3.08,0,1.96-1.67,3.13-4.1,3.13-2.83,0-4.41-1.37-4.56-3.44Z"/>
        <path class="cls-4" d="M174.08,112.04h2.56l1.18,4.52c.21.8.44,1.82.44,1.82h.04s.21-1.04.42-1.84l1.22-4.5h2.2l1.27,4.5c.21.82.46,1.84.46,1.84h.04s.23-1.03.44-1.82l1.23-4.52h2.51l-2.91,9.75h-2.36l-1.29-4.79c-.21-.78-.44-1.69-.44-1.69h-.04s-.25.91-.46,1.69l-1.33,4.79h-2.34l-2.85-9.75Z"/>
        <path class="cls-4" d="M191.58,113.31h.06c.7-1.03,1.5-1.54,2.83-1.54,2.01,0,3.36,1.52,3.36,3.65v6.36h-2.58v-5.98c0-1.04-.61-1.79-1.69-1.79-1.14,0-1.98.91-1.98,2.24v5.53h-2.58v-13.58h2.58v5.11Z"/>
        <path class="cls-4" d="M199.43,108.2h2.58v2.32h-2.58v-2.32ZM199.43,112.04h2.58v9.75h-2.58v-9.75Z"/>
        <path class="cls-4" d="M203.72,108.2h2.58v13.58h-2.58v-13.58Z"/>
        <path class="cls-4" d="M207.54,116.9c0-2.89,1.96-5.13,4.81-5.13,3.13,0,4.81,2.39,4.81,5.87h-7.07c.19,1.5,1.03,2.43,2.49,2.43,1.01,0,1.6-.46,1.88-1.2h2.55c-.36,1.73-1.9,3.19-4.41,3.19-3.23,0-5.05-2.26-5.05-5.17ZM210.13,115.86h4.33c-.08-1.24-.89-2.09-2.07-2.09-1.37,0-2.03.82-2.26,2.09Z"/>
        <path class="cls-4" d="M221.55,108.2h2.58v2.32h-2.58v-2.32ZM221.55,112.04h2.58v9.75h-2.58v-9.75Z"/>
        <path class="cls-4" d="M228.33,113.37h.06c.67-1.04,1.56-1.6,2.89-1.6,2.01,0,3.36,1.52,3.36,3.65v6.36h-2.58v-5.98c0-1.04-.61-1.79-1.69-1.79-1.14,0-1.98.91-1.98,2.24v5.53h-2.58v-9.75h2.53v1.33Z"/>
        <path class="cls-4" d="M235.24,112.04h2.62l1.56,5.05c.29.93.44,1.56.44,1.56h.04s.13-.63.42-1.56l1.6-5.05h2.58l-3.4,9.75h-2.47l-3.38-9.75Z"/>
        <path class="cls-4" d="M245.37,108.2h2.58v2.32h-2.58v-2.32ZM245.37,112.04h2.58v9.75h-2.58v-9.75Z"/>
        <path class="cls-4" d="M249.06,112.04h1.35v-3.04h2.53v3.04h1.67v1.71h-1.67v5.17c0,.72.4.97.97.97.32,0,.76-.02.76-.02v1.9s-.59.04-1.61.04c-1.25,0-2.64-.49-2.64-2.34v-5.72h-1.35v-1.71Z"/>
        <path class="cls-4" d="M255.93,108.2h2.58v2.32h-2.58v-2.32ZM255.93,112.04h2.58v9.75h-2.58v-9.75Z"/>
        <path class="cls-4" d="M262.72,113.37h.06c.67-1.04,1.56-1.6,2.89-1.6,2.01,0,3.36,1.52,3.36,3.65v6.36h-2.58v-5.98c0-1.04-.61-1.79-1.69-1.79-1.14,0-1.98.91-1.98,2.24v5.53h-2.58v-9.75h2.53v1.33Z"/>
        <path class="cls-4" d="M270.35,122.07h2.57c.21.61.76,1.08,1.96,1.08,1.46,0,2.17-.7,2.17-2.03v-1.06h-.06c-.57.65-1.31,1.14-2.54,1.14-2.17,0-4.29-1.71-4.29-4.65s1.75-4.77,4.22-4.77c1.22,0,2.11.48,2.7,1.29h.04v-1.03h2.49v9c0,1.37-.44,2.3-1.16,2.96-.82.76-2.07,1.1-3.51,1.1-2.66,0-4.29-1.14-4.56-3.04ZM277.18,116.48c0-1.42-.76-2.64-2.32-2.64-1.31,0-2.18,1.03-2.18,2.66s.87,2.62,2.2,2.62c1.63,0,2.3-1.2,2.3-2.64Z"/>
        <path class="cls-4" d="M283.88,112.04h1.35v-3.04h2.53v3.04h1.67v1.71h-1.67v5.17c0,.72.4.97.97.97.32,0,.76-.02.76-.02v1.9s-.59.04-1.62.04c-1.25,0-2.64-.49-2.64-2.34v-5.72h-1.35v-1.71Z"/>
        <path class="cls-4" d="M293.34,113.31h.06c.7-1.03,1.5-1.54,2.83-1.54,2.01,0,3.36,1.52,3.36,3.65v6.36h-2.58v-5.98c0-1.04-.61-1.79-1.69-1.79-1.14,0-1.98.91-1.98,2.24v5.53h-2.58v-13.58h2.58v5.11Z"/>
        <path class="cls-4" d="M300.72,116.9c0-2.89,1.96-5.13,4.81-5.13,3.13,0,4.81,2.39,4.81,5.87h-7.07c.19,1.5,1.03,2.43,2.49,2.43,1.01,0,1.6-.46,1.88-1.2h2.55c-.36,1.73-1.9,3.19-4.41,3.19-3.23,0-5.05-2.26-5.05-5.17ZM303.3,115.86h4.33c-.08-1.24-.89-2.09-2.07-2.09-1.37,0-2.03.82-2.26,2.09Z"/>
      </g>
      <g>
        <path class="cls-4" d="M37.87,141.92c0-2.91,2.07-5.15,5.09-5.15s5.09,2.24,5.09,5.15-2.07,5.15-5.09,5.15-5.09-2.24-5.09-5.15ZM45.44,141.92c0-1.9-.89-3.19-2.47-3.19s-2.47,1.29-2.47,3.19.87,3.17,2.47,3.17,2.47-1.27,2.47-3.17Z"/>
        <path class="cls-4" d="M49.29,133.2h2.58v13.58h-2.58v-13.58Z"/>
        <path class="cls-4" d="M53.11,141.92c0-3.04,1.73-5.15,4.16-5.15,1.37,0,2.22.63,2.75,1.44h.06v-5.02h2.58v13.58h-2.49v-1.27h-.04c-.57.93-1.54,1.56-2.91,1.56-2.45,0-4.12-2-4.12-5.15ZM60.14,141.98c0-1.86-.61-3.12-2.26-3.12-1.42,0-2.15,1.25-2.15,3.06s.74,2.98,2.07,2.98c1.54,0,2.34-1.14,2.34-2.93Z"/>
        <path class="cls-4" d="M63.87,141.9c0-2.89,1.96-5.13,4.81-5.13,3.13,0,4.81,2.39,4.81,5.87h-7.07c.19,1.5,1.03,2.43,2.49,2.43,1.01,0,1.6-.46,1.88-1.2h2.55c-.36,1.73-1.9,3.19-4.41,3.19-3.23,0-5.05-2.26-5.05-5.17ZM66.45,140.86h4.33c-.08-1.24-.89-2.09-2.07-2.09-1.37,0-2.03.82-2.26,2.09Z"/>
        <path class="cls-4" d="M77.17,138.6h.06c.59-1.1,1.25-1.67,2.39-1.67.29,0,.46.02.61.08v2.26h-.06c-1.69-.17-2.91.72-2.91,2.77v4.75h-2.58v-9.75h2.49v1.56Z"/>
        <path class="cls-4" d="M84.27,147.07h2.57c.21.61.76,1.08,1.96,1.08,1.46,0,2.17-.7,2.17-2.03v-1.06h-.06c-.57.65-1.31,1.14-2.54,1.14-2.17,0-4.29-1.71-4.29-4.65s1.75-4.77,4.22-4.77c1.22,0,2.11.48,2.7,1.29h.04v-1.03h2.49v9c0,1.37-.44,2.3-1.16,2.96-.82.76-2.07,1.1-3.51,1.1-2.66,0-4.29-1.14-4.56-3.04ZM91.09,141.49c0-1.42-.76-2.64-2.32-2.64-1.31,0-2.18,1.03-2.18,2.66s.87,2.62,2.2,2.62c1.63,0,2.3-1.2,2.3-2.64Z"/>
        <path class="cls-4" d="M94.7,141.9c0-2.89,1.96-5.13,4.81-5.13,3.13,0,4.81,2.39,4.81,5.87h-7.07c.19,1.5,1.03,2.43,2.49,2.43,1.01,0,1.6-.46,1.88-1.2h2.55c-.36,1.73-1.9,3.19-4.41,3.19-3.23,0-5.05-2.26-5.05-5.17ZM97.29,140.86h4.33c-.08-1.24-.89-2.09-2.07-2.09-1.37,0-2.03.82-2.26,2.09Z"/>
        <path class="cls-4" d="M108.04,138.37h.06c.67-1.04,1.56-1.6,2.89-1.6,2.01,0,3.36,1.52,3.36,3.65v6.36h-2.58v-5.98c0-1.04-.61-1.79-1.69-1.79-1.14,0-1.98.91-1.98,2.24v5.53h-2.58v-9.75h2.53v1.33Z"/>
        <path class="cls-4" d="M115.47,141.9c0-2.89,1.96-5.13,4.81-5.13,3.13,0,4.81,2.39,4.81,5.87h-7.07c.19,1.5,1.03,2.43,2.49,2.43,1.01,0,1.6-.46,1.88-1.2h2.55c-.36,1.73-1.9,3.19-4.41,3.19-3.23,0-5.05-2.26-5.05-5.17ZM118.05,140.86h4.33c-.08-1.24-.89-2.09-2.07-2.09-1.37,0-2.03.82-2.26,2.09Z"/>
        <path class="cls-4" d="M128.77,138.6h.06c.59-1.1,1.25-1.67,2.39-1.67.29,0,.46.02.61.08v2.26h-.06c-1.69-.17-2.91.72-2.91,2.77v4.75h-2.58v-9.75h2.49v1.56Z"/>
        <path class="cls-4" d="M138.5,145.7h-.04c-.49.74-1.2,1.31-2.87,1.31-2,0-3.4-1.04-3.4-2.98,0-2.15,1.75-2.83,3.91-3.13,1.62-.23,2.36-.36,2.36-1.1,0-.7-.55-1.16-1.63-1.16-1.22,0-1.8.44-1.88,1.37h-2.3c.08-1.71,1.35-3.21,4.2-3.21s4.1,1.31,4.1,3.59v4.96c0,.74.11,1.18.34,1.35v.09h-2.49c-.15-.19-.25-.65-.3-1.08ZM138.52,143.35v-1.46c-.46.27-1.16.42-1.8.57-1.35.3-2.01.61-2.01,1.52s.61,1.23,1.52,1.23c1.48,0,2.3-.91,2.3-1.86Z"/>
        <path class="cls-4" d="M141.84,137.04h1.35v-3.04h2.53v3.04h1.67v1.71h-1.67v5.17c0,.72.4.97.97.97.32,0,.76-.02.76-.02v1.9s-.59.04-1.62.04c-1.25,0-2.64-.49-2.64-2.34v-5.72h-1.35v-1.71Z"/>
        <path class="cls-4" d="M148.72,133.2h2.58v2.32h-2.58v-2.32ZM148.72,137.04h2.58v9.75h-2.58v-9.75Z"/>
        <path class="cls-4" d="M152.5,141.92c0-2.91,2.07-5.15,5.09-5.15s5.09,2.24,5.09,5.15-2.07,5.15-5.09,5.15-5.09-2.24-5.09-5.15ZM160.06,141.92c0-1.9-.89-3.19-2.47-3.19s-2.47,1.29-2.47,3.19.87,3.17,2.47,3.17,2.47-1.27,2.47-3.17Z"/>
        <path class="cls-4" d="M166.41,138.37h.06c.67-1.04,1.56-1.6,2.89-1.6,2.01,0,3.36,1.52,3.36,3.65v6.36h-2.58v-5.98c0-1.04-.61-1.79-1.69-1.79-1.14,0-1.98.91-1.98,2.24v5.53h-2.58v-9.75h2.53v1.33Z"/>
        <path class="cls-4" d="M176.93,137.04h1.35v-3.04h2.53v3.04h1.67v1.71h-1.67v5.17c0,.72.4.97.97.97.32,0,.76-.02.76-.02v1.9s-.59.04-1.62.04c-1.25,0-2.64-.49-2.64-2.34v-5.72h-1.35v-1.71Z"/>
        <path class="cls-4" d="M183.26,141.92c0-2.91,2.07-5.15,5.09-5.15s5.09,2.24,5.09,5.15-2.07,5.15-5.09,5.15-5.09-2.24-5.09-5.15ZM190.82,141.92c0-1.9-.89-3.19-2.47-3.19s-2.47,1.29-2.47,3.19.87,3.17,2.47,3.17,2.47-1.27,2.47-3.17Z"/>
        <path class="cls-4" d="M197.36,141.92c0-2.91,1.9-5.15,4.86-5.15,2.53,0,4.08,1.46,4.43,3.57h-2.53c-.17-.85-.84-1.5-1.79-1.5-1.56,0-2.36,1.2-2.36,3.08s.74,3.08,2.32,3.08c1.04,0,1.79-.55,1.96-1.65h2.49c-.17,2.07-1.79,3.72-4.39,3.72-3.08,0-5-2.24-5-5.15Z"/>
        <path class="cls-4" d="M207.39,141.92c0-2.91,2.07-5.15,5.09-5.15s5.09,2.24,5.09,5.15-2.07,5.15-5.09,5.15-5.09-2.24-5.09-5.15ZM214.95,141.92c0-1.9-.89-3.19-2.47-3.19s-2.47,1.29-2.47,3.19.87,3.17,2.47,3.17,2.47-1.27,2.47-3.17Z"/>
        <path class="cls-4" d="M221.3,138.37h.06c.67-1.04,1.56-1.6,2.89-1.6,2.01,0,3.36,1.52,3.36,3.65v6.36h-2.58v-5.98c0-1.04-.61-1.79-1.69-1.79-1.14,0-1.98.91-1.98,2.24v5.53h-2.58v-9.75h2.53v1.33Z"/>
        <path class="cls-4" d="M231.73,138.37h.06c.67-1.04,1.56-1.6,2.89-1.6,2.01,0,3.36,1.52,3.36,3.65v6.36h-2.58v-5.98c0-1.04-.61-1.79-1.69-1.79-1.14,0-1.98.91-1.98,2.24v5.53h-2.58v-9.75h2.53v1.33Z"/>
        <path class="cls-4" d="M239.16,141.9c0-2.89,1.96-5.13,4.81-5.13,3.13,0,4.81,2.39,4.81,5.87h-7.07c.19,1.5,1.03,2.43,2.49,2.43,1.01,0,1.6-.46,1.88-1.2h2.55c-.36,1.73-1.9,3.19-4.41,3.19-3.23,0-5.05-2.26-5.05-5.17ZM241.74,140.86h4.33c-.08-1.24-.89-2.09-2.07-2.09-1.37,0-2.03.82-2.26,2.09Z"/>
        <path class="cls-4" d="M249.49,141.92c0-2.91,1.9-5.15,4.86-5.15,2.53,0,4.08,1.46,4.43,3.57h-2.53c-.17-.85-.84-1.5-1.79-1.5-1.56,0-2.36,1.2-2.36,3.08s.74,3.08,2.32,3.08c1.04,0,1.79-.55,1.96-1.65h2.49c-.17,2.07-1.79,3.72-4.39,3.72-3.08,0-5-2.24-5-5.15Z"/>
        <path class="cls-4" d="M259.43,137.04h1.35v-3.04h2.53v3.04h1.67v1.71h-1.67v5.17c0,.72.4.97.97.97.32,0,.76-.02.76-.02v1.9s-.59.04-1.61.04c-1.25,0-2.64-.49-2.64-2.34v-5.72h-1.35v-1.71Z"/>
        <path class="cls-4" d="M266.33,144.03h2.77v2.75h-2.77v-2.75Z"/>
        <path class="cls-4" d="M274.04,133.2h2.75v13.58h-2.75v-13.58Z"/>
        <path class="cls-4" d="M278.13,137.04h1.35v-3.04h2.53v3.04h1.67v1.71h-1.67v5.17c0,.72.4.97.97.97.32,0,.76-.02.76-.02v1.9s-.59.04-1.61.04c-1.25,0-2.64-.49-2.64-2.34v-5.72h-1.35v-1.71Z"/>
        <path class="cls-4" d="M284.87,137.4c.59-.19,1.29-.8,1.29-1.73h-1.25v-2.47h2.56v2.24c0,1.73-1.33,2.64-2.6,2.85v-.89Z"/>
        <path class="cls-4" d="M287.47,143.63h2.39c.17,1.12.97,1.61,2.13,1.61s1.79-.44,1.79-1.12c0-.93-1.23-1.03-2.56-1.29-1.75-.34-3.46-.82-3.46-2.94s1.75-3.12,3.97-3.12c2.56,0,3.99,1.27,4.18,3.23h-2.34c-.11-1.04-.78-1.42-1.88-1.42-1.01,0-1.67.38-1.67,1.08,0,.84,1.29.91,2.68,1.2,1.63.34,3.44.8,3.44,3.08,0,1.96-1.67,3.13-4.1,3.13-2.83,0-4.41-1.37-4.56-3.44Z"/>
      </g>
      <g>
        <path class="cls-4" d="M44.18,170.71h-.04c-.49.74-1.2,1.31-2.87,1.31-1.99,0-3.4-1.04-3.4-2.98,0-2.15,1.75-2.83,3.91-3.13,1.61-.23,2.36-.36,2.36-1.1,0-.7-.55-1.16-1.63-1.16-1.22,0-1.8.44-1.88,1.37h-2.3c.08-1.71,1.35-3.21,4.2-3.21s4.1,1.31,4.1,3.59v4.96c0,.74.11,1.18.34,1.35v.09h-2.49c-.15-.19-.25-.65-.3-1.08ZM44.2,168.35v-1.46c-.46.27-1.16.42-1.8.57-1.35.3-2.01.61-2.01,1.52s.61,1.23,1.52,1.23c1.48,0,2.3-.91,2.3-1.86Z"/>
        <path class="cls-4" d="M50.85,168.64h2.39c.17,1.12.97,1.61,2.13,1.61s1.79-.44,1.79-1.12c0-.93-1.23-1.03-2.56-1.29-1.75-.34-3.46-.82-3.46-2.94s1.75-3.12,3.97-3.12c2.56,0,3.99,1.27,4.18,3.23h-2.34c-.11-1.04-.78-1.42-1.88-1.42-1.01,0-1.67.38-1.67,1.08,0,.84,1.29.91,2.68,1.2,1.63.34,3.44.8,3.44,3.08,0,1.96-1.67,3.13-4.1,3.13-2.83,0-4.41-1.37-4.56-3.44Z"/>
        <path class="cls-4" d="M60.67,162.04h2.49v1.22h.06c.63-.86,1.54-1.48,2.87-1.48,2.58,0,4.24,2.11,4.24,5.15s-1.71,5.15-4.22,5.15c-1.37,0-2.26-.55-2.81-1.39h-.04v4.29h-2.58v-12.94ZM67.7,167c0-1.84-.65-3.13-2.24-3.13s-2.26,1.39-2.26,3.13.82,2.93,2.36,2.93c1.31,0,2.15-1.08,2.15-2.93Z"/>
        <path class="cls-4" d="M77.35,170.71h-.04c-.49.74-1.2,1.31-2.87,1.31-2,0-3.4-1.04-3.4-2.98,0-2.15,1.75-2.83,3.91-3.13,1.62-.23,2.36-.36,2.36-1.1,0-.7-.55-1.16-1.63-1.16-1.22,0-1.8.44-1.88,1.37h-2.3c.08-1.71,1.35-3.21,4.2-3.21s4.1,1.31,4.1,3.59v4.96c0,.74.11,1.18.34,1.35v.09h-2.49c-.15-.19-.25-.65-.3-1.08ZM77.37,168.35v-1.46c-.46.27-1.16.42-1.8.57-1.35.3-2.01.61-2.01,1.52s.61,1.23,1.52,1.23c1.48,0,2.3-.91,2.3-1.86Z"/>
        <path class="cls-4" d="M80.97,166.93c0-2.91,1.9-5.15,4.86-5.15,2.53,0,4.08,1.46,4.43,3.57h-2.53c-.17-.85-.84-1.5-1.79-1.5-1.56,0-2.36,1.2-2.36,3.08s.74,3.08,2.32,3.08c1.04,0,1.79-.55,1.96-1.65h2.49c-.17,2.07-1.79,3.72-4.39,3.72-3.08,0-5-2.24-5-5.15Z"/>
        <path class="cls-4" d="M91,166.91c0-2.89,1.96-5.13,4.81-5.13,3.13,0,4.81,2.39,4.81,5.87h-7.07c.19,1.5,1.03,2.43,2.49,2.43,1.01,0,1.6-.46,1.88-1.2h2.55c-.36,1.73-1.9,3.19-4.41,3.19-3.23,0-5.05-2.26-5.05-5.17ZM93.58,165.86h4.33c-.08-1.24-.89-2.09-2.07-2.09-1.37,0-2.03.82-2.26,2.09Z"/>
        <path class="cls-4" d="M104.24,162.04h2.56l1.18,4.52c.21.8.44,1.82.44,1.82h.04s.21-1.04.42-1.84l1.22-4.5h2.2l1.27,4.5c.21.82.46,1.84.46,1.84h.04s.23-1.03.44-1.82l1.23-4.52h2.51l-2.91,9.75h-2.36l-1.29-4.79c-.21-.78-.44-1.69-.44-1.69h-.04s-.25.91-.46,1.69l-1.33,4.79h-2.34l-2.85-9.75Z"/>
        <path class="cls-4" d="M121.74,163.32h.06c.7-1.03,1.5-1.54,2.83-1.54,2.01,0,3.36,1.52,3.36,3.65v6.36h-2.58v-5.98c0-1.04-.61-1.79-1.69-1.79-1.14,0-1.98.91-1.98,2.24v5.53h-2.58v-13.58h2.58v5.11Z"/>
        <path class="cls-4" d="M129.11,166.91c0-2.89,1.96-5.13,4.81-5.13,3.13,0,4.81,2.39,4.81,5.87h-7.07c.19,1.5,1.03,2.43,2.49,2.43,1.01,0,1.6-.46,1.88-1.2h2.55c-.36,1.73-1.9,3.19-4.41,3.19-3.23,0-5.05-2.26-5.05-5.17ZM131.69,165.86h4.33c-.08-1.24-.89-2.09-2.07-2.09-1.37,0-2.03.82-2.26,2.09Z"/>
        <path class="cls-4" d="M142.41,163.6h.06c.59-1.1,1.25-1.67,2.39-1.67.29,0,.46.02.61.08v2.26h-.06c-1.69-.17-2.91.72-2.91,2.77v4.75h-2.58v-9.75h2.49v1.56Z"/>
        <path class="cls-4" d="M145.83,166.91c0-2.89,1.96-5.13,4.81-5.13,3.13,0,4.81,2.39,4.81,5.87h-7.07c.19,1.5,1.03,2.43,2.49,2.43,1.01,0,1.6-.46,1.88-1.2h2.55c-.36,1.73-1.9,3.19-4.41,3.19-3.23,0-5.05-2.26-5.05-5.17ZM148.41,165.86h4.33c-.08-1.24-.89-2.09-2.07-2.09-1.37,0-2.03.82-2.26,2.09Z"/>
        <path class="cls-4" d="M159.36,166.93c0-2.91,1.9-5.15,4.86-5.15,2.53,0,4.08,1.46,4.43,3.57h-2.53c-.17-.85-.84-1.5-1.79-1.5-1.56,0-2.36,1.2-2.36,3.08s.74,3.08,2.32,3.08c1.04,0,1.79-.55,1.96-1.65h2.49c-.17,2.07-1.79,3.72-4.39,3.72-3.08,0-5-2.24-5-5.15Z"/>
        <path class="cls-4" d="M172.35,163.6h.06c.59-1.1,1.25-1.67,2.39-1.67.28,0,.46.02.61.08v2.26h-.06c-1.69-.17-2.91.72-2.91,2.77v4.75h-2.58v-9.75h2.49v1.56Z"/>
        <path class="cls-4" d="M175.77,166.91c0-2.89,1.96-5.13,4.81-5.13,3.13,0,4.81,2.39,4.81,5.87h-7.07c.19,1.5,1.03,2.43,2.49,2.43,1.01,0,1.6-.46,1.88-1.2h2.55c-.36,1.73-1.9,3.19-4.41,3.19-3.23,0-5.05-2.26-5.05-5.17ZM178.36,165.86h4.33c-.08-1.24-.89-2.09-2.07-2.09-1.37,0-2.03.82-2.26,2.09Z"/>
        <path class="cls-4" d="M192.42,170.71h-.04c-.49.74-1.2,1.31-2.87,1.31-1.99,0-3.4-1.04-3.4-2.98,0-2.15,1.75-2.83,3.91-3.13,1.61-.23,2.36-.36,2.36-1.1,0-.7-.55-1.16-1.63-1.16-1.22,0-1.8.44-1.88,1.37h-2.3c.08-1.71,1.35-3.21,4.2-3.21s4.1,1.31,4.1,3.59v4.96c0,.74.11,1.18.34,1.35v.09h-2.49c-.15-.19-.25-.65-.3-1.08ZM192.44,168.35v-1.46c-.46.27-1.16.42-1.8.57-1.35.3-2.01.61-2.01,1.52s.61,1.23,1.52,1.23c1.48,0,2.3-.91,2.3-1.86Z"/>
        <path class="cls-4" d="M195.76,162.04h1.35v-3.04h2.53v3.04h1.67v1.71h-1.67v5.17c0,.72.4.97.97.97.32,0,.76-.02.76-.02v1.9s-.59.04-1.61.04c-1.25,0-2.64-.49-2.64-2.34v-5.72h-1.35v-1.71Z"/>
        <path class="cls-4" d="M202.64,158.21h2.58v2.32h-2.58v-2.32ZM202.64,162.04h2.58v9.75h-2.58v-9.75Z"/>
        <path class="cls-4" d="M206.1,162.04h2.62l1.56,5.05c.29.93.44,1.56.44,1.56h.04s.13-.63.42-1.56l1.6-5.05h2.58l-3.4,9.75h-2.47l-3.38-9.75Z"/>
        <path class="cls-4" d="M215.47,166.91c0-2.89,1.96-5.13,4.81-5.13,3.13,0,4.81,2.39,4.81,5.87h-7.07c.19,1.5,1.03,2.43,2.49,2.43,1.01,0,1.6-.46,1.88-1.2h2.55c-.36,1.73-1.9,3.19-4.41,3.19-3.23,0-5.05-2.26-5.05-5.17ZM218.05,165.86h4.33c-.08-1.24-.89-2.09-2.07-2.09-1.37,0-2.03.82-2.26,2.09Z"/>
        <path class="cls-4" d="M225.67,168.64h2.39c.17,1.12.97,1.61,2.13,1.61s1.79-.44,1.79-1.12c0-.93-1.24-1.03-2.57-1.29-1.75-.34-3.46-.82-3.46-2.94s1.75-3.12,3.97-3.12c2.56,0,3.99,1.27,4.18,3.23h-2.34c-.11-1.04-.78-1.42-1.88-1.42-1.01,0-1.67.38-1.67,1.08,0,.84,1.29.91,2.68,1.2,1.63.34,3.44.8,3.44,3.08,0,1.96-1.67,3.13-4.1,3.13-2.83,0-4.41-1.37-4.56-3.44Z"/>
        <path class="cls-4" d="M238.21,166.93c0-2.91,1.9-5.15,4.86-5.15,2.53,0,4.08,1.46,4.43,3.57h-2.53c-.17-.85-.84-1.5-1.79-1.5-1.56,0-2.36,1.2-2.36,3.08s.74,3.08,2.32,3.08c1.04,0,1.79-.55,1.96-1.65h2.49c-.17,2.07-1.79,3.72-4.39,3.72-3.08,0-5-2.24-5-5.15Z"/>
        <path class="cls-4" d="M248.24,166.93c0-2.91,2.07-5.15,5.09-5.15s5.09,2.24,5.09,5.15-2.07,5.15-5.09,5.15-5.09-2.24-5.09-5.15ZM255.8,166.93c0-1.9-.89-3.19-2.47-3.19s-2.47,1.29-2.47,3.19.87,3.17,2.47,3.17,2.47-1.27,2.47-3.17Z"/>
        <path class="cls-4" d="M259.62,162.04h2.49v1.31h.06c.53-.89,1.48-1.58,2.83-1.58,1.24,0,2.22.68,2.7,1.71h.04c.67-1.06,1.69-1.71,2.92-1.71,2.05,0,3.21,1.33,3.21,3.46v6.55h-2.58v-6.12c0-1.1-.55-1.67-1.5-1.67-1.08,0-1.75.84-1.75,2.13v5.66h-2.58v-6.12c0-1.1-.55-1.67-1.5-1.67-1.04,0-1.75.84-1.75,2.13v5.66h-2.58v-9.75Z"/>
        <path class="cls-4" d="M274.99,166.91c0-2.89,1.96-5.13,4.81-5.13,3.13,0,4.81,2.39,4.81,5.87h-7.07c.19,1.5,1.03,2.43,2.49,2.43,1.01,0,1.6-.46,1.88-1.2h2.55c-.36,1.73-1.9,3.19-4.41,3.19-3.23,0-5.05-2.26-5.05-5.17ZM277.58,165.86h4.33c-.08-1.24-.89-2.09-2.07-2.09-1.37,0-2.03.82-2.26,2.09Z"/>
      </g>
      <g>
        <path class="cls-4" d="M37.78,187.05h1.35v-3.04h2.53v3.04h1.67v1.71h-1.67v5.17c0,.72.4.97.97.97.32,0,.76-.02.76-.02v1.9s-.59.04-1.62.04c-1.25,0-2.64-.49-2.64-2.34v-5.72h-1.35v-1.71Z"/>
        <path class="cls-4" d="M44.11,191.93c0-2.91,2.07-5.15,5.09-5.15s5.09,2.24,5.09,5.15-2.07,5.15-5.09,5.15-5.09-2.24-5.09-5.15ZM51.67,191.93c0-1.9-.89-3.19-2.47-3.19s-2.47,1.29-2.47,3.19.87,3.17,2.47,3.17,2.47-1.27,2.47-3.17Z"/>
        <path class="cls-4" d="M55.22,197.08h2.57c.21.61.76,1.08,1.96,1.08,1.46,0,2.17-.7,2.17-2.03v-1.06h-.06c-.57.65-1.31,1.14-2.54,1.14-2.17,0-4.29-1.71-4.29-4.65s1.75-4.77,4.22-4.77c1.22,0,2.11.48,2.7,1.29h.04v-1.03h2.49v9c0,1.37-.44,2.3-1.16,2.96-.82.76-2.07,1.1-3.51,1.1-2.66,0-4.29-1.14-4.56-3.04ZM62.04,191.49c0-1.42-.76-2.64-2.32-2.64-1.31,0-2.18,1.03-2.18,2.66s.87,2.62,2.2,2.62c1.63,0,2.3-1.2,2.3-2.64Z"/>
        <path class="cls-4" d="M65.65,191.91c0-2.89,1.96-5.13,4.81-5.13,3.13,0,4.81,2.39,4.81,5.87h-7.07c.19,1.5,1.03,2.43,2.49,2.43,1.01,0,1.6-.46,1.88-1.2h2.55c-.36,1.73-1.9,3.19-4.41,3.19-3.23,0-5.05-2.26-5.05-5.17ZM68.24,190.87h4.33c-.08-1.24-.89-2.09-2.07-2.09-1.37,0-2.03.82-2.26,2.09Z"/>
        <path class="cls-4" d="M75.72,187.05h1.35v-3.04h2.53v3.04h1.67v1.71h-1.67v5.17c0,.72.4.97.97.97.32,0,.76-.02.76-.02v1.9s-.59.04-1.62.04c-1.25,0-2.64-.49-2.64-2.34v-5.72h-1.35v-1.71Z"/>
        <path class="cls-4" d="M85.18,188.32h.06c.7-1.03,1.5-1.54,2.83-1.54,2.01,0,3.36,1.52,3.36,3.65v6.36h-2.58v-5.98c0-1.04-.61-1.79-1.69-1.79-1.14,0-1.98.91-1.98,2.24v5.53h-2.58v-13.58h2.58v5.11Z"/>
        <path class="cls-4" d="M92.56,191.91c0-2.89,1.96-5.13,4.81-5.13,3.13,0,4.81,2.39,4.81,5.87h-7.07c.19,1.5,1.03,2.43,2.49,2.43,1.01,0,1.6-.46,1.88-1.2h2.55c-.36,1.73-1.9,3.19-4.41,3.19-3.23,0-5.05-2.26-5.05-5.17ZM95.14,190.87h4.33c-.08-1.24-.89-2.09-2.07-2.09-1.37,0-2.03.82-2.26,2.09Z"/>
        <path class="cls-4" d="M105.85,188.61h.06c.59-1.1,1.25-1.67,2.39-1.67.28,0,.46.02.61.08v2.26h-.06c-1.69-.17-2.91.72-2.91,2.77v4.75h-2.58v-9.75h2.49v1.56Z"/>
        <path class="cls-4" d="M112.66,187.05h1.35v-3.04h2.53v3.04h1.67v1.71h-1.67v5.17c0,.72.4.97.97.97.32,0,.76-.02.76-.02v1.9s-.59.04-1.62.04c-1.25,0-2.64-.49-2.64-2.34v-5.72h-1.35v-1.71Z"/>
        <path class="cls-4" d="M118.98,191.93c0-2.91,2.07-5.15,5.09-5.15s5.09,2.24,5.09,5.15-2.07,5.15-5.09,5.15-5.09-2.24-5.09-5.15ZM126.55,191.93c0-1.9-.89-3.19-2.47-3.19s-2.47,1.29-2.47,3.19.87,3.17,2.47,3.17,2.47-1.27,2.47-3.17Z"/>
        <path class="cls-4" d="M133.08,191.93c0-3.04,1.73-5.15,4.16-5.15,1.37,0,2.22.63,2.75,1.44h.06v-5.02h2.58v13.58h-2.49v-1.27h-.04c-.57.93-1.54,1.56-2.91,1.56-2.45,0-4.12-2-4.12-5.15ZM140.11,191.99c0-1.86-.61-3.12-2.26-3.12-1.42,0-2.15,1.25-2.15,3.06s.74,2.98,2.07,2.98c1.54,0,2.34-1.14,2.34-2.93Z"/>
        <path class="cls-4" d="M144.31,183.21h2.58v2.32h-2.58v-2.32ZM144.31,187.05h2.58v9.75h-2.58v-9.75Z"/>
        <path class="cls-4" d="M147.96,193.64h2.39c.17,1.12.97,1.61,2.13,1.61s1.79-.44,1.79-1.12c0-.93-1.23-1.03-2.56-1.29-1.75-.34-3.46-.82-3.46-2.94s1.75-3.12,3.97-3.12c2.56,0,3.99,1.27,4.18,3.23h-2.34c-.11-1.04-.78-1.42-1.88-1.42-1.01,0-1.67.38-1.67,1.08,0,.84,1.29.91,2.68,1.2,1.63.34,3.44.8,3.44,3.08,0,1.96-1.67,3.13-4.1,3.13-2.83,0-4.41-1.37-4.56-3.44Z"/>
        <path class="cls-4" d="M157.38,191.93c0-2.91,1.9-5.15,4.86-5.15,2.53,0,4.08,1.46,4.43,3.57h-2.53c-.17-.85-.84-1.5-1.79-1.5-1.56,0-2.36,1.2-2.36,3.08s.74,3.08,2.32,3.08c1.04,0,1.79-.55,1.96-1.65h2.49c-.17,2.07-1.79,3.72-4.39,3.72-3.08,0-5-2.24-5-5.15Z"/>
        <path class="cls-4" d="M167.41,191.93c0-2.91,2.07-5.15,5.09-5.15s5.09,2.24,5.09,5.15-2.07,5.15-5.09,5.15-5.09-2.24-5.09-5.15ZM174.98,191.93c0-1.9-.89-3.19-2.47-3.19s-2.47,1.29-2.47,3.19.87,3.17,2.47,3.17,2.47-1.27,2.47-3.17Z"/>
        <path class="cls-4" d="M177.73,187.05h2.62l1.56,5.05c.29.93.44,1.56.44,1.56h.04s.13-.63.42-1.56l1.6-5.05h2.58l-3.4,9.75h-2.47l-3.38-9.75Z"/>
        <path class="cls-4" d="M187.12,191.91c0-2.89,1.96-5.13,4.81-5.13,3.13,0,4.81,2.39,4.81,5.87h-7.07c.19,1.5,1.03,2.43,2.49,2.43,1.01,0,1.6-.46,1.88-1.2h2.55c-.36,1.73-1.9,3.19-4.41,3.19-3.23,0-5.05-2.26-5.05-5.17ZM189.7,190.87h4.33c-.08-1.24-.89-2.09-2.07-2.09-1.37,0-2.03.82-2.26,2.09Z"/>
        <path class="cls-4" d="M200.42,188.61h.06c.59-1.1,1.25-1.67,2.39-1.67.29,0,.46.02.61.08v2.26h-.06c-1.69-.17-2.91.72-2.91,2.77v4.75h-2.58v-9.75h2.49v1.56Z"/>
        <path class="cls-4" d="M213.62,195.71h-.04c-.49.74-1.2,1.31-2.87,1.31-1.99,0-3.4-1.04-3.4-2.98,0-2.15,1.75-2.83,3.91-3.13,1.61-.23,2.36-.36,2.36-1.1,0-.7-.55-1.16-1.63-1.16-1.22,0-1.8.44-1.88,1.37h-2.3c.08-1.71,1.35-3.21,4.2-3.21s4.1,1.31,4.1,3.59v4.96c0,.74.11,1.18.34,1.35v.09h-2.49c-.15-.19-.25-.65-.3-1.08ZM213.64,193.36v-1.46c-.46.27-1.16.42-1.8.57-1.35.3-2.01.61-2.01,1.52s.61,1.23,1.52,1.23c1.48,0,2.3-.91,2.3-1.86Z"/>
        <path class="cls-4" d="M220.2,188.61h.06c.59-1.1,1.25-1.67,2.39-1.67.29,0,.46.02.61.08v2.26h-.06c-1.69-.17-2.91.72-2.91,2.77v4.75h-2.58v-9.75h2.49v1.56Z"/>
        <path class="cls-4" d="M223.9,187.05h1.35v-3.04h2.53v3.04h1.67v1.71h-1.67v5.17c0,.72.4.97.97.97.32,0,.76-.02.76-.02v1.9s-.59.04-1.62.04c-1.25,0-2.64-.49-2.64-2.34v-5.72h-1.35v-1.71Z"/>
        <path class="cls-4" d="M230.82,199.02c.74-.38,1.37-1.04,1.37-2.22h-1.39v-2.75h2.77v2.6c0,1.94-1.29,3.04-2.75,3.31v-.93Z"/>
        <path class="cls-4" d="M238.28,183.21h2.58v2.32h-2.58v-2.32ZM238.28,187.05h2.58v9.75h-2.58v-9.75Z"/>
        <path class="cls-4" d="M245.07,188.38h.06c.67-1.04,1.56-1.6,2.89-1.6,2.01,0,3.36,1.52,3.36,3.65v6.36h-2.58v-5.98c0-1.04-.61-1.79-1.69-1.79-1.14,0-1.98.91-1.98,2.24v5.53h-2.58v-9.75h2.53v1.33Z"/>
        <path class="cls-4" d="M252.36,193.64h2.39c.17,1.12.97,1.61,2.13,1.61s1.79-.44,1.79-1.12c0-.93-1.23-1.03-2.56-1.29-1.75-.34-3.46-.82-3.46-2.94s1.75-3.12,3.97-3.12c2.56,0,3.99,1.27,4.18,3.23h-2.34c-.11-1.04-.78-1.42-1.88-1.42-1.01,0-1.67.38-1.67,1.08,0,.84,1.29.91,2.68,1.2,1.63.34,3.44.8,3.44,3.08,0,1.96-1.67,3.13-4.1,3.13-2.83,0-4.41-1.37-4.56-3.44Z"/>
        <path class="cls-4" d="M262.18,187.05h2.49v1.22h.06c.63-.86,1.54-1.48,2.87-1.48,2.58,0,4.24,2.11,4.24,5.15s-1.71,5.15-4.22,5.15c-1.37,0-2.26-.55-2.81-1.39h-.04v4.29h-2.58v-12.94ZM269.21,192.01c0-1.84-.65-3.13-2.24-3.13s-2.26,1.39-2.26,3.13.82,2.93,2.36,2.93c1.31,0,2.15-1.08,2.15-2.93Z"/>
        <path class="cls-4" d="M273.03,183.21h2.58v2.32h-2.58v-2.32ZM273.03,187.05h2.58v9.75h-2.58v-9.75Z"/>
        <path class="cls-4" d="M279.78,188.61h.06c.59-1.1,1.25-1.67,2.39-1.67.29,0,.46.02.61.08v2.26h-.06c-1.69-.17-2.91.72-2.91,2.77v4.75h-2.58v-9.75h2.49v1.56Z"/>
        <path class="cls-4" d="M283.2,191.91c0-2.89,1.96-5.13,4.81-5.13,3.13,0,4.81,2.39,4.81,5.87h-7.07c.19,1.5,1.03,2.43,2.49,2.43,1.01,0,1.6-.46,1.88-1.2h2.55c-.36,1.73-1.9,3.19-4.41,3.19-3.23,0-5.05-2.26-5.05-5.17ZM285.78,190.87h4.33c-.08-1.24-.89-2.09-2.07-2.09-1.37,0-2.03.82-2.26,2.09Z"/>
      </g>
      <g>
        <path class="cls-4" d="M37.87,216.94c0-2.91,2.07-5.15,5.09-5.15s5.09,2.24,5.09,5.15-2.07,5.15-5.09,5.15-5.09-2.24-5.09-5.15ZM45.44,216.94c0-1.9-.89-3.19-2.47-3.19s-2.47,1.29-2.47,3.19.87,3.17,2.47,3.17,2.47-1.27,2.47-3.17Z"/>
        <path class="cls-4" d="M51.78,213.38h.06c.67-1.04,1.56-1.6,2.89-1.6,2.01,0,3.36,1.52,3.36,3.65v6.36h-2.58v-5.98c0-1.04-.61-1.79-1.69-1.79-1.14,0-1.98.91-1.98,2.24v5.53h-2.58v-9.75h2.53v1.33Z"/>
        <path class="cls-4" d="M59.21,216.92c0-2.89,1.96-5.13,4.81-5.13,3.13,0,4.81,2.39,4.81,5.87h-7.07c.19,1.5,1.03,2.43,2.49,2.43,1.01,0,1.6-.46,1.88-1.2h2.55c-.36,1.73-1.9,3.19-4.41,3.19-3.23,0-5.05-2.26-5.05-5.17ZM61.8,215.87h4.33c-.08-1.24-.89-2.09-2.07-2.09-1.37,0-2.03.82-2.26,2.09Z"/>
        <path class="cls-4" d="M79.05,220.72h-.04c-.49.74-1.2,1.31-2.87,1.31-2,0-3.4-1.04-3.4-2.98,0-2.15,1.75-2.83,3.91-3.13,1.62-.23,2.36-.36,2.36-1.1,0-.7-.55-1.16-1.63-1.16-1.22,0-1.8.44-1.88,1.37h-2.3c.08-1.71,1.35-3.21,4.2-3.21s4.1,1.31,4.1,3.59v4.96c0,.74.11,1.18.34,1.35v.09h-2.49c-.15-.19-.25-.65-.3-1.08ZM79.07,218.36v-1.46c-.46.27-1.16.42-1.8.57-1.35.3-2.01.61-2.01,1.52s.61,1.23,1.52,1.23c1.48,0,2.3-.91,2.3-1.86Z"/>
        <path class="cls-4" d="M85.66,213.38h.06c.67-1.04,1.56-1.6,2.89-1.6,2.01,0,3.36,1.52,3.36,3.65v6.36h-2.58v-5.98c0-1.04-.61-1.79-1.69-1.79-1.14,0-1.98.91-1.98,2.24v5.53h-2.58v-9.75h2.53v1.33Z"/>
        <path class="cls-4" d="M93.09,216.94c0-2.91,2.07-5.15,5.09-5.15s5.09,2.24,5.09,5.15-2.07,5.15-5.09,5.15-5.09-2.24-5.09-5.15ZM100.65,216.94c0-1.9-.89-3.19-2.47-3.19s-2.47,1.29-2.47,3.19.87,3.17,2.47,3.17,2.47-1.27,2.47-3.17Z"/>
        <path class="cls-4" d="M103.73,212.05h1.35v-3.04h2.53v3.04h1.67v1.71h-1.67v5.17c0,.72.4.97.97.97.32,0,.76-.02.76-.02v1.9s-.59.04-1.62.04c-1.25,0-2.64-.49-2.64-2.34v-5.72h-1.35v-1.71Z"/>
        <path class="cls-4" d="M113.19,213.33h.06c.7-1.03,1.5-1.54,2.83-1.54,2.01,0,3.36,1.52,3.36,3.65v6.36h-2.58v-5.98c0-1.04-.61-1.79-1.69-1.79-1.14,0-1.98.91-1.98,2.24v5.53h-2.58v-13.58h2.58v5.11Z"/>
        <path class="cls-4" d="M120.56,216.92c0-2.89,1.96-5.13,4.81-5.13,3.13,0,4.81,2.39,4.81,5.87h-7.07c.19,1.5,1.03,2.43,2.49,2.43,1.01,0,1.6-.46,1.88-1.2h2.55c-.36,1.73-1.9,3.19-4.41,3.19-3.23,0-5.05-2.26-5.05-5.17ZM123.14,215.87h4.33c-.08-1.24-.89-2.09-2.07-2.09-1.37,0-2.03.82-2.26,2.09Z"/>
        <path class="cls-4" d="M133.86,213.61h.06c.59-1.1,1.25-1.67,2.39-1.67.28,0,.46.02.61.08v2.26h-.06c-1.69-.17-2.91.72-2.91,2.77v4.75h-2.58v-9.75h2.49v1.56Z"/>
        <path class="cls-4" d="M136.77,224.02c.74-.38,1.37-1.04,1.37-2.22h-1.39v-2.75h2.77v2.6c0,1.94-1.29,3.04-2.75,3.31v-.93Z"/>
        <path class="cls-4" d="M150.07,220.72h-.04c-.49.74-1.2,1.31-2.87,1.31-2,0-3.4-1.04-3.4-2.98,0-2.15,1.75-2.83,3.91-3.13,1.62-.23,2.36-.36,2.36-1.1,0-.7-.55-1.16-1.63-1.16-1.22,0-1.8.44-1.88,1.37h-2.3c.08-1.71,1.35-3.21,4.2-3.21s4.1,1.31,4.1,3.59v4.96c0,.74.11,1.18.34,1.35v.09h-2.49c-.15-.19-.25-.65-.3-1.08ZM150.09,218.36v-1.46c-.46.27-1.16.42-1.8.57-1.35.3-2.01.61-2.01,1.52s.61,1.23,1.52,1.23c1.48,0,2.3-.91,2.3-1.86Z"/>
        <path class="cls-4" d="M156.68,213.38h.06c.67-1.04,1.56-1.6,2.89-1.6,2.01,0,3.36,1.52,3.36,3.65v6.36h-2.58v-5.98c0-1.04-.61-1.79-1.69-1.79-1.14,0-1.98.91-1.98,2.24v5.53h-2.58v-9.75h2.53v1.33Z"/>
        <path class="cls-4" d="M164.11,216.94c0-3.04,1.73-5.15,4.16-5.15,1.37,0,2.22.63,2.75,1.44h.06v-5.02h2.58v13.58h-2.49v-1.27h-.04c-.57.93-1.54,1.56-2.91,1.56-2.45,0-4.12-2-4.12-5.15ZM171.14,216.99c0-1.86-.61-3.12-2.26-3.12-1.42,0-2.15,1.25-2.15,3.06s.74,2.98,2.07,2.98c1.54,0,2.34-1.14,2.34-2.93Z"/>
        <path class="cls-4" d="M181.06,213.38h.06c.67-1.04,1.56-1.6,2.89-1.6,2.01,0,3.36,1.52,3.36,3.65v6.36h-2.58v-5.98c0-1.04-.61-1.79-1.69-1.79-1.14,0-1.98.91-1.98,2.24v5.53h-2.58v-9.75h2.53v1.33Z"/>
        <path class="cls-4" d="M188.49,216.92c0-2.89,1.96-5.13,4.81-5.13,3.13,0,4.81,2.39,4.81,5.87h-7.07c.19,1.5,1.03,2.43,2.49,2.43,1.01,0,1.6-.46,1.88-1.2h2.55c-.36,1.73-1.9,3.19-4.41,3.19-3.23,0-5.05-2.26-5.05-5.17ZM191.07,215.87h4.33c-.08-1.24-.89-2.09-2.07-2.09-1.37,0-2.03.82-2.26,2.09Z"/>
        <path class="cls-4" d="M198.55,212.05h1.35v-3.04h2.53v3.04h1.67v1.71h-1.67v5.17c0,.72.4.97.97.97.32,0,.76-.02.76-.02v1.9s-.59.04-1.62.04c-1.25,0-2.64-.49-2.64-2.34v-5.72h-1.35v-1.71Z"/>
        <path class="cls-4" d="M204.96,212.05h2.56l1.18,4.52c.21.8.44,1.82.44,1.82h.04s.21-1.04.42-1.84l1.22-4.5h2.2l1.27,4.5c.21.82.46,1.84.46,1.84h.04s.23-1.03.44-1.82l1.24-4.52h2.51l-2.91,9.75h-2.36l-1.29-4.79c-.21-.78-.44-1.69-.44-1.69h-.04s-.25.91-.46,1.69l-1.33,4.79h-2.34l-2.85-9.75Z"/>
        <path class="cls-4" d="M219.11,216.94c0-2.91,2.07-5.15,5.09-5.15s5.09,2.24,5.09,5.15-2.07,5.15-5.09,5.15-5.09-2.24-5.09-5.15ZM226.67,216.94c0-1.9-.89-3.19-2.47-3.19s-2.47,1.29-2.47,3.19.87,3.17,2.47,3.17,2.47-1.27,2.47-3.17Z"/>
        <path class="cls-4" d="M232.98,213.61h.06c.59-1.1,1.25-1.67,2.39-1.67.29,0,.46.02.61.08v2.26h-.06c-1.69-.17-2.91.72-2.91,2.77v4.75h-2.58v-9.75h2.49v1.56Z"/>
        <path class="cls-4" d="M240.85,217.35l-1.12,1.16v3.29h-2.56v-13.58h2.56v7.52l3.46-3.68h3.1l-3.59,3.7,4.03,6.04h-3.13l-2.74-4.45Z"/>
        <path class="cls-4" d="M247.46,219.04h2.77v2.75h-2.77v-2.75Z"/>
        <path class="cls-4" d="M255.16,208.22h6.08c1.46,0,2.58.36,3.29.99.74.66,1.08,1.48,1.08,2.54,0,1.39-.85,2.28-2.13,2.72v.06c1.5.44,2.53,1.69,2.53,3.36,0,1.27-.4,2.15-1.2,2.83-.78.68-1.98,1.08-3.42,1.08h-6.23v-13.58ZM260.89,213.69c1.2,0,2.01-.57,2.01-1.63,0-1.01-.74-1.6-1.96-1.6h-3.04v3.23h2.98ZM257.91,219.52h3.17c1.33,0,2.13-.74,2.13-1.84,0-1.29-.95-1.96-2.2-1.96h-3.1v3.8Z"/>
        <path class="cls-4" d="M267.54,222.96h.91c1.03,0,1.44-.53,1.44-1.33,0-.53-.19-1.16-.74-2.64l-2.62-6.93h2.72l1.44,4.39c.3.89.63,2.13.63,2.13h.04s.27-1.23.57-2.13l1.37-4.39h2.6l-3.4,9.99c-.74,2.17-1.46,2.94-3.44,2.94h-1.52v-2.03Z"/>
      </g>
      <g>
        <path class="cls-4" d="M37.87,241.94c0-3.04,1.73-5.15,4.16-5.15,1.37,0,2.22.63,2.75,1.44h.06v-5.02h2.58v13.58h-2.49v-1.27h-.04c-.57.93-1.54,1.56-2.91,1.56-2.45,0-4.12-2-4.12-5.15ZM44.9,242c0-1.86-.61-3.12-2.26-3.12-1.42,0-2.15,1.25-2.15,3.06s.74,2.98,2.07,2.98c1.54,0,2.34-1.14,2.34-2.93Z"/>
        <path class="cls-4" d="M48.63,241.94c0-2.91,2.07-5.15,5.09-5.15s5.09,2.24,5.09,5.15-2.07,5.15-5.09,5.15-5.09-2.24-5.09-5.15ZM56.19,241.94c0-1.9-.89-3.19-2.47-3.19s-2.47,1.29-2.47,3.19.87,3.17,2.47,3.17,2.47-1.27,2.47-3.17Z"/>
        <path class="cls-4" d="M60.01,233.22h2.58v2.32h-2.58v-2.32ZM60.01,237.06h2.58v9.75h-2.58v-9.75Z"/>
        <path class="cls-4" d="M66.79,238.39h.06c.67-1.04,1.56-1.6,2.89-1.6,2.01,0,3.36,1.52,3.36,3.65v6.36h-2.58v-5.98c0-1.04-.61-1.79-1.69-1.79-1.14,0-1.98.91-1.98,2.24v5.53h-2.58v-9.75h2.53v1.33Z"/>
        <path class="cls-4" d="M74.43,247.09h2.57c.21.61.76,1.08,1.96,1.08,1.46,0,2.17-.7,2.17-2.03v-1.06h-.06c-.57.65-1.31,1.14-2.54,1.14-2.17,0-4.29-1.71-4.29-4.65s1.75-4.77,4.22-4.77c1.22,0,2.11.48,2.7,1.29h.04v-1.03h2.49v9c0,1.37-.44,2.3-1.16,2.96-.82.76-2.07,1.1-3.51,1.1-2.66,0-4.29-1.14-4.56-3.04ZM81.25,241.5c0-1.42-.76-2.64-2.32-2.64-1.31,0-2.18,1.03-2.18,2.66s.87,2.62,2.2,2.62c1.63,0,2.3-1.2,2.3-2.64Z"/>
        <path class="cls-4" d="M87.92,243.65h2.39c.17,1.12.97,1.61,2.13,1.61s1.79-.44,1.79-1.12c0-.93-1.24-1.03-2.57-1.29-1.75-.34-3.46-.82-3.46-2.94s1.75-3.12,3.97-3.12c2.56,0,3.99,1.27,4.18,3.23h-2.34c-.11-1.04-.78-1.42-1.88-1.42-1.01,0-1.67.38-1.67,1.08,0,.84,1.29.91,2.68,1.2,1.63.34,3.44.8,3.44,3.08,0,1.96-1.67,3.13-4.1,3.13-2.83,0-4.41-1.37-4.56-3.44Z"/>
        <path class="cls-4" d="M97.36,241.94c0-2.91,2.07-5.15,5.09-5.15s5.09,2.24,5.09,5.15-2.07,5.15-5.09,5.15-5.09-2.24-5.09-5.15ZM104.92,241.94c0-1.9-.89-3.19-2.47-3.19s-2.47,1.29-2.47,3.19.87,3.17,2.47,3.17,2.47-1.27,2.47-3.17Z"/>
        <path class="cls-4" d="M108.25,249.03c.74-.38,1.37-1.04,1.37-2.22h-1.39v-2.75h2.77v2.6c0,1.94-1.29,3.04-2.75,3.31v-.93Z"/>
        <path class="cls-4" d="M114.96,237.06h2.56l1.18,4.52c.21.8.44,1.82.44,1.82h.04s.21-1.04.42-1.84l1.22-4.5h2.2l1.27,4.5c.21.82.46,1.84.46,1.84h.04s.23-1.03.44-1.82l1.23-4.52h2.51l-2.91,9.75h-2.36l-1.29-4.79c-.21-.78-.44-1.69-.44-1.69h-.04s-.25.91-.46,1.69l-1.33,4.79h-2.34l-2.85-9.75Z"/>
        <path class="cls-4" d="M129.11,241.92c0-2.89,1.96-5.13,4.81-5.13,3.13,0,4.81,2.39,4.81,5.87h-7.07c.19,1.5,1.03,2.43,2.49,2.43,1.01,0,1.6-.46,1.88-1.2h2.55c-.36,1.73-1.9,3.19-4.41,3.19-3.23,0-5.05-2.26-5.05-5.17ZM131.69,240.88h4.33c-.08-1.24-.89-2.09-2.07-2.09-1.37,0-2.03.82-2.26,2.09Z"/>
        <path class="cls-4" d="M142.64,241.94c0-2.91,1.9-5.15,4.86-5.15,2.53,0,4.08,1.46,4.43,3.57h-2.53c-.17-.85-.84-1.5-1.79-1.5-1.56,0-2.36,1.2-2.36,3.08s.74,3.08,2.32,3.08c1.04,0,1.79-.55,1.96-1.65h2.49c-.17,2.07-1.79,3.72-4.39,3.72-3.08,0-5-2.24-5-5.15Z"/>
        <path class="cls-4" d="M155.64,238.61h.06c.59-1.1,1.25-1.67,2.39-1.67.29,0,.46.02.61.08v2.26h-.06c-1.69-.17-2.91.72-2.91,2.77v4.75h-2.58v-9.75h2.49v1.56Z"/>
        <path class="cls-4" d="M159.05,241.92c0-2.89,1.96-5.13,4.81-5.13,3.13,0,4.81,2.39,4.81,5.87h-7.07c.19,1.5,1.03,2.43,2.49,2.43,1.01,0,1.6-.46,1.88-1.2h2.55c-.36,1.73-1.9,3.19-4.41,3.19-3.23,0-5.05-2.26-5.05-5.17ZM161.64,240.88h4.33c-.08-1.24-.89-2.09-2.07-2.09-1.37,0-2.03.82-2.26,2.09Z"/>
        <path class="cls-4" d="M175.7,245.72h-.04c-.49.74-1.2,1.31-2.87,1.31-2,0-3.4-1.04-3.4-2.98,0-2.15,1.75-2.83,3.91-3.13,1.62-.23,2.36-.36,2.36-1.1,0-.7-.55-1.16-1.63-1.16-1.22,0-1.8.44-1.88,1.37h-2.3c.08-1.71,1.35-3.21,4.2-3.21s4.1,1.31,4.1,3.59v4.96c0,.74.11,1.18.34,1.35v.09h-2.49c-.15-.19-.25-.65-.3-1.08ZM175.72,243.36v-1.46c-.46.27-1.16.42-1.8.57-1.35.3-2.01.61-2.01,1.52s.61,1.23,1.52,1.23c1.48,0,2.3-.91,2.3-1.86Z"/>
        <path class="cls-4" d="M179.04,237.06h1.35v-3.04h2.53v3.04h1.67v1.71h-1.67v5.17c0,.72.4.97.97.97.32,0,.76-.02.76-.02v1.9s-.59.04-1.61.04c-1.25,0-2.64-.49-2.64-2.34v-5.72h-1.35v-1.71Z"/>
        <path class="cls-4" d="M185.37,241.92c0-2.89,1.96-5.13,4.81-5.13,3.13,0,4.81,2.39,4.81,5.87h-7.07c.19,1.5,1.03,2.43,2.49,2.43,1.01,0,1.6-.46,1.88-1.2h2.55c-.36,1.73-1.9,3.19-4.41,3.19-3.23,0-5.05-2.26-5.05-5.17ZM187.95,240.88h4.33c-.08-1.24-.89-2.09-2.07-2.09-1.37,0-2.03.82-2.26,2.09Z"/>
        <path class="cls-4" d="M205.2,245.72h-.04c-.49.74-1.2,1.31-2.87,1.31-1.99,0-3.4-1.04-3.4-2.98,0-2.15,1.75-2.83,3.91-3.13,1.61-.23,2.36-.36,2.36-1.1,0-.7-.55-1.16-1.63-1.16-1.22,0-1.8.44-1.88,1.37h-2.3c.08-1.71,1.35-3.21,4.2-3.21s4.1,1.31,4.1,3.59v4.96c0,.74.11,1.18.34,1.35v.09h-2.49c-.15-.19-.25-.65-.3-1.08ZM205.22,243.36v-1.46c-.46.27-1.16.42-1.8.57-1.35.3-2.01.61-2.01,1.52s.61,1.23,1.52,1.23c1.48,0,2.3-.91,2.3-1.86Z"/>
        <path class="cls-4" d="M212.48,237.06h2.49v1.22h.06c.63-.86,1.54-1.48,2.87-1.48,2.58,0,4.24,2.11,4.24,5.15s-1.71,5.15-4.22,5.15c-1.37,0-2.26-.55-2.81-1.39h-.04v4.29h-2.58v-12.94ZM219.51,242.02c0-1.84-.65-3.13-2.24-3.13s-2.26,1.39-2.26,3.13.82,2.93,2.36,2.93c1.31,0,2.15-1.08,2.15-2.93Z"/>
        <path class="cls-4" d="M225.91,238.33h.06c.7-1.03,1.5-1.54,2.83-1.54,2.01,0,3.36,1.52,3.36,3.65v6.36h-2.58v-5.98c0-1.04-.61-1.79-1.69-1.79-1.14,0-1.98.91-1.98,2.24v5.53h-2.58v-13.58h2.58v5.11Z"/>
        <path class="cls-4" d="M233.78,247.96h.91c1.03,0,1.44-.53,1.44-1.33,0-.53-.19-1.16-.74-2.64l-2.62-6.93h2.72l1.44,4.39c.3.89.63,2.13.63,2.13h.04s.27-1.23.57-2.13l1.37-4.39h2.6l-3.4,9.99c-.74,2.17-1.46,2.94-3.44,2.94h-1.52v-2.03Z"/>
        <path class="cls-4" d="M242.31,243.65h2.39c.17,1.12.97,1.61,2.13,1.61s1.79-.44,1.79-1.12c0-.93-1.24-1.03-2.57-1.29-1.75-.34-3.46-.82-3.46-2.94s1.75-3.12,3.97-3.12c2.56,0,3.99,1.27,4.18,3.23h-2.34c-.11-1.04-.78-1.42-1.88-1.42-1.01,0-1.67.38-1.67,1.08,0,.84,1.29.91,2.68,1.2,1.63.34,3.44.8,3.44,3.08,0,1.96-1.67,3.13-4.1,3.13-2.83,0-4.41-1.37-4.56-3.44Z"/>
        <path class="cls-4" d="M252.14,233.22h2.58v2.32h-2.58v-2.32ZM252.14,237.06h2.58v9.75h-2.58v-9.75Z"/>
        <path class="cls-4" d="M255.92,241.94c0-2.91,1.9-5.15,4.86-5.15,2.53,0,4.08,1.46,4.43,3.57h-2.53c-.17-.85-.84-1.5-1.79-1.5-1.56,0-2.36,1.2-2.36,3.08s.74,3.08,2.32,3.08c1.04,0,1.79-.55,1.96-1.65h2.49c-.17,2.07-1.79,3.72-4.39,3.72-3.08,0-5-2.24-5-5.15Z"/>
        <path class="cls-4" d="M272.44,245.72h-.04c-.49.74-1.2,1.31-2.87,1.31-1.99,0-3.4-1.04-3.4-2.98,0-2.15,1.75-2.83,3.91-3.13,1.61-.23,2.36-.36,2.36-1.1,0-.7-.55-1.16-1.63-1.16-1.22,0-1.8.44-1.88,1.37h-2.3c.08-1.71,1.35-3.21,4.2-3.21s4.1,1.31,4.1,3.59v4.96c0,.74.11,1.18.34,1.35v.09h-2.49c-.15-.19-.25-.65-.3-1.08ZM272.46,243.36v-1.46c-.46.27-1.16.42-1.8.57-1.35.3-2.01.61-2.01,1.52s.61,1.23,1.52,1.23c1.48,0,2.3-.91,2.3-1.86Z"/>
        <path class="cls-4" d="M276.57,233.22h2.58v13.58h-2.58v-13.58Z"/>
        <path class="cls-4" d="M286.64,238.33h.06c.7-1.03,1.5-1.54,2.83-1.54,2.01,0,3.36,1.52,3.36,3.65v6.36h-2.58v-5.98c0-1.04-.61-1.79-1.69-1.79-1.14,0-1.98.91-1.98,2.24v5.53h-2.58v-13.58h2.58v5.11Z"/>
        <path class="cls-4" d="M300.64,246.8v-1.14h-.06c-.67.89-1.42,1.41-2.79,1.41-2.17,0-3.38-1.39-3.38-3.51v-6.5h2.56v6.06c0,1.14.51,1.77,1.62,1.77,1.22,0,1.96-.91,1.96-2.2v-5.62h2.58v9.75h-2.49Z"/>
        <path class="cls-4" d="M307.33,245.59h-.04v1.22h-2.49v-13.58h2.58v5.02h.06c.53-.82,1.37-1.44,2.72-1.44,2.45,0,4.2,2.11,4.2,5.15s-1.67,5.15-4.12,5.15c-1.37,0-2.34-.59-2.91-1.5ZM311.74,241.94c0-1.8-.72-3.06-2.17-3.06-1.63,0-2.24,1.31-2.24,3.12s.89,2.93,2.34,2.93c1.33,0,2.07-1.1,2.07-2.98Z"/>
      </g>
      <g>
        <path class="cls-4" d="M37.78,262.06h1.33v-.87c0-2.38,1.84-3.21,4.33-2.95v2c-1.22-.06-1.75.09-1.75,1.1v.72h1.75v1.79h-1.75v7.96h-2.58v-7.96h-1.33v-1.79Z"/>
        <path class="cls-4" d="M43.88,266.94c0-2.91,2.07-5.15,5.09-5.15s5.09,2.24,5.09,5.15-2.07,5.15-5.09,5.15-5.09-2.24-5.09-5.15ZM51.44,266.94c0-1.9-.89-3.19-2.47-3.19s-2.47,1.29-2.47,3.19.87,3.17,2.47,3.17,2.47-1.27,2.47-3.17Z"/>
        <path class="cls-4" d="M57.75,263.62h.06c.59-1.1,1.25-1.67,2.39-1.67.29,0,.46.02.61.08v2.26h-.06c-1.69-.17-2.91.72-2.91,2.77v4.75h-2.58v-9.75h2.49v1.56Z"/>
        <path class="cls-4" d="M64.64,266.94c0-2.91,1.9-5.15,4.86-5.15,2.53,0,4.08,1.46,4.43,3.57h-2.53c-.17-.85-.84-1.5-1.79-1.5-1.56,0-2.36,1.2-2.36,3.08s.74,3.08,2.32,3.08c1.04,0,1.79-.55,1.96-1.65h2.49c-.17,2.07-1.79,3.72-4.39,3.72-3.08,0-5-2.24-5-5.15Z"/>
        <path class="cls-4" d="M74.68,266.94c0-2.91,2.07-5.15,5.09-5.15s5.09,2.24,5.09,5.15-2.07,5.15-5.09,5.15-5.09-2.24-5.09-5.15ZM82.24,266.94c0-1.9-.89-3.19-2.47-3.19s-2.47,1.29-2.47,3.19.87,3.17,2.47,3.17,2.47-1.27,2.47-3.17Z"/>
        <path class="cls-4" d="M88.58,263.39h.06c.67-1.04,1.56-1.6,2.89-1.6,2.01,0,3.36,1.52,3.36,3.65v6.36h-2.58v-5.98c0-1.04-.61-1.79-1.69-1.79-1.14,0-1.98.91-1.98,2.24v5.53h-2.58v-9.75h2.53v1.33Z"/>
        <path class="cls-4" d="M99.01,263.39h.06c.67-1.04,1.56-1.6,2.89-1.6,2.01,0,3.36,1.52,3.36,3.65v6.36h-2.58v-5.98c0-1.04-.61-1.79-1.69-1.79-1.14,0-1.98.91-1.98,2.24v5.53h-2.58v-9.75h2.53v1.33Z"/>
        <path class="cls-4" d="M106.44,266.92c0-2.89,1.96-5.13,4.81-5.13,3.13,0,4.81,2.39,4.81,5.87h-7.07c.19,1.5,1.03,2.43,2.49,2.43,1.01,0,1.6-.46,1.88-1.2h2.55c-.36,1.73-1.9,3.19-4.41,3.19-3.23,0-5.05-2.26-5.05-5.17ZM109.03,265.88h4.33c-.08-1.24-.89-2.09-2.07-2.09-1.37,0-2.03.82-2.26,2.09Z"/>
        <path class="cls-4" d="M116.78,266.94c0-2.91,1.9-5.15,4.86-5.15,2.53,0,4.08,1.46,4.43,3.57h-2.53c-.17-.85-.84-1.5-1.79-1.5-1.56,0-2.36,1.2-2.36,3.08s.74,3.08,2.32,3.08c1.04,0,1.79-.55,1.96-1.65h2.49c-.17,2.07-1.79,3.72-4.39,3.72-3.08,0-5-2.24-5-5.15Z"/>
        <path class="cls-4" d="M126.72,262.06h1.35v-3.04h2.53v3.04h1.67v1.71h-1.67v5.17c0,.72.4.97.97.97.32,0,.76-.02.76-.02v1.9s-.59.04-1.61.04c-1.25,0-2.64-.49-2.64-2.34v-5.72h-1.35v-1.71Z"/>
        <path class="cls-4" d="M133.6,258.22h2.58v2.32h-2.58v-2.32ZM133.6,262.06h2.58v9.75h-2.58v-9.75Z"/>
        <path class="cls-4" d="M137.38,266.94c0-2.91,2.07-5.15,5.09-5.15s5.09,2.24,5.09,5.15-2.07,5.15-5.09,5.15-5.09-2.24-5.09-5.15ZM144.94,266.94c0-1.9-.89-3.19-2.47-3.19s-2.47,1.29-2.47,3.19.87,3.17,2.47,3.17,2.47-1.27,2.47-3.17Z"/>
        <path class="cls-4" d="M151.28,263.39h.06c.67-1.04,1.56-1.6,2.89-1.6,2.01,0,3.36,1.52,3.36,3.65v6.36h-2.58v-5.98c0-1.04-.61-1.79-1.69-1.79-1.14,0-1.98.91-1.98,2.24v5.53h-2.58v-9.75h2.53v1.33Z"/>
        <path class="cls-4" d="M168.21,270.72h-.04c-.49.74-1.2,1.31-2.87,1.31-1.99,0-3.4-1.04-3.4-2.98,0-2.15,1.75-2.83,3.91-3.13,1.61-.23,2.36-.36,2.36-1.1,0-.7-.55-1.16-1.63-1.16-1.22,0-1.8.44-1.88,1.37h-2.3c.08-1.71,1.35-3.21,4.2-3.21s4.1,1.31,4.1,3.59v4.96c0,.74.11,1.18.34,1.35v.09h-2.49c-.15-.19-.25-.65-.3-1.08ZM168.23,268.37v-1.46c-.46.27-1.16.42-1.8.57-1.35.3-2.01.61-2.01,1.52s.61,1.23,1.52,1.23c1.48,0,2.3-.91,2.3-1.86Z"/>
        <path class="cls-4" d="M174.82,263.39h.06c.67-1.04,1.56-1.6,2.89-1.6,2.01,0,3.36,1.52,3.36,3.65v6.36h-2.58v-5.98c0-1.04-.61-1.79-1.69-1.79-1.14,0-1.98.91-1.98,2.24v5.53h-2.58v-9.75h2.53v1.33Z"/>
        <path class="cls-4" d="M182.25,266.94c0-3.04,1.73-5.15,4.16-5.15,1.37,0,2.22.63,2.75,1.44h.06v-5.02h2.58v13.58h-2.49v-1.27h-.04c-.57.93-1.54,1.56-2.91,1.56-2.45,0-4.12-2-4.12-5.15ZM189.28,267c0-1.86-.61-3.12-2.26-3.12-1.42,0-2.15,1.25-2.15,3.06s.74,2.98,2.07,2.98c1.54,0,2.34-1.14,2.34-2.93Z"/>
        <path class="cls-4" d="M196.2,266.94c0-2.91,1.9-5.15,4.86-5.15,2.53,0,4.08,1.46,4.43,3.57h-2.53c-.17-.85-.84-1.5-1.79-1.5-1.56,0-2.36,1.2-2.36,3.08s.74,3.08,2.32,3.08c1.04,0,1.79-.55,1.96-1.65h2.49c-.17,2.07-1.79,3.72-4.39,3.72-3.08,0-5-2.24-5-5.15Z"/>
        <path class="cls-4" d="M209.2,263.62h.06c.59-1.1,1.25-1.67,2.39-1.67.29,0,.46.02.61.08v2.26h-.06c-1.69-.17-2.91.72-2.91,2.77v4.75h-2.58v-9.75h2.49v1.56Z"/>
        <path class="cls-4" d="M212.62,266.92c0-2.89,1.96-5.13,4.81-5.13,3.13,0,4.81,2.39,4.81,5.87h-7.07c.19,1.5,1.03,2.43,2.49,2.43,1.01,0,1.6-.46,1.88-1.2h2.55c-.36,1.73-1.9,3.19-4.41,3.19-3.23,0-5.05-2.26-5.05-5.17ZM215.2,265.88h4.33c-.08-1.24-.89-2.09-2.07-2.09-1.37,0-2.03.82-2.26,2.09Z"/>
        <path class="cls-4" d="M229.26,270.72h-.04c-.49.74-1.2,1.31-2.87,1.31-2,0-3.4-1.04-3.4-2.98,0-2.15,1.75-2.83,3.91-3.13,1.62-.23,2.36-.36,2.36-1.1,0-.7-.55-1.16-1.63-1.16-1.22,0-1.8.44-1.88,1.37h-2.3c.08-1.71,1.35-3.21,4.2-3.21s4.1,1.31,4.1,3.59v4.96c0,.74.11,1.18.34,1.35v.09h-2.49c-.15-.19-.25-.65-.3-1.08ZM229.28,268.37v-1.46c-.46.27-1.16.42-1.8.57-1.35.3-2.01.61-2.01,1.52s.61,1.23,1.52,1.23c1.48,0,2.3-.91,2.3-1.86Z"/>
        <path class="cls-4" d="M232.6,262.06h1.35v-3.04h2.53v3.04h1.67v1.71h-1.67v5.17c0,.72.4.97.97.97.32,0,.76-.02.76-.02v1.9s-.59.04-1.61.04c-1.25,0-2.64-.49-2.64-2.34v-5.72h-1.35v-1.71Z"/>
        <path class="cls-4" d="M239.48,258.22h2.58v2.32h-2.58v-2.32ZM239.48,262.06h2.58v9.75h-2.58v-9.75Z"/>
        <path class="cls-4" d="M242.94,262.06h2.62l1.56,5.05c.29.93.44,1.56.44,1.56h.04s.13-.63.42-1.56l1.6-5.05h2.58l-3.4,9.75h-2.47l-3.38-9.75Z"/>
        <path class="cls-4" d="M253.07,258.22h2.58v2.32h-2.58v-2.32ZM253.07,262.06h2.58v9.75h-2.58v-9.75Z"/>
        <path class="cls-4" d="M256.75,262.06h1.35v-3.04h2.53v3.04h1.67v1.71h-1.67v5.17c0,.72.4.97.97.97.32,0,.76-.02.76-.02v1.9s-.59.04-1.61.04c-1.25,0-2.64-.49-2.64-2.34v-5.72h-1.35v-1.71Z"/>
        <path class="cls-4" d="M264.01,272.97h.91c1.03,0,1.44-.53,1.44-1.33,0-.53-.19-1.16-.74-2.64l-2.62-6.93h2.72l1.44,4.39c.3.89.63,2.13.63,2.13h.04s.27-1.23.57-2.13l1.37-4.39h2.6l-3.4,9.99c-.74,2.17-1.46,2.94-3.44,2.94h-1.52v-2.03Z"/>
        <path class="cls-4" d="M272.07,269.05h2.77v2.75h-2.77v-2.75Z"/>
      </g>
    </g>
  </g>
</svg>