<?xml version="1.0" encoding="UTF-8"?>
<svg id="Layer_2" data-name="Layer 2" xmlns="http://www.w3.org/2000/svg" viewBox="0 0 166.37 67.9">
  <defs>
    <style>
      .cls-1 {
        fill: #231f20;
      }
    </style>
  </defs>
  <g id="Layer_1-2" data-name="Layer 1">
    <g>
      <g>
        <path class="cls-1" d="M2.33,25.88h2.11c2.38,0,3.34-1.23,3.34-3.08,0-1.23-.44-2.68-1.72-6.12L0,.62h6.29l3.34,10.17c.7,2.07,1.45,4.93,1.45,4.93h.09s.62-2.86,1.32-4.93L15.67.62h6.03l-7.88,23.15c-1.72,5.02-3.39,6.82-7.97,6.82h-3.52v-4.71Z"/>
        <path class="cls-1" d="M22,11.93c0-6.73,4.8-11.93,11.79-11.93s11.79,5.19,11.79,11.93-4.8,11.93-11.79,11.93-11.79-5.19-11.79-11.93ZM39.51,11.93c0-4.4-2.07-7.39-5.72-7.39s-5.72,2.99-5.72,7.39,2.02,7.35,5.72,7.35,5.72-2.95,5.72-7.35Z"/>
        <path class="cls-1" d="M62.61,23.19v-2.64h-.13c-1.54,2.07-3.3,3.26-6.47,3.26-5.02,0-7.83-3.21-7.83-8.14V.62h5.94v14.04c0,2.64,1.19,4.09,3.74,4.09,2.82,0,4.53-2.11,4.53-5.11V.62h5.98v22.58h-5.76Z"/>
      </g>
      <g>
        <path class="cls-1" d="M.75,48.93c0-6.73,4.4-11.93,11.27-11.93,5.85,0,9.46,3.39,10.25,8.27h-5.85c-.4-1.98-1.94-3.48-4.14-3.48-3.61,0-5.46,2.77-5.46,7.13s1.72,7.13,5.37,7.13c2.42,0,4.14-1.28,4.53-3.83h5.76c-.4,4.8-4.14,8.62-10.17,8.62-7.13,0-11.57-5.19-11.57-11.93Z"/>
        <path class="cls-1" d="M23.98,48.93c0-6.73,4.8-11.93,11.79-11.93s11.79,5.19,11.79,11.93-4.8,11.93-11.79,11.93-11.79-5.19-11.79-11.93ZM41.49,48.93c0-4.4-2.07-7.39-5.72-7.39s-5.72,2.99-5.72,7.39,2.02,7.35,5.72,7.35,5.72-2.95,5.72-7.35Z"/>
        <path class="cls-1" d="M50.34,37.62h5.76v3.04h.13c1.23-2.07,3.43-3.65,6.56-3.65,2.86,0,5.15,1.58,6.25,3.96h.09c1.54-2.46,3.92-3.96,6.78-3.96,4.75,0,7.44,3.08,7.44,8.01v15.18h-5.98v-14.17c0-2.55-1.28-3.87-3.48-3.87-2.51,0-4.05,1.94-4.05,4.93v13.11h-5.98v-14.17c0-2.55-1.28-3.87-3.48-3.87-2.42,0-4.05,1.94-4.05,4.93v13.11h-5.98v-22.58Z"/>
        <path class="cls-1" d="M87.03,28.73h5.98v5.37h-5.98v-5.37ZM87.03,37.62h5.98v22.58h-5.98v-22.58Z"/>
        <path class="cls-1" d="M102.74,40.7h.13c1.54-2.42,3.61-3.7,6.69-3.7,4.67,0,7.79,3.52,7.79,8.45v14.74h-5.98v-13.86c0-2.42-1.41-4.14-3.92-4.14-2.64,0-4.58,2.11-4.58,5.19v12.81h-5.99v-22.58h5.85v3.08Z"/>
        <path class="cls-1" d="M120.43,60.86h5.94c.48,1.41,1.76,2.51,4.53,2.51,3.39,0,5.02-1.63,5.02-4.71v-2.46h-.13c-1.32,1.5-3.04,2.64-5.9,2.64-5.02,0-9.95-3.96-9.95-10.78s4.05-11.05,9.77-11.05c2.82,0,4.88,1.1,6.25,2.99h.09v-2.38h5.76v20.86c0,3.17-1.01,5.32-2.68,6.86-1.89,1.76-4.8,2.55-8.14,2.55-6.16,0-9.95-2.64-10.56-7.04ZM136.23,47.92c0-3.3-1.76-6.12-5.37-6.12-3.04,0-5.06,2.38-5.06,6.16s2.02,6.07,5.11,6.07c3.78,0,5.32-2.77,5.32-6.12Z"/>
        <path class="cls-1" d="M156.82,42.64c1.89-1.36,3.56-2.42,3.56-5.1s-1.98-4.31-4.66-4.31c-3.26,0-5.46,2.07-5.5,5.5h-5.68c.13-5.85,3.96-10.56,11.13-10.56,6.73,0,10.69,4,10.69,9.2,0,4.36-2.29,6.12-4.18,7.57-3.3,2.51-4.58,2.95-4.58,6.07h-5.37c0-5.15,1.89-6.42,4.58-8.36ZM151.71,53.81h6.42v6.38h-6.42v-6.38Z"/>
      </g>
    </g>
  </g>
</svg>